<?xml version="1.0" standalone="no"?>
<!DOCTYPE svg PUBLIC "-//W3C//DTD SVG 1.1//EN" "http://www.w3.org/Graphics/SVG/1.1/DTD/svg11.dtd" >
<svg xmlns="http://www.w3.org/2000/svg">
<metadata>
This is a custom SVG webfont generated by Font Squirrel.
Copyright   : Copyright 2008 Process Type Foundry All rights reserved
Designer    : Eric Olson
Foundry     : Process Type Foundry
Foundry URL : httpwwwprocesstypefoundrycom
</metadata>
<defs>
<font id="ElderkinWFMBold" horiz-adv-x="870" >
<font-face units-per-em="2048" ascent="1638" descent="-410" />
<missing-glyph horiz-adv-x="327" />
<glyph unicode=" "  horiz-adv-x="327" />
<glyph unicode="&#x09;" horiz-adv-x="327" />
<glyph unicode="&#xa0;" horiz-adv-x="327" />
<glyph unicode="!" horiz-adv-x="444" d="M92 53v185q0 20 15.5 35.5t37.5 15.5h154q23 0 38 -15.5t15 -35.5v-185q0 -20 -16.5 -36.5t-36.5 -16.5h-154q-23 0 -38 16.5t-15 36.5zM92 905v506q0 20 15.5 35.5t37.5 15.5h154q23 0 38 -15t15 -36v-506q0 -47 -4 -104l-29 -322q-2 -20 -18 -36.5t-39 -16.5h-78 q-23 0 -39 16.5t-18 36.5l-29 322q-6 86 -6 104z" />
<glyph unicode="&#x22;" horiz-adv-x="792" d="M92 975v434q0 20 15.5 36.5t37.5 16.5h123q20 0 35.5 -15t15.5 -38v-434q0 -23 -15 -38t-36 -15h-123q-23 0 -38 16.5t-15 36.5zM473 975v434q0 20 15.5 36.5t37.5 16.5h123q20 0 35.5 -15t15.5 -38v-434q0 -23 -15 -38t-36 -15h-123q-23 0 -38 16.5t-15 36.5z" />
<glyph unicode="#" horiz-adv-x="1333" d="M45 426l18 123q4 23 21.5 38t38.5 15h125q23 0 41 15.5t20 35.5l17 125q4 23 -10.5 38t-34.5 15h-121q-23 0 -36 15.5t-11 36.5l18 125q2 20 19.5 35.5t39.5 15.5h123q20 0 38 15.5t22 37.5l43 299q2 20 19.5 35.5t39.5 15.5h131q23 0 35 -15t10 -36l-41 -299 q-4 -23 10.5 -38t34.5 -15h168q23 0 41.5 16.5t20.5 36.5l41 299q2 20 20.5 35.5t40.5 15.5h131q23 0 35 -15t10 -36l-41 -299q-4 -23 10.5 -38t34.5 -15h125q23 0 35 -15.5t10 -35.5l-18 -125q-2 -20 -19.5 -36t-39.5 -16h-125q-20 0 -38 -15t-22 -38l-18 -125 q-2 -20 10 -35.5t35 -15.5h123q20 0 34.5 -15.5t10.5 -37.5l-19 -123q-2 -20 -19.5 -35.5t-39.5 -15.5h-121q-23 0 -41 -16.5t-20 -36.5l-37 -271q-2 -20 -19.5 -35.5t-40.5 -15.5h-133q-23 0 -35 15.5t-10 35.5l39 271q2 20 -11 36.5t-36 16.5h-168q-20 0 -37.5 -15.5 t-21.5 -37.5l-39 -271q-2 -20 -19.5 -35.5t-40.5 -15.5h-131q-23 0 -36 15.5t-11 35.5l39 271q4 23 -10 38t-35 15h-125q-23 0 -36 15.5t-11 35.5zM545 653q-2 -20 11 -35.5t36 -15.5h168q23 0 40 15.5t19 35.5l19 125q4 23 -10.5 38t-34.5 15h-170q-20 0 -38 -15t-22 -38z " />
<glyph unicode="$" horiz-adv-x="921" d="M57 373v84q0 23 15.5 38t36.5 15h161q20 0 37 -15.5t17 -37.5v-82q0 -82 42 -122t95 -40q59 0 90 38t31 99q0 45 -34 97.5t-70 86t-100.5 87t-84.5 71.5q-143 133 -189.5 226.5t-46.5 207.5q0 133 76 226.5t213 122.5v141q0 23 15.5 38t37.5 15h123q23 0 38 -15.5 t15 -37.5v-146q121 -35 191 -135t68 -245l-3 -109q0 -23 -14 -37t-37 -14h-159q-23 0 -38.5 15.5t-15.5 35.5l2 109q2 61 -25.5 110t-99.5 49q-51 0 -79.5 -32.5t-28.5 -90.5q0 -53 29.5 -105t58.5 -80t104 -95q61 -55 78 -69.5t72 -68t75.5 -84t53.5 -80.5t45 -97.5 t12 -96.5q0 -129 -76.5 -229.5t-212.5 -130.5v-152q0 -20 -15 -35.5t-38 -15.5h-123q-23 0 -38 15.5t-15 35.5v152q-133 33 -211 136.5t-78 246.5z" />
<glyph unicode="%" horiz-adv-x="1697" d="M72 930v227q0 147 87 237.5t224 90.5t225 -90t88 -238v-227q0 -147 -88 -237.5t-225 -90.5t-224 90.5t-87 237.5zM315 899q0 -33 18.5 -51.5t49.5 -18.5t50.5 18.5t19.5 51.5v289q0 33 -19.5 51t-50.5 18t-49.5 -18t-18.5 -51v-289zM420 13.5q-8 13.5 0 33.5l612 1368 q23 47 74 47h131q23 0 31 -13t0 -34l-613 -1368q-23 -47 -73 -47h-131q-23 0 -31 13.5zM1001 305v227q0 147 87.5 237.5t224.5 90.5t225 -90t88 -238v-227q0 -147 -88 -237.5t-225 -90.5t-224.5 90.5t-87.5 237.5zM1245 274q0 -33 18.5 -51t49 -18t50 18.5t19.5 50.5v289 q0 33 -19.5 51.5t-50 18.5t-49 -18.5t-18.5 -51.5v-289z" />
<glyph unicode="&#x26;" horiz-adv-x="1130" d="M57 401q0 92 53.5 217t157.5 232q18 18 4 53q-63 150 -73 271q-12 152 72.5 231.5t238.5 79.5q133 0 213 -80t80 -211q0 -84 -44 -166t-151 -194q-18 -18 -10 -52q10 -29 43 -128t47 -138q4 -12 14 -12q12 0 13 16q10 147 10 305q0 31 33 31h141q35 0 35 -33 q0 -365 -92 -585q-4 -12 0 -23q20 -59 53 -51q35 6 14 80q-10 37 31 47l113 20q41 8 55 -30q41 -121 -30.5 -212.5t-213.5 -91.5q-84 0 -162 56q-8 8 -24 8q-14 0 -25 -8q-94 -57 -213 -58q-193 0 -288 119t-95 307zM315 403q0 -195 158 -194q49 0 70 33q6 10 0 22 q-14 33 -131 307q-6 16 -20.5 16.5t-22.5 -14.5q-54 -94 -54 -170zM442 1174q6 -57 41 -152q6 -14 17 -14q12 0 18 10q43 84 53 158q6 49 -12 74.5t-53 25.5q-78 0 -64 -102z" />
<glyph unicode="'" horiz-adv-x="411" d="M92 975v434q0 23 15.5 38t35.5 15h125q20 0 35.5 -15t15.5 -38v-434q0 -23 -15 -38t-36 -15h-125q-20 0 -35.5 15t-15.5 38z" />
<glyph unicode="(" horiz-adv-x="618" d="M102 618q0 571 308 1002q14 18 26 18q18 0 35 -10q35 -20 80 -55q16 -12 6 -41q-98 -246 -135 -445.5t-37 -468.5q0 -502 170 -894q10 -23 -6 -39q-4 -4 -33 -36t-41 -42q-14 -10 -29 -10q-20 0 -32 20q-312 483 -312 1001z" />
<glyph unicode=")" horiz-adv-x="618" d="M72 1532q-10 29 6 41q45 35 80 55q14 10 35 10q12 0 26 -18q307 -430 307 -1002q0 -518 -311 -1001q-12 -20 -33 -20q-14 0 -28 10q-12 10 -41 42t-33 36q-16 16 -6 39q170 393 170 894q0 268 -37 468t-135 446z" />
<glyph unicode="*" horiz-adv-x="917" d="M93 972.5q7 18.5 28 24.5l194 60q14 4 19.5 10t0.5 11t-20 9l-194 62q-20 6 -27.5 24.5t2.5 36.5l66 113q10 18 29.5 21.5t35.5 -11.5l152 -139q16 -14 23.5 -10t3.5 26l-46 201q-4 20 7.5 35.5t33.5 15.5h131q23 0 34.5 -15t6.5 -36l-45 -201q-4 -23 4.5 -26.5 t22.5 10.5l152 139q16 14 35.5 11t29.5 -21l66 -113q10 -18 3 -36.5t-28 -24.5l-195 -62q-12 -4 -17 -9t0 -11t17 -10l195 -60q20 -6 27.5 -24.5t-2.5 -36.5l-66 -113q-10 -18 -29.5 -21t-35.5 11l-152 139q-14 14 -22.5 10t-4.5 -26l45 -201q4 -20 -7 -35.5t-34 -15.5h-131 q-23 0 -34 15.5t-7 35.5l46 199q4 23 -4.5 27t-24.5 -11l-150 -137q-16 -14 -35.5 -11t-29.5 21l-66 113q-10 18 -3 36.5z" />
<glyph unicode="+" horiz-adv-x="1015" d="M82 573v146q0 23 16.5 38t36.5 15h195q23 0 38 15.5t15 37.5v195q0 20 15.5 36.5t37.5 16.5h146q20 0 35.5 -15.5t15.5 -37.5v-195q0 -23 15.5 -38t37.5 -15h195q20 0 36.5 -15.5t16.5 -37.5v-146q0 -20 -15.5 -35.5t-37.5 -15.5h-195q-23 0 -38 -15t-15 -38v-195 q0 -23 -15.5 -38t-35.5 -15h-146q-23 0 -38 16.5t-15 36.5v195q0 23 -15.5 38t-37.5 15h-195q-23 0 -38 15.5t-15 35.5z" />
<glyph unicode="," horiz-adv-x="421" d="M82 53v185q0 20 15.5 35.5t37.5 15.5h154q23 0 37 -15.5t14 -35.5v-238q0 -158 -55 -268q-16 -35 -58 -35q-35 0 -34 35q0 6 10 43q20 88 24 200q0 25 -26 25h-66q-20 0 -36.5 16.5t-16.5 36.5z" />
<glyph unicode="-" horiz-adv-x="712" d="M82 569v146q0 23 16.5 38t36.5 15h443q20 0 36.5 -15.5t16.5 -37.5v-146q0 -20 -16.5 -36.5t-36.5 -16.5h-443q-20 0 -36.5 16.5t-16.5 36.5z" />
<glyph unicode="." horiz-adv-x="444" d="M92 53v185q0 20 15.5 35.5t37.5 15.5h154q23 0 38 -15.5t15 -35.5v-185q0 -20 -16.5 -36.5t-36.5 -16.5h-154q-23 0 -38 16.5t-15 36.5z" />
<glyph unicode="/" horiz-adv-x="692" d="M49 27l377 1407q6 23 25.5 37t40.5 14h147q23 0 34 -15.5t5 -35.5l-377 -1407q-6 -20 -25.5 -36t-42.5 -16h-145q-23 0 -34 16t-5 36z" />
<glyph unicode="0" horiz-adv-x="948" d="M78 365v731q0 170 107.5 279.5t287.5 109.5t288.5 -109.5t108.5 -279.5v-731q0 -170 -108.5 -280t-288.5 -110t-287.5 110t-107.5 280zM367 365q0 -57 26.5 -97.5t79.5 -40.5t80 40t27 98v731q0 57 -27 97t-80 40t-79.5 -40t-26.5 -97v-731z" />
<glyph unicode="1" horiz-adv-x="610" d="M-20 1157v131q0 57 51 70q141 35 194 74q41 31 76 30h154q23 0 38 -15t15 -38v-1356q0 -20 -16.5 -36.5t-36.5 -16.5h-185q-20 0 -36.5 16.5t-16.5 36.5v1045q0 45 -47 35q-76 -16 -137 -21q-20 -2 -36.5 10t-16.5 35z" />
<glyph unicode="2" horiz-adv-x="915" d="M61 53q0 55 8.5 108.5t17.5 92.5t34 88l37 74q12 25 48 74t46 63t54 65.5t50 59.5q111 135 156 215t45 174v45q0 137 -106.5 137t-106.5 -137v-76q0 -20 -16.5 -36.5t-36.5 -16.5h-168q-20 0 -36.5 16.5t-16.5 36.5v84q0 158 98 261.5t283 103.5q186 0 287.5 -115 t101.5 -295q0 -104 -37 -200.5t-74 -148.5t-119 -155q-129 -164 -186 -264q-12 -25 -2 -40t37 -15h342q23 0 38 -15.5t15 -37.5v-146q0 -20 -15.5 -36.5t-37.5 -16.5h-686q-23 0 -38.5 15t-15.5 38z" />
<glyph unicode="3" horiz-adv-x="915" d="M61 356v101q0 20 15.5 35.5t38.5 15.5h168q23 0 38 -15.5t15 -35.5v-86q0 -43 5 -72t32.5 -54.5t77.5 -25.5q72 0 93 42t21 110v131q0 43 -5 71.5t-32.5 54t-76.5 25.5h-93q-23 0 -38 15.5t-15 38.5v114q0 23 15.5 38t37.5 15h93q106 0 106 146v90q0 137 -106.5 137 t-106.5 -137v-61q0 -20 -16.5 -37t-36.5 -17h-162q-20 0 -35.5 15.5t-15.5 38.5v69q0 160 94 263.5t279 103.5q186 0 287.5 -116t101.5 -296q0 -160 -101 -266q-10 -10 -10 -29q0 -16 10 -24q115 -109 115 -314q0 -213 -102.5 -339t-300.5 -126q-174 0 -282 106.5 t-108 274.5z" />
<glyph unicode="4" horiz-adv-x="933" d="M31 381v131q0 53 18 100l320 803q18 47 71 47h260q23 0 38.5 -15t15.5 -36v-795q0 -23 16 -38t37 -15h43q23 0 38 -15.5t15 -35.5v-131q0 -20 -15.5 -36.5t-37.5 -16.5h-43q-20 0 -36.5 -16.5t-16.5 -37.5v-221q0 -20 -16.5 -36.5t-37.5 -16.5h-184q-20 0 -35.5 15.5 t-15.5 37.5v221q0 20 -15.5 37t-37.5 17h-330q-20 0 -35.5 15t-15.5 38zM256 612q-8 -20 2 -34.5t31 -14.5h123q53 0 53 53v488q0 23 -16.5 22.5t-22.5 -18.5z" />
<glyph unicode="5" horiz-adv-x="901" d="M72 365v47q0 23 15 37t36 14h178q23 0 37 -14.5t14 -36.5v-78q0 -121 101 -121q98 0 98 121v274q0 123 -102 123q-53 0 -84 -31q-35 -35 -80 -26q-10 2 -66.5 14t-66.5 14q-59 14 -56 80q0 20 29 629q2 23 17.5 37t37.5 14h592q23 0 38 -15t15 -38v-133q0 -23 -15 -38 t-38 -15h-344q-41 0 -45 -56q0 -8 -6 -174q0 -35 8 -43q10 -14 47 -4q16 4 49 4q160 0 259.5 -109.5t99.5 -277.5v-184q0 -176 -99.5 -290t-287.5 -114q-182 0 -281.5 109t-99.5 281z" />
<glyph unicode="6" horiz-adv-x="946" d="M82 365v731q0 170 108.5 279.5t288.5 109.5q178 0 283.5 -109.5t105.5 -279.5v-33q0 -20 -15 -35.5t-38 -15.5h-176q-23 0 -38 15t-15 36v41q0 55 -27 92t-80 37t-79.5 -37t-26.5 -92v-240q0 -14 14 -20t29 2q57 37 123 37q166 0 250.5 -97.5t84.5 -257.5v-163 q0 -176 -107.5 -283t-287.5 -107q-182 0 -289.5 106t-107.5 284zM373 342q0 -123 106.5 -123t106.5 123v197q0 123 -106.5 123t-106.5 -123v-197z" />
<glyph unicode="7" horiz-adv-x="802" d="M41 1280v129q0 23 15.5 38t37.5 15h635q23 0 38 -15t15 -38v-160q0 -12 -16 -49q-127 -262 -192.5 -529.5t-65.5 -617.5q0 -23 -15.5 -38t-37.5 -15h-174q-23 0 -38.5 15.5t-15.5 37.5q0 168 18.5 312.5t67.5 304t78 237.5t107 273q6 16 -5.5 31.5t-37.5 15.5h-361 q-23 0 -38 15t-15 38z" />
<glyph unicode="8" horiz-adv-x="972" d="M82 440q0 205 115 314q12 12 12 28q0 14 -12 27q-96 109 -97 274q0 180 99.5 291t286 111t285.5 -110.5t99 -291.5q0 -176 -94 -276q-12 -12 -12 -28.5t12 -24.5q115 -109 115 -314q0 -213 -103.5 -339t-302 -126t-301 126t-102.5 339zM373 371q0 -33 3 -53.5t13 -46 t35 -39t61 -13.5q72 0 93.5 42t21.5 110v131q0 43 -5 71.5t-32.5 54t-77.5 25.5q-37 0 -61.5 -13t-34.5 -39t-13 -46t-3 -53v-131zM379 1020q0 -137 106 -137q109 0 109 137v90q0 137 -109 137q-106 0 -106 -137v-90z" />
<glyph unicode="9" horiz-adv-x="946" d="M80 938v158q0 174 107.5 281.5t287.5 107.5q182 0 289.5 -104.5t107.5 -276.5v-731q0 -174 -108.5 -286t-288.5 -112q-186 0 -292.5 111t-96.5 279l2 32q2 23 16.5 37.5t34.5 14.5h178q23 0 37.5 -15.5t14.5 -36.5v-41q0 -55 26.5 -92t79.5 -37t80 37t27 92v248 q0 14 -14.5 20.5t-28.5 -1.5q-57 -37 -123 -37q-166 0 -251 96t-85 256zM369 928q0 -121 106.5 -121t106.5 121v190q0 123 -106.5 123t-106.5 -123v-190z" />
<glyph unicode=":" horiz-adv-x="442" d="M92 53v185q0 20 15.5 35.5t35.5 15.5h154q23 0 38 -15.5t15 -35.5v-185q0 -20 -15.5 -36.5t-37.5 -16.5h-154q-20 0 -35.5 15t-15.5 38zM92 700v185q0 23 15.5 38t35.5 15h154q23 0 38 -16.5t15 -36.5v-185q0 -20 -15.5 -36.5t-37.5 -16.5h-154q-20 0 -35.5 15t-15.5 38z " />
<glyph unicode=";" horiz-adv-x="442" d="M92 53v185q0 20 15.5 35.5t35.5 15.5h154q23 0 38 -15.5t15 -35.5v-238q0 -158 -55 -268q-16 -35 -57 -35q-37 0 -37 35l12 43q18 78 23 200q0 25 -27 25h-66q-20 0 -35.5 15t-15.5 38zM92 700v185q0 23 15.5 38t35.5 15h154q23 0 38 -16.5t15 -36.5v-185 q0 -20 -15.5 -36.5t-37.5 -16.5h-154q-20 0 -35.5 15t-15.5 38z" />
<glyph unicode="&#x3c;" horiz-adv-x="661" d="M61 748q0 31 11 45l297 481q16 25 43 24q14 0 28 -8l123 -73q18 -10 23.5 -33t-6.5 -41l-224 -350q-12 -18 -12 -45q0 -25 12 -43l224 -353q12 -18 7 -38.5t-24 -32.5l-121 -76q-14 -8 -32 -8q-29 4 -41 24l-295 481q-13 19 -13 46z" />
<glyph unicode="=" horiz-adv-x="712" d="M82 430v109q0 23 16.5 38t36.5 15h443q20 0 36.5 -15.5t16.5 -37.5v-109q0 -20 -15.5 -35.5t-37.5 -15.5h-443q-23 0 -38 15.5t-15 35.5zM82 750v108q0 23 16.5 38t36.5 15h443q20 0 36.5 -15t16.5 -38v-108q0 -20 -15.5 -36t-37.5 -16h-443q-23 0 -38 16t-15 36z" />
<glyph unicode="&#x3e;" horiz-adv-x="661" d="M91 313.5q-5 20.5 7 38.5l224 353q12 18 12 43q0 27 -12 45l-224 350q-12 18 -7 40.5t24 33.5l123 73q14 8 28 8q29 0 43 -24l297 -481q10 -14 10 -45q0 -27 -12 -46l-295 -481q-12 -20 -41 -24q-18 0 -32 8l-121 76q-19 12 -24 32.5z" />
<glyph unicode="?" horiz-adv-x="878" d="M57 1090q-4 178 105.5 286.5t277.5 108.5q182 0 288 -98.5t106 -258.5q0 -233 -138 -397q-143 -168 -143 -280q0 -49 2 -62q6 -39 -31 -39h-147q-33 0 -43 31q-18 53 -19 123q0 137 160 327q51 63 65.5 128t14.5 169q0 57 -29.5 89t-81.5 32q-72 0 -98.5 -49t-23.5 -110 l2 -93q0 -23 -16.5 -38t-37.5 -15h-159q-20 0 -36 15.5t-16 37.5zM332 53v185q0 20 14 35.5t37 15.5h154q23 0 38 -15.5t15 -35.5v-185q0 -20 -16.5 -36.5t-36.5 -16.5h-154q-20 0 -35.5 15t-15.5 38z" />
<glyph unicode="@" horiz-adv-x="1478" d="M61 731q0 313 201 533.5t500 220.5q295 0 478 -188.5t183 -458.5q0 -201 -109.5 -357.5t-295.5 -156.5q-92 0 -157.5 42t-80.5 113q0 6 -8 6q-4 0 -10 -6q-70 -76 -168 -76q-100 0 -135 112t2 255q35 160 98.5 262.5t157.5 102.5q68 0 127 -84q4 -4 6 -4q4 0 4 8 q2 4 6 24q8 41 55 41h107q18 0 28.5 -12t6.5 -31l-99 -459q-33 -150 84 -149q96 0 148.5 104.5t52.5 262.5q0 213 -126 351t-355 138q-233 0 -375.5 -169t-142.5 -425q0 -252 135 -427t383 -175q143 0 268 59q43 20 64 -14q0 -2 14 -26.5t16 -28.5q23 -37 -20 -64 q-135 -80 -342 -80q-297 0 -499 221.5t-202 534.5zM635 637q-2 -47 7 -60.5t28 -13.5q55 0 104 207q45 190 -4 205q-66 20 -115 -205q-18 -86 -20 -133z" />
<glyph unicode="A" horiz-adv-x="970" d="M14 51l291 1360q4 23 22.5 37t41.5 14h243q23 0 41.5 -15t22.5 -36l291 -1360q1 -5 1 -10q0 -14 -9 -26q-11 -15 -33 -15h-187q-23 0 -40 14.5t-21 36.5l-43 232q-4 23 -22.5 38t-39.5 15h-165q-23 0 -40.5 -15.5t-21.5 -37.5l-43 -232q-4 -23 -22.5 -37t-38.5 -14h-187 q-23 0 -33 14q-8 11 -9 26q0 5 1 11zM401 598q-4 -23 9.5 -37t35.5 -14h89q20 0 32.5 14t10.5 37l-64 477q-4 23 -25 23q-23 0 -22 -23z" />
<glyph unicode="B" horiz-adv-x="1017" d="M92 53v1358q0 23 15.5 37t35.5 14h381q193 0 306.5 -105.5t113.5 -281.5q0 -197 -123 -295q-16 -14 -16 -28q0 -12 16 -25q145 -111 146 -332q0 -182 -109.5 -288.5t-294.5 -106.5h-420q-20 0 -35.5 15t-15.5 38zM381 319q0 -20 16.5 -36.5t36.5 -16.5h115q63 0 96 40 t33 97v93q0 57 -33 97t-96 40h-115q-20 0 -36.5 -15.5t-16.5 -37.5v-261zM381 907q0 -23 15.5 -38t35.5 -15h92q66 0 98.5 41t32.5 96v84q0 55 -32.5 95t-98.5 40h-92q-23 0 -37 -15t-14 -36v-252z" />
<glyph unicode="C" horiz-adv-x="956" d="M72 365v731q0 170 114.5 279.5t305.5 109.5q188 0 295.5 -109.5t107.5 -279.5v-138q0 -20 -15.5 -36.5t-37.5 -16.5h-176q-23 0 -38.5 16.5t-15.5 36.5v138q0 55 -30.5 96t-89.5 41q-66 0 -99 -41t-33 -96v-731q0 -55 33 -96.5t99 -41.5q59 0 89.5 41t30.5 97v137 q0 23 15.5 38t38.5 15h176q23 0 38 -15.5t15 -37.5v-137q0 -170 -107.5 -280t-295.5 -110q-190 0 -305 110t-115 280z" />
<glyph unicode="D" horiz-adv-x="987" d="M92 53v1358q0 20 15.5 35.5t37.5 15.5h351q190 0 304.5 -109.5t114.5 -277.5v-686q0 -170 -114.5 -279.5t-304.5 -109.5h-351q-23 0 -38 16.5t-15 36.5zM381 303q0 -20 15.5 -35.5t37.5 -15.5h62q63 0 96 40t33 97v686q0 55 -32 95t-97 40h-62q-23 0 -38 -15t-15 -36 v-856z" />
<glyph unicode="E" horiz-adv-x="888" d="M92 53v1358q0 20 15.5 35.5t37.5 15.5h627q23 0 38 -15t15 -36v-147q0 -20 -15 -36t-38 -16h-338q-20 0 -35.5 -15t-15.5 -38v-207q0 -23 15.5 -38t35.5 -15h277q23 0 38 -15.5t15 -37.5v-146q0 -20 -15.5 -36.5t-37.5 -16.5h-277q-20 0 -35.5 -14.5t-15.5 -36.5v-293 q0 -20 15.5 -35.5t35.5 -15.5h361q20 0 36.5 -15.5t16.5 -37.5v-146q0 -20 -16.5 -36.5t-36.5 -16.5h-650q-23 0 -38 16.5t-15 36.5z" />
<glyph unicode="F" horiz-adv-x="864" d="M92 53v1358q0 20 15.5 35.5t37.5 15.5h641q23 0 38.5 -15t15.5 -36v-147q0 -23 -16.5 -38.5t-37.5 -15.5h-352q-23 0 -38 -15t-15 -36v-207q0 -23 16.5 -38t36.5 -15h291q20 0 36.5 -15.5t16.5 -37.5v-146q0 -20 -16.5 -36.5t-36.5 -16.5h-291q-20 0 -36.5 -16.5 t-16.5 -36.5v-541q0 -23 -15.5 -38t-35.5 -15h-185q-23 0 -38 16.5t-15 36.5z" />
<glyph unicode="G" horiz-adv-x="948" d="M72 379v717q0 168 115.5 278.5t304.5 110.5q186 0 290.5 -111.5t104.5 -277.5v-101q0 -20 -15.5 -36.5t-37.5 -16.5h-168q-23 0 -38.5 16.5t-15.5 36.5v101q0 55 -30.5 96t-89.5 41q-66 0 -99 -41t-33 -96v-731q0 -55 33 -96.5t99 -41.5q59 0 98 42t39 118v125 q0 18 -11.5 31.5t-27.5 13.5h-31q-53 0 -53 47v115q0 23 15.5 38t37.5 15h275q23 0 38 -15.5t15 -37.5v-674q0 -45 -45 -45h-41q-41 0 -45 37q0 4 -6 59q-4 16 -15 17q-12 0 -18 -13q-86 -125 -262 -125q-188 0 -285.5 114t-97.5 290z" />
<glyph unicode="H" horiz-adv-x="1021" d="M92 53v1358q0 23 15.5 37t35.5 14h185q23 0 38 -15t15 -36v-489q0 -20 16.5 -37t36.5 -17h154q20 0 35.5 15.5t15.5 38.5v489q0 20 15.5 35.5t37.5 15.5h185q23 0 38 -15t15 -36v-1358q0 -20 -16.5 -36.5t-36.5 -16.5h-185q-20 0 -36.5 16.5t-16.5 36.5v512 q0 20 -14.5 35.5t-36.5 15.5h-154q-23 0 -38 -15t-15 -36v-512q0 -20 -16.5 -36.5t-36.5 -16.5h-185q-20 0 -35.5 15t-15.5 38z" />
<glyph unicode="I" horiz-adv-x="485" d="M98 53v1358q0 20 15.5 35.5t38.5 15.5h182q23 0 38 -15t15 -36v-1358q0 -20 -15.5 -36.5t-37.5 -16.5h-182q-20 0 -37 16.5t-17 36.5z" />
<glyph unicode="J" horiz-adv-x="567" d="M-10 168q0 23 15 38t38 15h61q92 0 93 115v1073q0 20 16 36.5t37 16.5h182q23 0 38 -16t15 -37v-1081q0 -350 -274 -351q-133 0 -160 7q-59 16 -59 69z" />
<glyph unicode="K" horiz-adv-x="970" d="M92 53v1358q0 20 15.5 35.5t37.5 15.5h185q23 0 38 -15t15 -36v-412q0 -23 20 -22q18 0 27 16l225 424q27 45 78 45h176q23 0 30 -13t-3 -32l-301 -522q-14 -23 -14 -49q0 -29 8 -45l327 -752q4 -10 4 -18q0 -9 -5 -17q-9 -14 -31 -14h-181q-51 0 -73 49l-205 469 q-10 20 -21 21q-18 0 -36 -35q-25 -49 -25 -98v-353q0 -20 -15.5 -36.5t-37.5 -16.5h-185q-23 0 -38 16.5t-15 36.5z" />
<glyph unicode="L" horiz-adv-x="780" d="M92 53v1358q0 20 15.5 35.5t37.5 15.5h185q23 0 37 -14t14 -37v-1108q0 -20 15.5 -35.5t37.5 -15.5h268q23 0 38.5 -15.5t15.5 -37.5v-146q0 -20 -15.5 -36.5t-38.5 -16.5h-557q-23 0 -38 16.5t-15 36.5z" />
<glyph unicode="M" horiz-adv-x="1341" d="M92 53v1358q0 20 15.5 35.5t37.5 15.5h306q23 0 42 -15t21 -36l133 -770q4 -23 24.5 -23t22.5 21l142 772q4 20 22.5 35.5t40.5 15.5h299q23 0 37 -14t14 -37v-1358q0 -23 -15 -38t-36 -15h-170q-20 0 -36.5 16.5t-16.5 36.5v961q0 16 -17 16q-20 0 -22 -16l-164 -963 q-2 -20 -20.5 -35.5t-40.5 -15.5h-78q-23 0 -42.5 15.5t-21.5 35.5l-163 965q-2 14 -20.5 14t-18.5 -18v-959q0 -20 -15.5 -36.5t-38.5 -16.5h-168q-23 0 -38 16.5t-15 36.5z" />
<glyph unicode="N" horiz-adv-x="1044" d="M92 53v1358q0 20 15.5 35.5t37.5 15.5h185q55 0 69 -49l234 -725q6 -16 18 -16q20 0 21 20v719q0 23 14 37t37 14h178q20 0 35.5 -14t15.5 -37v-1358q0 -23 -15 -38t-36 -15h-178q-23 0 -43.5 14.5t-26.5 34.5l-239 739q-6 14 -21 15q-18 0 -18 -19v-731 q0 -20 -15.5 -36.5t-37.5 -16.5h-177q-23 0 -38 16.5t-15 36.5z" />
<glyph unicode="O" horiz-adv-x="980" d="M72 365v731q0 170 113.5 279.5t304 109.5t305 -109.5t114.5 -279.5v-731q0 -170 -114.5 -280t-305 -110t-304 110t-113.5 280zM360 365q0 -57 33 -97.5t96.5 -40.5t96 40t32.5 98v731q0 57 -32.5 97t-96 40t-96.5 -40t-33 -97v-731z" />
<glyph unicode="P" horiz-adv-x="980" d="M92 53v1358q0 20 15.5 35.5t37.5 15.5h375q197 0 308.5 -115.5t111.5 -324.5q0 -211 -112.5 -326.5t-307.5 -115.5h-86q-20 0 -36.5 -15.5t-16.5 -38.5v-473q0 -20 -16.5 -36.5t-36.5 -16.5h-183q-23 0 -38 16.5t-15 36.5zM381 860q0 -20 16.5 -36.5t36.5 -16.5h64 q154 0 153 215q0 213 -153 213h-64q-20 0 -36.5 -15.5t-16.5 -37.5v-322z" />
<glyph unicode="Q" horiz-adv-x="980" d="M72 365v731q0 170 113.5 279.5t304 109.5t305 -109.5t114.5 -279.5v-731q0 -141 -82 -243t-223 -134q-29 -6 -29 -37v-8q0 -53 21 -78q16 -20 50 -20q8 0 18 1q8 0 25.5 3.5t25.5 3.5q49 0 49 -46v-57q0 -29 -11.5 -43t-43.5 -26q-39 -14 -125 -15q-96 0 -153.5 67.5 t-57.5 194.5v27q0 33 -27 41q-129 39 -201.5 137.5t-72.5 231.5zM360 365q0 -57 33 -97.5t96 -40.5q66 0 99 41t33 97v731q0 55 -33 96t-99 41q-63 0 -96 -40t-33 -97v-731z" />
<glyph unicode="R" horiz-adv-x="1019" d="M92 53v1358q0 20 15.5 35.5t37.5 15.5h375q195 0 307.5 -109.5t112.5 -303.5q0 -205 -147 -318q-14 -12 -15 -29q0 -12 15 -22q137 -104 137 -281v-57q0 -152 39 -197q12 -27 12 -51q0 -33 -23 -62q-39 -50 -127 -50q-66 0 -113.5 51t-64.5 131q-12 63 -12 194v62 q0 94 -38 138t-122 44h-47q-20 0 -36.5 -16.5t-16.5 -36.5v-496q0 -20 -16.5 -36.5t-36.5 -16.5h-183q-23 0 -38 16.5t-15 36.5zM381 874q0 -23 16.5 -38t36.5 -15h64q74 0 113.5 47t39.5 160t-40 160t-113 47h-64q-20 0 -36.5 -15.5t-16.5 -37.5v-308z" />
<glyph unicode="S" horiz-adv-x="903" d="M57 373q0 37 11 84q12 53 51 53h162q27 0 42 -15.5t11 -37.5q-8 -47 -8 -82q2 -80 44 -121t93 -41q59 0 91 39t32 98q0 45 -34 97.5t-71 86t-101.5 87t-84.5 71.5q-143 133 -189.5 226.5t-46.5 207.5q0 162 103.5 260.5t292.5 98.5q176 0 279 -106q101 -103 102 -282 q0 -60 -7 -114q-8 -55 -59 -55h-154q-25 0 -41 14t-14 39q2 10 5 28.5t3 26.5q4 35 4 64q0 65 -19 99q-28 50 -105 50q-51 0 -81 -32.5t-30 -90.5q0 -41 11 -74.5t48 -74.5t54.5 -57.5t80.5 -73.5q68 -59 93.5 -83t84 -85.5t84 -103.5t49 -103t23.5 -121 q0 -156 -108.5 -265.5t-294.5 -109.5q-182 0 -294 111t-112 287z" />
<glyph unicode="T" horiz-adv-x="813" d="M10 1264v147q0 20 15.5 35.5t37.5 15.5h687q23 0 38 -15t15 -36v-147q0 -20 -15.5 -36t-37.5 -16h-146q-23 0 -38 -16t-15 -37v-1106q0 -20 -15.5 -36.5t-37.5 -16.5h-183q-20 0 -36.5 16.5t-16.5 36.5v1106q0 20 -16.5 36.5t-36.5 16.5h-146q-23 0 -38 16t-15 36z" />
<glyph unicode="U" horiz-adv-x="995" d="M86 365v1044q0 20 16.5 36.5t36.5 16.5h185q20 0 35.5 -15t15.5 -38v-1044q0 -57 29.5 -97.5t93 -40.5t92 40t28.5 98v1044q0 20 16.5 36.5t37.5 16.5h184q20 0 36.5 -16t16.5 -37v-1044q0 -170 -111.5 -280t-300 -110t-300 110t-111.5 280z" />
<glyph unicode="V" horiz-adv-x="878" d="M4 1411q-4 23 9.5 37t33.5 14h176q53 0 62 -51l135 -909q6 -23 24.5 -23t22.5 23l135 909q10 51 62 51h176q23 0 34 -14q9 -11 10 -26q0 -5 -1 -11l-269 -1360q-2 -20 -21.5 -35.5t-41.5 -15.5h-215q-23 0 -41.5 15.5t-22.5 35.5z" />
<glyph unicode="W" horiz-adv-x="1210" d="M14 1411q-4 23 10.5 37t36.5 14h154q53 0 57 -51l64 -643q2 -16 16 -20q8 -2 13.5 4t7.5 16l135 643q10 51 63 51h78q53 0 64 -51l133 -643q6 -20 20 -20q18 0 19 20l61 643q8 51 60 51h153q25 0 37 -14q9 -11 9 -26q0 -5 -1 -11l-176 -1358q-4 -23 -21.5 -38t-37.5 -15 h-115q-23 0 -42 15.5t-24 35.5l-147 729q-4 23 -27 23q-20 0 -26 -23l-156 -729q-4 -20 -23.5 -35.5t-41.5 -15.5h-115q-20 0 -37.5 15.5t-21.5 37.5z" />
<glyph unicode="X" d="M29 49l260 672q8 27 10 47q0 20 -10 51l-230 594q-10 20 0.5 34.5t32.5 14.5h170q53 0 68 -49l92 -334q2 -20 22 -20q16 0 23 20l92 334q10 49 68 49h168q23 0 33 -14t1 -35l-229 -594q-12 -27 -10 -51q0 -23 10 -47l260 -672q4 -9 4 -17q0 -10 -6 -18q-10 -14 -33 -14 h-168q-57 0 -71 49l-119 350q-8 20 -23 21q-16 0 -22 -21l-121 -350q-18 -49 -70 -49h-168q-23 0 -32 14q-6 8 -6 18q0 8 4 17z" />
<glyph unicode="Y" horiz-adv-x="813" d="M-10 1413q-2 8 -3 15q0 11 7 20q10 14 31 14h168q59 0 69 -49l129 -448q6 -20 22.5 -20.5t22.5 20.5l131 448q14 49 68 49h170q23 0 33 -14q6 -8 5 -18q0 -8 -3 -17l-262 -713q-12 -39 -15 -53q-4 -37 -4 -49v-545q0 -23 -15.5 -38t-37.5 -15h-184q-23 0 -38.5 16.5 t-15.5 36.5v547q0 25 -6 55q-4 31 -12 47z" />
<glyph unicode="Z" horiz-adv-x="874" d="M45 53v146q0 53 23 100l426 864q8 20 -0.5 34.5t-30.5 14.5h-357q-23 0 -38 15.5t-15 36.5v147q0 20 15.5 35.5t37.5 15.5h664q23 0 38 -15t15 -36v-147q0 -47 -24 -101l-424 -864q-10 -20 -1 -33.5t29 -13.5h375q20 0 35.5 -15.5t15.5 -37.5v-146q0 -23 -15 -38t-36 -15 h-682q-20 0 -35.5 15t-15.5 38z" />
<glyph unicode="[" horiz-adv-x="516" d="M92 -350v1935q0 20 15.5 36.5t37.5 16.5h299q20 0 36 -15t16 -38v-61q0 -23 -15.5 -38.5t-36.5 -15.5h-38q-20 0 -37 -16t-17 -37v-1599q0 -23 16.5 -38.5t37.5 -15.5h38q20 0 36 -15t16 -38v-61q0 -23 -15.5 -38t-36.5 -15h-299q-23 0 -38 15t-15 38z" />
<glyph unicode="\" horiz-adv-x="692" d="M29 1434q-6 20 5 35.5t34 15.5h147q20 0 39.5 -14.5t26.5 -36.5l376 -1407q6 -20 -5 -36t-34 -16h-145q-23 0 -42 15.5t-25 36.5z" />
<glyph unicode="]" horiz-adv-x="516" d="M20 -289q0 23 15.5 38t36.5 15h39q20 0 36.5 15.5t16.5 38.5v1599q0 20 -16.5 36.5t-36.5 16.5h-39q-20 0 -36 15.5t-16 38.5v61q0 23 15.5 38t36.5 15h299q23 0 38 -16t15 -37v-1935q0 -23 -15.5 -38t-37.5 -15h-299q-20 0 -36 15t-16 38v61z" />
<glyph unicode="^" horiz-adv-x="745" d="M88 1213.5q-4 9.5 2 15.5l38 38q26 26 54.5 55.5t55 57t45.5 45.5l18 19q18 18 41 18h84q18 0 35 -16q39 -39 211 -217q8 -8 4 -16.5t-19 -8.5h-163q-14 0 -25 8q-6 4 -38 29t-42 33q-2 2 -6 2q-6 0 -8 -2q-27 -20 -86 -64q-10 -6 -21 -6h-164q-12 0 -16 9.5z" />
<glyph unicode="_" horiz-adv-x="907" d="M0 -57h907v-172h-907v172z" />
<glyph unicode="`" horiz-adv-x="460" d="M93 1424.5q9 13.5 30 13.5h153q23 0 42.5 -14.5t23.5 -37.5l43 -172q6 -23 -5 -37t-34 -14h-86q-51 0 -76 47l-90 181q-10 20 -1 33.5z" />
<glyph unicode="a" horiz-adv-x="825" d="M61 252q0 70 24 125t56.5 90t91 65.5t101.5 45t112 34.5q49 14 50 66v53q0 47 -23.5 77t-69.5 30q-90 0 -90 -107v-29q0 -23 -15 -38t-38 -15h-137q-20 0 -36.5 15.5t-16.5 37.5v13q0 143 91 239.5t251 96.5q170 0 257 -103.5t87 -263.5v-479q0 -88 26 -137q9 -13 9 -25 q0 -10 -7 -20q-16 -23 -59 -23h-119q-47 0 -69 37q-2 4 -8.5 12t-8.5 12q-6 12 -20 13q-12 0 -23 -8q-59 -47 -97 -64.5t-97 -17.5q-100 0 -161 79.5t-61 188.5zM319 266q0 -37 18.5 -63.5t55.5 -26.5q49 0 76 32t27 85v141q0 20 -15 23q-1 1 -4 0q-5 0 -14 -2 q-59 -18 -101.5 -73t-42.5 -116z" />
<glyph unicode="b" horiz-adv-x="856" d="M82 51v1358q0 20 16.5 36.5t36.5 16.5h146q23 0 38 -16t15 -37v-453q0 -25 18 -24q16 0 27 16q61 102 182 103q229 0 230 -306v-456q0 -305 -230 -305q-119 0 -182 104q-8 14 -25 14q-20 0 -20 -24v-27q0 -20 -15.5 -35.5t-37.5 -15.5h-146q-23 0 -38 15.5t-15 35.5z M340 305q0 -45 29.5 -72.5t70.5 -27.5q90 0 90 106v412q0 106 -90 106q-41 0 -70.5 -26.5t-29.5 -71.5v-426z" />
<glyph unicode="c" horiz-adv-x="804" d="M61 319v396q0 152 97.5 244t261.5 92q160 0 247 -96.5t87 -239.5v-39q0 -20 -14.5 -35.5t-37.5 -15.5h-139q-23 0 -38 15t-15 36v55q0 106 -90 107q-45 0 -73 -30t-28 -77v-428q0 -47 28 -76.5t73 -29.5q90 0 90 106v55q0 20 15.5 36t37.5 16h139q23 0 37.5 -14.5 t14.5 -37.5v-39q0 -143 -87 -239t-247 -96q-164 0 -261.5 91.5t-97.5 243.5z" />
<glyph unicode="d" horiz-adv-x="856" d="M66 289v456q0 305 229 306q121 0 182 -103q10 -16 27 -16q18 0 18 24v453q0 20 15.5 36.5t37.5 16.5h146q20 0 36.5 -16t16.5 -37v-1358q0 -20 -15.5 -35.5t-37.5 -15.5h-146q-23 0 -38 15.5t-15 35.5v27q0 25 -20 24q-16 0 -25 -14q-63 -104 -182 -104q-229 0 -229 305z M326 311q0 -106 90 -106q41 0 70.5 27.5t29.5 72.5v426q0 45 -29.5 71.5t-70.5 26.5q-90 0 -90 -106v-412z" />
<glyph unicode="e" horiz-adv-x="806" d="M61 319v381q0 166 95.5 258.5t261.5 92.5q160 0 248 -101.5t88 -257.5v-174q0 -29 -18.5 -45t-49.5 -16h-313q-20 0 -37 -15.5t-17 -38.5v-106q0 -51 26 -79t73 -28q53 0 80.5 32t27.5 75v31q0 23 15.5 38t36.5 15h131q20 0 36.5 -16.5t16.5 -36.5v-31q0 -127 -93.5 -220 t-250.5 -93q-164 0 -260.5 91.5t-96.5 243.5zM319 676q0 -20 15.5 -35.5t38.5 -15.5h84q23 0 38 15t15 36v55q0 47 -23.5 77t-68.5 30t-72 -30t-27 -77v-55z" />
<glyph unicode="f" horiz-adv-x="571" d="M10 891v84q0 61 62 61h22q39 0 39 39v113q0 135 71.5 216t196.5 81q68 0 107 -8q63 -14 63 -82v-70q0 -25 -16 -42t-49 -17h-39q-76 0 -76 -95v-90q0 -18 12.5 -31.5t34.5 -13.5h51q23 0 38.5 -15t15.5 -38v-98q0 -47 -54 -47h-51q-23 0 -35 -13.5t-12 -31.5v-740 q0 -23 -15.5 -38t-37.5 -15h-152q-23 0 -38 15.5t-15 37.5v740q0 45 -47 45h-20q-23 0 -39.5 15t-16.5 38z" />
<glyph unicode="g" horiz-adv-x="804" d="M29 -121q0 111 159 164q8 2 9 10q0 6 -11 10q-74 35 -73.5 96.5t80.5 102.5q12 6 12 17q0 8 -10 18q-76 66 -107 139.5t-31 220.5q0 209 92.5 301.5t241.5 92.5q123 0 195 -56q18 -12 35 -12q14 0 32 12q4 4 17.5 14.5t17.5 13.5t15.5 10t17.5 10.5t16.5 5.5t20.5 2 q25 0 41 -14.5t16 -37.5v-129q0 -39 -35 -39q-9 0 -20 3q-29 8 -45 -9q-14 -14 -10 -41q16 -53 16 -137q0 -201 -85 -306q-83 -103 -231 -103h-6q-47 0 -53 -29q-8 -29 29 -41q31 -10 113.5 -26.5t95.5 -20.5q117 -31 169 -73t52 -118q0 -111 -116 -199.5t-304 -88.5 q-152 0 -254 59t-102 178zM256 -92q0 -41 37 -62.5t92 -21.5q66 0 113 22.5t47 61.5q0 37 -47 63.5t-117 38.5q-35 6 -57 -8q-68 -33 -68 -94zM305 627q0 -119 17.5 -160t68.5 -41t69.5 44t18.5 157q0 233 -92 233q-49 0 -65.5 -55t-16.5 -178z" />
<glyph unicode="h" d="M82 53v1356q0 20 16.5 36.5t36.5 16.5h146q23 0 38 -16t15 -37v-453q0 -25 18 -24q16 0 27 16q61 102 190 103q229 0 230 -303v-695q0 -20 -16.5 -36.5t-37.5 -16.5h-153q-23 0 -38 16.5t-15 36.5v670q0 106 -99 106q-41 0 -70.5 -26.5t-29.5 -71.5v-678q0 -23 -15.5 -38 t-35.5 -15h-154q-20 0 -36.5 16.5t-16.5 36.5z" />
<glyph unicode="i" horiz-adv-x="423" d="M82 53v930q0 20 16.5 36.5t36.5 16.5h154q23 0 38 -16t15 -37v-930q0 -20 -15.5 -36.5t-37.5 -16.5h-154q-20 0 -36.5 16.5t-16.5 36.5zM82 1233v178q0 20 15.5 35.5t37.5 15.5h154q23 0 38 -15t15 -36v-178q0 -20 -15.5 -35.5t-37.5 -15.5h-154q-23 0 -38 15.5t-15 35.5 z" />
<glyph unicode="j" horiz-adv-x="413" d="M-102 -190q0 53 65 53h39q76 0 76 94v1026q0 23 15.5 38t37.5 15h152q23 0 38 -15t15 -38v-1071q0 -129 -75 -199.5t-193 -70.5q-68 0 -107 8q-63 14 -63 84v76zM78 1233v176q0 23 15.5 38t35.5 15h156q20 0 35.5 -15t15.5 -38v-176q0 -23 -15.5 -38t-35.5 -15h-156 q-20 0 -35.5 15t-15.5 38z" />
<glyph unicode="k" horiz-adv-x="854" d="M82 53v1356q0 23 15.5 38t35.5 15h154q20 0 36.5 -16t16.5 -37v-618q0 -25 18.5 -25t28.5 14l135 213q29 43 84 43h199q23 0 29 -12q2 -4 2 -9q0 -10 -9 -22l-258 -364q-14 -16 -14 -43q0 -14 10 -35l262 -504q10 -20 2 -33.5t-30 -13.5h-193q-53 0 -76 47l-143 324 q-10 18 -27 18q-20 0 -20 -24v-312q0 -20 -16.5 -36.5t-36.5 -16.5h-154q-20 0 -35.5 15t-15.5 38z" />
<glyph unicode="l" horiz-adv-x="421" d="M82 53v1358q0 23 14.5 37t36.5 14h154q23 0 38 -15t15 -36v-1358q0 -20 -16.5 -36.5t-36.5 -16.5h-154q-20 0 -35.5 15t-15.5 38z" />
<glyph unicode="m" horiz-adv-x="1327" d="M82 53v930q0 20 16.5 36.5t36.5 16.5h146q23 0 38 -16t15 -37v-27q0 -23 20 -22q16 0 25 14q61 102 190 103q131 0 185 -97q14 -25 32 -24q16 0 31 24q57 96 201 97q123 0 180 -82t57 -221v-695q0 -20 -15 -36.5t-38 -16.5h-153q-20 0 -37 16.5t-17 36.5v670 q0 109 -98 108q-41 0 -69.5 -24.5t-28.5 -65.5v-688q0 -20 -16.5 -36.5t-37.5 -16.5h-153q-23 0 -38 16.5t-15 36.5v670q0 109 -99 108q-41 0 -69.5 -27.5t-28.5 -72.5v-678q0 -20 -15.5 -36.5t-37.5 -16.5h-154q-20 0 -36.5 16.5t-16.5 36.5z" />
<glyph unicode="n" d="M82 53v930q0 20 16.5 36.5t36.5 16.5h146q23 0 38 -16t15 -37v-27q0 -25 22 -24q12 0 23 16q61 102 192 103q227 0 228 -303v-695q0 -20 -16.5 -36.5t-37.5 -16.5h-153q-20 0 -35.5 15.5t-15.5 37.5v670q0 109 -101 108q-41 0 -69.5 -27.5t-28.5 -72.5v-678 q0 -20 -15.5 -36.5t-37.5 -16.5h-154q-20 0 -36.5 16.5t-16.5 36.5z" />
<glyph unicode="o" horiz-adv-x="839" d="M61 319v396q0 152 97.5 244t261.5 92t261 -92.5t97 -243.5v-396q0 -152 -97 -243.5t-261 -91.5t-261.5 91.5t-97.5 243.5zM319 311q0 -47 28 -76.5t73 -29.5t71.5 29.5t26.5 76.5v412q0 47 -26.5 76.5t-71.5 29.5t-73 -29.5t-28 -76.5v-412z" />
<glyph unicode="p" horiz-adv-x="856" d="M82 -297v1280q0 20 16.5 36.5t36.5 16.5h146q23 0 38 -16t15 -37v-27q0 -25 22 -24q12 0 23 16q61 102 184 103q227 0 228 -303v-459q0 -305 -228 -305q-121 0 -184 104q-8 14 -25 14q-20 0 -20 -22v-377q0 -23 -15.5 -38t-37.5 -15h-146q-20 0 -36.5 15t-16.5 38z M342 305q0 -45 28.5 -72.5t69.5 -27.5q92 0 92 108v410q0 109 -92 108q-41 0 -69.5 -27.5t-28.5 -72.5v-426z" />
<glyph unicode="q" horiz-adv-x="856" d="M66 289v459q0 303 227 303q123 0 184 -103q10 -16 23 -16q23 0 22 24v27q0 20 15.5 36.5t37.5 16.5h146q20 0 36.5 -16t16.5 -37v-1280q0 -23 -16.5 -38t-36.5 -15h-146q-23 0 -38 15.5t-15 37.5v377q0 23 -20 22q-16 0 -25 -14q-63 -104 -184 -104q-227 0 -227 305z M324 313q0 -109 92 -108q41 0 69.5 27.5t28.5 72.5v426q0 45 -28.5 72.5t-69.5 27.5q-92 0 -92 -108v-410z" />
<glyph unicode="r" horiz-adv-x="593" d="M82 53v930q0 20 16.5 36.5t36.5 16.5h146q23 0 38 -16t15 -37v-22q0 -25 20 -25q16 0 25 14q49 100 137 101h25q23 0 38 -15.5t15 -36.5v-131q0 -20 -16.5 -36.5t-38.5 -16.5h-37q-74 0 -118 -64.5t-44 -132.5v-565q0 -23 -15.5 -38t-35.5 -15h-154q-20 0 -36.5 16.5 t-16.5 36.5z" />
<glyph unicode="s" horiz-adv-x="784" d="M53 268q0 35 2 45q6 53 54 54h137q25 0 38 -16.5t9 -37.5q-4 -25 -4 -36q0 -38 27 -65q30 -30 79 -30q45 0 73 23.5t28 62.5q0 45 -33 77t-117 75t-119 65q-160 104 -159 271q0 135 95 215t234 80q160 0 254 -98q80 -83 81 -194q0 -19 -3 -40q0 -6 -1 -11.5t-1 -9.5 t-1 -7t-1 -5q-10 -53 -57 -53h-129q-23 0 -35 15.5t-6 37.5l4 25q2 14 2 26q0 42 -22 69q-28 36 -79 36q-43 0 -70.5 -22.5t-27.5 -63.5q0 -16 4 -30.5t10.5 -25t18.5 -23.5t21.5 -20.5t30 -20.5t30.5 -19.5t36.5 -21.5t39.5 -22q119 -68 184 -139.5t65 -181.5 q0 -119 -100 -195.5t-250 -76.5q-158 0 -250 80.5t-92 207.5z" />
<glyph unicode="t" horiz-adv-x="589" d="M10 899v84q0 23 15.5 38t37.5 15h23q47 0 47 45v176q0 23 15.5 38.5t37.5 15.5h152q23 0 38 -15.5t15 -38.5v-176q0 -45 45 -45h70q53 0 53 -45v-100q0 -23 -15.5 -38t-37.5 -15h-70q-45 0 -45 -45v-486q0 -94 76 -94h47q33 0 49.5 -17.5t16.5 -41.5v-78q0 -68 -64 -82 q-39 -8 -115 -8q-119 0 -193.5 69.5t-74.5 198.5v547q0 37 -39 37h-22q-62 0 -62 61z" />
<glyph unicode="u" d="M72 289v694q0 20 15 36.5t38 16.5h154q20 0 36.5 -16t16.5 -37v-670q0 -109 98 -108q41 0 69.5 27.5t28.5 72.5v678q0 20 16.5 36.5t37.5 16.5h153q23 0 38 -16t15 -37v-930q0 -20 -15 -36.5t-38 -16.5h-145q-20 0 -36.5 16.5t-16.5 36.5v27q0 25 -21 24q-14 0 -24 -16 q-63 -104 -191 -104q-229 0 -229 305z" />
<glyph unicode="v" horiz-adv-x="786" d="M18 985q-2 7 -2 14q0 12 8 22q11 15 33 15h168q53 0 62 -51l90 -586q4 -23 22 -22q20 0 25 22l88 586q8 51 63 51h168q20 0 32 -14q8 -11 8 -25q0 -5 -1 -12l-245 -934q-6 -20 -25.5 -35.5t-42.5 -15.5h-137q-23 0 -43.5 15.5t-24.5 35.5z" />
<glyph unicode="w" horiz-adv-x="1097" d="M14 985q-4 23 9.5 37t33.5 14h146q25 0 41 -15t18 -38l62 -498q4 -23 18 -22q16 0 20 22l95 500q4 23 22.5 37t42.5 14h62q55 0 63 -51l96 -500q6 -23 19 -22q18 0 18 22l64 498q4 23 20.5 38t38.5 15h146q23 0 34 -14q9 -11 10 -26q0 -5 -1 -11l-187 -934 q-4 -23 -21.5 -37t-39.5 -14h-109q-23 0 -41 15.5t-22 35.5l-97 490q-4 23 -22 22q-16 0 -23 -22l-96 -490q-2 -20 -21.5 -35.5t-41.5 -15.5h-109q-23 0 -41 15.5t-22 35.5z" />
<glyph unicode="x" horiz-adv-x="831" d="M29 14q-4 6 -4 14q0 9 6 19l239 438q10 18 11 52q0 20 -11 41l-225 411q-10 18 -2 32.5t31 14.5h153q53 0 76 -47l90 -219q8 -20 30.5 -20t31.5 20l92 219q18 47 76 47h153q20 0 28.5 -14t-1.5 -33l-223 -411q-10 -16 -11 -46q0 -33 11 -47l239 -438q6 -10 6 -19 q0 -7 -4 -14q-8 -14 -30 -14h-154q-53 0 -76 47l-106 236q-8 20 -31 20t-31 -20l-104 -236q-23 -47 -78 -47h-154q-20 0 -28 14z" />
<glyph unicode="y" horiz-adv-x="796" d="M25 985q-2 7 -3 14q0 12 8 22q11 15 33 15h170q53 0 62 -51l90 -586q4 -23 22.5 -22.5t22.5 22.5l86 586q8 51 62 51h170q20 0 31 -14q8 -11 9 -25q0 -5 -2 -12l-247 -985q-20 -84 -42 -139.5t-56.5 -109.5t-87 -81.5t-122.5 -27.5q-61 0 -108 18q-43 14 -43 59v88 q0 23 15.5 36.5t39.5 11.5q6 0 19.5 -3.5t23.5 -3.5q76 0 94 76q7 33 7.5 64.5t-7.5 62.5z" />
<glyph unicode="z" horiz-adv-x="761" d="M45 53v137q0 51 31 97l358 501q12 18 6 30.5t-28 12.5h-291q-23 0 -37 14.5t-14 37.5v100q0 23 15 38t36 15h534q20 0 37 -16t17 -37v-137q0 -51 -31 -96l-359 -502q-12 -18 -6 -29.5t29 -11.5h322q20 0 36.5 -15.5t16.5 -37.5v-101q0 -20 -16.5 -36.5t-36.5 -16.5h-566 q-20 0 -36.5 16.5t-16.5 36.5z" />
<glyph unicode="{" horiz-adv-x="608" d="M41 580v75q0 31 31 31h14q45 0 64.5 19.5t19.5 64.5v678q0 190 168 190h207q20 0 36.5 -16t16.5 -37v-31q0 -23 -16.5 -38t-36.5 -15h-31q-84 0 -84 -108v-600q0 -78 -41 -126.5t-119 -48.5q78 0 119 -49t41 -127v-598q0 -111 84 -110h31q20 0 36.5 -16.5t16.5 -36.5v-31 q0 -23 -16.5 -38t-36.5 -15h-207q-168 0 -168 190v678q0 47 -19.5 65.5t-64.5 18.5h-14q-31 0 -31 31z" />
<glyph unicode="|" horiz-adv-x="548" d="M164 -350v1935q0 20 16.5 36.5t36.5 16.5h115q20 0 36.5 -16t16.5 -37v-1935q0 -23 -16.5 -38t-36.5 -15h-115q-20 0 -36.5 15t-16.5 38z" />
<glyph unicode="}" horiz-adv-x="608" d="M10 -319q0 20 15.5 36.5t37.5 16.5h31q84 0 84 110v598q0 78 41 127t119 49q-78 0 -119 48.5t-41 126.5v600q0 109 -84 108h-31q-23 0 -38 15.5t-15 37.5v31q0 20 15.5 36.5t37.5 16.5h207q168 0 168 -190v-678q0 -45 18.5 -64.5t65.5 -19.5h15q31 0 30 -31v-75 q0 -31 -30 -31h-15q-47 0 -65.5 -18.5t-18.5 -65.5v-678q0 -190 -168 -190h-207q-23 0 -38 15t-15 38v31z" />
<glyph unicode="~" horiz-adv-x="935" d="M145 752q0 94 57.5 142t135.5 48q61 0 117.5 -28.5t72.5 -28.5q43 0 43 43q0 14 11 14h129q14 0 14 -16q0 -80 -50 -135.5t-145 -55.5q-47 0 -104 29t-80 29q-49 0 -49 -43q0 -14 -12 -15h-129q-11 1 -11 17z" />
<glyph unicode="&#xa1;" horiz-adv-x="442" d="M92 51v506q0 47 4 105l29 321q2 20 18.5 36.5t38.5 16.5h78q23 0 39 -16t18 -37l29 -321q4 -57 4 -105v-506q0 -20 -15.5 -35.5t-37.5 -15.5h-154q-20 0 -35.5 14t-15.5 37zM92 1225v184q0 23 15.5 38t35.5 15h154q23 0 38 -16t15 -37v-184q0 -20 -15.5 -35.5 t-37.5 -15.5h-154q-20 0 -35.5 15.5t-15.5 35.5z" />
<glyph unicode="&#xa2;" horiz-adv-x="806" d="M61 319v396q0 125 70 212t191 113v131q0 20 15 36t38 16h84q23 0 38 -15.5t15 -36.5v-131q117 -27 180.5 -115.5t63.5 -209.5v-39q0 -20 -15.5 -36.5t-38.5 -16.5h-137q-20 0 -36.5 16t-16.5 37v53q0 49 -23.5 79t-68.5 30t-71.5 -31t-26.5 -78v-426q0 -47 26.5 -76.5 t71.5 -29.5t68.5 29.5t23.5 76.5v53q0 20 16.5 37t36.5 17h137q23 0 38.5 -16.5t15.5 -37.5v-37q0 -123 -65.5 -213t-186.5 -114v-109q0 -23 -16.5 -38t-36.5 -15h-84q-23 0 -38.5 15.5t-15.5 37.5v113q-119 27 -185.5 113.5t-66.5 209.5z" />
<glyph unicode="&#xa3;" horiz-adv-x="1021" d="M31 668v98q0 23 15 38t36 15h125q-57 135 -57 254q0 180 101 296t288 116q184 0 282.5 -104.5t98.5 -262.5v-84q0 -23 -15.5 -38t-38.5 -15h-168q-23 0 -38 15.5t-15 37.5v78q0 135 -106.5 135t-106.5 -137q0 -141 72 -291h264q23 0 38 -16.5t15 -36.5v-98q0 -20 -15 -36 t-38 -16h-162q78 -188 -2 -366q-4 -8 -4 -10l6 -13q39 -45 86 -45q61 0 62 113v53q0 23 15 39t38 16h151q23 0 38.5 -16t15.5 -39v-22q0 -154 -79 -252.5t-216 -98.5q-96 0 -176 76q-14 10 -25 10q-12 0 -22 -10q-76 -76 -177 -76q-106 0 -174.5 55.5t-68.5 149.5 q0 100 60.5 161.5t144.5 61.5q59 0 98 -20q16 -10 20 10q10 78 -80 223h-235q-20 0 -35.5 16t-15.5 36zM272 188q0 -18 14.5 -31.5t39.5 -13.5q23 0 36 16.5t13 37.5q-25 39 -56 39q-20 0 -33.5 -16t-13.5 -32z" />
<glyph unicode="&#xa4;" horiz-adv-x="1056" d="M74 243.5q0 22.5 16 37.5l129 129q-27 55 -26 135v370q0 66 20 119l-123 123q-16 14 -16 37t16 37l70 69q16 16 36.5 16.5t36.5 -16.5l113 -114q82 43 182.5 43t180.5 -43l114 114q16 16 37 16.5t37 -16.5l70 -69q16 -14 16 -37t-16 -37l-125 -125q20 -61 20 -117v-370 q0 -70 -26 -133l131 -131q16 -14 16 -37t-16 -37l-70 -70q-16 -16 -36.5 -16t-37.5 16l-129 129q-74 -35 -166 -35q-100 0 -168 33l-127 -127q-16 -16 -36.5 -16t-36.5 16l-70 70q-16 14 -16 36.5zM434 539q0 -45 25.5 -73t68.5 -28q41 0 65.5 28t24.5 73v385 q0 43 -23.5 70.5t-66.5 27.5t-68.5 -27.5t-25.5 -70.5v-385z" />
<glyph unicode="&#xa5;" horiz-adv-x="813" d="M-10 1413q-6 20 4 34.5t31 14.5h170q57 0 67 -49l129 -448q6 -20 22.5 -20.5t22.5 20.5l131 448q14 49 70 49h168q23 0 33 -14t2 -35l-232 -629h74q23 0 38 -15t15 -38v-53q0 -23 -15 -38t-38 -15h-121q0 -6 -1 -14.5t-1 -12.5v-49h123q23 0 38 -15.5t15 -37.5v-56 q0 -23 -15 -37t-38 -14h-123v-336q0 -23 -15.5 -38t-37.5 -15h-184q-20 0 -36 15.5t-16 37.5v336h-120q-23 0 -38.5 15.5t-15.5 35.5v56q0 20 15.5 36.5t38.5 16.5h120v51q0 16 -2 25h-118q-23 0 -38.5 15t-15.5 38v53q0 23 15.5 38t38.5 15h71z" />
<glyph unicode="&#xa6;" horiz-adv-x="548" d="M164 -352v772q0 23 15.5 38t35.5 15h117q20 0 36.5 -15.5t16.5 -37.5v-772q0 -20 -15.5 -35.5t-37.5 -15.5h-117q-23 0 -37 15.5t-14 35.5zM164 815v770q0 23 15.5 38t35.5 15h117q20 0 36.5 -16t16.5 -37v-770q0 -20 -16.5 -36.5t-36.5 -16.5h-117q-20 0 -35.5 15 t-15.5 38z" />
<glyph unicode="&#xa7;" horiz-adv-x="778" d="M51 260v45q0 23 15.5 38t37.5 15h129q20 0 36 -15t16 -38v-31q0 -41 28.5 -68.5t77.5 -27.5q45 0 71.5 21.5t26.5 60.5q0 35 -25.5 65.5t-56 48t-89 48.5t-93.5 53q-160 102 -159 266l2 35q0 10 2 15q18 117 123 184q-111 92 -111 227q0 131 92 207t225 76 q143 0 233.5 -88t90.5 -209v-51q0 -23 -15.5 -37.5t-35.5 -14.5h-119q-20 0 -35.5 14.5t-15.5 37.5v39q0 49 -26.5 78.5t-74.5 29.5q-90 0 -90 -80q0 -16 4 -31.5t15.5 -30t19.5 -23.5t30.5 -23.5t33 -20.5t40 -23.5t42.5 -23.5q106 -59 161 -117q80 -80 80 -194 q0 -147 -145 -219q145 -109 145 -252q0 -117 -99 -194t-247 -77q-154 0 -247 83t-93 202zM301 743q0 -43 27.5 -70.5t70.5 -27.5t70 28.5t27 67.5q0 33 -25 63t-68 30q-102 -1 -102 -91z" />
<glyph unicode="&#xa8;" horiz-adv-x="757" d="M82 1231v123q0 23 16.5 38t36.5 15h131q20 0 36.5 -15.5t16.5 -37.5v-123q0 -23 -16 -38t-37 -15h-131q-20 0 -36.5 15t-16.5 38zM440 1231v123q0 23 15.5 38t38.5 15h131q20 0 35.5 -15.5t15.5 -37.5v-123q0 -23 -15.5 -38t-35.5 -15h-131q-23 0 -38.5 15t-15.5 38z" />
<glyph unicode="&#xa9;" horiz-adv-x="1546" d="M61 737.5q0 313.5 202 530.5t507 217t510 -218t205 -529.5t-205 -529.5t-510 -218t-507 217t-202 530.5zM172 737q0 -268 169 -454.5t429 -186.5t432 187.5t172 453.5q0 268 -172 457.5t-432 189.5t-429 -188.5t-169 -458.5zM489 528v418q0 96 79 159.5t210 63.5 q129 0 203 -62.5t74 -160.5v-78q0 -31 -35 -30h-123q-35 0 -35 30v64q0 33 -21.5 56.5t-62.5 23.5q-45 0 -66.5 -23.5t-21.5 -56.5v-387q0 -33 21.5 -56.5t66.5 -23.5q41 0 62.5 23.5t21.5 56.5v61q0 31 35 31h123q35 0 35 -31v-78q0 -98 -74 -160.5t-203 -62.5 q-131 0 -210 63.5t-79 159.5z" />
<glyph unicode="&#xaa;" horiz-adv-x="612" d="M82 991q0 53 19.5 92t59.5 65t72.5 38t88.5 28q31 10 30 41v33q0 66 -57 66t-57 -66v-18q0 -33 -31 -33h-86q-33 0 -33 33v8q0 88 56.5 147.5t154.5 59.5q104 0 158.5 -64.5t54.5 -163.5v-294q0 -53 16 -84q10 -18 2 -29q-10 -14 -36 -14h-74q-29 0 -43 22q-2 4 -10 16 q-2 6 -13 7q-10 0 -14 -4q-63 -51 -121 -52q-61 0 -99 49t-38 117zM244 999q0 -55 45 -55q63 0 63 72v88q0 10 -10 14q-6 0 -10 -2q-37 -12 -62.5 -46t-25.5 -71z" />
<glyph unicode="&#xab;" horiz-adv-x="1136" d="M61 522.5q0 26.5 13 44.5l295 482q16 25 43 24q14 0 28 -8l123 -74q18 -10 23.5 -32.5t-6.5 -40.5l-224 -351q-12 -18 -12 -45q0 -25 12 -43l226 -352q12 -18 7 -39.5t-24 -32.5l-123 -75q-14 -8 -30 -9q-29 4 -41 25l-297 481q-13 19 -13 45.5zM535 522.5 q0 26.5 12 44.5l295 482q14 25 43 24q14 0 28 -8l123 -74q18 -10 23.5 -32.5t-6.5 -40.5l-224 -351q-12 -18 -12 -45q0 -25 12 -43l226 -352q12 -18 7 -39.5t-24 -32.5l-123 -75q-14 -8 -32 -9q-29 4 -41 25l-295 481q-12 19 -12 45.5z" />
<glyph unicode="&#xac;" horiz-adv-x="989" d="M86 770.5q0 20.5 16 36.5l299 299q16 16 37 16t37 -16l12 -12q16 -16 16.5 -37t-16.5 -37l-153 -156q-14 -16 -10 -26.5t26 -10.5h527q20 0 35.5 -14t15.5 -37v-10q0 -23 -15.5 -38t-35.5 -15h-529q-20 0 -25.5 -10.5t11.5 -26.5l153 -156q16 -16 16.5 -36.5t-16.5 -37.5 l-12 -12q-16 -16 -36.5 -16t-37.5 16l-299 299q-16 17 -16 37.5z" />
<glyph unicode="&#xad;" horiz-adv-x="712" d="M82 569v146q0 23 16.5 38t36.5 15h443q20 0 36.5 -15.5t16.5 -37.5v-146q0 -20 -16.5 -36.5t-36.5 -16.5h-443q-20 0 -36.5 16.5t-16.5 36.5z" />
<glyph unicode="&#xae;" horiz-adv-x="1546" d="M61 737.5q0 313.5 203 530.5t508 217t509 -218t204 -529.5t-204 -529.5t-509 -218t-508 217t-203 530.5zM172 737.5q0 -268.5 170 -455t430 -186.5t431 187.5t171 453.5q0 268 -171 457.5t-431 189.5t-430 -189t-170 -457.5zM492 348v778q0 29 34 29h260q133 0 210 -62.5 t77 -172.5q0 -121 -100 -183q-10 -4 -10 -16q0 -8 10 -14q92 -57 92 -160v-88q0 -66 22 -101q10 -10 1 -25.5t-33 -15.5h-99q-45 0 -65 35q-25 37 -25 105v102q0 104 -108 105h-31q-14 0 -25.5 -9.5t-11.5 -21.5v-285q0 -12 -11 -21.5t-26 -9.5h-127q-34 0 -34 31zM690 819 q0 -31 35 -31h45q104 0 104 119q0 63 -24.5 83t-79.5 20h-45q-35 0 -35 -31v-160z" />
<glyph unicode="&#xaf;" horiz-adv-x="755" d="M82 1286v123q0 23 15.5 38t35.5 15h490q20 0 35.5 -15t15.5 -38v-123q0 -23 -15.5 -38t-35.5 -15h-490q-20 0 -35.5 15t-15.5 38z" />
<glyph unicode="&#xb0;" horiz-adv-x="608" d="M41 1220.5q0 108.5 78 186.5t186.5 78t185 -78t76.5 -186.5t-76.5 -185.5t-185 -77t-186.5 77t-78 185.5zM186 1220.5q0 -49.5 35 -84t84 -34.5t84 34.5t35 84t-35 85t-84 35.5t-84 -35.5t-35 -85z" />
<glyph unicode="&#xb1;" horiz-adv-x="1015" d="M82 53v123q0 20 15.5 35.5t37.5 15.5h748q23 0 37 -15t14 -36v-123q0 -23 -15.5 -38t-35.5 -15h-748q-20 0 -36.5 16.5t-16.5 36.5zM82 713v145q0 23 16.5 38t36.5 15h195q23 0 38 15.5t15 38.5v194q0 20 15.5 35.5t37.5 15.5h146q20 0 35.5 -15t15.5 -36v-194 q0 -23 15.5 -38.5t37.5 -15.5h195q20 0 36.5 -15t16.5 -38v-145q0 -20 -16.5 -37t-36.5 -17h-195q-23 0 -38 -15t-15 -36v-194q0 -23 -15.5 -38.5t-35.5 -15.5h-146q-23 0 -38 16.5t-15 37.5v194q0 20 -15.5 35.5t-37.5 15.5h-195q-20 0 -36.5 17t-16.5 37z" />
<glyph unicode="&#xb2;" horiz-adv-x="614" d="M133 610v242q0 23 15.5 38t37.5 15h242q23 0 38 -15.5t15 -37.5v-242q0 -23 -15 -38t-38 -15h-242q-23 0 -38 15t-15 38z" />
<glyph unicode="&#xb3;" horiz-adv-x="614" d="M133 610v242q0 23 15.5 38t37.5 15h242q23 0 38 -15.5t15 -37.5v-242q0 -23 -15 -38t-38 -15h-242q-23 0 -38 15t-15 38z" />
<glyph unicode="&#xb4;" horiz-adv-x="460" d="M90 1214l43 172q4 20 23.5 36t42.5 16h153q20 0 29.5 -13.5t-0.5 -33.5l-90 -181q-25 -47 -76 -47h-86q-23 0 -34 15.5t-5 35.5z" />
<glyph unicode="&#xb5;" d="M72 -297v1280q0 20 15 36.5t38 16.5h154q20 0 35.5 -15t15.5 -38v-670q0 -109 100 -108q41 0 69.5 27.5t28.5 72.5v678q0 20 16.5 36.5t37.5 16.5h153q23 0 38 -16t15 -37v-930q0 -20 -15 -36.5t-38 -16.5h-145q-20 0 -36.5 16.5t-16.5 36.5v27q0 25 -23 24 q-12 0 -22 -16q-53 -90 -162 -102v-283q0 -23 -15.5 -38t-35.5 -15h-154q-23 0 -38 15t-15 38z" />
<glyph unicode="&#xb6;" horiz-adv-x="714" d="M20 1126q0 141 70 238.5t180 97.5h338q14 0 15 -14v-1434q0 -14 -15 -14h-106q-16 0 -17 14v1342h-84v-1342q0 -14 -14 -14h-117q-14 0 -14 14v779q-106 8 -171 103t-65 230z" />
<glyph unicode="&#xb7;" horiz-adv-x="423" d="M82 502v184q0 20 15.5 35.5t37.5 15.5h154q23 0 38 -15t15 -36v-184q0 -23 -15.5 -38t-37.5 -15h-154q-20 0 -36.5 15t-16.5 38z" />
<glyph unicode="&#xb8;" horiz-adv-x="659" d="M84 -461q4 41 4 51q6 37 41 23q86 -37 160 -37q51 0 80.5 32t29.5 81q0 45 -30.5 72.5t-85.5 27.5q-61 0 -103 -8q-27 -4 -44 13.5t-13 41.5q6 33 41 203h164l-23 -78q-10 -39 29 -39h12q106 0 170 -63.5t64 -167.5q0 -106 -80 -179t-203 -73q-96 0 -182 45 q-33 18 -31 55z" />
<glyph unicode="&#xb9;" horiz-adv-x="614" d="M133 610v242q0 23 15.5 38t37.5 15h242q23 0 38 -15.5t15 -37.5v-242q0 -23 -15 -38t-38 -15h-242q-23 0 -38 15t-15 38z" />
<glyph unicode="&#xba;" horiz-adv-x="606" d="M82 1032v246q0 92 59.5 149.5t162 57.5t161.5 -57.5t59 -149.5v-246q0 -92 -59 -149.5t-161.5 -57.5t-162 57.5t-59.5 149.5zM242 1028q0 -29 17 -47t44 -18t44.5 18t17.5 47v254q0 29 -17.5 47.5t-44.5 18.5t-44 -18.5t-17 -47.5v-254z" />
<glyph unicode="&#xbb;" horiz-adv-x="1136" d="M75 87.5q-5 21.5 7 39.5l225 352q12 18 12 43q0 27 -12 45l-223 351q-12 18 -7 40.5t23 32.5l123 74q14 8 29 8q27 0 43 -24l295 -482q12 -18 12 -44.5t-12 -45.5l-295 -481q-12 -20 -41 -25q-18 0 -33 9l-123 75q-18 11 -23 32.5zM548 87.5q-5 21.5 7 39.5l225 352 q12 18 13 43q0 27 -13 45l-223 351q-12 18 -7 40.5t23 32.5l123 74q14 8 29 8q29 0 43 -24l295 -482q12 -18 12 -44.5t-12 -45.5l-297 -481q-12 -20 -41 -25q-16 0 -31 9l-123 75q-18 11 -23 32.5z" />
<glyph unicode="&#xbc;" horiz-adv-x="614" d="M133 610v242q0 23 15.5 38t37.5 15h242q23 0 38 -15.5t15 -37.5v-242q0 -23 -15 -38t-38 -15h-242q-23 0 -38 15t-15 38z" />
<glyph unicode="&#xbd;" horiz-adv-x="614" d="M133 610v242q0 23 15.5 38t37.5 15h242q23 0 38 -15.5t15 -37.5v-242q0 -23 -15 -38t-38 -15h-242q-23 0 -38 15t-15 38z" />
<glyph unicode="&#xbe;" horiz-adv-x="614" d="M133 610v242q0 23 15.5 38t37.5 15h242q23 0 38 -15.5t15 -37.5v-242q0 -23 -15 -38t-38 -15h-242q-23 0 -38 15t-15 38z" />
<glyph unicode="&#xbf;" horiz-adv-x="880" d="M51 334q0 233 137 397q145 170 146 283q0 47 -2 59q-6 39 30 39h148q35 0 43 -31q16 -47 16 -123q0 -135 -159 -325q-51 -63 -65.5 -129t-14.5 -170q0 -57 29.5 -89t80.5 -32q123 0 123 160v92q0 23 15.5 38t35.5 15h160q20 0 36.5 -15.5t16.5 -37.5l2 -92 q4 -178 -105.5 -287t-277.5 -109q-182 0 -288.5 98.5t-106.5 258.5zM295 1225v184q0 20 16.5 36.5t36.5 16.5h154q23 0 38 -16t15 -37v-184q0 -20 -15.5 -35.5t-37.5 -15.5h-154q-23 0 -38 15.5t-15 35.5z" />
<glyph unicode="&#xc0;" horiz-adv-x="970" d="M14 51l291 1360q4 23 22.5 37t41.5 14h243q23 0 41.5 -15t22.5 -36l291 -1360q4 -20 -7.5 -35.5t-33.5 -15.5h-187q-23 0 -40 14.5t-21 36.5l-43 232q-4 23 -22.5 38t-39.5 15h-165q-23 0 -40.5 -15.5t-21.5 -37.5l-43 -232q-4 -23 -22.5 -37t-38.5 -14h-187 q-23 0 -34 14t-7 37zM281.5 1848.5q9.5 13.5 29.5 13.5h154q23 0 42 -15.5t23 -36.5l43 -172q4 -23 -7 -37t-31 -14h-86q-53 0 -76 47l-90 181q-11 20 -1.5 33.5zM401 598q-4 -23 9.5 -37t35.5 -14h89q20 0 32.5 14t10.5 37l-64 477q-4 23 -25 23q-23 0 -22 -23z" />
<glyph unicode="&#xc1;" horiz-adv-x="970" d="M14 51l291 1360q4 23 22.5 37t41.5 14h243q23 0 41.5 -15t22.5 -36l291 -1360q4 -20 -7.5 -35.5t-33.5 -15.5h-187q-23 0 -40 14.5t-21 36.5l-43 232q-4 23 -22.5 38t-39.5 15h-165q-23 0 -40.5 -15.5t-21.5 -37.5l-43 -232q-4 -23 -22.5 -37t-38.5 -14h-187 q-23 0 -34 14t-7 37zM401 598q-4 -23 9.5 -37t35.5 -14h89q20 0 32.5 14t10.5 37l-64 477q-4 23 -25 23q-23 0 -22 -23zM418 1638l43 172q4 20 23.5 36t41.5 16h154q20 0 29.5 -13.5t-0.5 -33.5l-91 -181q-23 -47 -75 -47h-86q-20 0 -31.5 14t-7.5 37z" />
<glyph unicode="&#xc2;" horiz-adv-x="970" d="M14 51l291 1360q4 23 22.5 37t41.5 14h243q23 0 41.5 -15t22.5 -36l291 -1360q4 -20 -7.5 -35.5t-33.5 -15.5h-187q-23 0 -40 14.5t-21 36.5l-43 232q-4 23 -22.5 38t-39.5 15h-165q-23 0 -40.5 -15.5t-21.5 -37.5l-43 -232q-4 -23 -22.5 -37t-38.5 -14h-187 q-23 0 -34 14t-7 37zM209 1602.5q-4 9.5 2 15.5q16 18 67.5 71.5t94.5 98.5l41 45q18 18 41 18h84q14 0 34 -16q43 -45 103.5 -113.5t93.5 -103.5q8 -8 3 -16.5t-19 -8.5h-162q-14 0 -25 9q-6 4 -30.5 33.5t-34.5 37.5q-4 2 -8.5 2t-6.5 -2q-29 -20 -77 -74q-8 -6 -21 -6 h-164q-12 0 -16 9.5zM401 598q-4 -23 9.5 -37t35.5 -14h89q20 0 32.5 14t10.5 37l-64 477q-4 23 -25 23q-23 0 -22 -23z" />
<glyph unicode="&#xc3;" horiz-adv-x="970" d="M14 51l291 1360q4 23 22.5 37t41.5 14h243q23 0 41.5 -15t22.5 -36l291 -1360q4 -20 -7.5 -35.5t-33.5 -15.5h-187q-23 0 -40 14.5t-21 36.5l-43 232q-4 23 -22.5 38t-39.5 15h-165q-23 0 -40.5 -15.5t-21.5 -37.5l-43 -232q-4 -23 -22.5 -37t-38.5 -14h-187 q-23 0 -34 14t-7 37zM217 1610q0 94 57.5 142t135.5 48q61 0 117.5 -28.5t72.5 -28.5q43 0 43 43q0 14 10 14h129q14 0 15 -16q0 -80 -50.5 -135.5t-144.5 -55.5q-47 0 -104.5 29t-79.5 29q-49 0 -49 -43q0 -14 -13 -15h-129q-10 1 -10 17zM401 598q-4 -23 9.5 -37t35.5 -14 h89q20 0 32.5 14t10.5 37l-64 477q-4 23 -25 23q-23 0 -22 -23z" />
<glyph unicode="&#xc4;" horiz-adv-x="970" d="M14 51l291 1360q4 23 22.5 37t41.5 14h243q23 0 41.5 -15t22.5 -36l291 -1360q4 -20 -7.5 -35.5t-33.5 -15.5h-187q-23 0 -40 14.5t-21 36.5l-43 232q-4 23 -22.5 38t-39.5 15h-165q-23 0 -40.5 -15.5t-21.5 -37.5l-43 -232q-4 -23 -22.5 -37t-38.5 -14h-187 q-23 0 -34 14t-7 37zM193 1640v123q0 23 16 38.5t37 15.5h131q20 0 36.5 -15.5t16.5 -38.5v-123q0 -23 -16.5 -38t-36.5 -15h-131q-20 0 -36.5 15t-16.5 38zM401 598q-4 -23 9.5 -37t35.5 -14h89q20 0 32.5 14t10.5 37l-64 477q-4 23 -25 23q-23 0 -22 -23zM551 1640v123 q0 23 15.5 38.5t37.5 15.5h131q20 0 35.5 -15.5t15.5 -38.5v-123q0 -23 -15 -38t-36 -15h-131q-23 0 -38 15t-15 38z" />
<glyph unicode="&#xc5;" horiz-adv-x="970" d="M14 51l291 1360q4 23 22.5 37t41.5 14h243q23 0 41.5 -15t22.5 -36l291 -1360q4 -20 -7.5 -35.5t-33.5 -15.5h-187q-23 0 -40 14.5t-21 36.5l-43 232q-4 23 -22.5 38t-39.5 15h-165q-23 0 -40.5 -15.5t-21.5 -37.5l-43 -232q-4 -23 -22.5 -37t-38.5 -14h-187 q-23 0 -34 14t-7 37zM344 1720.5q0 65.5 47 112.5t112.5 47t113 -47t47.5 -112.5t-47.5 -112.5t-113 -47t-112.5 47t-47 112.5zM401 598q-4 -23 9.5 -37t35.5 -14h89q20 0 32.5 14t10.5 37l-64 477q-4 23 -25 23q-23 0 -22 -23zM446 1720.5q0 -24.5 16.5 -41t41 -16.5 t41 16.5t16.5 41t-16.5 42t-41 17.5t-41 -17.5t-16.5 -42z" />
<glyph unicode="&#xc6;" horiz-adv-x="1507" d="M-2 51l479 1360q8 20 28.5 35.5t43.5 15.5h848q23 0 38 -14t15 -37v-147q0 -23 -15.5 -37.5t-37.5 -14.5h-338q-20 0 -35.5 -15t-15.5 -38v-207q0 -23 15 -38t36 -15h278q23 0 37.5 -15.5t14.5 -37.5v-146q0 -23 -14.5 -38t-37.5 -15h-278q-20 0 -35.5 -15.5t-15.5 -37.5 v-291q0 -20 14 -35.5t37 -15.5h360q23 0 38.5 -15.5t15.5 -37.5v-146q0 -23 -15.5 -38t-38.5 -15h-649q-20 0 -36.5 16.5t-16.5 36.5v230q0 23 -15.5 38t-37.5 15h-234q-20 0 -40.5 -15.5t-29.5 -37.5l-73 -232q-6 -20 -26.5 -35.5t-43.5 -15.5h-184q-20 0 -30.5 14t-4.5 37 zM463 598q-6 -23 4 -37t31 -14h170q20 0 34.5 14t14.5 37v567q0 47 -29 47q-31 0 -43 -38q-4 -19 -182 -576z" />
<glyph unicode="&#xc7;" horiz-adv-x="956" d="M72 365v731q0 170 114.5 279.5t305.5 109.5q188 0 295.5 -109.5t107.5 -279.5v-138q0 -20 -15.5 -36.5t-37.5 -16.5h-176q-23 0 -38.5 16.5t-15.5 36.5v138q0 55 -30.5 96t-89.5 41q-66 0 -99 -41t-33 -96v-731q0 -55 33 -96.5t99 -41.5q59 0 89.5 41t30.5 97v137 q0 23 15.5 38t38.5 15h176q23 0 38 -15.5t15 -37.5v-137q0 -160 -93 -266.5t-259 -121.5l-4 -16q-10 -39 28 -39h13q106 0 169.5 -63.5t63.5 -167.5q0 -106 -80 -179t-203 -73q-96 0 -182 45q-33 18 -31 55q4 41 5 51q6 37 40 23q86 -37 160 -37q51 0 81 32t30 81 q0 45 -31 72.5t-86 27.5q-61 0 -102 -8q-27 -4 -44.5 13.5t-13.5 41.5q4 31 29 150q-145 29 -229 132.5t-84 246.5z" />
<glyph unicode="&#xc8;" horiz-adv-x="888" d="M92 53v1358q0 20 15.5 35.5t37.5 15.5h627q23 0 38 -15t15 -36v-147q0 -20 -15 -36t-38 -16h-338q-20 0 -35.5 -15t-15.5 -38v-207q0 -23 15.5 -38t35.5 -15h277q23 0 38 -15.5t15 -37.5v-146q0 -20 -15.5 -36.5t-37.5 -16.5h-277q-20 0 -35.5 -14.5t-15.5 -36.5v-293 q0 -20 15.5 -35.5t35.5 -15.5h361q20 0 36.5 -15.5t16.5 -37.5v-146q0 -20 -16.5 -36.5t-36.5 -16.5h-650q-23 0 -38 16.5t-15 36.5zM251 1848.5q9 13.5 30 13.5h153q23 0 42.5 -15.5t23.5 -36.5l43 -172q4 -23 -7.5 -37t-31.5 -14h-86q-53 0 -76 47l-90 181q-10 20 -1 33.5 z" />
<glyph unicode="&#xc9;" horiz-adv-x="888" d="M92 53v1358q0 20 15.5 35.5t37.5 15.5h627q23 0 38 -15t15 -36v-147q0 -20 -15 -36t-38 -16h-338q-20 0 -35.5 -15t-15.5 -38v-207q0 -23 15.5 -38t35.5 -15h277q23 0 38 -15.5t15 -37.5v-146q0 -20 -15.5 -36.5t-37.5 -16.5h-277q-20 0 -35.5 -14.5t-15.5 -36.5v-293 q0 -20 15.5 -35.5t35.5 -15.5h361q20 0 36.5 -15.5t16.5 -37.5v-146q0 -20 -16.5 -36.5t-36.5 -16.5h-650q-23 0 -38 16.5t-15 36.5zM377 1638l43 172q4 20 23.5 36t41.5 16h154q20 0 29.5 -13.5t-0.5 -33.5l-90 -181q-23 -47 -76 -47h-86q-20 0 -31.5 14t-7.5 37z" />
<glyph unicode="&#xca;" horiz-adv-x="888" d="M92 53v1358q0 20 15.5 35.5t37.5 15.5h627q23 0 38 -15t15 -36v-147q0 -20 -15 -36t-38 -16h-338q-20 0 -35.5 -15t-15.5 -38v-207q0 -23 15.5 -38t35.5 -15h277q23 0 38 -15.5t15 -37.5v-146q0 -20 -15.5 -36.5t-37.5 -16.5h-277q-20 0 -35.5 -14.5t-15.5 -36.5v-293 q0 -20 15.5 -35.5t35.5 -15.5h361q20 0 36.5 -15.5t16.5 -37.5v-146q0 -20 -16.5 -36.5t-36.5 -16.5h-650q-23 0 -38 16.5t-15 36.5zM180 1602.5q-4 9.5 2 15.5q16 18 67.5 71.5t94.5 98.5l41 45q18 18 41 18h84q14 0 35 -16q43 -45 103.5 -113.5t92.5 -103.5q8 -8 3 -16.5 t-19 -8.5h-162q-14 0 -24 9q-6 4 -31 33.5t-35 37.5q-4 2 -8 2t-6 -2q-29 -20 -78 -74q-8 -6 -21 -6h-163q-13 0 -17 9.5z" />
<glyph unicode="&#xcb;" horiz-adv-x="888" d="M92 53v1358q0 20 15.5 35.5t37.5 15.5h627q23 0 38 -15t15 -36v-147q0 -20 -15 -36t-38 -16h-338q-20 0 -35.5 -15t-15.5 -38v-207q0 -23 15.5 -38t35.5 -15h277q23 0 38 -15.5t15 -37.5v-146q0 -20 -15.5 -36.5t-37.5 -16.5h-277q-20 0 -35.5 -14.5t-15.5 -36.5v-293 q0 -20 15.5 -35.5t35.5 -15.5h361q20 0 36.5 -15.5t16.5 -37.5v-146q0 -20 -16.5 -36.5t-36.5 -16.5h-650q-23 0 -38 16.5t-15 36.5zM154 1640v123q0 23 15 38.5t38 15.5h131q23 0 38 -15.5t15 -38.5v-123q0 -23 -15.5 -38t-37.5 -15h-131q-23 0 -38 15t-15 38zM512 1640 v123q0 23 16.5 38.5t36.5 15.5h131q20 0 36 -15.5t16 -38.5v-123q0 -23 -15.5 -38t-36.5 -15h-131q-20 0 -36.5 15t-16.5 38z" />
<glyph unicode="&#xcc;" horiz-adv-x="485" d="M44 1848.5q9 13.5 30 13.5h153q23 0 42.5 -15.5t23.5 -36.5l43 -172q4 -23 -7.5 -37t-31.5 -14h-86q-53 0 -76 47l-90 181q-10 20 -1 33.5zM98 53v1358q0 20 15.5 35.5t38.5 15.5h182q23 0 38 -15t15 -36v-1358q0 -20 -15.5 -36.5t-37.5 -16.5h-182q-20 0 -37 16.5 t-17 36.5z" />
<glyph unicode="&#xcd;" horiz-adv-x="485" d="M98 53v1358q0 20 15.5 35.5t38.5 15.5h182q23 0 38 -15t15 -36v-1358q0 -20 -15.5 -36.5t-37.5 -16.5h-182q-20 0 -37 16.5t-17 36.5zM156 1638l43 172q4 20 23.5 36t41.5 16h154q20 0 29.5 -13.5t-1.5 -33.5l-90 -181q-23 -47 -75 -47h-86q-20 0 -31.5 14t-7.5 37z" />
<glyph unicode="&#xce;" horiz-adv-x="485" d="M-43 1602.5q-4 9.5 2 15.5q12 12 36.5 37.5t52.5 55.5t53.5 57.5t41.5 46.5l19 18q18 18 41 18h84q18 0 35 -16q45 -47 105 -115.5t91 -101.5q8 -8 3 -16.5t-19 -8.5h-162q-14 0 -25 9q-6 4 -29.5 33.5t-35.5 37.5q-2 2 -8 2q-4 0 -6 -2q-27 -20 -78 -74q-10 -6 -21 -6 h-164q-12 0 -16 9.5zM98 53v1358q0 20 15.5 35.5t38.5 15.5h182q23 0 38 -15t15 -36v-1358q0 -20 -15.5 -36.5t-37.5 -16.5h-182q-20 0 -37 16.5t-17 36.5z" />
<glyph unicode="&#xcf;" horiz-adv-x="485" d="M-55 1640v123q0 23 15 38.5t38 15.5h131q23 0 38 -15.5t15 -38.5v-123h2q0 -23 -16 -38t-37 -15h-131q-23 0 -39 15t-16 38zM98 53v1358q0 20 15.5 35.5t38.5 15.5h182q23 0 38 -15t15 -36v-1358q0 -20 -15.5 -36.5t-37.5 -16.5h-182q-20 0 -37 16.5t-17 36.5zM303 1640 v123q0 23 16.5 38.5t36.5 15.5h131q23 0 38.5 -15.5t15.5 -38.5v-123q0 -23 -15.5 -38t-36.5 -15h-131q-23 0 -39 15t-16 38z" />
<glyph unicode="&#xd0;" horiz-adv-x="1048" d="M16 670v114q0 23 16.5 38.5t37.5 15.5h84v573q0 20 15 35.5t38 15.5h350q190 0 305 -109.5t115 -277.5v-686q0 -170 -114.5 -279.5t-305.5 -109.5h-350q-23 0 -38 16.5t-15 36.5v563h-84q-20 0 -37 15.5t-17 38.5zM442 303q0 -20 15.5 -35.5t38.5 -15.5h61q63 0 96 40 t33 97v686q0 57 -32.5 97t-96.5 40h-61q-20 0 -37 -16t-17 -37v-321h70q20 0 36.5 -15.5t16.5 -38.5v-114q0 -23 -16.5 -38.5t-36.5 -15.5h-70v-313z" />
<glyph unicode="&#xd1;" horiz-adv-x="1044" d="M92 53v1358q0 20 15.5 35.5t37.5 15.5h185q55 0 69 -49l234 -725q6 -16 18 -16q20 0 21 20v719q0 23 14 37t37 14h178q20 0 35.5 -14t15.5 -37v-1358q0 -23 -15 -38t-36 -15h-178q-23 0 -43.5 14.5t-26.5 34.5l-239 739q-6 14 -21 15q-18 0 -18 -19v-731 q0 -20 -15.5 -36.5t-37.5 -16.5h-177q-23 0 -38 16.5t-15 36.5zM246 1610q0 94 57 142t135 48q61 0 117.5 -28.5t73.5 -28.5q43 0 43 43q0 14 10 14h129q14 0 14 -16q0 -80 -50 -135.5t-144 -55.5q-47 0 -104.5 29t-80.5 29q-49 0 -49 -43q0 -14 -12 -15h-129q-10 1 -10 17z " />
<glyph unicode="&#xd2;" horiz-adv-x="980" d="M72 365v731q0 170 113.5 279.5t304 109.5t305 -109.5t114.5 -279.5v-731q0 -170 -114.5 -280t-305 -110t-304 110t-113.5 280zM283.5 1848.5q9.5 13.5 29.5 13.5h154q23 0 42 -15.5t23 -36.5l43 -172q4 -23 -7 -37t-31 -14h-86q-53 0 -76 47l-90 181q-11 20 -1.5 33.5z M360 365q0 -57 33 -97.5t96.5 -40.5t96 40t32.5 98v731q0 57 -32.5 97t-96 40t-96.5 -40t-33 -97v-731z" />
<glyph unicode="&#xd3;" horiz-adv-x="980" d="M72 365v731q0 170 113.5 279.5t304 109.5t305 -109.5t114.5 -279.5v-731q0 -170 -114.5 -280t-305 -110t-304 110t-113.5 280zM360 365q0 -57 33 -97.5t96.5 -40.5t96 40t32.5 98v731q0 57 -32.5 97t-96 40t-96.5 -40t-33 -97v-731zM412 1638l43 172q4 20 23.5 36 t41.5 16h154q20 0 29.5 -13.5t-1.5 -33.5l-90 -181q-23 -47 -75 -47h-86q-20 0 -31.5 14t-7.5 37z" />
<glyph unicode="&#xd4;" horiz-adv-x="980" d="M72 365v731q0 170 113.5 279.5t304 109.5t305 -109.5t114.5 -279.5v-731q0 -170 -114.5 -280t-305 -110t-304 110t-113.5 280zM209 1602.5q-4 9.5 2 15.5q12 12 36.5 37.5t52.5 55.5t53.5 57.5t43.5 46.5l17 18q18 18 41 18h84q18 0 34 -16q45 -47 105.5 -115.5 t91.5 -101.5q8 -8 3 -16.5t-19 -8.5h-162q-14 0 -25 9q-6 4 -29.5 33.5t-35.5 37.5q-2 2 -8 2q-4 0 -7 -2q-27 -20 -77 -74q-8 -6 -21 -6h-164q-12 0 -16 9.5zM360 365q0 -57 33 -97.5t96.5 -40.5t96 40t32.5 98v731q0 57 -32.5 97t-96 40t-96.5 -40t-33 -97v-731z" />
<glyph unicode="&#xd5;" horiz-adv-x="980" d="M72 365v731q0 170 113.5 279.5t304 109.5t305 -109.5t114.5 -279.5v-731q0 -170 -114.5 -280t-305 -110t-304 110t-113.5 280zM201 1610q0 94 57 142t135 48q61 0 117.5 -28.5t73.5 -28.5q43 0 43 43q0 14 10 14h129q14 0 14 -16q0 -80 -50 -135.5t-144 -55.5 q-47 0 -104.5 29t-80.5 29q-49 0 -49 -43q0 -14 -12 -15h-129q-10 1 -10 17zM360 365q0 -57 33 -97.5t96.5 -40.5t96 40t32.5 98v731q0 57 -32.5 97t-96 40t-96.5 -40t-33 -97v-731z" />
<glyph unicode="&#xd6;" horiz-adv-x="980" d="M72 365v731q0 170 113.5 279.5t304 109.5t305 -109.5t114.5 -279.5v-731q0 -170 -114.5 -280t-305 -110t-304 110t-113.5 280zM193 1640v123q0 23 16 38.5t37 15.5h131q23 0 38 -15.5t15 -38.5v-123h2q0 -23 -15.5 -38t-37.5 -15h-131q-23 0 -39 15t-16 38zM360 365 q0 -57 33 -97.5t96.5 -40.5t96 40t32.5 98v731q0 57 -32.5 97t-96 40t-96.5 -40t-33 -97v-731zM551 1640v123q0 23 15.5 38.5t37.5 15.5h131q23 0 38 -15.5t15 -38.5v-123q0 -23 -15 -38t-36 -15h-131q-23 0 -39 15t-16 38z" />
<glyph unicode="&#xd7;" horiz-adv-x="786" d="M45 481.5q0 22.5 16 36.5l140 137q16 16 16 39t-16 37l-140 137q-16 16 -16 37t16 37l105 105q14 14 36.5 14t37.5 -14l137 -140q16 -14 38.5 -14t37.5 14l137 140q16 14 36.5 14t37.5 -14l102 -105q16 -16 16 -36.5t-16 -37.5l-137 -137q-14 -14 -14.5 -36.5t14.5 -39.5 l137 -137q16 -14 16 -36.5t-16 -37.5l-102 -104q-16 -16 -37 -16t-37 16l-137 139q-14 16 -37 16.5t-39 -16.5l-137 -139q-14 -16 -37 -16t-37 16l-105 104q-16 15 -16 37.5z" />
<glyph unicode="&#xd8;" horiz-adv-x="983" d="M72 365v731q0 170 114.5 279.5t305.5 109.5q102 0 188 -35l29 84q18 47 65 33q23 -8 33 -27.5t2 -40.5l-37 -104q139 -111 139 -299v-731q0 -170 -114.5 -280t-304.5 -110q-98 0 -189 37l-29 -84q-18 -49 -65 -32.5t-33 65.5l35 105q-139 111 -139 299zM362 512l230 678 q-33 43 -100 43q-63 0 -96.5 -40t-33.5 -97v-584zM391 272q35 -45 101 -45q63 0 96 40t33 98v583z" />
<glyph unicode="&#xd9;" horiz-adv-x="995" d="M86 365v1044q0 20 16.5 36.5t36.5 16.5h185q20 0 35.5 -15t15.5 -38v-1044q0 -57 29.5 -97.5t93 -40.5t92 40t28.5 98v1044q0 20 16.5 36.5t37.5 16.5h184q20 0 36.5 -16t16.5 -37v-1044q0 -170 -111.5 -280t-300 -110t-300 110t-111.5 280zM296 1848.5q9 13.5 30 13.5 h153q23 0 42.5 -15.5t23.5 -36.5l43 -172q4 -23 -7.5 -37t-31.5 -14h-86q-53 0 -76 47l-90 181q-10 20 -1 33.5z" />
<glyph unicode="&#xda;" horiz-adv-x="995" d="M86 365v1044q0 20 16.5 36.5t36.5 16.5h185q20 0 35.5 -15t15.5 -38v-1044q0 -57 29.5 -97.5t93 -40.5t92 40t28.5 98v1044q0 20 16.5 36.5t37.5 16.5h184q20 0 36.5 -16t16.5 -37v-1044q0 -170 -111.5 -280t-300 -110t-300 110t-111.5 280zM416 1638l43 172 q4 20 23.5 36t41.5 16h154q20 0 29.5 -13.5t-0.5 -33.5l-91 -181q-23 -47 -75 -47h-86q-20 0 -31.5 14t-7.5 37z" />
<glyph unicode="&#xdb;" horiz-adv-x="995" d="M86 365v1044q0 20 16.5 36.5t36.5 16.5h185q20 0 35.5 -15t15.5 -38v-1044q0 -57 29.5 -97.5t93 -40.5t92 40t28.5 98v1044q0 20 16.5 36.5t37.5 16.5h184q20 0 36.5 -16t16.5 -37v-1044q0 -170 -111.5 -280t-300 -110t-300 110t-111.5 280zM217 1602.5q-4 9.5 2 15.5 q14 14 66.5 70.5t93.5 100.5t43 44q18 18 41 18h84q14 0 35 -16q43 -45 103 -113.5t93 -103.5q8 -8 3 -16.5t-19 -8.5h-162q-14 0 -25 9q-6 4 -30.5 33.5t-34.5 37.5q-4 2 -8 2t-6 -2q-29 -20 -78 -74q-8 -6 -21 -6h-164q-12 0 -16 9.5z" />
<glyph unicode="&#xdc;" horiz-adv-x="995" d="M86 365v1044q0 20 16.5 36.5t36.5 16.5h185q20 0 35.5 -15t15.5 -38v-1044q0 -57 29.5 -97.5t93 -40.5t92 40t28.5 98v1044q0 20 16.5 36.5t37.5 16.5h184q20 0 36.5 -16t16.5 -37v-1044q0 -170 -111.5 -280t-300 -110t-300 110t-111.5 280zM201 1640v123q0 23 16 38.5 t37 15.5h131q20 0 36.5 -15.5t16.5 -38.5v-123q0 -23 -16 -38t-37 -15h-131q-20 0 -36.5 15t-16.5 38zM559 1640v123q0 23 15.5 38.5t37.5 15.5h131q20 0 36 -15.5t16 -38.5v-123q0 -23 -15.5 -38t-36.5 -15h-131q-23 0 -38 15t-15 38z" />
<glyph unicode="&#xdd;" horiz-adv-x="813" d="M-10 1413q-6 20 4 34.5t31 14.5h168q59 0 69 -49l129 -448q6 -20 22.5 -20.5t22.5 20.5l131 448q14 49 68 49h170q23 0 33 -14t2 -35l-262 -713q-12 -39 -15 -53q-4 -37 -4 -49v-545q0 -23 -15.5 -38t-37.5 -15h-184q-23 0 -38.5 16.5t-15.5 36.5v547q0 25 -6 55 q-4 31 -12 47zM346 1638l43 172q4 20 23.5 36t42.5 16h153q20 0 29.5 -13.5t-0.5 -33.5l-90 -181q-23 -47 -76 -47h-86q-20 0 -31.5 14t-7.5 37z" />
<glyph unicode="&#xde;" horiz-adv-x="845" d="M92 53v1358q0 20 15.5 35.5t37.5 15.5h154q23 0 38 -15t15 -36v-321h152q164 0 253 -85t89 -235v-84q0 -150 -89 -234.5t-253 -84.5h-152v-314q0 -20 -16.5 -36.5t-36.5 -16.5h-154q-23 0 -38 16.5t-15 36.5zM352 571h152q45 0 71.5 30t26.5 77v98q0 47 -26.5 78 t-71.5 31h-152v-314z" />
<glyph unicode="&#xdf;" horiz-adv-x="1030" d="M82 53v983q0 225 120 337t314 112q190 0 304 -115t114 -295q0 -199 -121 -295q-18 -14 -18 -28q0 -10 18 -25q145 -111 145 -332q0 -182 -110.5 -288.5t-294.5 -106.5h-68q-23 0 -38 16.5t-15 36.5v160q0 20 15.5 36.5t37.5 16.5h54q63 0 96 40t33 97v93q0 57 -33 97 t-96 40h-54q-23 0 -38 15.5t-15 35.5v117q0 23 15.5 38t37.5 15h31q63 0 96 40t33 97v60q0 84 -35 134t-102 50q-78 0 -107.5 -56.5t-29.5 -181.5v-944q0 -20 -15.5 -36.5t-38.5 -16.5h-182q-20 0 -36.5 16.5t-16.5 36.5z" />
<glyph unicode="&#xe0;" horiz-adv-x="825" d="M61 252q0 70 24 125t56.5 90t91 65.5t101.5 45t112 34.5q49 14 50 66v53q0 47 -23.5 77t-69.5 30q-90 0 -90 -107v-29q0 -23 -15 -38t-38 -15h-137q-20 0 -36.5 15.5t-16.5 37.5v13q0 143 91 239.5t251 96.5q170 0 257 -103.5t87 -263.5v-479q0 -88 26 -137q16 -25 2 -45 q-16 -23 -59 -23h-119q-47 0 -69 37q-2 4 -8.5 12t-8.5 12q-6 12 -20 13q-12 0 -23 -8q-59 -47 -97 -64.5t-97 -17.5q-100 0 -161 79.5t-61 188.5zM220 1424.5q9 13.5 30 13.5h153q23 0 42.5 -14.5t23.5 -37.5l43 -172q6 -23 -5 -37t-34 -14h-86q-51 0 -76 47l-90 181 q-10 20 -1 33.5zM319 266q0 -37 18.5 -63.5t55.5 -26.5q49 0 76 32t27 85v141q0 20 -15 23q-4 2 -18 -2q-59 -18 -101.5 -73t-42.5 -116z" />
<glyph unicode="&#xe1;" horiz-adv-x="825" d="M61 252q0 70 24 125t56.5 90t91 65.5t101.5 45t112 34.5q49 14 50 66v53q0 47 -23.5 77t-69.5 30q-90 0 -90 -107v-29q0 -23 -15 -38t-38 -15h-137q-20 0 -36.5 15.5t-16.5 37.5v13q0 143 91 239.5t251 96.5q170 0 257 -103.5t87 -263.5v-479q0 -88 26 -137q16 -25 2 -45 q-16 -23 -59 -23h-119q-47 0 -69 37q-2 4 -8.5 12t-8.5 12q-6 12 -20 13q-12 0 -23 -8q-59 -47 -97 -64.5t-97 -17.5q-100 0 -161 79.5t-61 188.5zM319 266q0 -37 18.5 -63.5t55.5 -26.5q49 0 76 32t27 85v141q0 20 -15 23q-4 2 -18 -2q-59 -18 -101.5 -73t-42.5 -116z M344 1214l43 172q4 20 23.5 36t42.5 16h153q20 0 29.5 -13.5t-0.5 -33.5l-90 -181q-25 -47 -76 -47h-86q-23 0 -34 15.5t-5 35.5z" />
<glyph unicode="&#xe2;" horiz-adv-x="825" d="M61 252q0 70 24 125t56.5 90t91 65.5t101.5 45t112 34.5q49 14 50 66v53q0 47 -23.5 77t-69.5 30q-90 0 -90 -107v-29q0 -23 -15 -38t-38 -15h-137q-20 0 -36.5 15.5t-16.5 37.5v13q0 143 91 239.5t251 96.5q170 0 257 -103.5t87 -263.5v-479q0 -88 26 -137q16 -25 2 -45 q-16 -23 -59 -23h-119q-47 0 -69 37q-2 4 -8.5 12t-8.5 12q-6 12 -20 13q-12 0 -23 -8q-59 -47 -97 -64.5t-97 -17.5q-100 0 -161 79.5t-61 188.5zM139 1164.5q-4 9.5 2 15.5q12 12 37 37.5t52.5 55.5t53 57.5t44.5 45.5l16 19q18 18 41 18h84q18 0 35 -16 q45 -47 105.5 -116t90.5 -101q8 -8 3 -16.5t-19 -8.5h-162q-14 0 -24 8q-6 4 -30 34t-36 38q-2 2 -8 2q-4 0 -6 -2q-27 -20 -78 -74q-8 -6 -21 -6h-163q-13 0 -17 9.5zM319 266q0 -37 18.5 -63.5t55.5 -26.5q49 0 76 32t27 85v141q0 20 -15 23q-4 2 -18 -2 q-59 -18 -101.5 -73t-42.5 -116z" />
<glyph unicode="&#xe3;" horiz-adv-x="825" d="M61 252q0 70 24 125t56.5 90t91 65.5t101.5 45t112 34.5q49 14 50 66v53q0 47 -23.5 77t-69.5 30q-90 0 -90 -107v-29q0 -23 -15 -38t-38 -15h-137q-20 0 -36.5 15.5t-16.5 37.5v13q0 143 91 239.5t251 96.5q170 0 257 -103.5t87 -263.5v-479q0 -88 26 -137q16 -25 2 -45 q-16 -23 -59 -23h-119q-47 0 -69 37q-2 4 -8.5 12t-8.5 12q-6 12 -20 13q-12 0 -23 -8q-59 -47 -97 -64.5t-97 -17.5q-100 0 -161 79.5t-61 188.5zM129 1200q0 94 57.5 142.5t135.5 48.5q61 0 117.5 -29t72.5 -29q43 0 43 43q0 14 10 15h129q14 0 15 -17q0 -80 -50.5 -135 t-144.5 -55q-47 0 -104.5 28.5t-79.5 28.5q-49 0 -49 -43q0 -14 -13 -14h-129q-10 0 -10 16zM319 266q0 -37 18.5 -63.5t55.5 -26.5q49 0 76 32t27 85v141q0 20 -15 23q-4 2 -18 -2q-59 -18 -101.5 -73t-42.5 -116z" />
<glyph unicode="&#xe4;" horiz-adv-x="825" d="M61 252q0 70 24 125t56.5 90t91 65.5t101.5 45t112 34.5q49 14 50 66v53q0 47 -23.5 77t-69.5 30q-90 0 -90 -107v-29q0 -23 -15 -38t-38 -15h-137q-20 0 -36.5 15.5t-16.5 37.5v13q0 143 91 239.5t251 96.5q170 0 257 -103.5t87 -263.5v-479q0 -88 26 -137q16 -25 2 -45 q-16 -23 -59 -23h-119q-47 0 -69 37q-2 4 -8.5 12t-8.5 12q-6 12 -20 13q-12 0 -23 -8q-59 -47 -97 -64.5t-97 -17.5q-100 0 -161 79.5t-61 188.5zM131 1231v123q0 23 16.5 38t36.5 15h131q20 0 37 -15.5t17 -37.5v-123q0 -23 -16.5 -38t-37.5 -15h-131q-20 0 -36.5 15 t-16.5 38zM319 266q0 -37 18.5 -63.5t55.5 -26.5q49 0 76 32t27 85v141q0 20 -15 23q-4 2 -18 -2q-59 -18 -101.5 -73t-42.5 -116zM489 1231v123q0 23 15.5 38t38.5 15h131q20 0 35.5 -15.5t15.5 -37.5v-123q0 -23 -15.5 -38t-35.5 -15h-131q-23 0 -38.5 15t-15.5 38z" />
<glyph unicode="&#xe5;" horiz-adv-x="825" d="M61 252q0 70 24 125t56.5 90t91 65.5t101.5 45t112 34.5q49 14 50 66v53q0 47 -23.5 77t-69.5 30q-90 0 -90 -107v-29q0 -23 -15 -38t-38 -15h-137q-20 0 -36.5 15.5t-16.5 37.5v13q0 143 91 239.5t251 96.5q170 0 257 -103.5t87 -263.5v-479q0 -88 26 -137q16 -25 2 -45 q-16 -23 -59 -23h-119q-47 0 -69 37q-2 4 -8.5 12t-8.5 12q-6 12 -20 13q-12 0 -23 -8q-59 -47 -97 -64.5t-97 -17.5q-100 0 -161 79.5t-61 188.5zM252 1312.5q0 65.5 47 113t112.5 47.5t112.5 -47.5t47 -113t-47 -112.5t-112.5 -47t-112.5 47t-47 112.5zM319 266 q0 -37 18.5 -63.5t55.5 -26.5q49 0 76 32t27 85v141q0 20 -15 23q-4 2 -18 -2q-59 -18 -101.5 -73t-42.5 -116zM354 1312.5q0 -24.5 16.5 -41t41 -16.5t41 16.5t16.5 41t-16.5 42t-41 17.5t-41 -17.5t-16.5 -42z" />
<glyph unicode="&#xe6;" horiz-adv-x="1241" d="M61 274q0 66 25 119t55.5 84t93 60.5t99.5 41t112 33.5q49 14 50 66v53q0 47 -23.5 77t-69 30t-69 -30t-23.5 -77v-31q0 -23 -15 -38t-36 -15h-139q-23 0 -38 16.5t-15 36.5v15q0 143 92 238.5t252 95.5q131 0 213 -64q90 66 229 66q160 0 247 -101.5t87 -257.5v-174 q0 -29 -18.5 -45t-49.5 -16h-313q-20 0 -36.5 -15.5t-16.5 -38.5v-106q0 -51 26.5 -79t73.5 -28q53 0 80 31t27 76v31q0 23 15 38t36 15h131q20 0 36.5 -16.5t16.5 -36.5v-31q0 -127 -92 -220t-250 -93q-152 0 -250 82q-88 -82 -209 -82q-170 0 -252 78.5t-82 211.5z M319 266q0 -37 18.5 -64.5t55.5 -27.5q49 0 76 33t27 86v141q0 18 -17 23q-4 2 -16 -2q-59 -18 -101.5 -73t-42.5 -116zM754 676q0 -20 15 -35.5t38 -15.5h86q20 0 35.5 15t15.5 36v55q0 106 -90 107q-45 0 -72.5 -30t-27.5 -77v-55z" />
<glyph unicode="&#xe7;" horiz-adv-x="804" d="M61 319v396q0 152 97.5 244t261.5 92q160 0 247 -96.5t87 -239.5v-39q0 -20 -14.5 -35.5t-37.5 -15.5h-139q-23 0 -38 15t-15 36v55q0 106 -90 107q-45 0 -73 -30t-28 -77v-428q0 -47 28 -76.5t73 -29.5q90 0 90 106v55q0 20 15.5 36t37.5 16h139q23 0 37.5 -14.5 t14.5 -37.5v-39q0 -137 -80 -231t-225 -102l-7 -25q-10 -39 29 -39h12q106 0 170 -63.5t64 -167.5q0 -106 -80 -179t-203 -73q-96 0 -182 45q-33 18 -31 55q4 41 4 51q6 37 41 23q86 -37 160 -37q51 0 81 32t30 81q0 45 -31 72.5t-86 27.5q-61 0 -103 -8q-27 -4 -44 13.5 t-13 41.5q4 33 33 164q-109 33 -170.5 116.5t-61.5 202.5z" />
<glyph unicode="&#xe8;" horiz-adv-x="806" d="M61 319v381q0 166 95.5 258.5t261.5 92.5q160 0 248 -101.5t88 -257.5v-174q0 -29 -18.5 -45t-49.5 -16h-313q-20 0 -37 -15.5t-17 -38.5v-106q0 -51 26 -79t73 -28q53 0 80.5 32t27.5 75v31q0 23 15.5 38t36.5 15h131q20 0 36.5 -16.5t16.5 -36.5v-31q0 -127 -93.5 -220 t-250.5 -93q-164 0 -260.5 91.5t-96.5 243.5zM218 1424.5q9 13.5 30 13.5h153q23 0 42.5 -14.5t23.5 -37.5l43 -172q6 -23 -5 -37t-34 -14h-86q-51 0 -76 47l-90 181q-10 20 -1 33.5zM319 676q0 -20 15.5 -35.5t38.5 -15.5h84q23 0 38 15t15 36v55q0 47 -23.5 77t-68.5 30 t-72 -30t-27 -77v-55z" />
<glyph unicode="&#xe9;" horiz-adv-x="806" d="M61 319v381q0 166 95.5 258.5t261.5 92.5q160 0 248 -101.5t88 -257.5v-174q0 -29 -18.5 -45t-49.5 -16h-313q-20 0 -37 -15.5t-17 -38.5v-106q0 -51 26 -79t73 -28q53 0 80.5 32t27.5 75v31q0 23 15.5 38t36.5 15h131q20 0 36.5 -16.5t16.5 -36.5v-31q0 -127 -93.5 -220 t-250.5 -93q-164 0 -260.5 91.5t-96.5 243.5zM319 676q0 -20 15.5 -35.5t38.5 -15.5h84q23 0 38 15t15 36v55q0 47 -23.5 77t-68.5 30t-72 -30t-27 -77v-55zM326 1214l43 172q4 20 23.5 36t41.5 16h154q20 0 29.5 -13.5t-1.5 -33.5l-90 -181q-25 -47 -75 -47h-86 q-23 0 -34 15.5t-5 35.5z" />
<glyph unicode="&#xea;" horiz-adv-x="806" d="M61 319v381q0 166 95.5 258.5t261.5 92.5q160 0 248 -101.5t88 -257.5v-174q0 -29 -18.5 -45t-49.5 -16h-313q-20 0 -37 -15.5t-17 -38.5v-106q0 -51 26 -79t73 -28q53 0 80.5 32t27.5 75v31q0 23 15.5 38t36.5 15h131q20 0 36.5 -16.5t16.5 -36.5v-31q0 -127 -93.5 -220 t-250.5 -93q-164 0 -260.5 91.5t-96.5 243.5zM139 1164.5q-4 9.5 2 15.5q12 12 37 37.5t52.5 55.5t53 57.5t44.5 45.5l16 19q18 18 41 18h84q18 0 35 -16q45 -47 105.5 -116t90.5 -101q8 -8 3 -16.5t-19 -8.5h-162q-14 0 -24 8q-6 4 -30 34t-36 38q-2 2 -8 2q-4 0 -6 -2 q-27 -20 -78 -74q-8 -6 -21 -6h-163q-13 0 -17 9.5zM319 676q0 -20 15.5 -35.5t38.5 -15.5h84q23 0 38 15t15 36v55q0 47 -23.5 77t-68.5 30t-72 -30t-27 -77v-55z" />
<glyph unicode="&#xeb;" horiz-adv-x="806" d="M61 319v381q0 166 95.5 258.5t261.5 92.5q160 0 248 -101.5t88 -257.5v-174q0 -29 -18.5 -45t-49.5 -16h-313q-20 0 -37 -15.5t-17 -38.5v-106q0 -51 26 -79t73 -28q53 0 80.5 32t27.5 75v31q0 23 15.5 38t36.5 15h131q20 0 36.5 -16.5t16.5 -36.5v-31q0 -127 -93.5 -220 t-250.5 -93q-164 0 -260.5 91.5t-96.5 243.5zM121 1231v123q0 23 15.5 38t37.5 15h131q23 0 38 -15.5t15 -37.5v-123q0 -23 -15 -38t-38 -15h-131q-23 0 -38 15t-15 38zM319 676q0 -20 15.5 -35.5t38.5 -15.5h84q23 0 38 15t15 36v55q0 47 -23.5 77t-68.5 30t-72 -30 t-27 -77v-55zM479 1231v123q0 23 16.5 38t36.5 15h132q20 0 35.5 -15.5t15.5 -37.5v-123q0 -23 -15.5 -38t-35.5 -15h-132q-20 0 -36.5 15t-16.5 38z" />
<glyph unicode="&#xec;" horiz-adv-x="423" d="M1 1424.5q9 13.5 30 13.5h153q23 0 42.5 -14.5t23.5 -37.5l43 -172q6 -23 -5.5 -37t-33.5 -14h-86q-51 0 -76 47l-90 181q-10 20 -1 33.5zM82 53v930q0 20 16.5 36.5t36.5 16.5h154q23 0 38 -16t15 -37v-930q0 -20 -15.5 -36.5t-37.5 -16.5h-154q-20 0 -36.5 16.5 t-16.5 36.5z" />
<glyph unicode="&#xed;" horiz-adv-x="423" d="M82 53v930q0 20 16.5 36.5t36.5 16.5h154q23 0 38 -16t15 -37v-930q0 -20 -15.5 -36.5t-37.5 -16.5h-154q-20 0 -36.5 16.5t-16.5 36.5zM137 1214l43 172q4 20 23.5 36t42.5 16h153q20 0 29.5 -13.5t-0.5 -33.5l-90 -181q-25 -47 -76 -47h-86q-23 0 -34 15.5t-5 35.5z " />
<glyph unicode="&#xee;" horiz-adv-x="423" d="M-74 1164.5q-4 9.5 2 15.5q12 12 37 37.5t52.5 55.5t53 57.5t44.5 45.5l16 19q18 18 41 18h84q18 0 35 -16q45 -47 105.5 -116t90.5 -101q8 -8 3 -16.5t-19 -8.5h-162q-14 0 -24 8q-6 4 -30 34t-36 38q-2 2 -8 2q-4 0 -6 -2q-27 -20 -78 -74q-8 -6 -21 -6h-163 q-13 0 -17 9.5zM82 53v930q0 20 16.5 36.5t36.5 16.5h154q23 0 38 -16t15 -37v-930q0 -20 -15.5 -36.5t-37.5 -16.5h-154q-20 0 -36.5 16.5t-16.5 36.5z" />
<glyph unicode="&#xef;" horiz-adv-x="423" d="M-86 1231v123q0 23 16.5 38t36.5 15h131q20 0 37 -15.5t17 -37.5v-123q0 -23 -16.5 -38t-37.5 -15h-131q-20 0 -36.5 15t-16.5 38zM82 53v930q0 20 16.5 36.5t36.5 16.5h154q23 0 38 -16t15 -37v-930q0 -20 -15.5 -36.5t-37.5 -16.5h-154q-20 0 -36.5 16.5t-16.5 36.5z M272 1231v123q0 23 15.5 38t38.5 15h131q20 0 35.5 -15.5t15.5 -37.5v-123q0 -23 -15.5 -38t-35.5 -15h-131q-23 0 -38.5 15t-15.5 38z" />
<glyph unicode="&#xf0;" horiz-adv-x="835" d="M66 379v319q0 305 229 306q121 0 182 -103q10 -16 27 -16q18 0 18 28v15q0 86 -37 155l-45 -34q-16 -14 -38.5 -9.5t-34.5 21.5l-25 33q-12 16 -9 38.5t19 34.5l41 31q-20 18 -58 47t-48 37q-18 16 -19 33q0 20 13 35l84 96q16 20 32 20q14 2 39 -14q92 -70 144 -117 l51 37q16 12 37.5 9t36.5 -19l26 -33q14 -16 9 -39.5t-21 -36.5l-45 -32q100 -160 100 -445v-358q0 -442 -381 -443q-156 0 -241.5 108t-85.5 296zM324 317q0 -121 92 -120q98 0 98 110v369q0 106 -92 106q-98 0 -98 -106v-359z" />
<glyph unicode="&#xf1;" d="M82 53v930q0 20 16.5 36.5t36.5 16.5h146q23 0 38 -16t15 -37v-27q0 -25 22 -24q12 0 23 16q61 102 192 103q227 0 228 -303v-695q0 -20 -16.5 -36.5t-37.5 -16.5h-153q-20 0 -35.5 15.5t-15.5 37.5v670q0 109 -101 108q-41 0 -69.5 -27.5t-28.5 -72.5v-678 q0 -20 -15.5 -36.5t-37.5 -16.5h-154q-20 0 -36.5 16.5t-16.5 36.5zM158 1200q0 94 57 142.5t135 48.5q61 0 117.5 -29t73.5 -29q43 0 43 43q0 14 10 15h129q14 0 14 -17q0 -80 -50 -135t-144 -55q-47 0 -104.5 28.5t-80.5 28.5q-49 0 -49 -43q0 -14 -12 -14h-129 q-10 0 -10 16z" />
<glyph unicode="&#xf2;" horiz-adv-x="839" d="M61 319v396q0 152 97.5 244t261.5 92t261 -92.5t97 -243.5v-396q0 -152 -97 -243.5t-261 -91.5t-261.5 91.5t-97.5 243.5zM226.5 1424.5q9.5 13.5 29.5 13.5h154q23 0 42 -14.5t23 -37.5l43 -172q6 -23 -5 -37t-34 -14h-86q-51 0 -76 47l-90 181q-10 20 -0.5 33.5z M319 311q0 -47 28 -76.5t73 -29.5t71.5 29.5t26.5 76.5v412q0 47 -26.5 76.5t-71.5 29.5t-73 -29.5t-28 -76.5v-412z" />
<glyph unicode="&#xf3;" horiz-adv-x="839" d="M61 319v396q0 152 97.5 244t261.5 92t261 -92.5t97 -243.5v-396q0 -152 -97 -243.5t-261 -91.5t-261.5 91.5t-97.5 243.5zM319 311q0 -47 28 -76.5t73 -29.5t71.5 29.5t26.5 76.5v412q0 47 -26.5 76.5t-71.5 29.5t-73 -29.5t-28 -76.5v-412zM336 1214l43 172 q4 20 23.5 36t41.5 16h154q20 0 29.5 -13.5t-0.5 -33.5l-90 -181q-25 -47 -76 -47h-86q-23 0 -34 15.5t-5 35.5z" />
<glyph unicode="&#xf4;" horiz-adv-x="839" d="M61 319v396q0 152 97.5 244t261.5 92t261 -92.5t97 -243.5v-396q0 -152 -97 -243.5t-261 -91.5t-261.5 91.5t-97.5 243.5zM141 1164.5q-4 9.5 2 15.5q12 12 37 37.5t52.5 55.5t53 57.5t42.5 45.5l18 19q18 18 41 18h84q18 0 35 -16q45 -47 105.5 -116t90.5 -101 q8 -8 3 -16.5t-19 -8.5h-162q-14 0 -24 8q-6 4 -30 34t-36 38q-2 2 -8 2q-4 0 -6 -2q-27 -20 -78 -74q-10 -6 -20 -6h-164q-13 0 -17 9.5zM319 311q0 -47 28 -76.5t73 -29.5t71.5 29.5t26.5 76.5v412q0 47 -26.5 76.5t-71.5 29.5t-73 -29.5t-28 -76.5v-412z" />
<glyph unicode="&#xf5;" horiz-adv-x="839" d="M61 319v396q0 152 97.5 244t261.5 92t261 -92.5t97 -243.5v-396q0 -152 -97 -243.5t-261 -91.5t-261.5 91.5t-97.5 243.5zM133 1200q0 94 57.5 142.5t135.5 48.5q61 0 117.5 -29t72.5 -29q43 0 43 43q0 14 10 15h129q14 0 15 -17q0 -80 -50.5 -135t-144.5 -55 q-47 0 -104.5 28.5t-79.5 28.5q-49 0 -49 -43q0 -14 -13 -14h-129q-10 0 -10 16zM319 311q0 -47 28 -76.5t73 -29.5t71.5 29.5t26.5 76.5v412q0 47 -26.5 76.5t-71.5 29.5t-73 -29.5t-28 -76.5v-412z" />
<glyph unicode="&#xf6;" horiz-adv-x="839" d="M61 319v396q0 152 97.5 244t261.5 92t261 -92.5t97 -243.5v-396q0 -152 -97 -243.5t-261 -91.5t-261.5 91.5t-97.5 243.5zM123 1231v123q0 23 16.5 38t36.5 15h131q20 0 36.5 -15.5t16.5 -37.5v-123q0 -23 -16 -38t-37 -15h-131q-20 0 -36.5 15t-16.5 38zM319 311 q0 -47 28 -76.5t73 -29.5t71.5 29.5t26.5 76.5v412q0 47 -26.5 76.5t-71.5 29.5t-73 -29.5t-28 -76.5v-412zM481 1231v123q0 23 15.5 38t38.5 15h131q20 0 35.5 -15.5t15.5 -37.5v-123q0 -23 -15.5 -38t-35.5 -15h-131q-23 0 -38.5 15t-15.5 38z" />
<glyph unicode="&#xf7;" horiz-adv-x="989" d="M86 770.5q0 20.5 16 36.5l299 299q16 16 37 16t37 -16l12 -12q16 -16 16.5 -37t-16.5 -37l-153 -156q-14 -16 -10 -26.5t26 -10.5h527q20 0 35.5 -14t15.5 -37v-10q0 -23 -15.5 -38t-35.5 -15h-529q-20 0 -25.5 -10.5t11.5 -26.5l153 -156q16 -16 16.5 -36.5t-16.5 -37.5 l-12 -12q-16 -16 -36.5 -16t-37.5 16l-299 299q-16 17 -16 37.5z" />
<glyph unicode="&#xf8;" horiz-adv-x="839" d="M61 319v396q0 152 97.5 244t261.5 92q59 0 119 -17l20 60q8 20 27.5 30.5t40.5 1.5q23 -8 32 -27.5t0 -39.5l-22 -66q141 -90 141 -278v-396q0 -152 -97 -243.5t-261 -91.5q-61 0 -121 16l-18 -57q-14 -45 -68 -33q-23 4 -31 24.5t-2 40.5l23 68q-142 90 -142 276z M319 389l148 430q-25 10 -47 10q-45 0 -73 -29.5t-28 -76.5v-334zM373 215q25 -10 47 -10q45 0 71.5 29.5t26.5 76.5v334z" />
<glyph unicode="&#xf9;" d="M72 289v694q0 20 15 36.5t38 16.5h154q20 0 36.5 -16t16.5 -37v-670q0 -109 98 -108q41 0 69.5 27.5t28.5 72.5v678q0 20 16.5 36.5t37.5 16.5h153q23 0 38 -16t15 -37v-930q0 -20 -15 -36.5t-38 -16.5h-145q-20 0 -36.5 16.5t-16.5 36.5v27q0 25 -21 24q-14 0 -24 -16 q-63 -104 -191 -104q-229 0 -229 305zM218 1424.5q9 13.5 30 13.5h153q23 0 42.5 -14.5t23.5 -37.5l43 -172q6 -23 -5 -37t-34 -14h-86q-51 0 -76 47l-90 181q-10 20 -1 33.5z" />
<glyph unicode="&#xfa;" d="M72 289v694q0 20 15 36.5t38 16.5h154q20 0 36.5 -16t16.5 -37v-670q0 -109 98 -108q41 0 69.5 27.5t28.5 72.5v678q0 20 16.5 36.5t37.5 16.5h153q23 0 38 -16t15 -37v-930q0 -20 -15 -36.5t-38 -16.5h-145q-20 0 -36.5 16.5t-16.5 36.5v27q0 25 -21 24q-14 0 -24 -16 q-63 -104 -191 -104q-229 0 -229 305zM346 1214l43 172q4 20 23.5 36t42.5 16h153q20 0 29.5 -13.5t-0.5 -33.5l-90 -181q-25 -47 -76 -47h-86q-23 0 -34 15.5t-5 35.5z" />
<glyph unicode="&#xfb;" d="M72 289v694q0 20 15 36.5t38 16.5h154q20 0 36.5 -16t16.5 -37v-670q0 -109 98 -108q41 0 69.5 27.5t28.5 72.5v678q0 20 16.5 36.5t37.5 16.5h153q23 0 38 -16t15 -37v-930q0 -20 -15 -36.5t-38 -16.5h-145q-20 0 -36.5 16.5t-16.5 36.5v27q0 25 -21 24q-14 0 -24 -16 q-63 -104 -191 -104q-229 0 -229 305zM160 1164.5q-4 9.5 2 15.5q12 12 36.5 37.5t52.5 55.5t53.5 57.5t43.5 45.5l17 19q18 18 41 18h83q18 0 35 -16q45 -47 105.5 -116t91.5 -101q8 -8 3 -16.5t-19 -8.5h-162q-14 0 -25 8q-6 4 -29.5 34t-35.5 38q-2 2 -9 2q-4 0 -6 -2 q-27 -20 -78 -74q-8 -6 -20 -6h-164q-12 0 -16 9.5z" />
<glyph unicode="&#xfc;" d="M72 289v694q0 20 15 36.5t38 16.5h154q20 0 36.5 -16t16.5 -37v-670q0 -109 98 -108q41 0 69.5 27.5t28.5 72.5v678q0 20 16.5 36.5t37.5 16.5h153q23 0 38 -16t15 -37v-930q0 -20 -15 -36.5t-38 -16.5h-145q-20 0 -36.5 16.5t-16.5 36.5v27q0 25 -21 24q-14 0 -24 -16 q-63 -104 -191 -104q-229 0 -229 305zM133 1231v123q0 23 15.5 38t37.5 15h131q23 0 38.5 -15.5t15.5 -37.5v-123q0 -23 -15.5 -38t-38.5 -15h-131q-23 0 -38 15t-15 38zM492 1231v123q0 23 16 38t37 15h131q20 0 35.5 -15.5t15.5 -37.5v-123q0 -23 -15.5 -38t-35.5 -15 h-131q-20 0 -36.5 15t-16.5 38z" />
<glyph unicode="&#xfd;" horiz-adv-x="796" d="M31 985q-6 20 5 35.5t34 15.5h170q53 0 61 -51l90 -586q4 -23 22.5 -22.5t22.5 22.5l86 586q8 51 62 51h170q20 0 31.5 -14t7.5 -37l-248 -985q-20 -84 -42 -139.5t-56.5 -109.5t-87 -81.5t-121.5 -27.5q-61 0 -109 18q-43 14 -43 59v88q0 23 15.5 36.5t39.5 11.5 q6 0 19.5 -3.5t23.5 -3.5q76 0 95 76q14 66 0 127zM334 1214l43 172q4 20 23.5 36t41.5 16h154q20 0 29.5 -13.5t-0.5 -33.5l-90 -181q-25 -47 -76 -47h-86q-23 0 -34 15.5t-5 35.5z" />
<glyph unicode="&#xfe;" horiz-adv-x="866" d="M92 -299v1708q0 20 15.5 36.5t37.5 16.5h146q20 0 36.5 -16t16.5 -37v-453q0 -25 23 -24q14 0 22 14q63 104 184 105q227 0 228 -306v-456q0 -305 -228 -305q-121 0 -184 104q-8 14 -24 14q-20 0 -21 -24v-377q0 -20 -15.5 -35.5t-37.5 -15.5h-146q-23 0 -38 15.5 t-15 35.5zM352 303q0 -45 29 -71.5t70 -26.5q92 0 92 106v412q0 106 -92 106q-41 0 -70 -26.5t-29 -71.5v-428z" />
<glyph unicode="&#xff;" horiz-adv-x="796" d="M25 985q-6 20 5 35.5t33 15.5h170q53 0 62 -51l90 -586q4 -23 22.5 -22.5t22.5 22.5l86 586q8 51 62 51h170q20 0 31.5 -14t6.5 -37l-247 -985q-20 -84 -42 -139.5t-56.5 -109.5t-87 -81.5t-122.5 -27.5q-61 0 -108 18q-43 14 -43 59v88q0 23 15.5 36.5t39.5 11.5 q6 0 19.5 -3.5t23.5 -3.5q76 0 94 76q14 66 0 127zM111 1231v123q0 23 16 38t37 15h131q20 0 36.5 -15.5t16.5 -37.5v-123q0 -23 -16.5 -38t-36.5 -15h-131q-20 0 -36.5 15t-16.5 38zM469 1231v123q0 23 15.5 38t37.5 15h131q20 0 36 -15.5t16 -37.5v-123q0 -23 -15.5 -38 t-36.5 -15h-131q-23 0 -38 15t-15 38z" />
<glyph unicode="&#x152;" horiz-adv-x="1415" d="M72 367v731q0 170 113.5 278.5t303.5 108.5q59 0 120 -11.5t63 -11.5h626q23 0 38.5 -15t15.5 -36v-147q0 -20 -15.5 -36t-38.5 -16h-337q-20 0 -36 -15t-16 -38v-207q0 -23 15.5 -38t36.5 -15h278q20 0 35.5 -15.5t15.5 -37.5v-146q0 -23 -15 -38t-36 -15h-278 q-23 0 -37.5 -14.5t-14.5 -36.5v-293q0 -20 14.5 -35.5t37.5 -15.5h360q23 0 38 -15.5t15 -37.5v-146q0 -20 -15.5 -36.5t-37.5 -16.5h-649q-16 0 -82 -11.5t-101 -11.5q-190 0 -303.5 110t-113.5 280zM360 367q0 -57 33 -97.5t96.5 -40.5t96 40t32.5 98v731q0 57 -32.5 97 t-96 40t-96.5 -40t-33 -97v-731z" />
<glyph unicode="&#x153;" horiz-adv-x="1265" d="M61 319v396q0 152 97.5 244t261.5 92q133 0 227 -66q90 66 230 66q160 0 247.5 -101.5t87.5 -257.5v-174q0 -29 -19 -45t-50 -16h-312q-20 0 -36.5 -15.5t-16.5 -38.5v-106q0 -51 25.5 -79t73.5 -28q53 0 79.5 31t26.5 76v31q0 20 16.5 36.5t36.5 16.5h131q20 0 37 -16.5 t17 -36.5v-31q0 -127 -93.5 -220t-250.5 -93q-137 0 -228 65q-90 -66 -229 -65q-164 0 -261.5 91.5t-97.5 243.5zM322 311q0 -47 26.5 -76.5t71.5 -29.5t71.5 29.5t26.5 76.5v412q0 47 -26.5 76.5t-71.5 29.5t-71.5 -29.5t-26.5 -76.5v-412zM778 676q0 -20 15.5 -35.5 t37.5 -15.5h84q23 0 38.5 15t15.5 36v55q0 47 -23.5 77t-69 30t-72 -30t-26.5 -77v-55z" />
<glyph unicode="&#x178;" horiz-adv-x="813" d="M-10 1413q-6 20 4 34.5t31 14.5h168q59 0 69 -49l129 -448q6 -20 22.5 -20.5t22.5 20.5l131 448q14 49 68 49h170q23 0 33 -14t2 -35l-262 -713q-12 -39 -15 -53q-4 -37 -4 -49v-545q0 -23 -15.5 -38t-37.5 -15h-184q-23 0 -38.5 16.5t-15.5 36.5v547q0 25 -6 55 q-4 31 -12 47zM129 1640v123q0 23 15.5 38.5t37.5 15.5h131q23 0 38.5 -15.5t15.5 -38.5v-123q0 -23 -15.5 -38t-38.5 -15h-131q-23 0 -38 15t-15 38zM487 1640v123q0 23 16.5 38.5t37.5 15.5h131q20 0 35.5 -15.5t15.5 -38.5v-123q0 -23 -15.5 -38t-35.5 -15h-131 q-20 0 -37 15t-17 38z" />
<glyph unicode="&#x2c6;" horiz-adv-x="722" d="M88 1164.5q-4 9.5 2 15.5q12 12 37 37.5t52.5 55.5t53 57.5t41.5 45.5l19 19q18 18 41 18h84q18 0 35 -16q45 -47 105 -116t91 -101q8 -8 3 -16.5t-19 -8.5h-162q-14 0 -25 8q-6 4 -29.5 34t-35.5 38q-2 2 -8 2q-4 0 -6 -2q-27 -20 -78 -74q-10 -6 -21 -6h-164 q-12 0 -16 9.5z" />
<glyph unicode="&#x2dc;" horiz-adv-x="743" d="M82 1200q0 94 57.5 142.5t134.5 48.5q61 0 118 -29t73 -29q43 0 43 43q0 14 10 15h129q14 0 15 -17q0 -80 -50.5 -135t-144.5 -55q-47 0 -104.5 28.5t-79.5 28.5q-49 0 -50 -43q0 -14 -12 -14h-129q-10 0 -10 16z" />
<glyph unicode="&#x2000;" horiz-adv-x="940" />
<glyph unicode="&#x2001;" horiz-adv-x="1880" />
<glyph unicode="&#x2002;" horiz-adv-x="940" />
<glyph unicode="&#x2003;" horiz-adv-x="1880" />
<glyph unicode="&#x2004;" horiz-adv-x="626" />
<glyph unicode="&#x2005;" horiz-adv-x="468" />
<glyph unicode="&#x2006;" horiz-adv-x="313" />
<glyph unicode="&#x2007;" horiz-adv-x="313" />
<glyph unicode="&#x2008;" horiz-adv-x="233" />
<glyph unicode="&#x2009;" horiz-adv-x="374" />
<glyph unicode="&#x200a;" horiz-adv-x="104" />
<glyph unicode="&#x2010;" horiz-adv-x="712" d="M82 569v146q0 23 16.5 38t36.5 15h443q20 0 36.5 -15.5t16.5 -37.5v-146q0 -20 -16.5 -36.5t-36.5 -16.5h-443q-20 0 -36.5 16.5t-16.5 36.5z" />
<glyph unicode="&#x2011;" horiz-adv-x="712" d="M82 569v146q0 23 16.5 38t36.5 15h443q20 0 36.5 -15.5t16.5 -37.5v-146q0 -20 -16.5 -36.5t-36.5 -16.5h-443q-20 0 -36.5 16.5t-16.5 36.5z" />
<glyph unicode="&#x2012;" horiz-adv-x="712" d="M82 569v146q0 23 16.5 38t36.5 15h443q20 0 36.5 -15.5t16.5 -37.5v-146q0 -20 -16.5 -36.5t-36.5 -16.5h-443q-20 0 -36.5 16.5t-16.5 36.5z" />
<glyph unicode="&#x2013;" horiz-adv-x="1114" d="M92 569v146q0 23 15.5 38t37.5 15h824q23 0 38 -15.5t15 -37.5v-146q0 -20 -15.5 -36.5t-37.5 -16.5h-824q-23 0 -38 16.5t-15 36.5z" />
<glyph unicode="&#x2014;" horiz-adv-x="1699" d="M92 569v146q0 23 15.5 38t35.5 15h1411q23 0 38.5 -15.5t15.5 -37.5v-146q0 -20 -15.5 -36.5t-38.5 -16.5h-1411q-20 0 -35.5 15t-15.5 38z" />
<glyph unicode="&#x2018;" horiz-adv-x="434" d="M92 926v237q0 158 55 269q16 35 60 34q35 0 35 -34l-13 -43q-18 -78 -22 -201q0 -25 26 -25h66q20 0 36.5 -16.5t16.5 -36.5v-184q0 -20 -15 -36t-38 -16h-154q-23 0 -38 16t-15 36z" />
<glyph unicode="&#x2019;" horiz-adv-x="432" d="M82 1225v184q0 23 15.5 38t35.5 15h154q20 0 36.5 -16t16.5 -37v-235q0 -158 -55 -269q-16 -35 -58 -35q-37 0 -37 35q0 6 3 13l5 15q3 9 5 13q18 78 22 203q0 25 -26 25h-66q-23 0 -37 15.5t-14 35.5z" />
<glyph unicode="&#x201a;" horiz-adv-x="421" d="M82 53v185q0 20 15.5 35.5t37.5 15.5h154q23 0 37 -15.5t14 -35.5v-238q0 -158 -55 -268q-16 -35 -58 -35q-35 0 -34 35q0 6 10 43q20 88 24 200q0 25 -26 25h-66q-20 0 -36.5 16.5t-16.5 36.5z" />
<glyph unicode="&#x201c;" horiz-adv-x="845" d="M92 926v237q0 158 55 269q16 35 60 34q35 0 35 -34l-13 -43q-18 -78 -22 -201q0 -25 26 -25h66q20 0 36.5 -16.5t16.5 -36.5v-184q0 -20 -15 -36t-38 -16h-154q-23 0 -38 16t-15 36zM504 926v237q0 158 55 269q16 35 59 34q35 0 35 -34l-12 -43q-18 -78 -23 -201 q0 -25 27 -25h66q23 0 38 -16.5t15 -36.5v-184q0 -20 -15.5 -36t-37.5 -16h-154q-23 0 -38 16t-15 36z" />
<glyph unicode="&#x201d;" horiz-adv-x="843" d="M82 1225v184q0 23 15.5 38t35.5 15h154q20 0 36.5 -16t16.5 -37v-235q0 -158 -55 -269q-16 -35 -58 -35q-37 0 -37 35q0 6 3 13l5 15q3 9 5 13q18 78 22 203q0 25 -26 25h-66q-23 0 -37 15.5t-14 35.5zM494 1225v184q0 23 15 38t36 15h153q23 0 38.5 -16t15.5 -37v-235 q0 -158 -56 -269q-16 -35 -57 -35q-37 0 -37 35q0 6 2 13l5 15q3 9 5 13q18 78 23 203q0 25 -27 25h-65q-20 0 -35.5 15.5t-15.5 35.5z" />
<glyph unicode="&#x201e;" horiz-adv-x="833" d="M82 51v185q0 23 15.5 38t35.5 15h154q20 0 36.5 -15.5t16.5 -37.5v-236q0 -158 -55 -268q-16 -35 -58 -35q-37 0 -37 35q0 6 3 12l5 15q3 9 5 14q18 78 22 202q0 25 -26 25h-66q-23 0 -37 14t-14 37zM494 51v185q0 23 15 38t36 15h153q23 0 38.5 -15.5t15.5 -37.5v-236 q0 -158 -56 -268q-16 -35 -57 -35q-37 0 -37 35q0 6 2 12l5 15q3 9 5 14q18 78 23 202q0 25 -27 25h-65q-20 0 -35.5 14t-15.5 37z" />
<glyph unicode="&#x2022;" horiz-adv-x="550" d="M61 1016q0 90 63.5 152.5t152 62.5t150.5 -62.5t62 -152.5t-62 -152.5t-150.5 -62.5t-152 62.5t-63.5 152.5z" />
<glyph unicode="&#x2026;" horiz-adv-x="1564" d="M92 53v185q0 20 15.5 35.5t37.5 15.5h154q23 0 38 -15.5t15 -35.5v-185q0 -20 -16.5 -36.5t-36.5 -16.5h-154q-23 0 -38 16.5t-15 36.5zM653 53v185q0 20 15.5 35.5t38.5 15.5h153q20 0 35.5 -15.5t15.5 -35.5v-185q0 -23 -15 -38t-36 -15h-153q-23 0 -38.5 16.5 t-15.5 36.5zM1212 53v185q0 20 15.5 35.5t38.5 15.5h153q23 0 38.5 -15.5t15.5 -35.5v-185q0 -20 -15.5 -36.5t-38.5 -16.5h-153q-20 0 -37 16.5t-17 36.5z" />
<glyph unicode="&#x202f;" horiz-adv-x="374" />
<glyph unicode="&#x2039;" horiz-adv-x="663" d="M61 522.5q0 26.5 13 44.5l295 482q16 25 43 24q14 0 28 -8l123 -74q18 -10 23.5 -32.5t-6.5 -40.5l-224 -351q-12 -18 -12 -45q0 -25 12 -43l226 -352q12 -18 7 -39.5t-24 -32.5l-123 -75q-14 -8 -30 -9q-29 4 -41 25l-297 481q-13 19 -13 45.5z" />
<glyph unicode="&#x203a;" horiz-adv-x="663" d="M75 87.5q-5 21.5 7 39.5l225 352q12 18 12 43q0 27 -12 45l-223 351q-12 18 -7 40.5t23 32.5l123 74q14 8 29 8q27 0 43 -24l295 -482q12 -18 12 -44.5t-12 -45.5l-297 -481q-12 -20 -41 -25q-16 0 -31 9l-123 75q-18 11 -23 32.5z" />
<glyph unicode="&#x205f;" horiz-adv-x="468" />
<glyph unicode="&#x20ac;" horiz-adv-x="1007" d="M10 569v56q0 20 15.5 35.5t37.5 15.5h62v106h-62q-23 0 -38 16.5t-15 37.5v55q0 20 15.5 35.5t37.5 15.5h62v154q0 170 113.5 279.5t304.5 109.5q188 0 295.5 -109.5t107.5 -279.5v-138q0 -23 -15.5 -38t-35.5 -15h-176q-23 0 -38 16.5t-15 36.5v138q0 55 -32 96t-91 41 q-63 0 -96 -40t-33 -97v-154h92q23 0 38 -15.5t15 -35.5v-55q0 -20 -15.5 -37t-37.5 -17h-92v-106h92q23 0 38 -15.5t15 -35.5v-56q0 -20 -15.5 -36.5t-37.5 -16.5h-92v-151q0 -57 32.5 -97.5t96.5 -40.5q59 0 91 41t32 97v137q0 23 15 38t38 15h176q20 0 35.5 -15.5 t15.5 -37.5v-137q0 -170 -107.5 -280t-295.5 -110q-190 0 -304 110t-114 280v151h-62q-23 0 -38 16.5t-15 36.5z" />
<glyph unicode="&#x2122;" horiz-adv-x="1751" d="M82 1309v127q0 27 41 26h516q39 0 39 -26v-127q0 -25 -39 -25h-111q-39 0 -39 -27v-501q0 -27 -38 -27h-140q-39 0 -39 27v501q0 27 -41 27h-108q-41 0 -41 25zM799 756v680q0 27 39 26h231q39 0 47 -26l101 -385q4 -12 18 -13q12 0 16 13l107 385q8 27 47 26h225 q39 0 39 -26v-680q0 -27 -39 -27h-127q-39 0 -39 27v481q0 8 -14 8t-16 -8l-123 -481q-8 -27 -47 -27h-58q-41 0 -49 27l-123 483q-2 6 -14 6q-14 0 -14 -8v-481q0 -27 -39 -27h-129q-39 0 -39 27z" />
<glyph unicode="&#xe000;" horiz-adv-x="1035" d="M0 1035h1035v-1035h-1035v1035z" />
<glyph unicode="&#xfb01;" horiz-adv-x="960" d="M10 891v84q0 61 62 61h22q39 0 39 39v113q0 135 71.5 216t196.5 81q43 0 82 -8q63 -14 64 -82v-70q0 -25 -16.5 -42t-49.5 -17h-14q-76 0 -76 -95v-90q0 -18 12.5 -31.5t34.5 -13.5h387q23 0 38.5 -16t15.5 -37v-930q0 -20 -15.5 -36.5t-38.5 -16.5h-153q-20 0 -37 16.5 t-17 36.5v752q-4 33 -38 33h-142q-23 0 -35 -13.5t-12 -31.5v-740q0 -23 -15.5 -38t-37.5 -15h-152q-23 0 -38 15.5t-15 37.5v740q0 45 -47 45h-20q-23 0 -39.5 15t-16.5 38zM639 1233v178q0 20 15.5 35.5t37.5 15.5h133q23 0 38.5 -15t15.5 -36v-178q0 -20 -15.5 -35.5 t-38.5 -15.5h-133q-23 0 -38 15.5t-15 35.5z" />
<glyph unicode="&#xfb02;" horiz-adv-x="972" d="M10 891v84q0 61 62 61h22q39 0 39 39v92q0 156 84 237t246 81q90 0 242 -23h133q23 0 38 -15t15 -36v-1358q0 -20 -15.5 -36.5t-37.5 -16.5h-154q-20 0 -35.5 15.5t-15.5 37.5v1227q-84 12 -146 12q-51 0 -73.5 -21.5t-22.5 -72.5v-117q0 -18 12.5 -31.5t34.5 -13.5h43 q23 0 38.5 -15t15.5 -38v-98q0 -47 -54 -47h-43q-23 0 -35 -13.5t-12 -31.5v-740q0 -23 -15.5 -38t-37.5 -15h-152q-23 0 -38 15.5t-15 37.5v740q0 45 -47 45h-20q-23 0 -39.5 15t-16.5 38z" />
<glyph unicode="&#xfb03;" horiz-adv-x="1566" d="M1225 53v930q0 20 16.5 36.5t36.5 16.5h154q23 0 38 -16t15 -37v-930q0 -20 -15.5 -36.5t-37.5 -16.5h-154q-20 0 -36.5 16.5t-16.5 36.5zM1225 1233v178q0 20 15.5 35.5t37.5 15.5h154q23 0 38 -15t15 -36v-178q0 -20 -15.5 -35.5t-37.5 -15.5h-154q-23 0 -38 15.5 t-15 35.5zM581 891v84q0 61 62 61h22q39 0 39 39v113q0 135 71.5 216t196.5 81q68 0 107 -8q63 -14 63 -82v-70q0 -25 -16 -42t-49 -17h-39q-76 0 -76 -95v-90q0 -18 12.5 -31.5t34.5 -13.5h51q23 0 38.5 -15t15.5 -38v-98q0 -47 -54 -47h-51q-23 0 -35 -13.5t-12 -31.5 v-740q0 -23 -15.5 -38t-37.5 -15h-152q-23 0 -38 15.5t-15 37.5v740q0 45 -47 45h-20q-23 0 -39.5 15t-16.5 38zM10 891v84q0 61 62 61h22q39 0 39 39v113q0 135 71.5 216t196.5 81q68 0 107 -8q63 -14 63 -82v-70q0 -25 -16 -42t-49 -17h-39q-76 0 -76 -95v-90 q0 -18 12.5 -31.5t34.5 -13.5h51q23 0 38.5 -15t15.5 -38v-98q0 -47 -54 -47h-51q-23 0 -35 -13.5t-12 -31.5v-740q0 -23 -15.5 -38t-37.5 -15h-152q-23 0 -38 15.5t-15 37.5v740q0 45 -47 45h-20q-23 0 -39.5 15t-16.5 38z" />
<glyph unicode="&#xfb04;" horiz-adv-x="1564" d="M1225 53v1358q0 23 14.5 37t36.5 14h154q23 0 38 -15t15 -36v-1358q0 -20 -16.5 -36.5t-36.5 -16.5h-154q-20 0 -35.5 15t-15.5 38zM581 891v84q0 61 62 61h22q39 0 39 39v113q0 135 71.5 216t196.5 81q68 0 107 -8q63 -14 63 -82v-70q0 -25 -16 -42t-49 -17h-39 q-76 0 -76 -95v-90q0 -18 12.5 -31.5t34.5 -13.5h51q23 0 38.5 -15t15.5 -38v-98q0 -47 -54 -47h-51q-23 0 -35 -13.5t-12 -31.5v-740q0 -23 -15.5 -38t-37.5 -15h-152q-23 0 -38 15.5t-15 37.5v740q0 45 -47 45h-20q-23 0 -39.5 15t-16.5 38zM10 891v84q0 61 62 61h22 q39 0 39 39v113q0 135 71.5 216t196.5 81q68 0 107 -8q63 -14 63 -82v-70q0 -25 -16 -42t-49 -17h-39q-76 0 -76 -95v-90q0 -18 12.5 -31.5t34.5 -13.5h51q23 0 38.5 -15t15.5 -38v-98q0 -47 -54 -47h-51q-23 0 -35 -13.5t-12 -31.5v-740q0 -23 -15.5 -38t-37.5 -15h-152 q-23 0 -38 15.5t-15 37.5v740q0 45 -47 45h-20q-23 0 -39.5 15t-16.5 38z" />
</font>
</defs>
</svg>
