<?xml version="1.0" standalone="no"?>
<!DOCTYPE svg PUBLIC "-//W3C//DTD SVG 1.1//EN" "http://www.w3.org/Graphics/SVG/1.1/DTD/svg11.dtd" >
<svg>
<metadata>
Created by FontForge 20120731 at Wed Sep 18 20:17:08 2019
 By www-data
Copyright (c) 2011 by Dieter Hofrichter. All rights reserved.
</metadata>
<defs>
<font id="Corda-Regular" horiz-adv-x="370" >
  <font-face 
    font-family="Corda-Regular"
    font-weight="400"
    font-stretch="normal"
    units-per-em="1000"
    panose-1="0 0 0 0 0 0 0 0 0 0"
    ascent="749"
    descent="-251"
    x-height="482"
    cap-height="669"
    bbox="-159 -263 1195 996"
    underline-thickness="50"
    underline-position="-50"
    stemh="40"
    stemv="83"
    unicode-range="U+0020-FB06"
  />
<missing-glyph horiz-adv-x="548" 
d="M70 0v668h407v-668h-407zM120 48h308v572h-308v-572z" />
    <glyph glyph-name="T_h" unicode="Th" horiz-adv-x="1111" 
d="M339 625v-517c0 -56 13 -90 80 -91v-18c-32 1 -89 2 -127 2c-37 0 -95 -1 -120 -2v18c67 1 78 35 78 91v517h-47c-117 0 -136 -14 -158 -111h-22c4 45 8 106 11 154c153 -2 204 -2 261 -2c36 0 149 0 216 2c35 1 65 5 88 12c18 5 35 18 48 30c12 12 22 20 37 20
c19 0 31 -8 31 -55v-270c29 40 90 85 172 85c53 0 92 -20 112 -61c9 -19 15 -52 15 -96v-182c0 -31 2 -59 7 -76c8 -24 32 -42 76 -42v-10c-19 -17 -52 -32 -76 -32c-56 0 -73 27 -82 53c-6 19 -8 43 -8 103v158c0 36 -3 66 -10 83c-11 28 -42 39 -71 39
c-52 0 -98 -16 -135 -51v-273c0 -54 15 -84 76 -86v-18c-38 2 -81 3 -119 3s-69 0 -106 -3v18c52 3 67 29 67 90v442c0 43 -8 59 -24 66c-21 10 -75 10 -228 10h-42z" />
    <glyph glyph-name="Tcaron_h" unicode="&#x164;h" horiz-adv-x="1111" 
d="M419 -1c-32 1 -89 2 -127 2c-37 0 -95 -1 -120 -2v18c67 1 78 35 78 91v517h-47c-117 0 -136 -14 -158 -111h-22c4 45 8 106 11 154c153 -2 204 -2 261 -2c36 0 149 0 216 2c44 2 87 6 112 20c23 13 39 32 56 32c28 0 36 -16 36 -96v-219c29 40 90 85 172 85
c53 0 92 -20 112 -61c9 -19 15 -52 15 -96v-179c0 -31 2 -59 7 -76c8 -24 32 -42 76 -42v-10c-19 -17 -52 -32 -76 -32c-56 0 -73 27 -82 53c-6 19 -8 43 -8 103v155c0 36 -3 66 -10 83c-11 28 -42 39 -71 39c-52 0 -98 -16 -135 -51v-273c0 -54 15 -84 76 -86v-18
c-38 2 -81 3 -119 3s-69 0 -106 -3v18c52 3 67 29 67 90v442c0 43 -8 59 -24 66c-21 10 -75 10 -228 10h-42v-517c0 -56 13 -90 80 -91v-18zM150 856l10 12c44 -20 99 -47 135 -67c41 22 96 49 134 67l10 -13c-31 -28 -83 -84 -139 -141h-10c-51 52 -90 95 -140 142z" />
    <glyph glyph-name="f_b" unicode="fb" horiz-adv-x="871" 
d="M276 -1c-39 2 -89 3 -127 3c-39 0 -71 0 -108 -3v18c50 3 65 26 65 90v328h-72v25c57 11 68 37 80 115c21 136 123 175 199 175c38 0 65 -6 90 -17c16 9 35 16 48 16c17 0 28 -7 32 -34c2 -15 3 -44 3 -69v-234c29 36 87 79 158 79c116 0 181 -80 181 -242
c0 -165 -85 -259 -205 -259c-81 0 -127 30 -148 47c-18 -22 -46 -42 -73 -53l-5 4c9 30 10 99 10 134v436c0 48 -4 89 -16 111c-15 27 -35 40 -71 40c-41 0 -82 -16 -103 -54c-16 -28 -25 -81 -25 -125v-51h130v-44h-130v-328c0 -70 26 -88 87 -90v-18zM486 77
c30 -20 67 -33 116 -33c71 0 132 53 132 204c0 131 -56 184 -124 184c-61 0 -103 -30 -124 -55v-300z" />
    <glyph glyph-name="f_f" unicode="ff" horiz-adv-x="627" 
d="M275 -1c-39 2 -88 3 -126 3c-39 0 -71 0 -108 -3v18c50 3 65 26 65 90v328h-72v25c57 11 69 28 78 106c17 135 109 170 180 170c87 0 114 -34 114 -66c0 -22 -15 -43 -59 -49l-6 4c0 64 -30 71 -62 71c-22 0 -57 -10 -75 -49c-10 -23 -15 -67 -15 -111v-57h113
c49 0 75 1 89 12c18 13 22 41 27 84c15 134 105 175 176 175c88 0 113 -34 113 -66c0 -22 -20 -45 -66 -51l-6 4c0 63 -26 73 -55 73c-21 0 -51 -10 -70 -49c-11 -23 -15 -67 -15 -111v-71h120v-44h-120v-328c0 -70 26 -88 87 -90v-18c-39 2 -89 3 -127 3
c-39 0 -71 0 -108 -3v18c50 3 65 26 65 90v328h-223v-328c0 -70 26 -88 86 -90v-18z" />
    <glyph glyph-name="f_f_b" unicode="ffb" horiz-adv-x="1177" 
d="M275 -1c-39 2 -88 3 -126 3c-39 0 -71 0 -108 -3v18c50 3 65 26 65 90v328h-72v25c57 11 69 28 78 106c17 135 109 170 180 170c87 0 114 -34 114 -66c0 -22 -15 -43 -59 -49l-6 4c0 64 -30 71 -62 71c-22 0 -57 -10 -75 -49c-10 -23 -15 -67 -15 -111v-57h136
c30 0 58 3 71 17c14 14 18 41 24 79c22 135 123 175 199 175c38 0 65 -6 90 -17c16 9 34 16 48 16c17 0 28 -7 32 -34c2 -15 3 -44 3 -69v-234c28 36 87 79 158 79c116 0 181 -80 181 -242c0 -165 -85 -259 -205 -259c-82 0 -127 30 -148 47c-18 -22 -46 -42 -74 -53l-5 4
c9 30 10 99 10 134v436c0 48 -3 89 -15 111c-15 27 -35 40 -71 40c-41 0 -82 -16 -103 -54c-16 -28 -25 -81 -25 -125v-51h130v-44h-130v-328c0 -70 26 -88 87 -90v-18c-39 2 -89 3 -127 3c-39 0 -71 0 -108 -3v18c50 3 65 26 65 90v328h-223v-328c0 -70 26 -88 86 -90v-18z
M792 77c29 -20 67 -33 116 -33c71 0 132 53 132 204c0 131 -56 184 -124 184c-61 0 -104 -30 -124 -55v-300z" />
    <glyph glyph-name="f_f_h" unicode="ffh" horiz-adv-x="1195" 
d="M275 -1c-39 2 -88 3 -126 3c-39 0 -71 0 -108 -3v18c50 3 65 26 65 90v328h-72v25c57 11 69 28 78 106c17 135 109 170 180 170c87 0 114 -34 114 -66c0 -22 -15 -43 -59 -49l-6 4c0 64 -30 71 -62 71c-22 0 -57 -10 -75 -49c-10 -23 -15 -67 -15 -111v-57h136
c30 0 58 3 71 17c14 14 18 41 24 79c21 136 123 175 199 175c40 0 71 -6 97 -17c16 9 35 16 48 16c17 0 28 -7 32 -34c2 -15 3 -44 3 -69v-241c29 40 90 85 172 85c53 0 93 -20 112 -61c9 -19 15 -52 15 -96v-182c0 -31 2 -59 7 -76c8 -24 32 -42 76 -42v-10
c-19 -17 -52 -32 -76 -32c-56 0 -73 27 -82 53c-6 19 -8 43 -8 103v158c0 36 -3 66 -10 83c-12 28 -41 39 -71 39c-52 0 -98 -16 -135 -51v-273c0 -54 15 -84 77 -86v-18c-38 2 -82 3 -119 3c-39 0 -70 0 -107 -3v18c52 3 66 29 66 90v451c0 48 -3 88 -16 110
c-15 27 -41 41 -77 41c-41 0 -82 -16 -103 -54c-16 -28 -25 -81 -25 -125v-51h130v-44h-130v-328c0 -70 26 -88 87 -90v-18c-39 2 -89 3 -127 3c-39 0 -71 0 -108 -3v18c50 3 65 26 65 90v328h-223v-328c0 -70 26 -88 86 -90v-18z" />
    <glyph glyph-name="f_f_i" unicode="ffi" horiz-adv-x="893" 
d="M275 -1c-39 2 -88 3 -126 3c-39 0 -71 0 -108 -3v18c50 3 65 26 65 90v328h-72v25c57 11 69 28 78 106c17 135 109 170 180 170c87 0 114 -34 114 -66c0 -22 -15 -43 -59 -49l-6 4c0 64 -30 71 -62 71c-22 0 -57 -10 -75 -49c-10 -23 -15 -67 -15 -111v-57h113
c49 0 75 1 89 12c16 11 23 36 27 70c19 138 110 189 216 189c96 0 139 -43 139 -82c0 -34 -28 -59 -74 -65l-6 4c0 82 -35 103 -76 103c-54 0 -86 -28 -102 -64c-11 -23 -20 -73 -20 -135v-32h108c97 0 121 9 140 9c26 0 46 -10 52 -47c2 -11 3 -38 3 -55v-283
c0 -59 17 -84 77 -86v-18c-39 2 -82 3 -121 3c-38 0 -68 0 -106 -3v18c51 3 68 26 68 91v206c0 99 -15 121 -79 121h-142v-328c0 -70 26 -88 85 -90v-18c-39 2 -87 3 -125 3c-39 0 -71 0 -108 -3v18c50 3 65 26 65 90v328h-223v-328c0 -70 26 -88 86 -90v-18z" />
    <glyph glyph-name="f_f_j" unicode="ffj" horiz-adv-x="875" 
d="M275 -1c-39 2 -88 3 -126 3c-39 0 -71 0 -108 -3v18c50 3 65 26 65 90v328h-72v25c57 11 69 28 78 106c17 135 109 170 180 170c87 0 114 -34 114 -66c0 -22 -15 -43 -59 -49l-6 4c0 64 -30 71 -62 71c-22 0 -57 -10 -75 -49c-10 -23 -15 -67 -15 -111v-57h137
c27 0 51 3 65 13c18 14 23 39 27 69c20 138 110 189 216 189c96 0 139 -43 139 -82c0 -34 -28 -59 -74 -65l-6 4c0 82 -35 103 -76 103c-54 0 -86 -28 -102 -64c-11 -23 -20 -73 -20 -135v-32h100c97 0 122 9 140 9c26 0 47 -10 53 -47c2 -11 2 -38 2 -55v-379
c0 -38 -3 -100 -17 -129c-32 -64 -93 -82 -141 -82c-9 0 -19 1 -26 4v7c72 31 101 51 101 223v284c0 99 -14 121 -77 121h-135v-328c0 -70 26 -88 85 -90v-18c-39 2 -87 3 -125 3c-39 0 -71 0 -108 -3v18c50 3 65 26 65 90v328h-223v-328c0 -70 26 -88 86 -90v-18z" />
    <glyph glyph-name="f_f_k" unicode="ffk" horiz-adv-x="1168" 
d="M275 -1c-39 2 -88 3 -126 3c-39 0 -71 0 -108 -3v18c50 3 65 26 65 90v328h-72v25c57 11 69 28 78 106c17 135 109 170 180 170c87 0 114 -34 114 -66c0 -22 -15 -43 -59 -49l-6 4c0 64 -30 71 -62 71c-22 0 -57 -10 -75 -49c-10 -23 -15 -67 -15 -111v-57h136
c30 0 58 3 71 17c14 14 18 41 24 79c21 136 123 175 199 175c40 0 71 -6 97 -17c16 9 35 16 48 16c17 0 28 -7 32 -34c2 -15 3 -44 3 -69v-545c0 -54 14 -82 77 -84v-18c-38 2 -82 3 -120 3s-69 0 -106 -3v18c52 3 66 28 66 90v451c0 48 -3 88 -16 110c-15 27 -41 41 -77 41
c-41 0 -82 -16 -103 -54c-16 -28 -25 -81 -25 -125v-51h130v-44h-130v-328c0 -70 26 -88 87 -90v-18c-39 2 -89 3 -127 3c-39 0 -71 0 -108 -3v18c50 3 65 26 65 90v328h-223v-328c0 -70 26 -88 86 -90v-18zM1166 51c-27 -42 -67 -60 -93 -60c-33 0 -64 11 -109 66
c-58 71 -116 163 -148 193v9c11 3 24 11 36 19c30 21 91 74 116 101s32 47 32 58c0 12 -5 19 -13 25l1 8c12 8 38 17 56 17c37 0 47 -16 47 -38c0 -16 -17 -43 -64 -84c-38 -33 -95 -78 -121 -99c32 -45 69 -95 124 -157c39 -43 68 -56 91 -56c11 0 26 1 39 4z" />
    <glyph glyph-name="f_f_l" unicode="ffl" horiz-adv-x="891" 
d="M275 -1c-39 2 -88 3 -126 3c-39 0 -71 0 -108 -3v18c50 3 65 26 65 90v328h-72v25c57 11 69 28 78 106c17 135 109 170 180 170c87 0 114 -34 114 -66c0 -22 -15 -43 -59 -49l-6 4c0 64 -30 71 -62 71c-22 0 -57 -10 -75 -49c-10 -23 -15 -67 -15 -111v-57h136
c30 0 58 3 71 17c14 14 18 41 24 79c21 136 123 175 199 175c40 0 71 -6 97 -17c16 9 34 16 48 16c17 0 28 -7 32 -34c2 -15 3 -38 3 -64v-550c0 -54 15 -82 77 -84v-18c-39 2 -83 3 -119 3c-39 0 -70 0 -107 -3v18c52 3 66 28 66 90v451c0 48 -3 88 -16 110
c-15 27 -41 41 -77 41c-41 0 -82 -16 -103 -54c-16 -28 -25 -81 -25 -125v-51h130v-44h-130v-328c0 -70 26 -88 87 -90v-18c-39 2 -89 3 -127 3c-39 0 -71 0 -108 -3v18c50 3 65 26 65 90v328h-223v-328c0 -70 26 -88 86 -90v-18z" />
    <glyph glyph-name="f_f_t" unicode="fft" horiz-adv-x="930" 
d="M275 -1c-39 2 -88 3 -126 3c-39 0 -71 0 -108 -3v18c50 3 65 26 65 90v328h-72v25c57 11 69 28 78 106c17 135 109 170 180 170c87 0 114 -34 114 -66c0 -22 -15 -43 -59 -49l-6 4c0 64 -30 71 -62 71c-22 0 -57 -10 -75 -49c-10 -23 -15 -67 -15 -111v-57h140
c27 0 50 4 63 15c15 13 21 38 26 80c16 134 113 176 185 176c88 0 112 -34 112 -66c0 -22 -19 -45 -65 -51l-6 4c0 63 -27 73 -55 73c-21 0 -57 -10 -76 -49c-11 -23 -18 -67 -18 -111v-71h129c33 0 66 1 85 14c21 15 38 47 57 107h25v-121h117v-44h-117v-284
c0 -24 2 -43 5 -58c8 -38 31 -48 63 -48c21 0 45 6 66 13l6 -8c-25 -34 -67 -60 -112 -60c-57 0 -93 20 -106 75c-4 17 -5 41 -5 65v305h-213v-328c0 -70 26 -88 87 -90v-18c-39 2 -89 3 -127 3c-39 0 -71 0 -108 -3v18c50 3 65 26 65 90v328h-223v-328c0 -70 26 -88 86 -90
v-18z" />
    <glyph glyph-name="f_f_y" unicode="ffy" horiz-adv-x="1101" 
d="M495 435v-328c0 -70 26 -88 87 -90v-18c-39 2 -89 3 -127 3c-39 0 -71 0 -108 -3v18c50 3 65 26 65 90v328h-223v-328c0 -70 26 -88 86 -90v-18c-39 2 -88 3 -126 3c-39 0 -71 0 -108 -3v18c50 3 65 26 65 90v328h-72v25c57 11 69 28 78 106c17 135 109 170 180 170
c87 0 114 -34 114 -66c0 -22 -15 -43 -59 -49l-6 4c0 64 -30 71 -62 71c-22 0 -57 -10 -75 -49c-10 -23 -15 -67 -15 -111v-57h140c27 0 52 2 64 12c17 14 20 41 25 84c17 134 107 175 178 175c88 0 117 -34 117 -66c0 -22 -19 -45 -65 -51l-6 4c0 63 -31 73 -60 73
c-21 0 -53 -10 -72 -49c-11 -23 -15 -67 -15 -111v-71h75c26 0 51 2 63 4c15 2 28 5 42 5c25 0 42 -15 57 -44c14 -28 36 -76 48 -107c55 -146 76 -197 93 -242c20 46 55 121 90 212c16 43 23 79 23 99c0 19 -9 34 -24 44l-1 9c25 18 48 29 74 29c15 0 36 -9 36 -41
c0 -37 -28 -99 -64 -179c-97 -216 -130 -290 -191 -401c-42 -77 -83 -82 -113 -82c-33 0 -63 36 -67 69l7 5c11 -4 27 -7 38 -7c25 0 65 9 96 59c25 41 37 68 47 89c-50 129 -122 320 -159 383c-9 16 -21 33 -32 41c-14 10 -34 11 -54 11h-84z" />
    <glyph glyph-name="f_h" unicode="fh" horiz-adv-x="889" 
d="M276 -1c-39 2 -89 3 -127 3c-39 0 -71 0 -108 -3v18c50 3 65 26 65 90v328h-72v25c57 11 68 37 80 115c21 136 123 175 199 175c40 0 71 -6 97 -17c16 9 35 16 48 16c17 0 28 -7 32 -34c2 -15 3 -43 3 -68v-242c29 40 90 85 172 85c53 0 92 -20 112 -61
c9 -19 15 -52 15 -96v-182c0 -31 2 -59 7 -76c8 -24 32 -42 76 -42v-10c-19 -17 -52 -32 -76 -32c-56 0 -73 27 -82 53c-6 19 -8 43 -8 103v158c0 36 -3 66 -10 83c-11 28 -42 39 -71 39c-52 0 -98 -16 -135 -51v-273c0 -54 15 -84 76 -86v-18c-38 2 -81 3 -119 3
s-69 0 -106 -3v18c52 3 67 29 67 90v453c0 48 -4 86 -17 108c-15 27 -41 41 -77 41c-41 0 -82 -16 -103 -54c-16 -28 -25 -81 -25 -125v-51h130v-44h-130v-328c0 -70 26 -88 87 -90v-18z" />
    <glyph glyph-name="f_j" unicode="fj" horiz-adv-x="569" 
d="M274 -1c-39 2 -87 3 -125 3c-39 0 -71 0 -108 -3v18c50 3 65 26 65 90v328h-72v25c56 11 70 44 78 101c21 138 110 189 216 189c96 0 139 -43 139 -82c0 -34 -28 -59 -74 -65l-6 4c0 82 -35 103 -76 103c-54 0 -85 -28 -102 -64c-10 -23 -20 -73 -20 -135v-32h100
c97 0 122 9 140 9c26 0 47 -10 53 -47c2 -11 2 -38 2 -55v-379c0 -38 -3 -100 -17 -129c-32 -64 -93 -82 -141 -82c-9 0 -19 1 -26 4v7c72 31 101 51 101 223v284c0 99 -14 121 -77 121h-135v-328c0 -70 26 -88 85 -90v-18z" />
    <glyph glyph-name="f_k" unicode="fk" horiz-adv-x="862" 
d="M276 -1c-39 2 -89 3 -127 3c-39 0 -71 0 -108 -3v18c50 3 65 26 65 90v328h-72v25c57 11 68 37 80 115c21 136 123 175 199 175c40 0 71 -6 97 -17c16 9 35 16 48 16c17 0 28 -7 32 -34c2 -15 3 -43 3 -68v-546c0 -54 14 -82 77 -84v-18c-39 2 -82 3 -120 3
s-69 0 -106 -3v18c52 3 67 28 67 90v453c0 48 -4 86 -17 108c-15 27 -41 41 -77 41c-41 0 -82 -16 -103 -54c-16 -28 -25 -81 -25 -125v-51h130v-44h-130v-328c0 -70 26 -88 87 -90v-18zM860 51c-27 -42 -66 -60 -93 -60c-33 0 -63 11 -109 66c-58 71 -116 163 -148 193v9
c11 3 24 11 36 19c30 21 91 74 116 101s32 47 32 58c0 12 -5 19 -13 25l1 8c12 8 38 17 56 17c37 0 47 -16 47 -38c0 -16 -16 -44 -63 -84c-39 -33 -96 -78 -122 -99c32 -45 69 -95 124 -157c39 -43 68 -56 91 -56c11 0 26 1 39 4z" />
    <glyph glyph-name="f_t" unicode="ft" horiz-adv-x="624" 
d="M276 -1c-39 2 -89 3 -127 3c-39 0 -71 0 -108 -3v18c50 3 65 26 65 90v328h-72v25c57 11 69 37 78 115c16 134 113 175 185 175c88 0 112 -34 112 -66c0 -22 -19 -45 -65 -51l-6 4c0 63 -27 73 -55 73c-21 0 -57 -10 -76 -49c-11 -23 -18 -67 -18 -111v-71h130
c32 0 65 1 84 14c22 15 38 47 57 107h25v-121h117v-44h-117v-284c0 -24 2 -43 5 -58c8 -38 31 -48 63 -48c21 0 45 6 66 13l7 -8c-26 -34 -68 -60 -113 -60c-57 0 -93 19 -106 74c-4 17 -5 42 -5 66v305h-213v-328c0 -70 26 -88 87 -90v-18z" />
    <glyph glyph-name="f_y" unicode="fy" horiz-adv-x="794" 
d="M426 444c14 -28 36 -76 48 -107c55 -146 76 -197 93 -242c20 46 55 121 90 212c16 43 23 79 23 99c0 19 -9 34 -24 44l-1 9c25 18 48 29 74 29c15 0 36 -9 36 -41c0 -37 -28 -99 -64 -179c-97 -216 -130 -290 -191 -401c-42 -77 -83 -82 -113 -82c-33 0 -63 36 -67 69
l7 5c11 -4 27 -7 38 -7c25 0 65 9 96 59c25 41 37 68 47 89c-50 129 -122 320 -159 383c-9 16 -21 33 -32 41c-14 10 -34 11 -54 11h-84v-328c0 -70 26 -88 87 -90v-18c-39 2 -89 3 -127 3c-39 0 -71 0 -108 -3v18c50 3 65 26 65 90v328h-72v25c57 11 69 37 78 115
c15 134 108 175 179 175c88 0 116 -34 116 -66c0 -22 -19 -45 -65 -51l-6 4c0 63 -30 73 -59 73c-21 0 -53 -10 -72 -49c-11 -23 -16 -67 -16 -111v-71h75c26 0 51 2 63 4c15 2 28 5 42 5c25 0 42 -15 57 -44z" />
    <glyph glyph-name="fi" unicode="fi" horiz-adv-x="587" 
d="M274 -1c-39 2 -87 3 -125 3c-39 0 -71 0 -108 -3v18c50 3 65 26 65 90v328h-72v25c56 11 70 44 78 101c21 138 110 189 216 189c96 0 140 -43 140 -82c0 -34 -29 -59 -75 -65l-6 4c0 82 -35 103 -76 103c-54 0 -85 -28 -102 -64c-10 -23 -20 -73 -20 -135v-32h108
c97 0 121 9 140 9c26 0 46 -10 53 -47c2 -11 2 -38 2 -55v-283c0 -59 18 -84 77 -86v-18c-39 2 -82 3 -121 3c-38 0 -68 0 -106 -3v18c51 3 68 26 68 91v206c0 99 -15 121 -79 121h-142v-328c0 -70 26 -88 85 -90v-18z" />
    <glyph glyph-name="fl" unicode="fl" horiz-adv-x="585" 
d="M276 -1c-39 2 -89 3 -127 3c-39 0 -71 0 -108 -3v18c50 3 65 26 65 90v328h-72v25c57 11 68 37 80 115c21 136 123 175 199 175c40 0 71 -6 97 -17c16 9 35 16 48 16c17 0 28 -7 32 -34c2 -15 3 -38 3 -64v-550c0 -54 15 -82 77 -84v-18c-39 2 -83 3 -119 3
c-39 0 -70 0 -107 -3v18c52 3 67 28 67 90v451c0 48 -4 88 -17 110c-15 27 -41 41 -77 41c-41 0 -82 -16 -103 -54c-16 -28 -25 -81 -25 -125v-51h130v-44h-130v-328c0 -70 26 -88 87 -90v-18z" />
    <glyph glyph-name="t_y" unicode="ty" horiz-adv-x="797" 
d="M324 50c-26 -34 -68 -60 -113 -60c-56 0 -92 20 -105 75c-4 17 -5 41 -5 65v306h-71v24c60 14 94 30 128 140h26v-121h90c18 0 49 2 61 4c14 2 27 5 41 5c25 0 42 -15 57 -44c15 -28 34 -70 46 -101c60 -149 79 -202 96 -249c18 46 52 122 85 213c16 43 23 79 23 99
c0 19 -9 34 -24 44v9c24 19 45 29 73 29c16 0 36 -10 36 -42c0 -36 -28 -99 -63 -178c-66 -149 -122 -291 -185 -401c-45 -77 -86 -82 -118 -82c-36 0 -61 30 -61 72l6 4c11 -8 27 -12 39 -12c34 0 64 14 95 64c24 41 37 66 46 87c-49 129 -124 312 -161 383
c-9 17 -21 35 -33 42c-14 9 -33 11 -51 11h-99v-285c0 -24 2 -43 5 -58c8 -38 31 -48 64 -48c21 0 44 6 65 13z" />
    <glyph glyph-name="uni0162_h" unicode="&#x162;h" horiz-adv-x="1111" 
d="M339 625v-517c0 -56 13 -90 80 -91v-18c-29 1 -79 2 -116 2c-5 -12 -7 -24 -7 -31c0 -10 5 -17 18 -25c10 -6 24 -13 42 -26c20 -15 27 -34 27 -55c0 -58 -71 -94 -148 -94l-2 19c58 10 83 34 83 60c0 19 -6 35 -34 54c-17 11 -26 25 -26 38c0 16 9 35 23 60
c-37 0 -85 -1 -107 -2v18c67 1 78 35 78 91v517h-47c-117 0 -136 -14 -158 -111h-22c4 45 8 106 11 154c153 -2 204 -2 261 -2c36 0 149 0 216 2c35 1 65 5 88 12c18 5 35 18 48 30c12 12 22 20 37 20c19 0 31 -8 31 -55v-270c29 40 90 85 172 85c53 0 92 -20 112 -61
c9 -19 15 -52 15 -96v-182c0 -31 2 -59 7 -76c8 -24 32 -42 76 -42v-10c-19 -17 -52 -32 -76 -32c-56 0 -73 27 -82 53c-6 19 -8 43 -8 103v158c0 36 -3 66 -10 83c-11 28 -42 39 -71 39c-52 0 -98 -16 -135 -51v-273c0 -54 15 -84 76 -86v-18c-38 2 -81 3 -119 3
s-69 0 -106 -3v18c52 3 67 29 67 90v442c0 43 -8 59 -24 66c-21 10 -75 10 -228 10h-42z" />
    <glyph glyph-name="uni021A_h" unicode="&#x21a;h" horiz-adv-x="1111" 
d="M419 -1c-32 1 -89 2 -127 2c-37 0 -95 -1 -120 -2v18c67 1 78 35 78 91v517h-47c-117 0 -136 -14 -158 -111h-22c4 45 8 106 11 154c153 -2 204 -2 261 -2c36 0 149 0 216 2c44 2 87 6 112 20c23 13 39 32 56 32c28 0 36 -16 36 -96v-219c29 40 90 85 172 85
c53 0 92 -20 112 -61c9 -19 15 -52 15 -96v-179c0 -31 2 -59 7 -76c8 -24 32 -42 76 -42v-10c-19 -17 -52 -32 -76 -32c-56 0 -73 27 -82 53c-6 19 -8 43 -8 103v155c0 36 -3 66 -10 83c-11 28 -42 39 -71 39c-52 0 -98 -16 -135 -51v-273c0 -54 15 -84 76 -86v-18
c-38 2 -81 3 -119 3s-69 0 -106 -3v18c52 3 67 29 67 90v442c0 43 -8 59 -24 66c-21 10 -75 10 -228 10h-42v-517c0 -56 13 -90 80 -91v-18zM355 -109c0 -58 -43 -109 -112 -142l-10 17c41 27 60 46 60 75c0 10 -6 19 -17 27c-15 11 -22 24 -22 42c0 23 19 43 47 43
c34 0 54 -22 54 -62z" />
    <glyph glyph-name=".notdef" horiz-adv-x="548" 
d="M70 0v668h407v-668h-407zM120 48h308v572h-308v-572z" />
    <glyph glyph-name="A" unicode="A" horiz-adv-x="652" 
d="M218 -1c-32 1 -79 2 -116 2s-61 -1 -99 -2v18c53 2 72 36 92 90l157 418c18 48 35 96 50 143h60c15 -47 32 -96 49 -143l147 -418c19 -55 38 -88 90 -90v-18c-38 1 -69 2 -106 2s-113 -1 -145 -2v18c45 1 74 14 74 40c0 13 -3 30 -11 53l-36 101h-233l-37 -104
c-7 -19 -10 -35 -10 -48c0 -26 28 -41 74 -42v-18zM206 255h204l-101 289z" />
    <glyph glyph-name="AE" unicode="&#xc6;" horiz-adv-x="932" 
d="M229 -1c-32 1 -90 2 -127 2s-64 -1 -102 -2v18c41 1 67 26 108 90l276 439c21 33 32 56 32 68c0 23 -18 34 -75 37v18c37 -2 266 -2 303 -2c58 0 125 0 220 1c2 -48 6 -101 10 -148h-19c-22 97 -51 104 -179 104h-85v-260h46c112 0 132 16 136 73h22
c-2 -31 -2 -65 -2 -96s0 -62 2 -92h-22c-4 54 -21 74 -135 74h-47v-272c62 -7 114 -8 159 -8c83 0 111 30 122 121h23c-2 -53 -4 -111 -4 -164c-106 1 -255 1 -308 1c-36 0 -95 0 -157 -2v19c65 1 76 34 76 90v116h-256l-57 -94c-29 -46 -33 -63 -33 -75
c0 -24 20 -37 73 -38v-18zM273 268h229v352c-12 0 -20 -10 -31 -28z" />
    <glyph glyph-name="AEacute" unicode="&#x1fc;" horiz-adv-x="932" 
d="M229 -1c-32 1 -90 2 -127 2s-64 -1 -102 -2v18c41 1 67 26 108 90l276 439c21 33 32 56 32 68c0 23 -18 34 -75 37v18c37 -2 266 -2 303 -2c58 0 125 0 220 1c2 -48 6 -101 10 -148h-19c-22 97 -51 104 -179 104h-85v-260h46c112 0 132 16 136 73h22
c-2 -31 -2 -65 -2 -96s0 -62 2 -92h-22c-4 54 -21 74 -135 74h-47v-272c62 -7 114 -8 159 -8c83 0 111 30 122 121h23c-2 -53 -4 -111 -4 -164c-106 1 -255 1 -308 1c-36 0 -95 0 -157 -2v19c65 1 76 34 76 90v116h-256l-57 -94c-29 -46 -33 -63 -33 -75
c0 -24 20 -37 73 -38v-18zM273 268h229v352c-12 0 -20 -10 -31 -28zM547 702l-9 14c54 47 116 107 160 162l62 -59c-50 -38 -158 -96 -213 -117z" />
    <glyph glyph-name="Aacute" unicode="&#xc1;" horiz-adv-x="652" 
d="M218 -1c-32 1 -79 2 -116 2s-61 -1 -99 -2v18c53 2 72 36 92 90l157 418c18 48 35 96 50 143h60c15 -47 32 -96 49 -143l147 -418c19 -55 38 -88 90 -90v-18c-38 1 -69 2 -106 2s-113 -1 -145 -2v18c45 1 74 14 74 40c0 13 -3 30 -11 53l-36 101h-233l-37 -104
c-7 -19 -10 -35 -10 -48c0 -26 28 -41 74 -42v-18zM206 255h204l-101 289zM260 705l-9 14c54 47 116 107 160 162l62 -59c-50 -38 -158 -96 -213 -117z" />
    <glyph glyph-name="Abreve" unicode="&#x102;" horiz-adv-x="652" 
d="M218 -1c-32 1 -79 2 -116 2s-61 -1 -99 -2v18c53 2 72 36 92 90l157 418c18 48 35 96 50 143h60c15 -47 32 -96 49 -143l147 -418c19 -55 38 -88 90 -90v-18c-38 1 -69 2 -106 2s-113 -1 -145 -2v18c45 1 74 14 74 40c0 13 -3 30 -11 53l-36 101h-233l-37 -104
c-7 -19 -10 -35 -10 -48c0 -26 28 -41 74 -42v-18zM206 255h204l-101 289zM472 860c-9 -62 -31 -138 -145 -138c-115 0 -138 78 -139 140l18 3c15 -47 38 -78 120 -78c81 0 106 29 128 77z" />
    <glyph glyph-name="Acircumflex" unicode="&#xc2;" horiz-adv-x="652" 
d="M218 -1c-32 1 -79 2 -116 2s-61 -1 -99 -2v18c53 2 72 36 92 90l157 418c18 48 35 96 50 143h60c15 -47 32 -96 49 -143l147 -418c19 -55 38 -88 90 -90v-18c-38 1 -69 2 -106 2s-113 -1 -145 -2v18c45 1 74 14 74 40c0 13 -3 30 -11 53l-36 101h-233l-37 -104
c-7 -19 -10 -35 -10 -48c0 -26 28 -41 74 -42v-18zM206 255h204l-101 289zM474 723l-11 -13c-44 20 -99 49 -135 68c-41 -21 -96 -50 -134 -67l-10 12c31 29 86 84 139 141h10c49 -52 91 -94 141 -141z" />
    <glyph glyph-name="Adieresis" unicode="&#xc4;" horiz-adv-x="652" 
d="M218 -1c-32 1 -79 2 -116 2s-61 -1 -99 -2v18c53 2 72 36 92 90l157 418c18 48 35 96 50 143h60c15 -47 32 -96 49 -143l147 -418c19 -55 38 -88 90 -90v-18c-38 1 -69 2 -106 2s-113 -1 -145 -2v18c45 1 74 14 74 40c0 13 -3 30 -11 53l-36 101h-233l-37 -104
c-7 -19 -10 -35 -10 -48c0 -26 28 -41 74 -42v-18zM206 255h204l-101 289zM284 772c0 -27 -21 -48 -48 -48s-46 21 -46 48s19 48 46 48s48 -21 48 -48zM468 772c0 -27 -20 -48 -47 -48s-47 21 -47 48s20 48 47 48s47 -21 47 -48z" />
    <glyph glyph-name="Agrave" unicode="&#xc0;" horiz-adv-x="652" 
d="M218 -1c-32 1 -79 2 -116 2s-61 -1 -99 -2v18c53 2 72 36 92 90l157 418c18 48 35 96 50 143h60c15 -47 32 -96 49 -143l147 -418c19 -55 38 -88 90 -90v-18c-38 1 -69 2 -106 2s-113 -1 -145 -2v18c45 1 74 14 74 40c0 13 -3 30 -11 53l-36 101h-233l-37 -104
c-7 -19 -10 -35 -10 -48c0 -26 28 -41 74 -42v-18zM206 255h204l-101 289zM406 725l-9 -14c-55 21 -162 79 -212 117l61 59c44 -57 106 -115 160 -162z" />
    <glyph glyph-name="Amacron" unicode="&#x100;" horiz-adv-x="652" 
d="M218 -1c-32 1 -79 2 -116 2s-61 -1 -99 -2v18c53 2 72 36 92 90l157 418c18 48 35 96 50 143h60c15 -47 32 -96 49 -143l147 -418c19 -55 38 -88 90 -90v-18c-38 1 -69 2 -106 2s-113 -1 -145 -2v18c45 1 74 14 74 40c0 13 -3 30 -11 53l-36 101h-233l-37 -104
c-7 -19 -10 -35 -10 -48c0 -26 28 -41 74 -42v-18zM206 255h204l-101 289zM469 734h-278v60h278v-60z" />
    <glyph glyph-name="Aogonek" unicode="&#x104;" horiz-adv-x="652" 
d="M552 -231c-79 0 -154 25 -154 94c0 51 31 96 107 138c-38 -1 -85 -1 -108 -2v18c45 1 74 14 74 40c0 13 -3 30 -11 53l-36 101h-233l-37 -104c-7 -19 -10 -35 -10 -48c0 -26 28 -41 74 -42v-18c-32 1 -79 2 -116 2s-61 -1 -99 -2v18c53 2 72 36 92 90l157 418
c18 48 35 96 50 143h60c15 -47 32 -96 49 -143l147 -418c19 -55 38 -88 90 -90v-18c-35 1 -64 2 -97 2c-56 -36 -86 -80 -86 -132c0 -34 16 -72 90 -77zM206 255h204l-101 289z" />
    <glyph glyph-name="Aring" unicode="&#xc5;" horiz-adv-x="652" 
d="M218 -1c-32 1 -79 2 -116 2s-61 -1 -99 -2v18c53 2 72 36 92 90l157 418c18 48 35 96 50 143h60c15 -47 32 -96 49 -143l147 -418c19 -55 38 -88 90 -90v-18c-38 1 -69 2 -106 2s-113 -1 -145 -2v18c45 1 74 14 74 40c0 13 -3 30 -11 53l-36 101h-233l-37 -104
c-7 -19 -10 -35 -10 -48c0 -26 28 -41 74 -42v-18zM206 255h204l-101 289zM423 788c0 -54 -39 -95 -97 -95c-55 0 -95 41 -95 95s40 97 95 97c58 0 97 -43 97 -97zM384 787c0 39 -22 65 -58 65c-33 0 -57 -26 -57 -65c0 -34 24 -60 57 -60c36 0 58 25 58 60z" />
    <glyph glyph-name="Aringacute" unicode="&#x1fa;" horiz-adv-x="652" 
d="M417 744c0 -37 -21 -68 -55 -79c15 -46 32 -94 48 -140l148 -418c19 -55 38 -88 90 -90v-18c-38 1 -69 2 -106 2s-113 -1 -145 -2v18c45 1 74 14 74 40c0 13 -3 30 -11 53l-36 101h-233l-37 -104c-7 -19 -10 -35 -10 -48c0 -26 28 -41 74 -42v-18c-32 1 -79 2 -116 2
s-61 -1 -99 -2v18c53 2 72 36 92 90l157 418c17 47 35 94 50 140c-34 12 -55 42 -55 79c0 47 35 84 85 84c51 0 85 -37 85 -84zM206 255h204l-101 289zM304 848l-14 14c37 40 79 87 113 134l59 -42c-40 -33 -103 -74 -158 -106zM379 743c0 31 -18 53 -47 53
c-28 0 -47 -22 -47 -53c0 -27 19 -49 47 -49c29 0 47 21 47 49z" />
    <glyph glyph-name="Atilde" unicode="&#xc3;" horiz-adv-x="652" 
d="M218 -1c-32 1 -79 2 -116 2s-61 -1 -99 -2v18c53 2 72 36 92 90l157 418c18 48 35 96 50 143h60c15 -47 32 -96 49 -143l147 -418c19 -55 38 -88 90 -90v-18c-38 1 -69 2 -106 2s-113 -1 -145 -2v18c45 1 74 14 74 40c0 13 -3 30 -11 53l-36 101h-233l-37 -104
c-7 -19 -10 -35 -10 -48c0 -26 28 -41 74 -42v-18zM206 255h204l-101 289zM485 821c-13 -43 -33 -98 -90 -98c-24 0 -50 9 -72 19c-23 10 -46 21 -62 21c-27 0 -48 -22 -62 -52l-18 7c11 47 42 105 94 105c27 0 45 -10 70 -20c20 -8 43 -21 64 -21c32 0 44 16 60 45z" />
    <glyph glyph-name="B" unicode="B" horiz-adv-x="603" 
d="M375 357c121 -13 181 -82 181 -168c0 -127 -97 -189 -266 -189c-18 0 -82 2 -122 2c-45 0 -82 -1 -125 -2v17c64 2 78 32 78 90v468c0 56 -14 74 -78 76v17c36 -2 84 -2 121 -2s93 2 130 2c168 0 227 -58 227 -165c0 -68 -47 -125 -146 -146zM210 370h43c34 0 64 3 89 10
c59 18 87 56 87 114c0 61 -24 97 -66 117c-23 11 -62 16 -94 16h-59v-257zM210 328v-278c36 -4 61 -6 91 -6c107 0 156 47 156 144c0 70 -36 114 -110 131c-27 7 -60 9 -96 9h-41z" />
    <glyph glyph-name="C" unicode="C" horiz-adv-x="563" 
d="M535 136c6 -6 8 -13 8 -20c0 -44 -80 -129 -203 -129c-194 0 -289 130 -289 336c0 223 110 357 292 357c131 0 193 -45 193 -98c0 -26 -10 -51 -69 -67l-7 4c0 86 -57 121 -121 121c-109 0 -190 -84 -190 -307c0 -204 96 -280 205 -280c74 0 135 31 174 83h7z" />
    <glyph glyph-name="Cacute" unicode="&#x106;" horiz-adv-x="563" 
d="M535 136c6 -6 8 -13 8 -20c0 -44 -80 -129 -203 -129c-194 0 -289 130 -289 336c0 223 110 357 292 357c131 0 193 -45 193 -98c0 -26 -10 -51 -69 -67l-7 4c0 86 -57 121 -121 121c-109 0 -190 -84 -190 -307c0 -204 96 -280 205 -280c74 0 135 31 174 83h7zM273 702
l-9 14c54 47 116 107 160 162l62 -59c-50 -38 -158 -96 -213 -117z" />
    <glyph glyph-name="Ccaron" unicode="&#x10c;" horiz-adv-x="563" 
d="M535 136c6 -6 8 -13 8 -20c0 -44 -80 -129 -203 -129c-194 0 -289 130 -289 336c0 223 110 357 292 357c131 0 193 -45 193 -98c0 -26 -10 -51 -69 -67l-7 4c0 86 -57 121 -121 121c-109 0 -190 -84 -190 -307c0 -204 96 -280 205 -280c74 0 135 31 174 83h7zM172 856
l10 12c44 -20 99 -47 135 -67c41 22 96 49 134 67l10 -13c-31 -28 -83 -84 -139 -141h-10c-51 52 -90 95 -140 142z" />
    <glyph glyph-name="Ccedilla" unicode="&#xc7;" horiz-adv-x="563" 
d="M261 -230l-2 19c58 10 83 34 83 60c0 19 -6 35 -34 54c-17 11 -26 25 -26 38c0 14 6 28 17 48c-166 17 -248 143 -248 334c0 223 110 357 292 357c131 0 193 -45 193 -98c0 -26 -10 -51 -69 -67l-7 4c0 86 -57 121 -121 121c-109 0 -190 -84 -190 -307
c0 -204 96 -280 205 -280c74 0 135 31 174 83h7c6 -6 8 -13 8 -20c0 -44 -80 -129 -203 -129h-16c-2 -7 -2 -13 -2 -17c0 -10 5 -17 18 -25c10 -6 24 -13 42 -26c20 -15 27 -34 27 -55c0 -58 -71 -94 -148 -94z" />
    <glyph glyph-name="Ccircumflex" unicode="&#x108;" horiz-adv-x="563" 
d="M535 136c6 -6 8 -13 8 -20c0 -44 -80 -129 -203 -129c-194 0 -289 130 -289 336c0 223 110 357 292 357c131 0 193 -45 193 -98c0 -26 -10 -51 -69 -67l-7 4c0 86 -57 121 -121 121c-109 0 -190 -84 -190 -307c0 -204 96 -280 205 -280c74 0 135 31 174 83h7zM480 723
l-11 -13c-44 20 -99 49 -135 68c-41 -21 -96 -50 -134 -67l-10 12c31 29 86 84 139 141h10c49 -52 91 -94 141 -141z" />
    <glyph glyph-name="Cdotaccent" unicode="&#x10a;" horiz-adv-x="563" 
d="M535 136c6 -6 8 -13 8 -20c0 -44 -80 -129 -203 -129c-194 0 -289 130 -289 336c0 223 110 357 292 357c131 0 193 -45 193 -98c0 -26 -10 -51 -69 -67l-7 4c0 86 -57 121 -121 121c-109 0 -190 -84 -190 -307c0 -204 96 -280 205 -280c74 0 135 31 174 83h7zM378 772
c0 -27 -20 -48 -47 -48s-46 21 -46 48s19 48 46 48s47 -21 47 -48z" />
    <glyph glyph-name="D" unicode="D" horiz-adv-x="671" 
d="M43 -1v18c64 2 78 34 78 90v473c0 55 -14 69 -78 71v18c37 -2 86 -3 123 -3c33 0 88 2 121 2c214 0 333 -90 333 -330c0 -193 -85 -338 -320 -338c-33 0 -108 2 -141 2c-37 0 -80 -1 -116 -3zM210 51c21 -3 53 -5 77 -5c155 0 234 68 234 285c0 178 -62 274 -185 291
c-37 5 -83 5 -126 5v-576z" />
    <glyph glyph-name="Dcaron" unicode="&#x10e;" horiz-adv-x="671" 
d="M43 -1v18c64 2 78 34 78 90v473c0 55 -14 69 -78 71v18c37 -2 86 -3 123 -3c33 0 88 2 121 2c214 0 333 -90 333 -330c0 -193 -85 -338 -320 -338c-33 0 -108 2 -141 2c-37 0 -80 -1 -116 -3zM210 51c21 -3 53 -5 77 -5c155 0 234 68 234 285c0 178 -62 274 -185 291
c-37 5 -83 5 -126 5v-576zM154 856l10 12c44 -20 99 -47 135 -67c41 22 96 49 134 67l10 -13c-31 -28 -83 -84 -139 -141h-10c-51 52 -90 95 -140 142z" />
    <glyph glyph-name="Dcroat" unicode="&#x110;" horiz-adv-x="671" 
d="M43 -1v18c64 2 78 34 78 90v226h-78v44h78v203c0 55 -14 69 -78 71v18c37 -2 86 -3 123 -3c33 0 88 2 121 2c214 0 333 -90 333 -330c0 -193 -85 -338 -320 -338c-33 0 -108 2 -141 2c-37 0 -80 -1 -116 -3zM210 51c21 -3 53 -5 77 -5c155 0 234 68 234 285
c0 178 -62 274 -185 291c-37 5 -83 5 -126 5v-250h181v-44h-181v-282z" />
    <glyph glyph-name="Delta" unicode="&#x2206;" horiz-adv-x="658" 
d="M297 667h63l284 -657l-6 -10c-103 0 -212 1 -312 1c-99 0 -204 0 -306 -1l-6 9zM518 72l-211 496l-205 -496h416z" />
    <glyph glyph-name="Dotlessi" horiz-adv-x="330" 
d="M287 -1c-32 1 -86 2 -123 2s-84 -1 -121 -2v18c66 2 78 37 78 91v469c0 55 -12 72 -78 74v18c37 -2 84 -2 121 -2s86 0 123 2v-18c-67 -2 -77 -19 -77 -74v-469c0 -53 10 -89 77 -91v-18z" />
    <glyph glyph-name="E" unicode="E" horiz-adv-x="554" 
d="M510 0c-106 1 -277 1 -330 1c-37 0 -82 0 -137 -2v18c64 2 78 34 78 90v473c0 55 -14 69 -78 71v18c55 -3 123 -4 172 -4c57 0 113 1 266 3c3 -48 7 -100 11 -148h-20c-23 97 -50 104 -177 104h-85v-255h45c114 0 132 17 136 72h22c-2 -31 -2 -65 -2 -95
c0 -31 0 -61 2 -91h-22c-4 52 -19 73 -135 73h-46v-277c61 -7 121 -8 160 -8c81 0 108 30 120 121h22c-1 -53 -2 -111 -2 -164z" />
    <glyph glyph-name="Eacute" unicode="&#xc9;" horiz-adv-x="554" 
d="M510 0c-106 1 -277 1 -330 1c-37 0 -82 0 -137 -2v18c64 2 78 34 78 90v473c0 55 -14 69 -78 71v18c55 -3 123 -4 172 -4c57 0 113 1 266 3c3 -48 7 -100 11 -148h-20c-23 97 -50 104 -177 104h-85v-255h45c114 0 132 17 136 72h22c-2 -31 -2 -65 -2 -95
c0 -31 0 -61 2 -91h-22c-4 52 -19 73 -135 73h-46v-277c61 -7 121 -8 160 -8c81 0 108 30 120 121h22c-1 -53 -2 -111 -2 -164zM235 705l-9 14c54 47 116 107 160 162l62 -59c-50 -38 -158 -96 -213 -117z" />
    <glyph glyph-name="Ebreve" unicode="&#x114;" horiz-adv-x="554" 
d="M510 0c-106 1 -277 1 -330 1c-37 0 -82 0 -137 -2v18c64 2 78 34 78 90v473c0 55 -14 69 -78 71v18c55 -3 123 -4 172 -4c57 0 113 1 266 3c3 -48 7 -100 11 -148h-20c-23 97 -50 104 -177 104h-85v-255h45c114 0 132 17 136 72h22c-2 -31 -2 -65 -2 -95
c0 -31 0 -61 2 -91h-22c-4 52 -19 73 -135 73h-46v-277c61 -7 121 -8 160 -8c81 0 108 30 120 121h22c-1 -53 -2 -111 -2 -164zM429 860c-9 -62 -31 -138 -145 -138c-115 0 -138 78 -139 140l18 3c15 -47 38 -78 120 -78c81 0 106 29 128 77z" />
    <glyph glyph-name="Ecaron" unicode="&#x11a;" horiz-adv-x="554" 
d="M510 0c-106 1 -277 1 -330 1c-37 0 -82 0 -137 -2v18c64 2 78 34 78 90v473c0 55 -14 69 -78 71v18c55 -3 123 -4 172 -4c57 0 113 1 266 3c3 -48 7 -100 11 -148h-20c-23 97 -50 104 -177 104h-85v-255h45c114 0 132 17 136 72h22c-2 -31 -2 -65 -2 -95
c0 -31 0 -61 2 -91h-22c-4 52 -19 73 -135 73h-46v-277c61 -7 121 -8 160 -8c81 0 108 30 120 121h22c-1 -53 -2 -111 -2 -164zM139 856l10 12c44 -20 99 -47 135 -67c41 22 96 49 134 67l10 -13c-31 -28 -83 -84 -139 -141h-10c-51 52 -90 95 -140 142z" />
    <glyph glyph-name="Ecircumflex" unicode="&#xca;" horiz-adv-x="554" 
d="M510 0c-106 1 -277 1 -330 1c-37 0 -82 0 -137 -2v18c64 2 78 34 78 90v473c0 55 -14 69 -78 71v18c55 -3 123 -4 172 -4c57 0 113 1 266 3c3 -48 7 -100 11 -148h-20c-23 97 -50 104 -177 104h-85v-255h45c114 0 132 17 136 72h22c-2 -31 -2 -65 -2 -95
c0 -31 0 -61 2 -91h-22c-4 52 -19 73 -135 73h-46v-277c61 -7 121 -8 160 -8c81 0 108 30 120 121h22c-1 -53 -2 -111 -2 -164zM445 723l-11 -13c-44 20 -99 49 -135 68c-41 -21 -96 -50 -134 -67l-10 12c31 29 86 84 139 141h10c49 -52 91 -94 141 -141z" />
    <glyph glyph-name="Edieresis" unicode="&#xcb;" horiz-adv-x="554" 
d="M510 0c-106 1 -277 1 -330 1c-37 0 -82 0 -137 -2v18c64 2 78 34 78 90v473c0 55 -14 69 -78 71v18c55 -3 123 -4 172 -4c57 0 113 1 266 3c3 -48 7 -100 11 -148h-20c-23 97 -50 104 -177 104h-85v-255h45c114 0 132 17 136 72h22c-2 -31 -2 -65 -2 -95
c0 -31 0 -61 2 -91h-22c-4 52 -19 73 -135 73h-46v-277c61 -7 121 -8 160 -8c81 0 108 30 120 121h22c-1 -53 -2 -111 -2 -164zM251 772c0 -27 -21 -48 -48 -48s-46 21 -46 48s19 48 46 48s48 -21 48 -48zM435 772c0 -27 -20 -48 -47 -48s-47 21 -47 48s20 48 47 48
s47 -21 47 -48z" />
    <glyph glyph-name="Edotaccent" unicode="&#x116;" horiz-adv-x="554" 
d="M510 0c-106 1 -277 1 -330 1c-37 0 -82 0 -137 -2v18c64 2 78 34 78 90v473c0 55 -14 69 -78 71v18c55 -3 123 -4 172 -4c57 0 113 1 266 3c3 -48 7 -100 11 -148h-20c-23 97 -50 104 -177 104h-85v-255h45c114 0 132 17 136 72h22c-2 -31 -2 -65 -2 -95
c0 -31 0 -61 2 -91h-22c-4 52 -19 73 -135 73h-46v-277c61 -7 121 -8 160 -8c81 0 108 30 120 121h22c-1 -53 -2 -111 -2 -164zM340 772c0 -27 -20 -48 -47 -48s-46 21 -46 48s19 48 46 48s47 -21 47 -48z" />
    <glyph glyph-name="Egrave" unicode="&#xc8;" horiz-adv-x="554" 
d="M510 0c-106 1 -277 1 -330 1c-37 0 -82 0 -137 -2v18c64 2 78 34 78 90v473c0 55 -14 69 -78 71v18c55 -3 123 -4 172 -4c57 0 113 1 266 3c3 -48 7 -100 11 -148h-20c-23 97 -50 104 -177 104h-85v-255h45c114 0 132 17 136 72h22c-2 -31 -2 -65 -2 -95
c0 -31 0 -61 2 -91h-22c-4 52 -19 73 -135 73h-46v-277c61 -7 121 -8 160 -8c81 0 108 30 120 121h22c-1 -53 -2 -111 -2 -164zM367 725l-9 -14c-55 21 -162 79 -212 117l61 59c44 -57 106 -115 160 -162z" />
    <glyph glyph-name="Emacron" unicode="&#x112;" horiz-adv-x="554" 
d="M510 0c-106 1 -277 1 -330 1c-37 0 -82 0 -137 -2v18c64 2 78 34 78 90v473c0 55 -14 69 -78 71v18c55 -3 123 -4 172 -4c57 0 113 1 266 3c3 -48 7 -100 11 -148h-20c-23 97 -50 104 -177 104h-85v-255h45c114 0 132 17 136 72h22c-2 -31 -2 -65 -2 -95
c0 -31 0 -61 2 -91h-22c-4 52 -19 73 -135 73h-46v-277c61 -7 121 -8 160 -8c81 0 108 30 120 121h22c-1 -53 -2 -111 -2 -164zM423 734h-278v60h278v-60z" />
    <glyph glyph-name="Eng" unicode="&#x14a;" horiz-adv-x="701" 
d="M258 -1c-32 1 -65 2 -102 2s-72 -2 -110 -2v18c67 2 79 35 79 90v489c-18 25 -47 38 -79 39l-3 8c24 19 61 35 99 35c47 0 72 -29 96 -59c76 -95 210 -296 314 -459c-2 29 -5 168 -6 401c0 55 -13 88 -77 90v18c36 -2 71 -2 108 -2s68 1 100 2v-18
c-68 -2 -78 -35 -78 -90v-501c0 -69 -1 -122 -15 -154c-25 -61 -82 -78 -123 -78c-16 0 -32 3 -39 6v6c69 16 108 53 108 154v32c-104 167 -267 414 -356 530c2 -72 3 -236 3 -449c0 -55 14 -88 81 -90v-18z" />
    <glyph glyph-name="Eogonek" unicode="&#x118;" horiz-adv-x="554" 
d="M484 -231c-79 0 -154 25 -154 94c0 50 31 95 107 137c-100 1 -215 1 -257 1c-37 0 -82 0 -137 -2v18c64 2 78 34 78 90v473c0 55 -14 69 -78 71v18c55 -3 123 -4 172 -4c57 0 113 1 266 3c3 -48 7 -100 11 -148h-20c-23 97 -50 104 -177 104h-85v-255h45
c114 0 132 17 136 72h22c-2 -31 -2 -65 -2 -95c0 -31 0 -61 2 -91h-22c-4 52 -19 73 -135 73h-46v-277c61 -7 121 -8 160 -8c81 0 108 30 120 121h22c-1 -53 -2 -111 -2 -164h-28c-56 -36 -85 -79 -85 -131c0 -34 16 -72 90 -77z" />
    <glyph glyph-name="Eth" unicode="&#xd0;" horiz-adv-x="671" 
d="M43 -1v18c64 2 78 34 78 90v226h-78v44h78v203c0 55 -14 69 -78 71v18c37 -2 86 -3 123 -3c33 0 88 2 121 2c214 0 333 -90 333 -330c0 -193 -85 -338 -320 -338c-33 0 -108 2 -141 2c-37 0 -80 -1 -116 -3zM210 51c21 -3 53 -5 77 -5c155 0 234 68 234 285
c0 178 -62 274 -185 291c-37 5 -83 5 -126 5v-250h181v-44h-181v-282z" />
    <glyph glyph-name="Euro" unicode="&#x20ac;" horiz-adv-x="647" 
d="M72 399h85c25 157 118 250 263 250c124 0 179 -43 179 -92c0 -25 -8 -48 -63 -63l-7 4c0 80 -52 113 -113 113c-88 0 -153 -62 -171 -212h246v-36h-249c-1 -15 -1 -31 -1 -48v-26h250v-36h-247c17 -148 95 -205 186 -205c70 0 125 31 162 80h6c6 -6 8 -12 8 -19
c0 -42 -73 -122 -188 -122c-162 0 -249 103 -265 266h-81v36h79v20c0 18 1 36 2 54h-81v36z" />
    <glyph glyph-name="Euro.denominator" horiz-adv-x="419" 
d="M51 247h52c18 97 83 149 171 149c81 0 115 -28 115 -62c0 -16 -9 -32 -42 -44l-5 4c0 52 -33 72 -72 72c-55 0 -94 -31 -105 -119h146v-26h-149v-44h149v-25h-147c12 -90 65 -115 116 -115c46 0 78 19 102 51h4c4 -4 8 -9 8 -17c0 -25 -47 -79 -127 -79
c-98 0 -156 60 -167 160h-49v25h47v12c0 11 0 22 1 32h-48v26z" />
    <glyph glyph-name="Euro.inferior" horiz-adv-x="419" 
d="M51 87h52c18 97 83 149 171 149c81 0 115 -28 115 -62c0 -16 -9 -32 -42 -44l-5 4c0 52 -33 72 -72 72c-55 0 -94 -31 -105 -119h146v-26h-149v-44h149v-25h-147c12 -90 65 -115 116 -115c46 0 78 19 102 51h4c4 -4 8 -9 8 -17c0 -25 -47 -79 -127 -79
c-98 0 -156 60 -167 160h-49v25h47v12c0 11 0 22 1 32h-48v26z" />
    <glyph glyph-name="Euro.numerator" horiz-adv-x="419" 
d="M51 493h52c18 97 83 149 171 149c81 0 115 -28 115 -62c0 -16 -9 -32 -42 -44l-5 4c0 52 -33 72 -72 72c-55 0 -94 -31 -105 -119h146v-26h-149v-44h149v-25h-147c12 -90 65 -115 116 -115c46 0 78 19 102 51h4c4 -4 8 -9 8 -17c0 -25 -47 -79 -127 -79
c-98 0 -156 60 -167 160h-49v25h47v12c0 11 0 22 1 32h-48v26z" />
    <glyph glyph-name="Euro.oldstyle" horiz-adv-x="626" 
d="M74 383h84c27 139 118 222 258 222c122 0 176 -41 176 -87c0 -22 -7 -45 -62 -60l-6 5c0 75 -53 105 -112 105c-85 0 -148 -54 -167 -185h244v-36h-248c-2 -17 -2 -36 -2 -55v-19h250v-36h-247c16 -140 93 -193 184 -193c68 0 123 29 159 75h6c6 -6 9 -11 9 -18
c0 -39 -73 -114 -188 -114c-161 0 -246 96 -261 250h-77v36h75v14c0 21 1 41 3 60h-78v36z" />
    <glyph glyph-name="Euro.superior" horiz-adv-x="419" 
d="M51 707h52c18 97 83 149 171 149c81 0 115 -28 115 -62c0 -16 -9 -32 -42 -44l-5 4c0 52 -33 72 -72 72c-55 0 -94 -31 -105 -119h146v-26h-149v-44h149v-25h-147c12 -90 65 -115 116 -115c46 0 78 19 102 51h4c4 -4 8 -9 8 -17c0 -25 -47 -79 -127 -79
c-98 0 -156 60 -167 160h-49v25h47v12c0 11 0 22 1 32h-48v26z" />
    <glyph glyph-name="F" unicode="F" horiz-adv-x="531" 
d="M298 -1c-31 1 -97 2 -134 2s-84 -1 -121 -2v18c64 2 78 34 78 90v473c0 55 -14 69 -78 71v18c55 -3 129 -4 178 -4c57 0 103 1 257 3c2 -48 6 -101 10 -148h-19c-23 97 -49 104 -177 104h-82v-269h45c114 0 132 18 136 73h22c-2 -31 -2 -66 -2 -96c0 -31 0 -60 2 -91h-22
c-4 52 -19 73 -135 73h-46v-202c0 -67 16 -93 88 -95v-18z" />
    <glyph glyph-name="G" unicode="G" horiz-adv-x="645" 
d="M565 42c-62 -34 -143 -55 -218 -55c-187 0 -298 117 -298 342c0 219 123 351 307 351c131 0 198 -44 198 -96c0 -27 -9 -53 -67 -69l-7 4c0 86 -60 121 -126 121c-139 0 -207 -116 -207 -312c0 -180 73 -286 216 -286c41 0 85 7 107 16v153c0 57 -11 89 -84 91v17
c46 -1 87 -2 124 -2s70 1 111 2v-17c-50 -2 -66 -36 -66 -94c0 -109 1 -148 10 -166z" />
    <glyph glyph-name="Gbreve" unicode="&#x11e;" horiz-adv-x="645" 
d="M565 42c-62 -34 -143 -55 -218 -55c-187 0 -298 117 -298 342c0 219 123 351 307 351c131 0 198 -44 198 -96c0 -27 -9 -53 -67 -69l-7 4c0 86 -60 121 -126 121c-139 0 -207 -116 -207 -312c0 -180 73 -286 216 -286c41 0 85 7 107 16v153c0 57 -11 89 -84 91v17
c46 -1 87 -2 124 -2s70 1 111 2v-17c-50 -2 -66 -36 -66 -94c0 -109 1 -148 10 -166zM480 860c-9 -62 -31 -138 -145 -138c-115 0 -138 78 -139 140l18 3c15 -47 38 -78 120 -78c81 0 106 29 128 77z" />
    <glyph glyph-name="Gcircumflex" unicode="&#x11c;" horiz-adv-x="645" 
d="M565 42c-62 -34 -143 -55 -218 -55c-187 0 -298 117 -298 342c0 219 123 351 307 351c131 0 198 -44 198 -96c0 -27 -9 -53 -67 -69l-7 4c0 86 -60 121 -126 121c-139 0 -207 -116 -207 -312c0 -180 73 -286 216 -286c41 0 85 7 107 16v153c0 57 -11 89 -84 91v17
c46 -1 87 -2 124 -2s70 1 111 2v-17c-50 -2 -66 -36 -66 -94c0 -109 1 -148 10 -166zM489 723l-11 -13c-44 20 -99 49 -135 68c-41 -21 -96 -50 -134 -67l-10 12c31 29 86 84 139 141h10c49 -52 91 -94 141 -141z" />
    <glyph glyph-name="Gcommaaccent" unicode="&#x122;" horiz-adv-x="645" 
d="M565 42c-62 -34 -143 -55 -218 -55c-187 0 -298 117 -298 342c0 219 123 351 307 351c131 0 198 -44 198 -96c0 -27 -9 -53 -67 -69l-7 4c0 86 -60 121 -126 121c-139 0 -207 -116 -207 -312c0 -180 73 -286 216 -286c41 0 85 7 107 16v153c0 57 -11 89 -84 91v17
c46 -1 87 -2 124 -2s70 1 111 2v-17c-50 -2 -66 -36 -66 -94c0 -109 1 -148 10 -166zM396 -109c0 -58 -43 -109 -112 -142l-10 17c41 27 60 46 60 75c0 10 -6 19 -17 27c-15 11 -22 24 -22 42c0 23 19 43 47 43c34 0 54 -22 54 -62z" />
    <glyph glyph-name="Gdotaccent" unicode="&#x120;" horiz-adv-x="645" 
d="M565 42c-62 -34 -143 -55 -218 -55c-187 0 -298 117 -298 342c0 219 123 351 307 351c131 0 198 -44 198 -96c0 -27 -9 -53 -67 -69l-7 4c0 86 -60 121 -126 121c-139 0 -207 -116 -207 -312c0 -180 73 -286 216 -286c41 0 85 7 107 16v153c0 57 -11 89 -84 91v17
c46 -1 87 -2 124 -2s70 1 111 2v-17c-50 -2 -66 -36 -66 -94c0 -109 1 -148 10 -166zM387 772c0 -27 -20 -48 -47 -48s-46 21 -46 48s19 48 46 48s47 -21 47 -48z" />
    <glyph glyph-name="H" unicode="H" horiz-adv-x="723" 
d="M287 -1c-32 1 -86 2 -123 2s-84 -1 -121 -2v18c64 2 78 34 78 90v473c0 55 -14 69 -78 71v18c37 -2 84 -2 121 -2s86 0 123 2v-18c-64 -2 -77 -16 -77 -71v-208h302v208c0 55 -14 69 -78 71v18c37 -2 84 -2 121 -2s86 0 123 2v-18c-65 -2 -77 -16 -77 -71v-473
c0 -56 12 -88 77 -90v-18c-32 1 -86 2 -123 2s-84 -1 -121 -2v18c64 2 78 34 78 90v219h-302v-219c0 -56 13 -88 77 -90v-18z" />
    <glyph glyph-name="Hbar" unicode="&#x126;" horiz-adv-x="723" 
d="M677 458h-79v-351c0 -56 12 -88 77 -90v-18c-32 1 -85 2 -122 2s-85 -1 -122 -2v18c64 2 78 34 78 90v219h-299v-219c0 -56 13 -88 77 -90v-18c-32 1 -86 2 -123 2s-84 -1 -121 -2v18c64 2 78 34 78 90v351h-78v44h78v78c0 55 -14 69 -78 71v18c37 -2 84 -2 121 -2
s86 0 123 2v-18c-64 -2 -77 -16 -77 -71v-78h299v78c0 55 -14 69 -78 71v18c37 -2 85 -2 122 -2s85 0 122 2v-18c-65 -2 -77 -16 -77 -71v-78h79v-44zM210 372h299v86h-299v-86z" />
    <glyph glyph-name="Hcircumflex" unicode="&#x124;" horiz-adv-x="723" 
d="M287 -1c-32 1 -86 2 -123 2s-84 -1 -121 -2v18c64 2 78 34 78 90v473c0 55 -14 69 -78 71v18c37 -2 84 -2 121 -2s86 0 123 2v-18c-64 -2 -77 -16 -77 -71v-208h302v208c0 55 -14 69 -78 71v18c37 -2 84 -2 121 -2s86 0 123 2v-18c-65 -2 -77 -16 -77 -71v-473
c0 -56 12 -88 77 -90v-18c-32 1 -86 2 -123 2s-84 -1 -121 -2v18c64 2 78 34 78 90v219h-302v-219c0 -56 13 -88 77 -90v-18zM473 723l-11 -13c-44 20 -99 49 -135 68c-41 -21 -96 -50 -134 -67l-10 12c31 29 86 84 139 141h10c49 -52 91 -94 141 -141z" />
    <glyph glyph-name="I" unicode="I" horiz-adv-x="330" 
d="M287 -1c-32 1 -86 2 -123 2s-84 -1 -121 -2v18c66 2 78 37 78 91v469c0 55 -12 72 -78 74v18c37 -2 84 -2 121 -2s86 0 123 2v-18c-67 -2 -77 -19 -77 -74v-469c0 -53 10 -89 77 -91v-18z" />
    <glyph glyph-name="IJ" unicode="&#x132;" horiz-adv-x="631" 
d="M287 -1c-32 1 -86 2 -123 2s-84 -1 -121 -2v18c66 2 78 37 78 91v469c0 55 -12 72 -78 74v18c37 -2 84 -2 121 -2s86 0 123 2v-18c-67 -2 -77 -19 -77 -74v-469c0 -53 10 -89 77 -91v-18zM527 115c0 -68 -4 -111 -16 -140c-27 -67 -101 -94 -163 -94c-10 0 -29 1 -36 3v7
c78 22 126 52 126 223v459c0 55 -17 76 -84 78v18c38 -2 89 -2 126 -2s87 0 124 2v-18c-67 -2 -77 -19 -77 -74v-462z" />
    <glyph glyph-name="Iacute" unicode="&#xcd;" horiz-adv-x="330" 
d="M287 -1c-32 1 -86 2 -123 2s-84 -1 -121 -2v18c66 2 78 37 78 91v469c0 55 -12 72 -78 74v18c37 -2 84 -2 121 -2s86 0 123 2v-18c-67 -2 -77 -19 -77 -74v-469c0 -53 10 -89 77 -91v-18zM112 705l-9 14c54 47 116 107 160 162l62 -59c-50 -38 -158 -96 -213 -117z" />
    <glyph glyph-name="Ibreve" unicode="&#x12c;" horiz-adv-x="330" 
d="M287 -1c-32 1 -86 2 -123 2s-84 -1 -121 -2v18c66 2 78 37 78 91v469c0 55 -12 72 -78 74v18c37 -2 84 -2 121 -2s86 0 123 2v-18c-67 -2 -77 -19 -77 -74v-469c0 -53 10 -89 77 -91v-18zM309 860c-9 -62 -31 -138 -145 -138c-115 0 -138 78 -139 140l18 3
c15 -47 38 -78 120 -78c81 0 106 29 128 77z" />
    <glyph glyph-name="Icircumflex" unicode="&#xce;" horiz-adv-x="330" 
d="M287 -1c-32 1 -86 2 -123 2s-84 -1 -121 -2v18c66 2 78 37 78 91v469c0 55 -12 72 -78 74v18c37 -2 84 -2 121 -2s86 0 123 2v-18c-67 -2 -77 -19 -77 -74v-469c0 -53 10 -89 77 -91v-18zM314 723l-11 -13c-44 20 -99 49 -135 68c-41 -21 -96 -50 -134 -67l-10 12
c31 29 86 84 139 141h10c49 -52 91 -94 141 -141z" />
    <glyph glyph-name="Idieresis" unicode="&#xcf;" horiz-adv-x="330" 
d="M287 -1c-32 1 -86 2 -123 2s-84 -1 -121 -2v18c66 2 78 37 78 91v469c0 55 -12 72 -78 74v18c37 -2 84 -2 121 -2s86 0 123 2v-18c-67 -2 -77 -19 -77 -74v-469c0 -53 10 -89 77 -91v-18zM122 772c0 -27 -21 -48 -48 -48s-46 21 -46 48s19 48 46 48s48 -21 48 -48z
M306 772c0 -27 -20 -48 -47 -48s-47 21 -47 48s20 48 47 48s47 -21 47 -48z" />
    <glyph glyph-name="Idotaccent" unicode="&#x130;" horiz-adv-x="330" 
d="M287 -1c-32 1 -86 2 -123 2s-84 -1 -121 -2v18c66 2 78 37 78 91v469c0 55 -12 72 -78 74v18c37 -2 84 -2 121 -2s86 0 123 2v-18c-67 -2 -77 -19 -77 -74v-469c0 -53 10 -89 77 -91v-18zM212 772c0 -27 -20 -48 -47 -48s-46 21 -46 48s19 48 46 48s47 -21 47 -48z" />
    <glyph glyph-name="Igrave" unicode="&#xcc;" horiz-adv-x="330" 
d="M287 -1c-32 1 -86 2 -123 2s-84 -1 -121 -2v18c66 2 78 37 78 91v469c0 55 -12 72 -78 74v18c37 -2 84 -2 121 -2s86 0 123 2v-18c-67 -2 -77 -19 -77 -74v-469c0 -53 10 -89 77 -91v-18zM240 725l-9 -14c-55 21 -162 79 -212 117l61 59c44 -57 106 -115 160 -162z" />
    <glyph glyph-name="Imacron" unicode="&#x12a;" horiz-adv-x="330" 
d="M287 -1c-32 1 -86 2 -123 2s-84 -1 -121 -2v18c66 2 78 37 78 91v469c0 55 -12 72 -78 74v18c37 -2 84 -2 121 -2s86 0 123 2v-18c-67 -2 -77 -19 -77 -74v-469c0 -53 10 -89 77 -91v-18zM316 734h-278v60h278v-60z" />
    <glyph glyph-name="Iogonek" unicode="&#x12e;" horiz-adv-x="330" 
d="M213 -231c-79 0 -154 25 -154 94c0 51 31 96 107 138c-37 0 -88 -1 -123 -2v18c66 2 78 37 78 91v469c0 55 -12 72 -78 74v18c37 -2 84 -2 121 -2s86 0 123 2v-18c-67 -2 -77 -19 -77 -74v-469c0 -53 10 -89 77 -91v-18c-21 1 -48 2 -75 2c-56 -36 -86 -80 -86 -132
c0 -34 16 -72 90 -77z" />
    <glyph glyph-name="Itilde" unicode="&#x128;" horiz-adv-x="330" 
d="M287 -1c-32 1 -86 2 -123 2s-84 -1 -121 -2v18c66 2 78 37 78 91v469c0 55 -12 72 -78 74v18c37 -2 84 -2 121 -2s86 0 123 2v-18c-67 -2 -77 -19 -77 -74v-469c0 -53 10 -89 77 -91v-18zM319 821c-13 -43 -33 -98 -90 -98c-24 0 -50 9 -72 19c-23 10 -46 21 -62 21
c-27 0 -48 -22 -62 -52l-18 7c11 47 42 105 94 105c27 0 45 -10 70 -20c20 -8 43 -21 64 -21c32 0 44 16 60 45z" />
    <glyph glyph-name="J" unicode="J" horiz-adv-x="320" 
d="M208 115c0 -68 -4 -111 -16 -140c-27 -67 -101 -94 -163 -94c-10 0 -29 1 -36 3v7c78 22 126 52 126 223v459c0 55 -17 76 -84 78v18c38 -2 89 -2 126 -2s87 0 124 2v-18c-67 -2 -77 -19 -77 -74v-462z" />
    <glyph glyph-name="Jcircumflex" unicode="&#x134;" horiz-adv-x="320" 
d="M208 115c0 -68 -4 -111 -16 -140c-27 -67 -101 -94 -163 -94c-10 0 -29 1 -36 3v7c78 22 126 52 126 223v459c0 55 -17 76 -84 78v18c38 -2 89 -2 126 -2s87 0 124 2v-18c-67 -2 -77 -19 -77 -74v-462zM305 723l-11 -13c-44 20 -99 49 -135 68c-41 -21 -96 -50 -134 -67
l-10 12c31 29 86 84 139 141h10c49 -52 91 -94 141 -141z" />
    <glyph glyph-name="K" unicode="K" horiz-adv-x="651" 
d="M287 -1c-32 1 -86 2 -123 2s-84 -1 -121 -2v18c64 2 78 34 78 90v473c0 55 -14 69 -78 71v18c37 -2 84 -2 121 -2s86 0 123 2v-18c-64 -2 -77 -16 -77 -71v-473c0 -56 13 -88 77 -90v-18zM648 33c-25 -27 -66 -39 -87 -39c-48 0 -82 21 -140 94c-62 78 -116 155 -151 205
c-15 21 -28 35 -40 45v13c23 3 48 18 62 31c34 33 66 73 103 120c38 48 71 93 71 116c0 22 -15 30 -65 33v18c41 -2 75 -2 116 -2c42 0 61 0 103 2v-18c-43 -4 -62 -28 -120 -100c-55 -69 -132 -155 -167 -198c59 -87 118 -167 183 -238c50 -55 89 -69 130 -73z" />
    <glyph glyph-name="Kcommaaccent" unicode="&#x136;" horiz-adv-x="651" 
d="M287 -1c-32 1 -86 2 -123 2s-84 -1 -121 -2v18c64 2 78 34 78 90v473c0 55 -14 69 -78 71v18c37 -2 84 -2 121 -2s86 0 123 2v-18c-64 -2 -77 -16 -77 -71v-473c0 -56 13 -88 77 -90v-18zM648 33c-25 -27 -66 -39 -87 -39c-48 0 -82 21 -140 94c-62 78 -116 155 -151 205
c-15 21 -28 35 -40 45v13c23 3 48 18 62 31c34 33 66 73 103 120c38 48 71 93 71 116c0 22 -15 30 -65 33v18c41 -2 75 -2 116 -2c42 0 61 0 103 2v-18c-43 -4 -62 -28 -120 -100c-55 -69 -132 -155 -167 -198c59 -87 118 -167 183 -238c50 -55 89 -69 130 -73zM390 -109
c0 -58 -43 -109 -112 -142l-10 17c41 27 60 46 60 75c0 10 -6 19 -17 27c-15 11 -22 24 -22 42c0 23 19 43 47 43c34 0 54 -22 54 -62z" />
    <glyph glyph-name="Kgreenlandic" horiz-adv-x="651" 
d="M287 -1c-32 1 -86 2 -123 2s-84 -1 -121 -2v18c64 2 78 34 78 90v473c0 55 -14 69 -78 71v18c37 -2 84 -2 121 -2s86 0 123 2v-18c-64 -2 -77 -16 -77 -71v-473c0 -56 13 -88 77 -90v-18zM648 33c-25 -27 -66 -39 -87 -39c-48 0 -82 21 -140 94c-62 78 -116 155 -151 205
c-15 21 -28 35 -40 45v13c23 3 48 18 62 31c34 33 66 73 103 120c38 48 71 93 71 116c0 22 -15 30 -65 33v18c41 -2 75 -2 116 -2c42 0 61 0 103 2v-18c-43 -4 -62 -28 -120 -100c-55 -69 -132 -155 -167 -198c59 -87 118 -167 183 -238c50 -55 89 -69 130 -73z" />
    <glyph glyph-name="L" unicode="L" horiz-adv-x="535" 
d="M507 0c-105 1 -274 1 -327 1c-37 0 -82 0 -137 -2v18c64 2 78 33 78 90v471c0 55 -12 71 -78 73v18c37 -2 84 -2 121 -2c36 0 89 0 126 2v-18c-67 -2 -80 -19 -80 -74v-526c61 -6 120 -6 161 -6c80 0 105 30 116 121h23c-2 -53 -3 -113 -3 -166z" />
    <glyph glyph-name="Lacute" unicode="&#x139;" horiz-adv-x="535" 
d="M507 0c-105 1 -274 1 -327 1c-37 0 -82 0 -137 -2v18c64 2 78 33 78 90v471c0 55 -12 71 -78 73v18c37 -2 84 -2 121 -2c36 0 89 0 126 2v-18c-67 -2 -80 -19 -80 -74v-526c61 -6 120 -6 161 -6c80 0 105 30 116 121h23c-2 -53 -3 -113 -3 -166zM145 702l-9 14
c54 47 116 107 160 162l62 -59c-50 -38 -158 -96 -213 -117z" />
    <glyph glyph-name="Lcaron" unicode="&#x13d;" horiz-adv-x="535" 
d="M507 0c-105 1 -274 1 -327 1c-37 0 -82 0 -137 -2v18c64 2 78 33 78 90v471c0 55 -12 71 -78 73v18c37 -2 84 -2 121 -2c36 0 89 0 126 2v-18c-67 -2 -80 -19 -80 -74v-526c61 -6 120 -6 161 -6c80 0 105 30 116 121h23c-2 -53 -3 -113 -3 -166zM443 668
c0 -59 -44 -110 -113 -144l-11 17c41 27 60 47 60 76c0 11 -5 20 -16 28c-15 11 -23 24 -23 42c0 23 20 44 48 44c34 0 55 -22 55 -63z" />
    <glyph glyph-name="Lcommaaccent" unicode="&#x13b;" horiz-adv-x="535" 
d="M507 0c-105 1 -274 1 -327 1c-37 0 -82 0 -137 -2v18c64 2 78 33 78 90v471c0 55 -12 71 -78 73v18c37 -2 84 -2 121 -2c36 0 89 0 126 2v-18c-67 -2 -80 -19 -80 -74v-526c61 -6 120 -6 161 -6c80 0 105 30 116 121h23c-2 -53 -3 -113 -3 -166zM323 -109
c0 -58 -43 -109 -112 -142l-10 17c41 27 60 46 60 75c0 10 -6 19 -17 27c-15 11 -22 24 -22 42c0 23 19 43 47 43c34 0 54 -22 54 -62z" />
    <glyph glyph-name="Ldot" unicode="&#x13f;" horiz-adv-x="535" 
d="M507 0c-105 1 -274 1 -327 1c-37 0 -82 0 -137 -2v18c64 2 78 33 78 90v471c0 55 -12 71 -78 73v18c37 -2 84 -2 121 -2c36 0 89 0 126 2v-18c-67 -2 -80 -19 -80 -74v-526c61 -6 120 -6 161 -6c80 0 106 30 117 121h22c-2 -53 -3 -113 -3 -166zM482 297
c0 -34 -26 -59 -60 -59c-35 0 -61 26 -61 60s27 61 61 61s60 -26 60 -62z" />
    <glyph glyph-name="Lslash" unicode="&#x141;" horiz-adv-x="535" 
d="M405 410l-195 -119v-240c61 -6 120 -6 161 -6c80 0 105 30 116 121h23c-2 -53 -3 -113 -3 -166c-105 1 -274 1 -327 1c-37 0 -82 0 -137 -2v18c64 2 78 33 78 90v132l-83 -50v50l83 51v288c0 55 -12 71 -78 73v18c37 -2 84 -2 121 -2c36 0 89 0 126 2v-18
c-67 -2 -80 -19 -80 -74v-235l195 120v-52z" />
    <glyph glyph-name="M" unicode="M" horiz-adv-x="854" 
d="M241 -1c-31 1 -80 2 -117 2s-63 -1 -100 -2v18c66 3 77 37 82 90c36 407 40 467 40 484c-15 34 -37 43 -74 46l-3 9c26 17 63 30 98 30c51 0 69 -31 85 -62c42 -83 121 -295 176 -458c18 52 36 108 183 512c17 -1 57 -2 84 -2c17 0 52 1 89 3v-18c-58 -2 -68 -22 -68 -75
c0 -13 2 -57 29 -469c4 -55 11 -88 77 -90v-18c-32 1 -91 2 -128 2c-36 0 -81 -1 -119 -2v18c67 2 78 34 78 90c0 44 -21 398 -26 455c-141 -385 -166 -450 -198 -549h-48c-42 136 -122 349 -191 518c-20 -276 -28 -397 -28 -424c0 -55 12 -88 79 -90v-18z" />
    <glyph glyph-name="N" unicode="N" horiz-adv-x="701" 
d="M258 -1c-32 1 -65 2 -102 2c-36 0 -72 -2 -110 -2v18c67 2 79 35 79 90v489c-18 25 -47 38 -79 39l-3 8c24 19 61 35 99 35c46 0 72 -29 96 -59c76 -94 169 -230 316 -458c-2 29 -5 167 -6 400c0 55 -12 88 -77 90v18c36 -2 72 -2 109 -2s68 1 99 2v-18
c-67 -2 -77 -35 -77 -90v-564h-51c-106 170 -283 437 -376 558c2 -71 3 -235 3 -448c0 -55 13 -88 80 -90v-18z" />
    <glyph glyph-name="Nacute" unicode="&#x143;" horiz-adv-x="701" 
d="M258 -1c-32 1 -65 2 -102 2c-36 0 -72 -2 -110 -2v18c67 2 79 35 79 90v489c-18 25 -47 38 -79 39l-3 8c24 19 61 35 99 35c46 0 72 -29 96 -59c76 -94 169 -230 316 -458c-2 29 -5 167 -6 400c0 55 -12 88 -77 90v18c36 -2 72 -2 109 -2s68 1 99 2v-18
c-67 -2 -77 -35 -77 -90v-564h-51c-106 170 -283 437 -376 558c2 -71 3 -235 3 -448c0 -55 13 -88 80 -90v-18zM305 702l-9 14c54 47 116 107 160 162l62 -59c-50 -38 -158 -96 -213 -117z" />
    <glyph glyph-name="Ncaron" unicode="&#x147;" horiz-adv-x="701" 
d="M258 -1c-32 1 -65 2 -102 2c-36 0 -72 -2 -110 -2v18c67 2 79 35 79 90v489c-18 25 -47 38 -79 39l-3 8c24 19 61 35 99 35c46 0 72 -29 96 -59c76 -94 169 -230 316 -458c-2 29 -5 167 -6 400c0 55 -12 88 -77 90v18c36 -2 72 -2 109 -2s68 1 99 2v-18
c-67 -2 -77 -35 -77 -90v-564h-51c-106 170 -283 437 -376 558c2 -71 3 -235 3 -448c0 -55 13 -88 80 -90v-18zM205 856l10 12c44 -20 99 -47 135 -67c41 22 96 49 134 67l10 -13c-31 -28 -83 -84 -139 -141h-10c-51 52 -90 95 -140 142z" />
    <glyph glyph-name="Ncommaaccent" unicode="&#x145;" horiz-adv-x="701" 
d="M258 -1c-32 1 -65 2 -102 2c-36 0 -72 -2 -110 -2v18c67 2 79 35 79 90v489c-18 25 -47 38 -79 39l-3 8c24 19 61 35 99 35c46 0 72 -29 96 -59c76 -94 169 -230 316 -458c-2 29 -5 167 -6 400c0 55 -12 88 -77 90v18c36 -2 72 -2 109 -2s68 1 99 2v-18
c-67 -2 -77 -35 -77 -90v-564h-51c-106 170 -283 437 -376 558c2 -71 3 -235 3 -448c0 -55 13 -88 80 -90v-18zM415 -109c0 -58 -43 -109 -112 -142l-10 17c41 27 60 46 60 75c0 10 -6 19 -17 27c-15 11 -22 24 -22 42c0 23 19 43 47 43c34 0 54 -22 54 -62z" />
    <glyph glyph-name="Ntilde" unicode="&#xd1;" horiz-adv-x="701" 
d="M258 -1c-32 1 -65 2 -102 2c-36 0 -72 -2 -110 -2v18c67 2 79 35 79 90v489c-18 25 -47 38 -79 39l-3 8c24 19 61 35 99 35c46 0 72 -29 96 -59c76 -94 169 -230 316 -458c-2 29 -5 167 -6 400c0 55 -12 88 -77 90v18c36 -2 72 -2 109 -2s68 1 99 2v-18
c-67 -2 -77 -35 -77 -90v-564h-51c-106 170 -283 437 -376 558c2 -71 3 -235 3 -448c0 -55 13 -88 80 -90v-18zM526 821c-13 -43 -33 -98 -90 -98c-24 0 -50 9 -72 19c-23 10 -46 21 -62 21c-27 0 -48 -22 -62 -52l-18 7c11 47 42 105 94 105c27 0 45 -10 70 -20
c20 -8 43 -21 64 -21c32 0 44 16 60 45z" />
    <glyph glyph-name="O" unicode="O" horiz-adv-x="666" 
d="M615 332c0 -205 -94 -345 -280 -345c-202 0 -284 148 -284 349c0 210 104 345 279 345c216 0 285 -163 285 -349zM516 326c0 203 -59 315 -186 315c-119 0 -181 -105 -181 -297c0 -195 54 -317 186 -317c104 0 181 84 181 299z" />
    <glyph glyph-name="OE" unicode="&#x152;" horiz-adv-x="903" 
d="M859 0c-106 1 -277 1 -330 1c-66 0 -129 -8 -198 -8c-197 0 -280 143 -280 344c0 220 118 338 293 338c66 0 127 -10 209 -10c56 0 125 1 278 3c2 -47 7 -100 11 -148h-20c-21 97 -51 104 -178 104h-85v-255h46c112 0 133 17 136 72h21c-2 -31 -2 -65 -2 -95
c0 -31 0 -61 2 -91h-21c-3 52 -21 73 -135 73h-47v-277c61 -7 121 -8 160 -8c82 0 110 30 121 121h22c-2 -53 -3 -111 -3 -164zM469 134v401c0 32 -2 63 -23 79c-19 15 -44 21 -95 21c-129 0 -202 -93 -202 -288c0 -204 56 -314 194 -314c54 0 84 7 104 24
c19 16 22 44 22 77z" />
    <glyph glyph-name="Oacute" unicode="&#xd3;" horiz-adv-x="666" 
d="M615 332c0 -205 -94 -345 -280 -345c-202 0 -284 148 -284 349c0 210 104 345 279 345c216 0 285 -163 285 -349zM516 326c0 203 -59 315 -186 315c-119 0 -181 -105 -181 -297c0 -195 54 -317 186 -317c104 0 181 84 181 299zM260 705l-9 14c54 47 116 107 160 162
l62 -59c-50 -38 -158 -96 -213 -117z" />
    <glyph glyph-name="Obreve" unicode="&#x14e;" horiz-adv-x="666" 
d="M615 332c0 -205 -94 -345 -280 -345c-202 0 -284 148 -284 349c0 210 104 345 279 345c216 0 285 -163 285 -349zM516 326c0 203 -59 315 -186 315c-119 0 -181 -105 -181 -297c0 -195 54 -317 186 -317c104 0 181 84 181 299zM475 860c-9 -62 -31 -138 -145 -138
c-115 0 -138 78 -139 140l18 3c15 -47 38 -78 120 -78c81 0 106 29 128 77z" />
    <glyph glyph-name="Ocircumflex" unicode="&#xd4;" horiz-adv-x="666" 
d="M615 332c0 -205 -94 -345 -280 -345c-202 0 -284 148 -284 349c0 210 104 345 279 345c216 0 285 -163 285 -349zM516 326c0 203 -59 315 -186 315c-119 0 -181 -105 -181 -297c0 -195 54 -317 186 -317c104 0 181 84 181 299zM477 723l-11 -13c-44 20 -99 49 -135 68
c-41 -21 -96 -50 -134 -67l-10 12c31 29 86 84 139 141h10c49 -52 91 -94 141 -141z" />
    <glyph glyph-name="Odieresis" unicode="&#xd6;" horiz-adv-x="666" 
d="M615 332c0 -205 -94 -345 -280 -345c-202 0 -284 148 -284 349c0 210 104 345 279 345c216 0 285 -163 285 -349zM516 326c0 203 -59 315 -186 315c-119 0 -181 -105 -181 -297c0 -195 54 -317 186 -317c104 0 181 84 181 299zM290 772c0 -27 -21 -48 -48 -48
s-46 21 -46 48s19 48 46 48s48 -21 48 -48zM474 772c0 -27 -20 -48 -47 -48s-47 21 -47 48s20 48 47 48s47 -21 47 -48z" />
    <glyph glyph-name="Ograve" unicode="&#xd2;" horiz-adv-x="666" 
d="M615 332c0 -205 -94 -345 -280 -345c-202 0 -284 148 -284 349c0 210 104 345 279 345c216 0 285 -163 285 -349zM516 326c0 203 -59 315 -186 315c-119 0 -181 -105 -181 -297c0 -195 54 -317 186 -317c104 0 181 84 181 299zM413 728l-14 -16c-53 24 -156 90 -203 131
l64 53c43 -57 102 -118 153 -168z" />
    <glyph glyph-name="Ohungarumlaut" unicode="&#x150;" horiz-adv-x="666" 
d="M615 332c0 -205 -94 -345 -280 -345c-202 0 -284 148 -284 349c0 210 104 345 279 345c216 0 285 -163 285 -349zM516 326c0 203 -59 315 -186 315c-119 0 -181 -105 -181 -297c0 -195 54 -317 186 -317c104 0 181 84 181 299zM219 711l-8 13c53 47 106 106 151 162
l55 -51c-49 -39 -143 -101 -198 -124zM368 711l-9 13c53 47 106 106 152 162l54 -51c-49 -39 -142 -101 -197 -124z" />
    <glyph glyph-name="Omacron" unicode="&#x14c;" horiz-adv-x="666" 
d="M615 332c0 -205 -94 -345 -280 -345c-202 0 -284 148 -284 349c0 210 104 345 279 345c216 0 285 -163 285 -349zM516 326c0 203 -59 315 -186 315c-119 0 -181 -105 -181 -297c0 -195 54 -317 186 -317c104 0 181 84 181 299zM469 734h-278v60h278v-60z" />
    <glyph glyph-name="Omega" unicode="&#x2126;" horiz-adv-x="745" 
d="M297 70v10c-104 34 -200 133 -200 295c0 190 118 306 285 306c163 0 269 -103 269 -297c0 -169 -103 -260 -194 -303v-11c72 0 126 1 151 18c23 15 30 37 42 89l24 -2c-5 -58 -8 -117 -9 -176c-45 1 -88 1 -133 1c-37 0 -74 0 -111 -1v97c83 55 133 136 133 278
c0 192 -71 267 -175 267c-102 0 -189 -67 -189 -267c0 -146 61 -238 144 -279v-96c-39 1 -76 1 -114 1c-47 0 -92 0 -138 -1c-2 61 -6 115 -10 175l24 2c12 -55 18 -75 42 -91c20 -14 82 -15 159 -15z" />
    <glyph glyph-name="Oslash" unicode="&#xd8;" horiz-adv-x="666" 
d="M615 332c0 -205 -94 -345 -280 -345c-68 0 -123 16 -165 46l-51 -82l-39 23l56 90c-59 62 -85 158 -85 272c0 210 104 345 279 345c67 0 120 -16 161 -44l51 82l41 -24l-55 -88c63 -65 87 -166 87 -275zM516 326c0 87 -11 157 -33 209l-277 -445c30 -41 72 -63 129 -63
c104 0 181 84 181 299zM149 344c0 -84 10 -155 32 -208l275 445c-30 39 -72 60 -126 60c-119 0 -181 -105 -181 -297z" />
    <glyph glyph-name="Oslashacute" unicode="&#x1fe;" horiz-adv-x="666" 
d="M615 332c0 -205 -94 -345 -280 -345c-68 0 -123 16 -165 46l-51 -82l-39 23l56 90c-59 62 -85 158 -85 272c0 210 104 345 279 345c67 0 120 -16 161 -44l51 82l41 -24l-55 -88c63 -65 87 -166 87 -275zM516 326c0 87 -11 157 -33 209l-277 -445c30 -41 72 -63 129 -63
c104 0 181 84 181 299zM149 344c0 -84 10 -155 32 -208l275 445c-30 39 -72 60 -126 60c-119 0 -181 -105 -181 -297zM281 702l-9 14c54 47 116 107 160 162l62 -59c-50 -38 -158 -96 -213 -117z" />
    <glyph glyph-name="Otilde" unicode="&#xd5;" horiz-adv-x="666" 
d="M615 332c0 -205 -94 -345 -280 -345c-202 0 -284 148 -284 349c0 210 104 345 279 345c216 0 285 -163 285 -349zM516 326c0 203 -59 315 -186 315c-119 0 -181 -105 -181 -297c0 -195 54 -317 186 -317c104 0 181 84 181 299zM489 821c-13 -43 -33 -98 -90 -98
c-24 0 -50 9 -72 19c-23 10 -46 21 -62 21c-27 0 -48 -22 -62 -52l-18 7c11 47 42 105 94 105c27 0 45 -10 70 -20c20 -8 43 -21 64 -21c32 0 44 16 60 45z" />
    <glyph glyph-name="P" unicode="P" horiz-adv-x="595" 
d="M210 332c19 -2 39 -2 56 -2c148 0 189 75 189 159c0 60 -24 99 -71 120c-25 11 -66 18 -103 18h-71v-295zM210 289v-172c0 -64 10 -99 89 -100v-18c-31 1 -90 2 -127 2s-92 -1 -129 -2v18c65 1 78 36 78 92v464c0 56 -12 76 -78 78v17c34 -2 91 -2 128 -2s104 2 141 2
c165 0 239 -60 239 -171c0 -104 -62 -210 -280 -210c-19 0 -38 0 -61 2z" />
    <glyph glyph-name="Q" unicode="Q" horiz-adv-x="666" 
d="M615 332c0 -157 -55 -276 -165 -323c80 -62 125 -82 171 -82c14 0 35 3 47 8l6 -5c-13 -36 -45 -69 -90 -69c-57 0 -108 24 -227 127c-7 0 -15 -1 -22 -1c-202 0 -284 148 -284 349c0 210 104 345 279 345c216 0 285 -163 285 -349zM516 326c0 203 -59 315 -186 315
c-119 0 -181 -105 -181 -297c0 -195 54 -317 186 -317c104 0 181 84 181 299z" />
    <glyph glyph-name="R" unicode="R" horiz-adv-x="648" 
d="M300 -1c-31 1 -100 2 -137 2s-83 -1 -120 -2v18c66 1 78 37 78 93v464c0 54 -12 75 -78 77v17c35 -2 78 -2 115 -2s110 2 147 2c166 0 234 -59 234 -166c0 -75 -41 -149 -166 -179c28 -3 52 -32 71 -63c24 -42 48 -83 75 -126c24 -40 45 -63 62 -75c15 -11 38 -17 63 -17
l3 -5c-21 -26 -53 -44 -87 -44c-45 0 -80 17 -122 94c-39 71 -83 166 -109 192c-19 18 -40 24 -70 24c-16 0 -31 1 -49 2v-191c0 -63 11 -96 90 -97v-18zM210 346c17 -1 31 -2 51 -2c147 0 183 72 183 149c0 97 -59 134 -167 134h-67v-281z" />
    <glyph glyph-name="Racute" unicode="&#x154;" horiz-adv-x="648" 
d="M300 -1c-31 1 -100 2 -137 2s-83 -1 -120 -2v18c66 1 78 37 78 93v464c0 54 -12 75 -78 77v17c35 -2 78 -2 115 -2s110 2 147 2c166 0 234 -59 234 -166c0 -75 -41 -149 -166 -179c28 -3 52 -32 71 -63c24 -42 48 -83 75 -126c24 -40 45 -63 62 -75c15 -11 38 -17 63 -17
l3 -5c-21 -26 -53 -44 -87 -44c-45 0 -80 17 -122 94c-39 71 -83 166 -109 192c-19 18 -40 24 -70 24c-16 0 -31 1 -49 2v-191c0 -63 11 -96 90 -97v-18zM210 346c17 -1 31 -2 51 -2c147 0 183 72 183 149c0 97 -59 134 -167 134h-67v-281zM243 702l-9 14
c54 47 116 107 160 162l62 -59c-50 -38 -158 -96 -213 -117z" />
    <glyph glyph-name="Rcaron" unicode="&#x158;" horiz-adv-x="648" 
d="M300 -1c-31 1 -100 2 -137 2s-83 -1 -120 -2v18c66 1 78 37 78 93v464c0 54 -12 75 -78 77v17c35 -2 78 -2 115 -2s110 2 147 2c166 0 234 -59 234 -166c0 -75 -41 -149 -166 -179c28 -3 52 -32 71 -63c24 -42 48 -83 75 -126c24 -40 45 -63 62 -75c15 -11 38 -17 63 -17
l3 -5c-21 -26 -53 -44 -87 -44c-45 0 -80 17 -122 94c-39 71 -83 166 -109 192c-19 18 -40 24 -70 24c-16 0 -31 1 -49 2v-191c0 -63 11 -96 90 -97v-18zM210 346c17 -1 31 -2 51 -2c147 0 183 72 183 149c0 97 -59 134 -167 134h-67v-281zM134 856l10 12
c44 -20 99 -47 135 -67c41 22 96 49 134 67l10 -13c-31 -28 -83 -84 -139 -141h-10c-51 52 -90 95 -140 142z" />
    <glyph glyph-name="Rcommaaccent" unicode="&#x156;" horiz-adv-x="648" 
d="M300 -1c-31 1 -100 2 -137 2s-83 -1 -120 -2v18c66 1 78 37 78 93v464c0 54 -12 75 -78 77v17c35 -2 78 -2 115 -2s110 2 147 2c166 0 234 -59 234 -166c0 -75 -41 -149 -166 -179c28 -3 52 -32 71 -63c24 -42 48 -83 75 -126c24 -40 45 -63 62 -75c15 -11 38 -17 63 -17
l3 -5c-21 -26 -53 -44 -87 -44c-45 0 -80 17 -122 94c-39 71 -83 166 -109 192c-19 18 -40 24 -70 24c-16 0 -31 1 -49 2v-191c0 -63 11 -96 90 -97v-18zM210 346c17 -1 31 -2 51 -2c147 0 183 72 183 149c0 97 -59 134 -167 134h-67v-281zM384 -109
c0 -58 -43 -109 -112 -142l-10 17c41 27 60 46 60 75c0 10 -6 19 -17 27c-15 11 -22 24 -22 42c0 23 19 43 47 43c34 0 54 -22 54 -62z" />
    <glyph glyph-name="S" unicode="S" horiz-adv-x="523" 
d="M97 181l6 -5c0 -109 80 -147 155 -147c79 0 149 38 149 125c0 59 -48 98 -127 132l-83 36c-95 40 -137 101 -137 182c0 115 102 177 224 177c139 0 187 -61 187 -107c0 -21 -13 -44 -62 -57l-8 4c0 94 -61 120 -123 120c-74 0 -139 -42 -139 -111c0 -58 34 -95 115 -130
l77 -34c120 -53 159 -107 159 -185c0 -121 -108 -194 -241 -194c-143 0 -220 65 -220 132c0 27 12 53 68 62z" />
    <glyph glyph-name="S_S" horiz-adv-x="1046" 
d="M97 181l6 -5c0 -109 80 -147 155 -147c79 0 149 38 149 125c0 59 -48 98 -127 132l-83 36c-95 40 -137 101 -137 182c0 115 102 177 224 177c139 0 187 -61 187 -107c0 -21 -13 -44 -62 -57l-8 4c0 94 -61 120 -123 120c-74 0 -139 -42 -139 -111c0 -58 34 -95 115 -130
l77 -34c120 -53 159 -107 159 -185c0 -121 -108 -194 -241 -194c-143 0 -220 65 -220 132c0 27 12 53 68 62zM620 181l6 -5c0 -109 80 -147 155 -147c79 0 149 38 149 125c0 59 -48 98 -127 132l-83 36c-95 40 -137 101 -137 182c0 115 102 177 224 177
c139 0 187 -61 187 -107c0 -21 -13 -44 -62 -57l-8 4c0 94 -61 120 -123 120c-74 0 -139 -42 -139 -111c0 -58 34 -95 115 -130l77 -34c120 -53 159 -107 159 -185c0 -121 -108 -194 -241 -194c-143 0 -220 65 -220 132c0 27 12 53 68 62z" />
    <glyph glyph-name="Sacute" unicode="&#x15a;" horiz-adv-x="523" 
d="M97 181l6 -5c0 -109 80 -147 155 -147c79 0 149 38 149 125c0 59 -48 98 -127 132l-83 36c-95 40 -137 101 -137 182c0 115 102 177 224 177c139 0 187 -61 187 -107c0 -21 -13 -44 -62 -57l-8 4c0 94 -61 120 -123 120c-74 0 -139 -42 -139 -111c0 -58 34 -95 115 -130
l77 -34c120 -53 159 -107 159 -185c0 -121 -108 -194 -241 -194c-143 0 -220 65 -220 132c0 27 12 53 68 62zM216 702l-9 14c54 47 116 107 160 162l62 -59c-50 -38 -158 -96 -213 -117z" />
    <glyph glyph-name="Scaron" unicode="&#x160;" horiz-adv-x="523" 
d="M97 181l6 -5c0 -109 80 -147 155 -147c79 0 149 38 149 125c0 59 -48 98 -127 132l-83 36c-95 40 -137 101 -137 182c0 115 102 177 224 177c139 0 187 -61 187 -107c0 -21 -13 -44 -62 -57l-8 4c0 94 -61 120 -123 120c-74 0 -139 -42 -139 -111c0 -58 34 -95 115 -130
l77 -34c120 -53 159 -107 159 -185c0 -121 -108 -194 -241 -194c-143 0 -220 65 -220 132c0 27 12 53 68 62zM130 856l10 12c44 -20 99 -47 135 -67c41 22 96 49 134 67l10 -13c-31 -28 -83 -84 -139 -141h-10c-51 52 -90 95 -140 142z" />
    <glyph glyph-name="Scedilla" unicode="&#x15e;" horiz-adv-x="523" 
d="M200 -230l-2 19c58 10 83 34 83 60c0 19 -6 35 -34 54c-17 11 -26 25 -26 38s6 27 16 46c-135 4 -208 67 -208 132c0 27 12 53 68 62l6 -5c0 -109 80 -147 155 -147c79 0 149 38 149 125c0 59 -48 98 -127 132l-83 36c-95 40 -137 101 -137 182c0 115 102 177 224 177
c139 0 187 -61 187 -107c0 -21 -13 -44 -62 -57l-8 4c0 94 -61 120 -123 120c-74 0 -139 -42 -139 -111c0 -58 34 -95 115 -130l77 -34c120 -53 159 -107 159 -185c0 -117 -100 -189 -226 -194c-2 -7 -3 -13 -3 -17c0 -10 5 -17 18 -25c10 -6 24 -13 42 -26
c20 -15 27 -34 27 -55c0 -58 -71 -94 -148 -94z" />
    <glyph glyph-name="Scircumflex" unicode="&#x15c;" horiz-adv-x="523" 
d="M97 181l6 -5c0 -109 80 -147 155 -147c79 0 149 38 149 125c0 59 -48 98 -127 132l-83 36c-95 40 -137 101 -137 182c0 115 102 177 224 177c139 0 187 -61 187 -107c0 -21 -13 -44 -62 -57l-8 4c0 94 -61 120 -123 120c-74 0 -139 -42 -139 -111c0 -58 34 -95 115 -130
l77 -34c120 -53 159 -107 159 -185c0 -121 -108 -194 -241 -194c-143 0 -220 65 -220 132c0 27 12 53 68 62zM418 723l-11 -13c-44 20 -99 49 -135 68c-41 -21 -96 -50 -134 -67l-10 12c31 29 86 84 139 141h10c49 -52 91 -94 141 -141z" />
    <glyph glyph-name="T" unicode="T" horiz-adv-x="589" 
d="M419 -1c-32 1 -89 2 -127 2c-37 0 -95 -1 -120 -2v18c67 1 78 35 78 91v517h-47c-117 0 -136 -14 -158 -111h-22c4 45 8 106 11 154c153 -2 204 -2 261 -2c56 0 107 0 260 2c3 -49 7 -110 11 -154h-22c-23 97 -46 111 -163 111h-42v-517c0 -56 13 -90 80 -91v-18z" />
    <glyph glyph-name="Tbar" unicode="&#x166;" horiz-adv-x="589" 
d="M494 355h-155v-247c0 -56 13 -90 80 -91v-18c-32 1 -89 2 -127 2c-37 0 -95 -1 -120 -2v18c67 1 78 35 78 91v247h-156v44h156v226h-47c-117 0 -136 -14 -158 -111h-22c4 45 8 106 11 154c153 -2 204 -2 261 -2c56 0 107 0 260 2c3 -50 7 -109 11 -154h-22
c-23 97 -46 111 -163 111h-42v-226h155v-44z" />
    <glyph glyph-name="Tcaron" unicode="&#x164;" horiz-adv-x="589" 
d="M419 -1c-32 1 -89 2 -127 2c-37 0 -95 -1 -120 -2v18c67 1 78 35 78 91v517h-47c-117 0 -136 -14 -158 -111h-22c4 45 8 106 11 154c153 -2 204 -2 261 -2c56 0 107 0 260 2c3 -49 7 -110 11 -154h-22c-23 97 -46 111 -163 111h-42v-517c0 -56 13 -90 80 -91v-18z
M151 856l10 12c44 -20 99 -47 135 -67c41 22 96 49 134 67l10 -13c-31 -28 -83 -84 -139 -141h-10c-51 52 -90 95 -140 142z" />
    <glyph glyph-name="Thorn" unicode="&#xde;" horiz-adv-x="595" 
d="M297 -1c-32 1 -96 2 -133 2s-84 -1 -121 -2v18c66 2 78 37 78 91v469c0 55 -12 72 -78 74v18c37 -2 84 -2 121 -2s86 0 123 2v-18c-67 -2 -77 -19 -77 -74v-43c38 1 70 2 97 2c170 0 244 -63 244 -174c0 -104 -57 -207 -276 -207c-19 0 -42 0 -65 2v-47
c0 -63 18 -91 87 -93v-18zM210 199c19 -2 43 -2 60 -2c148 0 185 73 185 157c0 60 -24 100 -71 122c-20 10 -53 20 -123 20c-15 0 -32 -1 -51 -2v-295z" />
    <glyph glyph-name="U" unicode="U" horiz-adv-x="690" 
d="M675 651c-67 -2 -76 -34 -76 -95v-325c0 -45 -5 -94 -19 -125c-35 -82 -114 -117 -218 -117c-130 0 -199 39 -231 112c-14 33 -20 83 -20 129v347c0 55 -10 72 -77 74v18c37 -2 86 -2 124 -2c37 0 83 0 120 2v-18c-67 -2 -77 -19 -77 -74v-343c0 -41 4 -84 15 -111
c23 -60 76 -84 154 -84c76 0 133 27 158 85c11 26 15 69 15 107v327c0 58 -10 91 -77 93v17c37 -1 76 -2 113 -2s66 1 96 2v-17z" />
    <glyph glyph-name="Uacute" unicode="&#xda;" horiz-adv-x="690" 
d="M675 651c-67 -2 -76 -34 -76 -95v-325c0 -45 -5 -94 -19 -125c-35 -82 -114 -117 -218 -117c-130 0 -199 39 -231 112c-14 33 -20 83 -20 129v347c0 55 -10 72 -77 74v18c37 -2 86 -2 124 -2c37 0 83 0 120 2v-18c-67 -2 -77 -19 -77 -74v-343c0 -41 4 -84 15 -111
c23 -60 76 -84 154 -84c76 0 133 27 158 85c11 26 15 69 15 107v327c0 58 -10 91 -77 93v17c37 -1 76 -2 113 -2s66 1 96 2v-17zM302 705l-9 14c54 47 116 107 160 162l62 -59c-50 -38 -158 -96 -213 -117z" />
    <glyph glyph-name="Ubreve" unicode="&#x16c;" horiz-adv-x="690" 
d="M675 651c-67 -2 -76 -34 -76 -95v-325c0 -45 -5 -94 -19 -125c-35 -82 -114 -117 -218 -117c-130 0 -199 39 -231 112c-14 33 -20 83 -20 129v347c0 55 -10 72 -77 74v18c37 -2 86 -2 124 -2c37 0 83 0 120 2v-18c-67 -2 -77 -19 -77 -74v-343c0 -41 4 -84 15 -111
c23 -60 76 -84 154 -84c76 0 133 27 158 85c11 26 15 69 15 107v327c0 58 -10 91 -77 93v17c37 -1 76 -2 113 -2s66 1 96 2v-17zM500 860c-9 -62 -31 -138 -145 -138c-115 0 -138 78 -139 140l18 3c15 -47 38 -78 120 -78c81 0 106 29 128 77z" />
    <glyph glyph-name="Ucircumflex" unicode="&#xdb;" horiz-adv-x="690" 
d="M675 651c-67 -2 -76 -34 -76 -95v-325c0 -45 -5 -94 -19 -125c-35 -82 -114 -117 -218 -117c-130 0 -199 39 -231 112c-14 33 -20 83 -20 129v347c0 55 -10 72 -77 74v18c37 -2 86 -2 124 -2c37 0 83 0 120 2v-18c-67 -2 -77 -19 -77 -74v-343c0 -41 4 -84 15 -111
c23 -60 76 -84 154 -84c76 0 133 27 158 85c11 26 15 69 15 107v327c0 58 -10 91 -77 93v17c37 -1 76 -2 113 -2s66 1 96 2v-17zM509 723l-11 -13c-44 20 -99 49 -135 68c-41 -21 -96 -50 -134 -67l-10 12c31 29 86 84 139 141h10c49 -52 91 -94 141 -141z" />
    <glyph glyph-name="Udieresis" unicode="&#xdc;" horiz-adv-x="690" 
d="M675 651c-67 -2 -76 -34 -76 -95v-325c0 -45 -5 -94 -19 -125c-35 -82 -114 -117 -218 -117c-130 0 -199 39 -231 112c-14 33 -20 83 -20 129v347c0 55 -10 72 -77 74v18c37 -2 86 -2 124 -2c37 0 83 0 120 2v-18c-67 -2 -77 -19 -77 -74v-343c0 -41 4 -84 15 -111
c23 -60 76 -84 154 -84c76 0 133 27 158 85c11 26 15 69 15 107v327c0 58 -10 91 -77 93v17c37 -1 76 -2 113 -2s66 1 96 2v-17zM321 772c0 -27 -21 -48 -48 -48s-46 21 -46 48s19 48 46 48s48 -21 48 -48zM505 772c0 -27 -20 -48 -47 -48s-47 21 -47 48s20 48 47 48
s47 -21 47 -48z" />
    <glyph glyph-name="Ugrave" unicode="&#xd9;" horiz-adv-x="690" 
d="M675 651c-67 -2 -76 -34 -76 -95v-325c0 -45 -5 -94 -19 -125c-35 -82 -114 -117 -218 -117c-130 0 -199 39 -231 112c-14 33 -20 83 -20 129v347c0 55 -10 72 -77 74v18c37 -2 86 -2 124 -2c37 0 83 0 120 2v-18c-67 -2 -77 -19 -77 -74v-343c0 -41 4 -84 15 -111
c23 -60 76 -84 154 -84c76 0 133 27 158 85c11 26 15 69 15 107v327c0 58 -10 91 -77 93v17c37 -1 76 -2 113 -2s66 1 96 2v-17zM440 725l-9 -14c-55 21 -162 79 -212 117l61 59c44 -57 106 -115 160 -162z" />
    <glyph glyph-name="Uhungarumlaut" unicode="&#x170;" horiz-adv-x="690" 
d="M675 651c-67 -2 -76 -34 -76 -95v-325c0 -45 -5 -94 -19 -125c-35 -82 -114 -117 -218 -117c-130 0 -199 39 -231 112c-14 33 -20 83 -20 129v347c0 55 -10 72 -77 74v18c37 -2 86 -2 124 -2c37 0 83 0 120 2v-18c-67 -2 -77 -19 -77 -74v-343c0 -41 4 -84 15 -111
c23 -60 76 -84 154 -84c76 0 133 27 158 85c11 26 15 69 15 107v327c0 58 -10 91 -77 93v17c37 -1 76 -2 113 -2s66 1 96 2v-17zM225 711l-8 13c53 47 106 106 151 162l55 -51c-49 -39 -143 -101 -198 -124zM374 711l-9 13c53 47 106 106 152 162l54 -51
c-49 -39 -142 -101 -197 -124z" />
    <glyph glyph-name="Umacron" unicode="&#x16a;" horiz-adv-x="690" 
d="M675 651c-67 -2 -76 -34 -76 -95v-325c0 -45 -5 -94 -19 -125c-35 -82 -114 -117 -218 -117c-130 0 -199 39 -231 112c-14 33 -20 83 -20 129v347c0 55 -10 72 -77 74v18c37 -2 86 -2 124 -2c37 0 83 0 120 2v-18c-67 -2 -77 -19 -77 -74v-343c0 -41 4 -84 15 -111
c23 -60 76 -84 154 -84c76 0 133 27 158 85c11 26 15 69 15 107v327c0 58 -10 91 -77 93v17c37 -1 76 -2 113 -2s66 1 96 2v-17zM497 734h-278v60h278v-60z" />
    <glyph glyph-name="Uogonek" unicode="&#x172;" horiz-adv-x="690" 
d="M438 -231c-79 0 -154 25 -154 94c0 46 26 87 87 126c-139 0 -208 39 -240 112c-14 33 -20 83 -20 129v347c0 55 -10 72 -77 74v18c37 -2 86 -2 124 -2c37 0 83 0 120 2v-18c-67 -2 -77 -19 -77 -74v-343c0 -41 4 -84 15 -111c23 -60 76 -84 154 -84c76 0 133 27 158 85
c11 26 15 69 15 107v327c0 58 -10 91 -77 93v17c37 -1 76 -2 113 -2s66 1 96 2v-17c-67 -2 -76 -34 -76 -95v-325c0 -45 -5 -94 -19 -125c-27 -64 -81 -99 -153 -111c-50 -35 -76 -77 -76 -126c0 -34 16 -72 90 -77z" />
    <glyph glyph-name="Uring" unicode="&#x16e;" horiz-adv-x="690" 
d="M675 651c-67 -2 -76 -34 -76 -95v-325c0 -45 -5 -94 -19 -125c-35 -82 -114 -117 -218 -117c-130 0 -199 39 -231 112c-14 33 -20 83 -20 129v347c0 55 -10 72 -77 74v18c37 -2 86 -2 124 -2c37 0 83 0 120 2v-18c-67 -2 -77 -19 -77 -74v-343c0 -41 4 -84 15 -111
c23 -60 76 -84 154 -84c76 0 133 27 158 85c11 26 15 69 15 107v327c0 58 -10 91 -77 93v17c37 -1 76 -2 113 -2s66 1 96 2v-17zM461 788c0 -54 -39 -95 -97 -95c-55 0 -95 41 -95 95s40 97 95 97c58 0 97 -43 97 -97zM422 787c0 39 -22 65 -58 65c-33 0 -57 -26 -57 -65
c0 -34 24 -60 57 -60c36 0 58 25 58 60z" />
    <glyph glyph-name="Utilde" unicode="&#x168;" horiz-adv-x="690" 
d="M675 651c-67 -2 -76 -34 -76 -95v-325c0 -45 -5 -94 -19 -125c-35 -82 -114 -117 -218 -117c-130 0 -198 40 -230 113c-14 33 -21 82 -21 128v347c0 55 -10 72 -77 74v18c37 -2 86 -2 124 -2c37 0 83 0 120 2v-18c-67 -2 -77 -19 -77 -74v-343c0 -41 4 -84 15 -111
c23 -60 76 -84 154 -84c76 0 133 27 158 85c11 26 15 69 15 107v327c0 58 -10 91 -77 93v17c37 -1 76 -2 113 -2s66 1 96 2v-17zM514 856c-13 -43 -32 -98 -90 -98c-24 0 -50 9 -71 19c-23 10 -47 20 -63 20c-27 0 -44 -22 -59 -52l-20 8c11 47 41 105 93 105
c27 0 45 -10 70 -20c21 -8 42 -20 62 -20c32 0 44 16 59 45z" />
    <glyph glyph-name="V" unicode="V" horiz-adv-x="657" 
d="M350 -4h-58c-13 48 -31 99 -49 147l-150 417c-19 53 -31 89 -85 91v18c38 -1 83 -2 120 -2s95 1 127 2v-18c-50 -1 -76 -16 -76 -43c0 -14 6 -35 14 -56l149 -426l150 415c10 27 16 52 16 68c0 27 -24 41 -74 42v18c32 -1 79 -2 116 -2s56 1 94 2v-18
c-51 -2 -67 -38 -87 -91l-154 -416c-18 -49 -36 -97 -53 -148z" />
    <glyph glyph-name="W" unicode="W" horiz-adv-x="939" 
d="M305 -4h-59c-13 53 -27 105 -39 147l-118 417c-17 58 -36 89 -85 91v18c38 -1 84 -2 121 -2s94 1 126 2v-18c-65 -3 -73 -20 -73 -46c0 -14 4 -31 10 -54l108 -406l115 356c17 52 37 119 48 167h58c15 -55 31 -112 49 -170l113 -353l107 392c7 25 12 48 12 67
c0 27 -17 45 -74 47v18c32 -1 77 -2 114 -2s58 1 96 2v-18c-48 -2 -67 -36 -83 -91l-120 -416c-15 -52 -28 -101 -39 -148h-60c-11 47 -25 96 -42 146l-122 361l-120 -363c-15 -46 -31 -96 -43 -144z" />
    <glyph glyph-name="Wacute" unicode="&#x1e82;" horiz-adv-x="939" 
d="M305 -4h-59c-13 53 -27 105 -39 147l-118 417c-17 58 -36 89 -85 91v18c38 -1 84 -2 121 -2s94 1 126 2v-18c-65 -3 -73 -20 -73 -46c0 -14 4 -31 10 -54l108 -406l115 356c17 52 37 119 48 167h58c15 -55 31 -112 49 -170l113 -353l107 392c7 25 12 48 12 67
c0 27 -17 45 -74 47v18c32 -1 77 -2 114 -2s58 1 96 2v-18c-48 -2 -67 -36 -83 -91l-120 -416c-15 -52 -28 -101 -39 -148h-60c-11 47 -25 96 -42 146l-122 361l-120 -363c-15 -46 -31 -96 -43 -144zM417 702l-9 14c54 47 116 107 160 162l62 -59
c-50 -38 -158 -96 -213 -117z" />
    <glyph glyph-name="Wcircumflex" unicode="&#x174;" horiz-adv-x="939" 
d="M305 -4h-59c-13 53 -27 105 -39 147l-118 417c-17 58 -36 89 -85 91v18c38 -1 84 -2 121 -2s94 1 126 2v-18c-65 -3 -73 -20 -73 -46c0 -14 4 -31 10 -54l108 -406l115 356c17 52 37 119 48 167h58c15 -55 31 -112 49 -170l113 -353l107 392c7 25 12 48 12 67
c0 27 -17 45 -74 47v18c32 -1 77 -2 114 -2s58 1 96 2v-18c-48 -2 -67 -36 -83 -91l-120 -416c-15 -52 -28 -101 -39 -148h-60c-11 47 -25 96 -42 146l-122 361l-120 -363c-15 -46 -31 -96 -43 -144zM634 723l-11 -13c-44 20 -99 49 -135 68c-41 -21 -96 -50 -134 -67
l-10 12c31 29 86 84 139 141h10c49 -52 91 -94 141 -141z" />
    <glyph glyph-name="Wdieresis" unicode="&#x1e84;" horiz-adv-x="939" 
d="M305 -4h-59c-13 53 -27 105 -39 147l-118 417c-17 58 -36 89 -85 91v18c38 -1 84 -2 121 -2s94 1 126 2v-18c-65 -3 -73 -20 -73 -46c0 -14 4 -31 10 -54l108 -406l115 356c17 52 37 119 48 167h58c15 -55 31 -112 49 -170l113 -353l107 392c7 25 12 48 12 67
c0 27 -17 45 -74 47v18c32 -1 77 -2 114 -2s58 1 96 2v-18c-48 -2 -67 -36 -83 -91l-120 -416c-15 -52 -28 -101 -39 -148h-60c-11 47 -25 96 -42 146l-122 361l-120 -363c-15 -46 -31 -96 -43 -144zM441 772c0 -27 -21 -48 -48 -48s-46 21 -46 48s19 48 46 48
s48 -21 48 -48zM625 772c0 -27 -20 -48 -47 -48s-47 21 -47 48s20 48 47 48s47 -21 47 -48z" />
    <glyph glyph-name="Wgrave" unicode="&#x1e80;" horiz-adv-x="939" 
d="M305 -4h-59c-13 53 -27 105 -39 147l-118 417c-17 58 -36 89 -85 91v18c38 -1 84 -2 121 -2s94 1 126 2v-18c-65 -3 -73 -20 -73 -46c0 -14 4 -31 10 -54l108 -406l115 356c17 52 37 119 48 167h58c15 -55 31 -112 49 -170l113 -353l107 392c7 25 12 48 12 67
c0 27 -17 45 -74 47v18c32 -1 77 -2 114 -2s58 1 96 2v-18c-48 -2 -67 -36 -83 -91l-120 -416c-15 -52 -28 -101 -39 -148h-60c-11 47 -25 96 -42 146l-122 361l-120 -363c-15 -46 -31 -96 -43 -144zM554 725l-9 -14c-55 21 -162 79 -212 117l61 59
c44 -57 106 -115 160 -162z" />
    <glyph glyph-name="X" unicode="X" horiz-adv-x="666" 
d="M214 616c0 -17 17 -40 37 -70l101 -148l100 143c26 38 39 61 39 75c0 25 -20 35 -76 36v17c32 -1 82 -2 120 -2c37 0 58 1 96 2v-17c-34 -2 -57 -29 -101 -91l-148 -206l172 -249c35 -52 59 -87 108 -89v-17c-38 2 -95 2 -132 2c-38 0 -100 -1 -132 -2v17
c49 1 74 10 74 34c0 16 -15 36 -37 69l-120 175l-116 -169c-31 -46 -40 -64 -40 -77c0 -25 29 -31 75 -32v-17c-32 1 -84 2 -120 2c-37 0 -73 -1 -110 -2v17c48 4 74 32 115 89l167 232l-153 224c-44 65 -62 87 -101 90v17c38 -2 92 -2 128 -2c38 0 97 1 129 2v-17
c-53 -2 -75 -11 -75 -36z" />
    <glyph glyph-name="Y" unicode="Y" horiz-adv-x="633" 
d="M435 -1c-32 1 -85 2 -121 2c-37 0 -88 -1 -125 -2v18c67 1 79 34 79 90v174l-167 280c-30 50 -53 88 -98 91v17c38 -2 98 -2 135 -2s87 1 119 2v-17c-47 -1 -73 -10 -73 -36c0 -18 13 -45 29 -73l121 -205l118 199c23 39 33 62 33 77c0 27 -24 37 -70 38v17
c32 -1 83 -2 120 -2s56 1 95 2v-17c-38 -2 -62 -32 -99 -91l-174 -278v-176c0 -56 10 -89 78 -90v-18z" />
    <glyph glyph-name="Yacute" unicode="&#xdd;" horiz-adv-x="633" 
d="M435 -1c-32 1 -85 2 -121 2c-37 0 -88 -1 -125 -2v18c67 1 79 34 79 90v174l-167 280c-30 50 -53 88 -98 91v17c38 -2 98 -2 135 -2s87 1 119 2v-17c-47 -1 -73 -10 -73 -36c0 -18 13 -45 29 -73l121 -205l118 199c23 39 33 62 33 77c0 27 -24 37 -70 38v17
c32 -1 83 -2 120 -2s56 1 95 2v-17c-38 -2 -62 -32 -99 -91l-174 -278v-176c0 -56 10 -89 78 -90v-18zM275 705l-9 14c54 47 116 107 160 162l62 -59c-50 -38 -158 -96 -213 -117z" />
    <glyph glyph-name="Ycircumflex" unicode="&#x176;" horiz-adv-x="633" 
d="M435 -1c-32 1 -85 2 -121 2c-37 0 -88 -1 -125 -2v18c67 1 79 34 79 90v174l-167 280c-30 50 -53 88 -98 91v17c38 -2 98 -2 135 -2s87 1 119 2v-17c-47 -1 -73 -10 -73 -36c0 -18 13 -45 29 -73l121 -205l118 199c23 39 33 62 33 77c0 27 -24 37 -70 38v17
c32 -1 83 -2 120 -2s56 1 95 2v-17c-38 -2 -62 -32 -99 -91l-174 -278v-176c0 -56 10 -89 78 -90v-18zM479 723l-11 -13c-44 20 -99 49 -135 68c-41 -21 -96 -50 -134 -67l-10 12c31 29 86 84 139 141h10c49 -52 91 -94 141 -141z" />
    <glyph glyph-name="Ydieresis" unicode="&#x178;" horiz-adv-x="633" 
d="M435 -1c-32 1 -85 2 -121 2c-37 0 -88 -1 -125 -2v18c67 1 79 34 79 90v174l-167 280c-30 50 -53 88 -98 91v17c38 -2 98 -2 135 -2s87 1 119 2v-17c-47 -1 -73 -10 -73 -36c0 -18 13 -45 29 -73l121 -205l118 199c23 39 33 62 33 77c0 27 -24 37 -70 38v17
c32 -1 83 -2 120 -2s56 1 95 2v-17c-38 -2 -62 -32 -99 -91l-174 -278v-176c0 -56 10 -89 78 -90v-18zM288 772c0 -27 -21 -48 -48 -48s-46 21 -46 48s19 48 46 48s48 -21 48 -48zM472 772c0 -27 -20 -48 -47 -48s-47 21 -47 48s20 48 47 48s47 -21 47 -48z" />
    <glyph glyph-name="Ygrave" unicode="&#x1ef2;" horiz-adv-x="633" 
d="M435 -1c-32 1 -85 2 -121 2c-37 0 -88 -1 -125 -2v18c67 1 79 34 79 90v174l-167 280c-30 50 -53 88 -98 91v17c38 -2 98 -2 135 -2s87 1 119 2v-17c-47 -1 -73 -10 -73 -36c0 -18 13 -45 29 -73l121 -205l118 199c23 39 33 62 33 77c0 27 -24 37 -70 38v17
c32 -1 83 -2 120 -2s56 1 95 2v-17c-38 -2 -62 -32 -99 -91l-174 -278v-176c0 -56 10 -89 78 -90v-18zM390 725l-9 -14c-55 21 -162 79 -212 117l61 59c44 -57 106 -115 160 -162z" />
    <glyph glyph-name="Z" unicode="Z" horiz-adv-x="558" 
d="M523 -1c-82 1 -147 2 -211 2c-55 0 -223 -1 -292 -2v19l379 605h-145c-128 0 -155 -8 -177 -105h-21c4 47 8 103 11 151c81 -1 153 -2 217 -2c56 0 169 1 239 2v-20l-382 -603h192c127 0 157 12 180 109h21c-4 -47 -9 -107 -11 -156z" />
    <glyph glyph-name="Zacute" unicode="&#x179;" horiz-adv-x="558" 
d="M523 -1c-82 1 -147 2 -211 2c-55 0 -223 -1 -292 -2v19l379 605h-145c-128 0 -155 -8 -177 -105h-21c4 47 8 103 11 151c81 -1 153 -2 217 -2c56 0 169 1 239 2v-20l-382 -603h192c127 0 157 12 180 109h21c-4 -47 -9 -107 -11 -156zM236 702l-9 14
c54 47 116 107 160 162l62 -59c-50 -38 -158 -96 -213 -117z" />
    <glyph glyph-name="Zcaron" unicode="&#x17d;" horiz-adv-x="558" 
d="M523 -1c-82 1 -147 2 -211 2c-55 0 -223 -1 -292 -2v19l379 605h-145c-128 0 -155 -8 -177 -105h-21c4 47 8 103 11 151c81 -1 153 -2 217 -2c56 0 169 1 239 2v-20l-382 -603h192c127 0 157 12 180 109h21c-4 -47 -9 -107 -11 -156zM146 856l10 12
c44 -20 99 -47 135 -67c41 22 96 49 134 67l10 -13c-31 -28 -83 -84 -139 -141h-10c-51 52 -90 95 -140 142z" />
    <glyph glyph-name="Zdotaccent" unicode="&#x17b;" horiz-adv-x="558" 
d="M523 -1c-82 1 -147 2 -211 2c-55 0 -223 -1 -292 -2v19l379 605h-145c-128 0 -155 -8 -177 -105h-21c4 47 8 103 11 151c81 -1 153 -2 217 -2c56 0 169 1 239 2v-20l-382 -603h192c127 0 157 12 180 109h21c-4 -47 -9 -107 -11 -156zM337 772c0 -27 -20 -48 -47 -48
s-46 21 -46 48s19 48 46 48s47 -21 47 -48z" />
    <glyph glyph-name="a" unicode="a" horiz-adv-x="514" 
d="M346 65c-17 -36 -74 -78 -145 -78c-95 0 -156 56 -156 136c0 104 93 141 240 141c13 0 40 -2 53 -4c1 15 1 26 1 40c0 34 -3 69 -14 89c-17 30 -54 43 -95 43c-70 0 -114 -33 -136 -65l-15 6c10 45 51 121 174 121c98 0 170 -36 170 -151c0 -37 -3 -134 -3 -210
c0 -77 21 -98 81 -99v-9c-18 -18 -46 -34 -79 -34c-45 0 -65 27 -76 74zM339 94c-1 20 -1 85 -1 130c-10 1 -22 2 -32 2c-102 0 -173 -23 -173 -95c0 -54 39 -86 97 -86c50 0 86 20 109 49z" />
    <glyph glyph-name="aacute" unicode="&#xe1;" horiz-adv-x="514" 
d="M346 65c-17 -36 -74 -78 -145 -78c-95 0 -156 56 -156 136c0 104 93 141 240 141c13 0 40 -2 53 -4c1 15 1 26 1 40c0 34 -3 69 -14 89c-17 30 -54 43 -95 43c-70 0 -114 -33 -136 -65l-15 6c10 45 51 121 174 121c98 0 170 -36 170 -151c0 -37 -3 -134 -3 -210
c0 -77 21 -98 81 -99v-9c-18 -18 -46 -34 -79 -34c-45 0 -65 27 -76 74zM339 94c-1 20 -1 85 -1 130c-10 1 -22 2 -32 2c-102 0 -173 -23 -173 -95c0 -54 39 -86 97 -86c50 0 86 20 109 49zM207 532l-12 11c43 58 89 131 121 195l73 -44c-40 -49 -133 -129 -182 -162z" />
    <glyph glyph-name="abreve" unicode="&#x103;" horiz-adv-x="514" 
d="M346 65c-17 -36 -74 -78 -145 -78c-95 0 -156 56 -156 136c0 104 93 141 240 141c13 0 40 -2 53 -4c1 15 1 26 1 40c0 34 -3 69 -14 89c-17 30 -54 43 -95 43c-70 0 -114 -33 -136 -65l-15 6c10 45 51 121 174 121c98 0 170 -36 170 -151c0 -37 -3 -134 -3 -210
c0 -77 21 -98 81 -99v-9c-18 -18 -46 -34 -79 -34c-45 0 -65 27 -76 74zM339 94c-1 20 -1 85 -1 130c-10 1 -22 2 -32 2c-102 0 -173 -23 -173 -95c0 -54 39 -86 97 -86c50 0 86 20 109 49zM390 701c-9 -62 -30 -146 -141 -146s-134 86 -135 148l17 3c15 -50 33 -86 117 -86
c82 0 105 34 126 85z" />
    <glyph glyph-name="acircumflex" unicode="&#xe2;" horiz-adv-x="514" 
d="M346 65c-17 -36 -74 -78 -145 -78c-95 0 -156 56 -156 136c0 104 93 141 240 141c13 0 40 -2 53 -4c1 15 1 26 1 40c0 34 -3 69 -14 89c-17 30 -54 43 -95 43c-70 0 -114 -33 -136 -65l-15 6c10 45 51 121 174 121c98 0 170 -36 170 -151c0 -37 -3 -134 -3 -210
c0 -77 21 -98 81 -99v-9c-18 -18 -46 -34 -79 -34c-45 0 -65 27 -76 74zM339 94c-1 20 -1 85 -1 130c-10 1 -22 2 -32 2c-102 0 -173 -23 -173 -95c0 -54 39 -86 97 -86c50 0 86 20 109 49zM392 557l-12 -12c-42 27 -93 64 -127 87c-41 -30 -89 -62 -126 -87l-11 12
c29 32 88 104 132 164h10c41 -52 91 -114 134 -164z" />
    <glyph glyph-name="acute" unicode="&#xb4;" horiz-adv-x="300" 
d="M68 532l-12 11c43 58 89 131 121 195l73 -44c-40 -49 -133 -129 -182 -162z" />
    <glyph glyph-name="acute.cap" horiz-adv-x="300" 
d="M49 711l-9 14c54 47 116 107 160 162l62 -59c-50 -38 -158 -96 -213 -117z" />
    <glyph glyph-name="adieresis" unicode="&#xe4;" horiz-adv-x="514" 
d="M346 65c-17 -36 -74 -78 -145 -78c-95 0 -156 56 -156 136c0 104 93 141 240 141c13 0 40 -2 53 -4c1 15 1 26 1 40c0 34 -3 69 -14 89c-17 30 -54 43 -95 43c-70 0 -114 -33 -136 -65l-15 6c10 45 51 121 174 121c98 0 170 -36 170 -151c0 -37 -3 -134 -3 -210
c0 -77 21 -98 81 -99v-9c-18 -18 -46 -34 -79 -34c-45 0 -65 27 -76 74zM339 94c-1 20 -1 85 -1 130c-10 1 -22 2 -32 2c-102 0 -173 -23 -173 -95c0 -54 39 -86 97 -86c50 0 86 20 109 49zM212 621c0 -27 -20 -48 -47 -48s-46 21 -46 48s19 48 46 48s47 -21 47 -48z
M385 621c0 -27 -20 -48 -47 -48s-46 21 -46 48s19 48 46 48s47 -21 47 -48z" />
    <glyph glyph-name="ae" unicode="&#xe6;" horiz-adv-x="783" 
d="M378 79c-49 -57 -96 -90 -178 -90c-91 0 -153 57 -153 136c0 107 93 141 255 141c13 0 26 -1 35 -2c1 5 1 37 1 40c0 36 -5 65 -16 85c-16 30 -50 40 -87 40c-71 0 -117 -29 -139 -64l-13 5c5 51 53 124 170 124c65 0 123 -23 145 -78c34 48 91 78 154 78
c127 0 193 -69 193 -214c0 -22 -18 -25 -36 -25h-289c2 -152 74 -208 163 -208c60 0 112 22 147 62h5c5 -4 8 -12 8 -20c0 -31 -70 -102 -184 -102c-86 0 -148 34 -181 92zM361 112c-9 21 -21 69 -22 113c-9 2 -24 3 -37 3c-105 0 -167 -27 -167 -96c0 -55 36 -86 93 -86
c54 0 104 29 133 66zM421 291c99 1 180 3 213 4c20 1 24 11 24 20c0 105 -42 139 -110 139c-43 0 -119 -25 -127 -163z" />
    <glyph glyph-name="aeacute" unicode="&#x1fd;" horiz-adv-x="783" 
d="M378 79c-49 -57 -96 -90 -178 -90c-91 0 -153 57 -153 136c0 107 93 141 255 141c13 0 26 -1 35 -2c1 5 1 37 1 40c0 36 -5 65 -16 85c-16 30 -50 40 -87 40c-71 0 -117 -29 -139 -64l-13 5c5 51 53 124 170 124c65 0 123 -23 145 -78c34 48 91 78 154 78
c127 0 193 -69 193 -214c0 -22 -18 -25 -36 -25h-289c2 -152 74 -208 163 -208c60 0 112 22 147 62h5c5 -4 8 -12 8 -20c0 -31 -70 -102 -184 -102c-86 0 -148 34 -181 92zM361 112c-9 21 -21 69 -22 113c-9 2 -24 3 -37 3c-105 0 -167 -27 -167 -96c0 -55 36 -86 93 -86
c54 0 104 29 133 66zM421 291c99 1 180 3 213 4c20 1 24 11 24 20c0 105 -42 139 -110 139c-43 0 -119 -25 -127 -163zM374 532l-12 11c43 58 89 131 121 195l73 -44c-40 -49 -133 -129 -182 -162z" />
    <glyph glyph-name="afii61289" unicode="&#x2113;" horiz-adv-x="402" 
d="M165 262c78 57 145 157 145 273c0 54 -17 80 -48 80c-26 0 -48 -18 -61 -50c-28 -68 -35 -150 -36 -303zM362 90c4 -4 7 -8 7 -13c0 -3 -2 -8 -3 -11c-21 -41 -69 -79 -135 -79c-60 0 -93 23 -114 62c-17 32 -28 85 -31 132c-11 -7 -39 -21 -56 -28l-11 24
c10 5 40 21 65 36c0 212 19 306 66 374c23 34 61 62 113 62c64 0 105 -35 105 -117c0 -148 -123 -254 -201 -307c2 -43 6 -87 12 -115c11 -49 38 -74 76 -74c39 0 70 16 101 54h6z" />
    <glyph glyph-name="agrave" unicode="&#xe0;" horiz-adv-x="514" 
d="M346 65c-17 -36 -74 -78 -145 -78c-95 0 -156 56 -156 136c0 104 93 141 240 141c13 0 40 -2 53 -4c1 15 1 26 1 40c0 34 -3 69 -14 89c-17 30 -54 43 -95 43c-70 0 -114 -33 -136 -65l-15 6c10 45 51 121 174 121c98 0 170 -36 170 -151c0 -37 -3 -134 -3 -210
c0 -77 21 -98 81 -99v-9c-18 -18 -46 -34 -79 -34c-45 0 -65 27 -76 74zM339 94c-1 20 -1 85 -1 130c-10 1 -22 2 -32 2c-102 0 -173 -23 -173 -95c0 -54 39 -86 97 -86c50 0 86 20 109 49zM321 544l-13 -12c-49 33 -141 113 -181 162l72 44c32 -64 79 -137 122 -194z" />
    <glyph glyph-name="amacron" unicode="&#x101;" horiz-adv-x="514" 
d="M346 65c-17 -36 -74 -78 -145 -78c-95 0 -156 56 -156 136c0 104 93 141 240 141c13 0 40 -2 53 -4c1 15 1 26 1 40c0 34 -3 69 -14 89c-17 30 -54 43 -95 43c-70 0 -114 -33 -136 -65l-15 6c10 45 51 121 174 121c98 0 170 -36 170 -151c0 -37 -3 -134 -3 -210
c0 -77 21 -98 81 -99v-9c-18 -18 -46 -34 -79 -34c-45 0 -65 27 -76 74zM339 94c-1 20 -1 85 -1 130c-10 1 -22 2 -32 2c-102 0 -173 -23 -173 -95c0 -54 39 -86 97 -86c50 0 86 20 109 49zM390 582h-262v60h262v-60z" />
    <glyph glyph-name="ampersand" unicode="&#x26;" horiz-adv-x="696" 
d="M466 56c-49 -44 -112 -68 -194 -68c-166 0 -227 107 -227 186c0 97 60 146 152 192c-47 65 -63 112 -63 158c0 95 74 157 177 157c93 0 154 -46 154 -130c0 -79 -74 -133 -162 -174c50 -68 137 -176 195 -227c23 38 33 68 33 104s-16 63 -52 84v7c20 23 42 34 62 34
c36 0 59 -35 59 -83c0 -55 -26 -119 -74 -175c43 -44 79 -65 129 -65c11 0 25 2 38 8l5 -7c-15 -33 -51 -66 -100 -66c-42 0 -67 8 -132 65zM437 85c-74 68 -167 183 -219 254c-50 -32 -82 -76 -82 -142c0 -80 65 -154 166 -154c48 0 99 11 135 42zM280 402
c68 37 117 81 117 147c0 63 -33 93 -87 93c-45 0 -91 -30 -91 -92c0 -51 22 -100 61 -148z" />
    <glyph glyph-name="aogonek" unicode="&#x105;" horiz-adv-x="514" 
d="M457 -218c-77 0 -150 23 -150 89c0 46 28 85 94 123c-31 7 -46 32 -55 71c-17 -36 -74 -78 -145 -78c-95 0 -156 56 -156 136c0 104 93 141 240 141c13 0 40 -2 53 -4c1 15 1 26 1 40c0 34 -3 69 -14 89c-17 30 -54 43 -95 43c-66 0 -113 -33 -136 -65l-15 6
c9 45 47 121 174 121c98 0 170 -36 170 -151c0 -37 -3 -133 -3 -209c0 -77 21 -98 81 -99v-9c-13 -13 -30 -24 -50 -30c-52 -34 -79 -72 -79 -120c0 -32 16 -67 87 -72zM339 94c-1 20 -1 85 -1 130c-10 1 -22 2 -32 2c-102 0 -173 -23 -173 -95c0 -54 39 -86 97 -86
c50 0 86 20 109 49z" />
    <glyph glyph-name="approxequal" unicode="&#x2248;" horiz-adv-x="585" 
d="M98 307l-43 44c44 62 90 87 139 87c31 0 48 -5 116 -43c37 -21 59 -29 81 -29c32 0 61 17 97 70l42 -44c-42 -59 -88 -88 -139 -88c-29 0 -57 10 -98 33c-57 32 -73 39 -99 39c-36 0 -65 -18 -96 -69zM98 148l-43 43c44 62 90 87 139 87c31 0 49 -5 116 -42
c37 -21 59 -30 81 -30c32 0 61 17 97 70l42 -44c-42 -59 -88 -88 -139 -88c-29 0 -57 10 -98 33c-57 32 -73 40 -99 40c-36 0 -65 -19 -96 -69z" />
    <glyph glyph-name="aring" unicode="&#xe5;" horiz-adv-x="514" 
d="M346 65c-17 -36 -74 -78 -145 -78c-95 0 -156 56 -156 136c0 104 93 141 240 141c13 0 40 -2 53 -4c1 15 1 26 1 40c0 34 -3 69 -14 89c-17 30 -54 43 -95 43c-70 0 -114 -33 -136 -65l-15 6c10 45 51 121 174 121c98 0 170 -36 170 -151c0 -37 -3 -134 -3 -210
c0 -77 21 -98 81 -99v-9c-18 -18 -46 -34 -79 -34c-45 0 -65 27 -76 74zM339 94c-1 20 -1 85 -1 130c-10 1 -22 2 -32 2c-102 0 -173 -23 -173 -95c0 -54 39 -86 97 -86c50 0 86 20 109 49zM351 645c0 -54 -39 -95 -97 -95c-55 0 -95 41 -95 95s40 96 95 96
c58 0 97 -42 97 -96zM312 644c0 38 -22 64 -58 64c-33 0 -57 -26 -57 -64c0 -34 24 -61 57 -61c36 0 58 26 58 61z" />
    <glyph glyph-name="aringacute" unicode="&#x1fb;" horiz-adv-x="514" 
d="M346 65c-17 -36 -74 -78 -145 -78c-95 0 -156 56 -156 136c0 104 93 141 240 141c13 0 40 -2 53 -4c1 15 1 24 1 38c0 34 -3 69 -14 89c-17 30 -54 43 -95 43c-69 0 -113 -34 -132 -70l-14 5c2 51 37 129 173 129c94 0 166 -36 166 -151c0 -37 -3 -134 -3 -210
c0 -77 21 -98 81 -99v-9c-18 -18 -46 -34 -79 -34c-45 0 -65 27 -76 74zM339 94c-1 20 -1 85 -1 130c-10 1 -22 2 -32 2c-102 0 -173 -23 -173 -95c0 -54 39 -86 97 -86c50 0 86 20 109 49zM352 645c0 -54 -39 -95 -97 -95c-55 0 -95 41 -95 95s40 96 95 96
c58 0 97 -42 97 -96zM313 644c0 38 -22 64 -58 64c-33 0 -57 -26 -57 -64c0 -34 24 -61 57 -61c36 0 58 26 58 61zM222 761l-15 14c42 57 92 127 124 191l73 -44c-40 -48 -133 -128 -182 -161z" />
    <glyph glyph-name="asciicircum" unicode="^" horiz-adv-x="539" 
d="M451 348h-67l-113 253l-115 -253h-68l152 320h64z" />
    <glyph glyph-name="asciitilde" unicode="~" horiz-adv-x="585" 
d="M98 213l-43 45c44 61 90 87 139 87c31 0 49 -5 116 -43c37 -21 59 -30 81 -30c32 0 61 17 97 71l42 -45c-42 -59 -88 -87 -139 -87c-29 0 -57 8 -98 32c-57 32 -73 39 -99 39c-36 0 -65 -18 -96 -69z" />
    <glyph glyph-name="asterisk" unicode="*" horiz-adv-x="385" 
d="M216 545c21 -8 43 -13 55 -16c48 -10 64 -17 64 -39c0 -17 -13 -40 -35 -40c-17 0 -31 15 -51 37c-14 15 -25 27 -42 38c2 -22 7 -40 11 -57c6 -23 11 -37 11 -51c0 -17 -13 -27 -35 -27s-35 9 -35 26c0 16 7 34 12 54c4 16 8 35 10 55c-16 -12 -26 -23 -40 -37
c-29 -30 -38 -39 -53 -39c-19 0 -36 18 -36 39c0 16 12 28 62 38c13 3 39 10 58 18c-19 9 -39 14 -56 19c-21 6 -37 9 -50 15c-9 4 -15 12 -15 23c0 17 15 41 36 41c19 0 35 -23 49 -37c14 -15 25 -28 45 -41c-2 23 -5 41 -11 63c-5 21 -10 34 -10 47c0 16 12 27 34 27
c23 0 35 -9 35 -27c0 -12 -6 -28 -11 -48c-4 -16 -9 -37 -11 -62c16 10 31 24 45 40c23 27 33 38 50 38c20 0 33 -19 33 -39c0 -21 -18 -27 -62 -39c-15 -4 -38 -9 -57 -19z" />
    <glyph glyph-name="at" unicode="@" horiz-adv-x="792" 
d="M459 101c-26 -43 -82 -87 -143 -87c-76 0 -113 52 -113 120c0 76 21 131 58 189c43 67 116 110 194 110c36 0 66 -13 84 -34c13 10 42 25 56 31l11 -6c-12 -31 -23 -67 -35 -114c-36 -145 -42 -196 -42 -221c0 -19 12 -25 24 -25c23 0 49 18 72 44c45 52 69 153 69 242
c0 131 -83 225 -239 225c-200 0 -347 -171 -347 -402c0 -179 123 -299 299 -299c119 0 230 40 312 122l23 -21c-93 -98 -212 -151 -342 -151c-223 0 -359 135 -359 351c0 229 166 437 417 437c239 0 300 -165 300 -262c0 -128 -52 -245 -157 -308c-23 -14 -60 -25 -84 -25
c-41 0 -60 28 -60 59c0 6 0 16 2 25zM463 136l58 236c-20 15 -44 23 -72 23c-47 0 -91 -26 -126 -86c-29 -48 -47 -107 -47 -166c0 -41 20 -76 63 -76c49 0 83 26 124 69z" />
    <glyph glyph-name="atilde" unicode="&#xe3;" horiz-adv-x="514" 
d="M346 65c-17 -36 -74 -78 -145 -78c-95 0 -156 56 -156 136c0 104 93 141 240 141c13 0 40 -2 53 -4c1 15 1 26 1 40c0 34 -3 69 -14 89c-17 30 -54 43 -95 43c-70 0 -114 -33 -136 -65l-15 6c10 45 51 121 174 121c98 0 170 -36 170 -151c0 -37 -3 -134 -3 -210
c0 -77 21 -98 81 -99v-9c-18 -18 -46 -34 -79 -34c-45 0 -65 27 -76 74zM339 94c-1 20 -1 85 -1 130c-10 1 -22 2 -32 2c-102 0 -173 -23 -173 -95c0 -54 39 -86 97 -86c50 0 86 20 109 49zM407 677c-13 -42 -33 -97 -90 -97c-23 0 -49 9 -70 19c-24 10 -46 19 -62 19
c-27 0 -49 -19 -63 -49l-16 5c11 48 41 106 92 106c27 0 45 -10 70 -20c20 -8 40 -20 61 -20c30 0 48 14 64 43z" />
    <glyph glyph-name="b" unicode="b" horiz-adv-x="558" 
d="M159 37c-18 -22 -45 -46 -73 -57l-5 4c9 30 10 99 10 134v474c0 71 -10 97 -74 98v11c31 26 71 48 104 48c39 0 52 -20 52 -104v-233c29 36 87 79 159 79c116 0 181 -80 181 -242c0 -165 -86 -259 -206 -259c-81 0 -127 30 -148 47zM173 77c30 -20 67 -33 116 -33
c71 0 132 53 132 204c0 131 -55 184 -124 184c-61 0 -103 -30 -124 -55v-300z" />
    <glyph glyph-name="backslash" unicode="\" horiz-adv-x="357" 
d="M271 -115l-260 823h62l260 -823h-62z" />
    <glyph glyph-name="bar" unicode="|" horiz-adv-x="225" 
d="M146 -142h-67v864h67v-864z" />
    <glyph glyph-name="braceleft" unicode="{" horiz-adv-x="317" 
d="M22 281v17c75 8 84 53 84 154v114c0 102 40 165 180 165v-25c-84 0 -105 -31 -105 -140v-139c0 -88 -26 -119 -94 -136c64 -15 95 -46 95 -138v-142c0 -94 21 -134 104 -134v-27c-124 0 -178 41 -178 153v134c0 83 -15 138 -86 144z" />
    <glyph glyph-name="braceleft.cap" horiz-adv-x="317" 
d="M22 321v17c75 8 84 53 84 154v84c0 102 40 165 180 165v-25c-84 0 -105 -31 -105 -140v-109c0 -88 -26 -119 -94 -136c64 -15 95 -46 95 -138v-112c0 -94 21 -134 104 -134v-27c-124 0 -178 41 -178 153v104c0 83 -15 138 -86 144z" />
    <glyph glyph-name="braceright" unicode="}" horiz-adv-x="317" 
d="M295 300v-17c-75 -8 -84 -52 -84 -153v-114c0 -103 -40 -166 -180 -166v26c84 0 105 30 105 139v140c0 88 26 119 94 136c-64 15 -95 45 -95 137v143c0 94 -21 133 -104 133v27c124 0 178 -40 178 -152v-135c0 -83 15 -138 86 -144z" />
    <glyph glyph-name="braceright.cap" horiz-adv-x="317" 
d="M295 340v-17c-75 -8 -84 -52 -84 -153v-84c0 -103 -40 -166 -180 -166v26c84 0 105 30 105 139v110c0 88 26 119 94 136c-64 15 -95 45 -95 137v113c0 94 -21 133 -104 133v27c124 0 178 -40 178 -152v-105c0 -83 15 -138 86 -144z" />
    <glyph glyph-name="bracketleft" unicode="[" horiz-adv-x="284" 
d="M252 -142h-173v864h173v-33h-97v-799h97v-32z" />
    <glyph glyph-name="bracketleft.cap" horiz-adv-x="284" 
d="M252 -72h-173v804h173v-33h-97v-739h97v-32z" />
    <glyph glyph-name="bracketright" unicode="]" horiz-adv-x="284" 
d="M32 722h172v-864h-172v33h97v799h-97v32z" />
    <glyph glyph-name="bracketright.cap" horiz-adv-x="284" 
d="M32 732h172v-804h-172v33h97v739h-97v32z" />
    <glyph glyph-name="breve" unicode="&#x2d8;" horiz-adv-x="300" 
d="M288 701c-9 -62 -30 -146 -141 -146s-134 86 -135 148l17 3c15 -50 33 -86 117 -86c82 0 105 34 126 85z" />
    <glyph glyph-name="breve.cap" horiz-adv-x="300" 
d="M292 860c-9 -62 -31 -138 -145 -138c-115 0 -138 78 -139 140l18 3c15 -47 38 -78 120 -78c81 0 106 29 128 77z" />
    <glyph glyph-name="brokenbar" unicode="&#xa6;" horiz-adv-x="225" 
d="M146 360h-67v362h67v-362zM146 -142h-67v362h67v-362z" />
    <glyph glyph-name="bullet" unicode="&#x2022;" horiz-adv-x="447" 
d="M371 326c0 -82 -62 -150 -148 -150c-85 0 -147 68 -147 150s64 150 147 150c86 0 148 -68 148 -150z" />
    <glyph glyph-name="c" unicode="c" horiz-adv-x="463" 
d="M430 109c5 -4 9 -11 9 -19c0 -29 -64 -103 -177 -103c-124 0 -217 83 -217 245c0 180 112 262 233 262c100 0 152 -36 152 -86c0 -25 -16 -47 -63 -63l-8 6c0 74 -36 102 -92 102c-69 0 -132 -49 -132 -204c0 -146 70 -202 151 -202c58 0 104 22 137 62h7z" />
    <glyph glyph-name="c_t" horiz-adv-x="762" 
d="M430 109c5 -4 9 -11 9 -19c0 -29 -64 -103 -177 -103c-124 0 -217 83 -217 245c0 180 112 262 233 262c20 0 38 -2 52 -5c-24 27 -40 66 -40 96c0 119 91 164 178 164c91 0 173 -40 173 -167c0 -41 -7 -74 -17 -103h116v-43h-117v-285c0 -24 2 -43 5 -58
c8 -38 31 -48 64 -48c21 0 44 6 65 13l7 -8c-26 -34 -68 -60 -113 -60c-56 0 -92 20 -105 75c-4 17 -5 41 -5 65v306h-71v25c82 11 125 68 125 115c0 97 -65 115 -131 115c-71 0 -122 -41 -122 -118c0 -39 9 -65 26 -94c42 -14 62 -41 62 -71c0 -25 -16 -47 -63 -63l-8 6
c0 74 -36 102 -92 102c-69 0 -132 -49 -132 -204c0 -146 70 -202 151 -202c58 0 104 22 137 62h7z" />
    <glyph glyph-name="cacute" unicode="&#x107;" horiz-adv-x="463" 
d="M430 109c5 -4 9 -11 9 -19c0 -29 -64 -103 -177 -103c-124 0 -217 83 -217 245c0 180 112 262 233 262c100 0 152 -36 152 -86c0 -25 -16 -47 -63 -63l-8 6c0 74 -36 102 -92 102c-69 0 -132 -49 -132 -204c0 -146 70 -202 151 -202c58 0 104 22 137 62h7zM224 532
l-12 11c43 58 89 131 121 195l73 -44c-40 -49 -133 -129 -182 -162z" />
    <glyph glyph-name="caron" unicode="&#x2c7;" horiz-adv-x="300" 
d="M11 710l13 13c42 -27 93 -64 127 -87c41 29 89 63 126 87l12 -13c-29 -34 -88 -103 -133 -163h-10c-42 52 -95 116 -135 163z" />
    <glyph glyph-name="caron.alt" horiz-adv-x="300" 
d="M212 668c0 -59 -44 -110 -113 -144l-11 17c41 27 60 47 60 76c0 11 -5 20 -16 28c-15 11 -23 24 -23 42c0 23 20 44 48 44c34 0 55 -22 55 -63z" />
    <glyph glyph-name="caron.cap" horiz-adv-x="300" 
d="M6 856l10 12c44 -20 99 -47 135 -67c41 22 96 49 134 67l10 -13c-31 -28 -83 -84 -139 -141h-10c-51 52 -90 95 -140 142z" />
    <glyph glyph-name="ccaron" unicode="&#x10d;" horiz-adv-x="463" 
d="M430 109c5 -4 9 -11 9 -19c0 -29 -64 -103 -177 -103c-124 0 -217 83 -217 245c0 180 112 262 233 262c100 0 152 -36 152 -86c0 -25 -16 -47 -63 -63l-8 6c0 74 -36 102 -92 102c-69 0 -132 -49 -132 -204c0 -146 70 -202 151 -202c58 0 104 22 137 62h7zM114 710l13 13
c42 -27 93 -64 127 -87c41 29 89 63 126 87l12 -13c-29 -34 -88 -103 -133 -163h-10c-42 52 -95 116 -135 163z" />
    <glyph glyph-name="ccedilla" unicode="&#xe7;" horiz-adv-x="463" 
d="M201 -220l-2 19c55 9 79 32 79 57c0 18 -6 31 -33 50c-15 11 -24 23 -24 36s6 27 16 46c-111 11 -192 93 -192 244c0 180 112 262 233 262c100 0 152 -36 152 -86c0 -25 -16 -47 -63 -63l-8 6c0 74 -36 102 -92 102c-69 0 -132 -49 -132 -204c0 -146 70 -202 151 -202
c58 0 104 22 137 62h7c5 -4 9 -11 9 -19c0 -29 -64 -103 -177 -103c-2 -7 -3 -13 -3 -17c0 -10 5 -18 17 -25c10 -6 24 -12 40 -24c19 -14 26 -31 26 -51c0 -55 -68 -90 -141 -90z" />
    <glyph glyph-name="ccircumflex" unicode="&#x109;" horiz-adv-x="463" 
d="M430 109c5 -4 9 -11 9 -19c0 -29 -64 -103 -177 -103c-124 0 -217 83 -217 245c0 180 112 262 233 262c100 0 152 -36 152 -86c0 -25 -16 -47 -63 -63l-8 6c0 74 -36 102 -92 102c-69 0 -132 -49 -132 -204c0 -146 70 -202 151 -202c58 0 104 22 137 62h7zM407 557
l-12 -12c-42 27 -93 64 -127 87c-41 -30 -89 -62 -126 -87l-11 12c29 32 88 104 132 164h10c41 -52 91 -114 134 -164z" />
    <glyph glyph-name="cdotaccent" unicode="&#x10b;" horiz-adv-x="463" 
d="M430 109c5 -4 9 -11 9 -19c0 -29 -64 -103 -177 -103c-124 0 -217 83 -217 245c0 180 112 262 233 262c100 0 152 -36 152 -86c0 -25 -16 -47 -63 -63l-8 6c0 74 -36 102 -92 102c-69 0 -132 -49 -132 -204c0 -146 70 -202 151 -202c58 0 104 22 137 62h7zM309 621
c0 -27 -20 -48 -47 -48s-46 21 -46 48s19 48 46 48s47 -21 47 -48z" />
    <glyph glyph-name="cedilla" unicode="&#xb8;" horiz-adv-x="300" 
d="M80 -220l-2 19c55 9 79 32 79 57c0 18 -6 31 -33 50c-15 11 -24 23 -24 36c0 17 10 35 28 66l19 -6c-7 -14 -9 -26 -9 -32c0 -10 5 -18 17 -25c10 -6 24 -12 40 -24c19 -14 26 -31 26 -51c0 -55 -68 -90 -141 -90z" />
    <glyph glyph-name="cedilla.cap" horiz-adv-x="300" 
d="M77 -230l-2 19c58 10 83 34 83 60c0 19 -6 35 -34 54c-17 11 -26 25 -26 38c0 18 11 37 30 69l20 -6c-8 -15 -10 -27 -10 -34c0 -10 5 -17 18 -25c10 -6 24 -13 42 -26c20 -15 27 -34 27 -55c0 -58 -71 -94 -148 -94z" />
    <glyph glyph-name="cent" unicode="&#xa2;" horiz-adv-x="487" 
d="M448 108c4 -6 8 -6 8 -19c0 -28 -56 -94 -157 -101v-86h-40v86c-112 9 -194 90 -194 243c0 159 89 241 194 257v88h40v-85c98 -1 145 -37 145 -86c0 -24 -10 -42 -57 -58l-9 4c0 68 -31 96 -79 100v-406h5c58 0 104 24 137 63h7zM153 248c0 -121 44 -180 106 -197v398
c-58 -12 -106 -67 -106 -201z" />
    <glyph glyph-name="cent.denominator" horiz-adv-x="315" 
d="M289 74c3 -3 6 -6 6 -15c0 -17 -35 -58 -99 -61v-54h-29v54c-69 7 -121 56 -121 148c0 96 57 147 121 157v54h29v-52c64 -1 93 -24 93 -53c0 -14 -9 -29 -38 -38l-7 3c0 41 -18 57 -48 60v-241c38 0 68 14 89 38h4zM104 156c0 -72 25 -106 63 -116v234
c-35 -8 -63 -39 -63 -118z" />
    <glyph glyph-name="cent.inferior" horiz-adv-x="315" 
d="M289 -86c3 -3 6 -6 6 -15c0 -17 -35 -58 -99 -61v-54h-29v54c-69 7 -121 56 -121 148c0 96 57 147 121 157v54h29v-52c64 -1 93 -24 93 -53c0 -14 -9 -29 -38 -38l-7 3c0 41 -18 57 -48 60v-241c38 0 68 14 89 38h4zM104 -4c0 -72 25 -106 63 -116v234
c-35 -8 -63 -39 -63 -118z" />
    <glyph glyph-name="cent.numerator" horiz-adv-x="315" 
d="M289 320c3 -3 6 -6 6 -15c0 -17 -35 -58 -99 -62v-53h-29v54c-69 7 -121 56 -121 148c0 96 57 147 121 157v54h29v-52c64 -1 93 -24 93 -53c0 -14 -9 -29 -38 -38l-7 3c0 41 -18 57 -48 60v-241c38 0 68 14 89 38h4zM104 402c0 -72 25 -106 63 -116v234
c-35 -8 -63 -39 -63 -118z" />
    <glyph glyph-name="cent.oldstyle" horiz-adv-x="478" 
d="M439 103c5 -7 9 -6 9 -18c0 -26 -55 -90 -153 -97v-86h-40v86c-110 9 -189 84 -189 226c0 146 87 223 189 237v93h40v-90c95 -1 142 -38 142 -83c0 -22 -10 -39 -56 -55l-8 4c0 63 -31 89 -78 94v-370h5c56 0 100 22 132 59h7zM153 229c0 -111 42 -164 102 -180v363
c-56 -11 -102 -59 -102 -183z" />
    <glyph glyph-name="cent.superior" horiz-adv-x="315" 
d="M289 534c3 -3 6 -6 6 -15c0 -17 -35 -58 -99 -61v-54h-29v54c-69 7 -121 56 -121 148c0 96 57 147 121 157v54h29v-52c64 -1 93 -24 93 -53c0 -14 -9 -29 -38 -38l-7 3c0 41 -18 57 -48 60v-241c38 0 68 14 89 38h4zM104 616c0 -72 25 -106 63 -116v234
c-35 -8 -63 -39 -63 -118z" />
    <glyph glyph-name="circumflex" unicode="&#x2c6;" horiz-adv-x="300" 
d="M288 557l-12 -12c-42 27 -93 64 -127 87c-41 -30 -89 -62 -126 -87l-11 12c29 32 88 104 132 164h10c41 -52 91 -114 134 -164z" />
    <glyph glyph-name="circumflex.cap" horiz-adv-x="300" 
d="M295 723l-11 -13c-44 20 -99 49 -135 68c-41 -21 -96 -50 -134 -67l-10 12c31 29 86 84 139 141h10c49 -52 91 -94 141 -141z" />
    <glyph glyph-name="colon" unicode=":" horiz-adv-x="271" 
d="M206 49c0 -35 -26 -60 -60 -60c-35 0 -61 26 -61 61c0 33 27 60 61 60s60 -26 60 -61zM206 419c0 -35 -26 -60 -60 -60c-35 0 -61 26 -61 61c0 34 27 61 61 61s60 -26 60 -62z" />
    <glyph glyph-name="comma" unicode="," horiz-adv-x="225" 
d="M181 34c0 -77 -52 -147 -136 -194l-14 17c47 36 76 73 76 114c0 16 -10 31 -23 41c-18 12 -30 26 -30 50c0 28 24 53 58 53c41 0 69 -27 69 -81z" />
    <glyph glyph-name="comma.denominator" horiz-adv-x="159" 
d="M122 18c0 -46 -32 -88 -89 -119l-10 13c30 23 49 45 49 65c0 10 -7 20 -15 26c-12 8 -17 19 -17 31c0 16 13 36 38 36s44 -18 44 -52z" />
    <glyph glyph-name="comma.inferior" horiz-adv-x="159" 
d="M122 -142c0 -46 -32 -88 -89 -119l-10 13c30 23 49 45 49 65c0 10 -7 20 -15 26c-12 8 -17 19 -17 31c0 16 13 36 38 36s44 -18 44 -52z" />
    <glyph glyph-name="comma.numerator" horiz-adv-x="159" 
d="M122 264c0 -46 -32 -88 -89 -119l-10 13c30 23 49 45 49 65c0 10 -7 20 -15 26c-12 8 -17 19 -17 31c0 16 13 36 38 36s44 -18 44 -52z" />
    <glyph glyph-name="comma.superior" horiz-adv-x="159" 
d="M122 478c0 -46 -32 -88 -89 -119l-10 13c30 23 49 45 49 65c0 10 -7 20 -15 26c-12 8 -17 19 -17 31c0 16 13 36 38 36s44 -18 44 -52z" />
    <glyph glyph-name="commaaccent" horiz-adv-x="297" 
d="M210 -109c0 -58 -43 -109 -112 -142l-10 17c41 27 60 46 60 75c0 10 -6 19 -17 27c-15 11 -22 24 -22 42c0 23 19 43 47 43c34 0 54 -22 54 -62z" />
    <glyph glyph-name="copyright" unicode="&#xa9;" horiz-adv-x="797" 
d="M755 334c0 -210 -155 -346 -356 -346c-202 0 -356 136 -356 346c0 207 160 346 356 346s356 -139 356 -346zM709 333c0 193 -138 310 -310 310c-174 0 -311 -117 -311 -310c0 -191 137 -310 311 -310c172 0 310 119 310 310zM543 226c5 -6 8 -6 8 -17
c0 -26 -54 -91 -154 -91c-107 0 -188 75 -188 213c0 155 99 226 203 226c87 0 130 -33 130 -76c0 -20 -9 -43 -50 -57l-9 4c0 65 -31 93 -81 93c-58 0 -120 -42 -120 -177c0 -126 67 -176 136 -176c51 0 90 23 119 58h6z" />
    <glyph glyph-name="currency" unicode="&#xa4;" horiz-adv-x="610" 
d="M499 60l-60 62c-39 -32 -85 -46 -134 -46s-95 14 -134 45l-60 -62l-43 43l61 64c-31 41 -45 88 -45 138c0 53 14 96 45 137l-61 64l43 43l60 -62c38 31 87 46 134 46c48 0 94 -14 133 -45l60 61l42 -42l-60 -64c32 -39 45 -86 45 -138c0 -49 -13 -97 -45 -138l61 -64z
M462 304c0 96 -66 169 -157 169c-93 0 -158 -73 -158 -167c0 -99 65 -171 158 -171c91 0 157 72 157 169z" />
    <glyph glyph-name="d" unicode="d" horiz-adv-x="572" 
d="M393 65c-36 -47 -89 -75 -150 -75c-94 0 -198 64 -198 241c0 159 93 260 225 260c50 0 85 -11 116 -37v138c0 71 -9 97 -73 98v11c30 26 70 48 104 48c38 0 52 -20 52 -104v-501c0 -80 13 -108 82 -110v-10c-17 -17 -45 -32 -79 -32c-43 0 -71 26 -79 73zM387 97l-1 314
c-31 23 -68 32 -105 32c-73 0 -144 -51 -144 -198c0 -153 67 -196 129 -196c45 0 87 11 121 48z" />
    <glyph glyph-name="dagger" unicode="&#x2020;" horiz-adv-x="519" 
d="M286 -151h-54c-9 104 -10 240 -10 312v235h-183v68h183v210h74v-210h184v-68h-184v-235c0 -74 -1 -208 -10 -312z" />
    <glyph glyph-name="daggerdbl" unicode="&#x2021;" horiz-adv-x="519" 
d="M286 -151h-54c-9 104 -10 180 -10 280h-183v68h183v202h-183v68h183v207h74v-207h184v-68h-184v-202h184v-68h-184c0 -102 -1 -176 -10 -280z" />
    <glyph glyph-name="dcaron" unicode="&#x10f;" horiz-adv-x="572" 
d="M393 65c-36 -47 -89 -75 -150 -75c-94 0 -198 64 -198 241c0 159 93 260 225 260c50 0 85 -11 116 -37v138c0 71 -9 97 -73 98v11c30 26 70 48 104 48c38 0 52 -20 52 -104v-501c0 -80 13 -108 82 -110v-10c-17 -17 -45 -32 -79 -32c-43 0 -71 26 -79 73zM387 97l-1 314
c-31 23 -68 32 -105 32c-73 0 -144 -51 -144 -198c0 -153 67 -196 129 -196c45 0 87 11 121 48zM629 668c0 -59 -44 -110 -113 -144l-11 17c41 27 60 47 60 76c0 11 -5 20 -16 28c-15 11 -23 24 -23 42c0 23 20 44 48 44c34 0 55 -22 55 -63z" />
    <glyph glyph-name="dcroat" unicode="&#x111;" horiz-adv-x="572" 
d="M541 551h-72v-406c0 -80 13 -108 82 -110v-10c-17 -17 -45 -32 -79 -32c-43 0 -71 25 -79 72c-36 -47 -89 -75 -150 -75c-94 0 -198 64 -198 241c0 159 93 260 225 260c50 0 85 -11 116 -37v97h-154v40h154c0 71 -9 98 -73 99v11c30 26 70 48 104 48c38 0 52 -20 52 -104
v-54h72v-40zM387 97l-1 314c-31 23 -68 32 -105 32c-73 0 -144 -51 -144 -198c0 -153 67 -196 129 -196c45 0 87 11 121 48z" />
    <glyph glyph-name="degree" unicode="&#xb0;" horiz-adv-x="325" 
d="M162 716c71 0 138 -43 138 -135c0 -88 -67 -136 -138 -136c-72 0 -137 45 -137 135c0 87 65 136 137 136zM162 677c-50 0 -86 -39 -86 -96s33 -97 86 -97c54 0 88 40 88 96c0 57 -34 97 -88 97z" />
    <glyph glyph-name="dieresis" unicode="&#xa8;" horiz-adv-x="300" 
d="M110 621c0 -27 -20 -48 -47 -48s-46 21 -46 48s19 48 46 48s47 -21 47 -48zM283 621c0 -27 -20 -48 -47 -48s-46 21 -46 48s19 48 46 48s47 -21 47 -48z" />
    <glyph glyph-name="dieresis.cap" horiz-adv-x="300" 
d="M105 772c0 -27 -21 -48 -48 -48s-46 21 -46 48s19 48 46 48s48 -21 48 -48zM289 772c0 -27 -20 -48 -47 -48s-47 21 -47 48s20 48 47 48s47 -21 47 -48z" />
    <glyph glyph-name="divide" unicode="&#xf7;" horiz-adv-x="605" 
d="M348 441c0 -25 -20 -46 -46 -46c-28 0 -47 21 -47 47s20 47 47 47c26 0 46 -20 46 -48zM527 264h-449v61h449v-61zM348 146c0 -25 -20 -46 -46 -46c-28 0 -47 21 -47 47s20 47 47 47c26 0 46 -20 46 -48z" />
    <glyph glyph-name="dollar" unicode="$" horiz-adv-x="519" 
d="M103 177l6 -4c0 -99 65 -136 134 -138v249l-51 22c-90 38 -131 97 -131 172c0 96 80 153 182 163v99h40v-97c125 -3 171 -59 171 -100c0 -20 -17 -42 -63 -54l-8 4c0 81 -47 108 -100 111v-238l37 -16c115 -49 150 -101 150 -173c0 -101 -79 -166 -187 -178v-97h-40v94
c-137 0 -209 61 -209 123c0 25 16 50 69 58zM390 152c0 51 -39 85 -107 115v-230c60 10 107 46 107 115zM138 501c0 -52 30 -84 105 -118v220c-59 -9 -105 -46 -105 -102z" />
    <glyph glyph-name="dollar.denominator" horiz-adv-x="331" 
d="M182 -60h-29v57c-83 1 -128 37 -128 75c0 19 13 34 46 41l4 -3c0 -58 37 -82 78 -84v145l-28 12c-56 24 -85 53 -85 107c0 59 50 93 113 100v61h29v-60c77 -2 108 -36 108 -61c0 -18 -15 -32 -43 -39l-5 2c0 48 -29 66 -60 68v-137l23 -10c72 -31 97 -58 97 -107
c0 -62 -52 -102 -120 -109v-58zM248 92c0 31 -23 47 -66 67v-132c38 4 66 22 66 65zM94 303c0 -31 15 -47 59 -67v124c-35 -5 -59 -26 -59 -57z" />
    <glyph glyph-name="dollar.inferior" horiz-adv-x="331" 
d="M182 -220h-29v57c-83 1 -128 37 -128 75c0 19 13 34 46 41l4 -3c0 -58 37 -82 78 -84v145l-28 12c-56 24 -85 53 -85 107c0 59 50 93 113 100v61h29v-60c77 -2 108 -36 108 -61c0 -18 -15 -32 -43 -39l-5 2c0 48 -29 66 -60 68v-137l23 -10c72 -31 97 -58 97 -107
c0 -62 -52 -102 -120 -109v-58zM248 -68c0 31 -23 47 -66 67v-132c38 4 66 22 66 65zM94 143c0 -31 15 -47 59 -67v124c-35 -5 -59 -26 -59 -57z" />
    <glyph glyph-name="dollar.numerator" horiz-adv-x="331" 
d="M182 186h-29v57c-83 1 -128 37 -128 75c0 19 13 34 46 41l4 -3c0 -58 37 -82 78 -84v145l-28 12c-56 24 -85 53 -85 107c0 59 50 93 113 100v61h29v-60c77 -2 108 -36 108 -61c0 -18 -15 -32 -43 -39l-5 2c0 48 -29 66 -60 68v-137l23 -10c72 -31 97 -58 97 -107
c0 -62 -52 -102 -120 -109v-58zM248 338c0 31 -23 47 -66 67v-132c38 4 66 22 66 65zM94 549c0 -31 15 -47 59 -67v124c-35 -5 -59 -26 -59 -57z" />
    <glyph glyph-name="dollar.oldstyle" horiz-adv-x="502" 
d="M102 169l6 -4c0 -91 61 -128 126 -130v226l-47 20c-86 35 -125 91 -125 161c0 88 76 142 172 151v98h40v-96c119 -3 161 -61 161 -98c0 -19 -16 -40 -61 -51l-7 3c0 75 -43 102 -93 107v-215l34 -15c109 -46 142 -95 142 -162c0 -94 -75 -154 -176 -165v-97h-40v94
c-129 1 -197 62 -197 119c0 24 14 46 65 54zM374 140c0 48 -36 77 -100 105v-208c56 9 100 40 100 103zM136 464c0 -49 27 -76 98 -106v197c-55 -7 -98 -39 -98 -91z" />
    <glyph glyph-name="dollar.superior" horiz-adv-x="331" 
d="M182 400h-29v57c-83 1 -128 37 -128 75c0 19 13 34 46 41l4 -3c0 -58 37 -82 78 -84v145l-28 12c-56 24 -85 53 -85 107c0 59 50 93 113 100v61h29v-60c77 -2 108 -36 108 -61c0 -18 -15 -32 -43 -39l-5 2c0 48 -29 66 -60 68v-137l23 -10c72 -31 97 -58 97 -107
c0 -62 -52 -102 -120 -109v-58zM248 552c0 31 -23 47 -66 67v-132c38 4 66 22 66 65zM94 763c0 -31 15 -47 59 -67v124c-35 -5 -59 -26 -59 -57z" />
    <glyph glyph-name="dotaccent" unicode="&#x2d9;" horiz-adv-x="300" 
d="M197 621c0 -27 -20 -48 -47 -48s-46 21 -46 48s19 48 46 48s47 -21 47 -48z" />
    <glyph glyph-name="dotaccent.cap" horiz-adv-x="300" 
d="M196 772c0 -27 -20 -48 -47 -48s-46 21 -46 48s19 48 46 48s47 -21 47 -48z" />
    <glyph glyph-name="dotlessi" unicode="&#x131;" horiz-adv-x="288" 
d="M271 -1c-39 2 -83 3 -122 3c-38 0 -67 0 -105 -3v18c53 3 67 29 67 93v195c0 95 -15 127 -78 127v10c31 29 65 46 98 46c26 0 54 -14 60 -57c2 -11 2 -32 2 -48v-280c0 -59 18 -84 78 -86v-18z" />
    <glyph glyph-name="e" unicode="e" horiz-adv-x="494" 
d="M133 255c1 -152 72 -208 162 -208c59 0 112 22 147 62h5c4 -4 8 -12 8 -20c0 -31 -70 -102 -185 -102c-148 0 -225 97 -225 257c0 159 95 250 219 250c126 0 192 -68 192 -210c0 -23 -18 -29 -36 -29h-287zM134 291c97 1 175 2 213 4c19 1 23 11 23 20
c0 105 -43 139 -109 139c-44 0 -120 -25 -127 -163z" />
    <glyph glyph-name="eacute" unicode="&#xe9;" horiz-adv-x="494" 
d="M133 255c1 -152 72 -208 162 -208c59 0 112 22 147 62h5c4 -4 8 -12 8 -20c0 -31 -70 -102 -185 -102c-148 0 -225 97 -225 257c0 159 95 250 219 250c126 0 192 -68 192 -210c0 -23 -18 -29 -36 -29h-287zM134 291c97 1 175 2 213 4c19 1 23 11 23 20
c0 105 -43 139 -109 139c-44 0 -120 -25 -127 -163zM215 532l-12 11c43 58 89 131 121 195l73 -44c-40 -49 -133 -129 -182 -162z" />
    <glyph glyph-name="ebreve" unicode="&#x115;" horiz-adv-x="494" 
d="M133 255c1 -152 72 -208 162 -208c59 0 112 22 147 62h5c4 -4 8 -12 8 -20c0 -31 -70 -102 -185 -102c-148 0 -225 97 -225 257c0 159 95 250 219 250c126 0 192 -68 192 -210c0 -23 -18 -29 -36 -29h-287zM134 291c97 1 175 2 213 4c19 1 23 11 23 20
c0 105 -43 139 -109 139c-44 0 -120 -25 -127 -163zM403 701c-9 -62 -30 -146 -141 -146s-134 86 -135 148l17 3c15 -50 33 -86 117 -86c82 0 105 34 126 85z" />
    <glyph glyph-name="ecaron" unicode="&#x11b;" horiz-adv-x="494" 
d="M133 255c1 -152 72 -208 162 -208c59 0 112 22 147 62h5c4 -4 8 -12 8 -20c0 -31 -70 -102 -185 -102c-148 0 -225 97 -225 257c0 159 95 250 219 250c126 0 192 -68 192 -210c0 -23 -18 -29 -36 -29h-287zM134 291c97 1 175 2 213 4c19 1 23 11 23 20
c0 105 -43 139 -109 139c-44 0 -120 -25 -127 -163zM123 710l13 13c42 -27 93 -64 127 -87c41 29 89 63 126 87l12 -13c-29 -34 -88 -103 -133 -163h-10c-42 52 -95 116 -135 163z" />
    <glyph glyph-name="ecircumflex" unicode="&#xea;" horiz-adv-x="494" 
d="M133 255c1 -152 72 -208 162 -208c59 0 112 22 147 62h5c4 -4 8 -12 8 -20c0 -31 -70 -102 -185 -102c-148 0 -225 97 -225 257c0 159 95 250 219 250c126 0 192 -68 192 -210c0 -23 -18 -29 -36 -29h-287zM134 291c97 1 175 2 213 4c19 1 23 11 23 20
c0 105 -43 139 -109 139c-44 0 -120 -25 -127 -163zM402 557l-12 -12c-42 27 -93 64 -127 87c-41 -30 -89 -62 -126 -87l-11 12c29 32 88 104 132 164h10c41 -52 91 -114 134 -164z" />
    <glyph glyph-name="edieresis" unicode="&#xeb;" horiz-adv-x="494" 
d="M133 255c1 -152 72 -208 162 -208c59 0 112 22 147 62h5c4 -4 8 -12 8 -20c0 -31 -70 -102 -185 -102c-148 0 -225 97 -225 257c0 159 95 250 219 250c126 0 192 -68 192 -210c0 -23 -18 -29 -36 -29h-287zM134 291c97 1 175 2 213 4c19 1 23 11 23 20
c0 105 -43 139 -109 139c-44 0 -120 -25 -127 -163zM223 621c0 -27 -20 -48 -47 -48s-46 21 -46 48s19 48 46 48s47 -21 47 -48zM396 621c0 -27 -20 -48 -47 -48s-46 21 -46 48s19 48 46 48s47 -21 47 -48z" />
    <glyph glyph-name="edotaccent" unicode="&#x117;" horiz-adv-x="494" 
d="M133 255c1 -152 72 -208 162 -208c59 0 112 22 147 62h5c4 -4 8 -12 8 -20c0 -31 -70 -102 -185 -102c-148 0 -225 97 -225 257c0 159 95 250 219 250c126 0 192 -68 192 -210c0 -23 -18 -29 -36 -29h-287zM134 291c97 1 175 2 213 4c19 1 23 11 23 20
c0 105 -43 139 -109 139c-44 0 -120 -25 -127 -163zM314 621c0 -27 -20 -48 -47 -48s-46 21 -46 48s19 48 46 48s47 -21 47 -48z" />
    <glyph glyph-name="egrave" unicode="&#xe8;" horiz-adv-x="494" 
d="M133 255c1 -152 72 -208 162 -208c59 0 112 22 147 62h5c4 -4 8 -12 8 -20c0 -31 -70 -102 -185 -102c-148 0 -225 97 -225 257c0 159 95 250 219 250c126 0 192 -68 192 -210c0 -23 -18 -29 -36 -29h-287zM134 291c97 1 175 2 213 4c19 1 23 11 23 20
c0 105 -43 139 -109 139c-44 0 -120 -25 -127 -163zM324 544l-13 -12c-49 33 -141 113 -181 162l72 44c32 -64 79 -137 122 -194z" />
    <glyph glyph-name="eight" unicode="8" horiz-adv-x="547" 
d="M341 348c84 -37 146 -84 146 -176c0 -113 -86 -185 -217 -185c-147 0 -210 73 -210 168c0 84 56 134 133 168c-61 33 -106 79 -106 156c0 103 85 170 190 170c121 0 184 -62 184 -150c0 -70 -55 -123 -120 -151zM225 308c-54 -40 -88 -86 -88 -149
c0 -83 52 -132 136 -132c78 0 133 47 133 119c0 75 -59 113 -181 162zM308 362c38 31 79 73 79 133c0 66 -41 114 -111 114c-72 0 -110 -51 -110 -109c0 -53 36 -94 142 -138z" />
    <glyph glyph-name="eight.denominator" 
d="M232 214c53 -22 92 -52 92 -108c0 -69 -59 -114 -143 -114c-94 0 -135 47 -135 103c0 48 31 77 83 102c-38 21 -67 46 -67 94c0 59 51 105 126 105c78 0 118 -40 118 -92c0 -45 -35 -71 -74 -90zM150 186c-36 -26 -55 -52 -55 -88c0 -49 36 -76 87 -76c47 0 83 26 83 68
c0 43 -31 65 -115 96zM211 224c29 19 49 44 49 78c0 40 -29 65 -72 65s-69 -27 -69 -62c0 -34 18 -55 92 -81z" />
    <glyph glyph-name="eight.fitted" horiz-adv-x="547" 
d="M341 348c84 -37 146 -84 146 -176c0 -113 -86 -185 -217 -185c-147 0 -210 73 -210 168c0 84 56 134 133 168c-61 33 -106 79 -106 156c0 103 85 170 190 170c121 0 184 -62 184 -150c0 -70 -55 -123 -120 -151zM225 308c-54 -40 -88 -86 -88 -149
c0 -83 51 -132 136 -132c79 0 133 47 133 119c0 75 -59 113 -181 162zM309 362c38 31 79 73 79 133c0 66 -42 114 -112 114c-73 0 -110 -51 -110 -109c0 -53 36 -94 143 -138z" />
    <glyph glyph-name="eight.inferior" unicode="&#x2088;" 
d="M232 54c53 -22 92 -52 92 -108c0 -69 -59 -114 -143 -114c-94 0 -135 47 -135 103c0 48 31 77 83 102c-38 21 -67 46 -67 94c0 59 51 105 126 105c78 0 118 -40 118 -92c0 -45 -35 -71 -74 -90zM150 26c-36 -26 -55 -52 -55 -88c0 -49 36 -76 87 -76c47 0 83 26 83 68
c0 43 -31 65 -115 96zM211 64c29 19 49 44 49 78c0 40 -29 65 -72 65s-69 -27 -69 -62c0 -34 18 -55 92 -81z" />
    <glyph glyph-name="eight.numerator" 
d="M232 460c53 -22 92 -52 92 -108c0 -69 -59 -114 -143 -114c-94 0 -135 47 -135 103c0 48 31 77 83 102c-38 21 -67 46 -67 94c0 59 51 105 126 105c78 0 118 -40 118 -92c0 -45 -35 -71 -74 -90zM150 432c-36 -26 -55 -52 -55 -88c0 -49 36 -76 87 -76c47 0 83 26 83 68
c0 43 -31 65 -115 96zM211 470c29 19 49 44 49 78c0 40 -29 65 -72 65s-69 -27 -69 -62c0 -34 18 -55 92 -81z" />
    <glyph glyph-name="eight.oldstyle" horiz-adv-x="528" 
d="M330 348c83 -37 145 -84 145 -176c0 -113 -85 -185 -214 -185c-144 0 -207 73 -207 168c0 84 55 134 131 168c-60 33 -104 80 -104 156c0 103 83 170 187 170c119 0 181 -62 181 -150c0 -70 -55 -122 -119 -151zM217 308c-53 -40 -87 -89 -87 -150
c0 -82 51 -132 134 -132c78 0 132 48 132 120c0 75 -59 113 -179 162zM299 362c37 31 78 75 78 133c0 66 -41 115 -110 115c-72 0 -109 -52 -109 -110c0 -52 36 -94 141 -138z" />
    <glyph glyph-name="eight.superior" unicode="&#x2078;" 
d="M232 674c53 -22 92 -52 92 -108c0 -69 -59 -114 -143 -114c-94 0 -135 47 -135 103c0 48 31 77 83 102c-38 21 -67 46 -67 94c0 59 51 105 126 105c78 0 118 -40 118 -92c0 -45 -35 -71 -74 -90zM150 646c-36 -26 -55 -52 -55 -88c0 -49 36 -76 87 -76c47 0 83 26 83 68
c0 43 -31 65 -115 96zM211 684c29 19 49 44 49 78c0 40 -29 65 -72 65s-69 -27 -69 -62c0 -34 18 -55 92 -81z" />
    <glyph glyph-name="eight.taboldstyle" horiz-adv-x="528" 
d="M330 348c83 -37 145 -84 145 -176c0 -113 -85 -185 -214 -185c-144 0 -207 73 -207 168c0 84 55 134 131 168c-60 33 -104 80 -104 156c0 103 83 170 187 170c119 0 181 -62 181 -150c0 -70 -55 -122 -119 -151zM217 308c-53 -40 -87 -89 -87 -150
c0 -82 51 -132 134 -132c78 0 132 48 132 120c0 75 -59 113 -179 162zM299 362c37 31 78 75 78 133c0 66 -41 115 -110 115c-72 0 -109 -52 -109 -110c0 -52 36 -94 141 -138z" />
    <glyph glyph-name="ellipsis" unicode="&#x2026;" horiz-adv-x="815" 
d="M187 41c0 -31 -22 -52 -52 -52s-53 22 -53 53c0 30 23 52 53 52s52 -20 52 -53zM459 41c0 -31 -22 -52 -52 -52s-53 22 -53 53c0 30 23 52 53 52s52 -20 52 -53zM733 41c0 -31 -22 -52 -52 -52s-53 22 -53 53c0 30 23 52 53 52s52 -20 52 -53z" />
    <glyph glyph-name="emacron" unicode="&#x113;" horiz-adv-x="494" 
d="M133 255c1 -152 72 -208 162 -208c59 0 112 22 147 62h5c4 -4 8 -12 8 -20c0 -31 -70 -102 -185 -102c-148 0 -225 97 -225 257c0 159 95 250 219 250c126 0 192 -68 192 -210c0 -23 -18 -29 -36 -29h-287zM134 291c97 1 175 2 213 4c19 1 23 11 23 20
c0 105 -43 139 -109 139c-44 0 -120 -25 -127 -163zM395 582h-262v60h262v-60z" />
    <glyph glyph-name="emdash" unicode="&#x2014;" horiz-adv-x="854" 
d="M806 217h-757v67h757v-67z" />
    <glyph glyph-name="emdash.cap" horiz-adv-x="854" 
d="M806 287h-757v67h757v-67z" />
    <glyph glyph-name="endash" unicode="&#x2013;" horiz-adv-x="588" 
d="M540 217h-491v67h491v-67z" />
    <glyph glyph-name="endash.cap" horiz-adv-x="588" 
d="M540 287h-491v67h491v-67z" />
    <glyph glyph-name="eng" unicode="&#x14b;" horiz-adv-x="588" 
d="M267 -1c-40 2 -79 3 -118 3c-38 0 -71 0 -108 -3v18c55 3 69 27 69 90v198c0 96 -15 127 -78 127v10c26 24 62 46 92 46c29 0 63 -10 65 -85c28 42 90 88 177 88c51 0 90 -20 110 -61c9 -19 16 -52 16 -96v-288c0 -50 -5 -104 -20 -135c-30 -64 -90 -82 -138 -82
c-9 0 -19 1 -25 4v8c53 20 84 33 96 121c3 24 5 57 5 92v252c0 36 -5 65 -13 82c-12 27 -41 40 -70 40c-52 0 -97 -15 -135 -50v-277c0 -53 16 -82 75 -84v-18z" />
    <glyph glyph-name="eogonek" unicode="&#x119;" horiz-adv-x="494" 
d="M356 -218c-77 0 -150 23 -150 89c0 42 24 81 80 117c-5 -1 -11 -1 -16 -1c-148 0 -225 97 -225 257c0 159 95 250 219 250c126 0 192 -68 192 -210c0 -23 -18 -29 -36 -29h-287c1 -152 72 -208 162 -208c59 0 112 22 147 62h5c4 -4 8 -12 8 -20c0 -23 -37 -67 -102 -89
c-54 -34 -82 -75 -82 -124c0 -32 16 -67 87 -72zM134 291c97 1 175 2 213 4c19 1 23 11 23 20c0 105 -43 139 -109 139c-44 0 -120 -25 -127 -163z" />
    <glyph glyph-name="equal" unicode="=" horiz-adv-x="605" 
d="M527 181h-449v62h449v-62zM527 345h-449v60h449v-60z" />
    <glyph glyph-name="estimated" unicode="&#x212e;" horiz-adv-x="797" 
d="M765 310h-591c-4 0 -6 -2 -6 -5v-179c0 -8 5 -15 9 -20c56 -60 136 -95 224 -95c95 0 178 40 235 106h55c-67 -77 -173 -128 -291 -128c-202 0 -366 147 -366 330c0 181 164 330 366 330s365 -149 365 -330v-9zM633 333v182c0 9 -5 16 -10 22c-57 56 -135 91 -222 91
c-88 0 -166 -36 -223 -95c-5 -5 -10 -13 -10 -22v-178c0 -3 2 -5 6 -5h453c3 0 6 2 6 5z" />
    <glyph glyph-name="estimated.001" horiz-adv-x="762" 
d="M130 340c2 -195 114 -288 308 -288c120 0 211 44 268 97h8c5 -5 10 -11 10 -20c0 -33 -115 -142 -306 -142c-250 0 -375 127 -375 336c0 208 151 326 360 326s322 -92 322 -275c0 -28 -18 -34 -48 -34h-547zM132 380c197 1 406 3 463 5c35 1 38 14 38 27
c0 134 -98 195 -234 195c-110 0 -254 -51 -267 -227z" />
    <glyph glyph-name="estimated.alt" horiz-adv-x="762" 
d="M130 340c2 -195 114 -288 308 -288c120 0 211 44 268 97h8c5 -5 10 -11 10 -20c0 -33 -115 -142 -306 -142c-250 0 -375 127 -375 336c0 208 151 326 360 326s322 -92 322 -275c0 -28 -18 -34 -48 -34h-547zM132 380c197 1 406 3 463 5c35 1 38 14 38 27
c0 134 -98 195 -234 195c-110 0 -254 -51 -267 -227z" />
    <glyph glyph-name="eth" unicode="&#xf0;" horiz-adv-x="536" 
d="M421 644l-85 -42c94 -72 155 -182 155 -346c0 -167 -80 -269 -225 -269c-147 0 -221 96 -221 255c0 152 90 247 226 247c34 0 71 -9 90 -26c-19 42 -48 79 -83 111l-124 -61l-17 38l106 51c-38 28 -80 49 -120 63l12 29c59 -15 114 -36 163 -66l107 52zM400 245
c0 147 -48 205 -131 205c-87 0 -132 -73 -132 -196c0 -155 37 -228 132 -228c94 0 131 84 131 219z" />
    <glyph glyph-name="exclam" unicode="!" horiz-adv-x="269" 
d="M167 203h-33c-11 136 -36 384 -36 417c0 35 14 60 54 60c35 0 57 -12 57 -57c0 -44 -31 -285 -42 -420zM209 49c0 -35 -26 -60 -59 -60c-36 0 -61 26 -61 61c0 33 26 60 61 60c33 0 59 -26 59 -61z" />
    <glyph glyph-name="exclamdown" unicode="&#xa1;" horiz-adv-x="269" 
d="M103 282h32c11 -136 36 -384 36 -417c0 -35 -13 -60 -54 -60c-35 0 -57 12 -57 57c0 44 31 285 43 420zM60 436c0 35 26 60 60 60c35 0 61 -26 61 -61c0 -33 -27 -60 -61 -60s-60 26 -60 61z" />
    <glyph glyph-name="f" unicode="f" horiz-adv-x="321" 
d="M276 -1c-39 2 -89 3 -127 3c-39 0 -71 0 -108 -3v18c50 3 65 26 65 90v328h-72v25c57 11 69 37 78 115c15 134 105 175 176 175c88 0 113 -34 113 -66c0 -22 -20 -45 -66 -51l-6 4c0 63 -26 73 -55 73c-21 0 -52 -10 -70 -49c-10 -23 -15 -67 -15 -111v-71h121v-44h-121
v-328c0 -70 26 -88 87 -90v-18z" />
    <glyph glyph-name="five" unicode="5" horiz-adv-x="547" 
d="M156 387c31 11 80 16 106 16c139 0 218 -71 218 -199c0 -126 -97 -217 -244 -217c-124 0 -186 56 -186 112c0 27 18 56 65 65l7 -3c0 -75 40 -134 120 -134c113 0 147 67 147 170c0 92 -64 148 -156 148c-52 0 -91 -8 -129 -22l30 309h315v-76h-276z" />
    <glyph glyph-name="five.denominator" 
d="M112 242c20 7 50 10 68 10c90 0 140 -49 140 -126c0 -75 -63 -134 -157 -134c-82 0 -121 34 -121 67c0 23 16 39 42 44l5 -1c0 -44 26 -81 77 -81c70 0 91 41 91 100c0 56 -38 88 -96 88c-33 0 -62 -6 -86 -14l19 191h205v-53h-179z" />
    <glyph glyph-name="five.fitted" horiz-adv-x="538" 
d="M150 387c31 11 79 16 105 16c139 0 218 -71 218 -199c0 -126 -96 -217 -243 -217c-125 0 -187 56 -187 112c0 27 19 56 65 65l7 -3c0 -75 40 -134 120 -134c114 0 147 67 147 170c0 92 -64 148 -155 148c-52 0 -92 -8 -130 -22l30 309h315v-76h-275z" />
    <glyph glyph-name="five.inferior" unicode="&#x2085;" 
d="M112 82c20 7 50 10 68 10c90 0 140 -49 140 -126c0 -75 -63 -134 -157 -134c-82 0 -121 34 -121 67c0 23 16 39 42 44l5 -1c0 -44 26 -81 77 -81c70 0 91 41 91 100c0 56 -38 88 -96 88c-33 0 -62 -6 -86 -14l19 191h205v-53h-179z" />
    <glyph glyph-name="five.numerator" 
d="M112 488c20 7 50 10 68 10c90 0 140 -49 140 -126c0 -75 -63 -134 -157 -134c-82 0 -121 34 -121 67c0 23 16 39 42 44l5 -1c0 -44 26 -81 77 -81c70 0 91 41 91 100c0 56 -38 88 -96 88c-33 0 -62 -6 -86 -14l19 191h205v-53h-179z" />
    <glyph glyph-name="five.oldstyle" horiz-adv-x="502" 
d="M148 268c30 12 76 17 100 17c133 0 209 -71 209 -199c0 -126 -93 -217 -234 -217c-118 0 -177 55 -177 111c0 28 18 57 62 66l7 -3c0 -75 38 -135 113 -135c109 0 141 68 141 171c0 92 -61 148 -148 148c-50 0 -88 -8 -124 -22l29 305h300v-73h-261z" />
    <glyph glyph-name="five.superior" unicode="&#x2075;" 
d="M112 702c20 7 50 10 68 10c90 0 140 -49 140 -126c0 -75 -63 -134 -157 -134c-82 0 -121 34 -121 67c0 23 16 39 42 44l5 -1c0 -44 26 -81 77 -81c70 0 91 41 91 100c0 56 -38 88 -96 88c-33 0 -62 -6 -86 -14l19 191h205v-53h-179z" />
    <glyph glyph-name="five.taboldstyle" horiz-adv-x="528" 
d="M162 268c30 12 75 17 100 17c133 0 209 -71 209 -199c0 -126 -94 -217 -234 -217c-118 0 -177 55 -177 111c0 28 18 57 62 66l7 -3c0 -75 38 -135 113 -135c109 0 141 68 141 171c0 92 -62 148 -148 148c-50 0 -88 -8 -124 -22l29 305h300v-73h-261z" />
    <glyph glyph-name="fiveeighths" unicode="&#x215d;" horiz-adv-x="848" 
d="M655 658l-377 -677h-50l377 677h50zM138 488c20 7 50 10 68 10c90 0 140 -49 140 -126c0 -75 -63 -134 -157 -134c-82 0 -121 34 -121 67c0 23 16 39 42 44l5 -1c0 -44 26 -81 77 -81c70 0 91 41 91 100c0 56 -38 88 -96 88c-33 0 -62 -6 -86 -14l19 191h205v-53h-179z
M713 214c53 -22 92 -52 92 -108c0 -69 -59 -114 -143 -114c-94 0 -135 47 -135 103c0 48 31 77 83 102c-38 21 -67 46 -67 94c0 59 51 105 126 105c78 0 118 -40 118 -92c0 -45 -35 -71 -74 -90zM631 186c-36 -26 -55 -52 -55 -88c0 -49 36 -76 87 -76c47 0 83 26 83 68
c0 43 -31 65 -115 96zM692 224c29 19 49 44 49 78c0 40 -29 65 -72 65s-69 -27 -69 -62c0 -34 18 -55 92 -81z" />
    <glyph glyph-name="florin" unicode="&#x192;" horiz-adv-x="482" 
d="M397 340h-131l-40 -289c-26 -192 -116 -220 -181 -220c-70 0 -92 34 -92 58c0 31 18 49 59 61l7 -4c0 -51 13 -76 41 -76c38 0 60 19 76 137l43 333h-98v47h104l5 38c26 201 143 224 208 224c83 0 106 -34 106 -61c0 -35 -18 -51 -58 -64l-8 4c-3 61 -29 79 -55 79
c-39 0 -83 -21 -99 -137l-12 -83h125v-47z" />
    <glyph glyph-name="florin.denominator" horiz-adv-x="321" 
d="M261 205h-80l-25 -172c-17 -120 -83 -136 -121 -136c-45 0 -60 24 -60 40c0 18 12 29 38 39l4 -3c0 -33 11 -46 27 -46c23 0 38 11 48 81l26 197h-63v33h67l3 20c16 123 89 138 135 138c54 0 71 -24 71 -42c0 -20 -12 -32 -38 -40l-6 3c-1 38 -17 49 -34 49
c-26 0 -51 -11 -61 -83l-7 -45h76v-33z" />
    <glyph glyph-name="florin.inferior" horiz-adv-x="321" 
d="M261 45h-80l-25 -172c-17 -120 -83 -136 -121 -136c-45 0 -60 24 -60 40c0 18 12 29 38 39l4 -3c0 -33 11 -46 27 -46c23 0 38 11 48 81l26 197h-63v33h67l3 20c16 123 89 138 135 138c54 0 71 -24 71 -42c0 -20 -12 -32 -38 -40l-6 3c-1 38 -17 49 -34 49
c-26 0 -51 -11 -61 -83l-7 -45h76v-33z" />
    <glyph glyph-name="florin.numerator" horiz-adv-x="321" 
d="M261 451h-80l-25 -172c-17 -120 -83 -136 -121 -136c-45 0 -60 24 -60 40c0 18 12 29 38 39l4 -3c0 -33 11 -46 27 -46c23 0 38 11 48 81l26 197h-63v33h67l3 20c16 123 89 138 135 138c54 0 71 -24 71 -42c0 -20 -12 -32 -38 -40l-6 3c-1 38 -17 49 -34 49
c-26 0 -51 -11 -61 -83l-7 -45h76v-33z" />
    <glyph glyph-name="florin.oldstyle" horiz-adv-x="465" 
d="M392 312h-131l-34 -252c-26 -192 -116 -220 -180 -220c-70 0 -92 34 -92 58c0 32 18 49 59 61l7 -4c0 -50 12 -76 41 -76c37 0 61 17 76 134l37 299h-98v46h104l3 23c26 202 142 224 207 224c83 0 106 -34 106 -61c0 -34 -18 -49 -58 -62l-8 4c-3 61 -29 80 -55 80
c-39 0 -83 -22 -99 -138l-10 -70h125v-46z" />
    <glyph glyph-name="florin.superior" horiz-adv-x="321" 
d="M261 665h-80l-25 -172c-17 -120 -83 -136 -121 -136c-45 0 -60 24 -60 40c0 18 12 29 38 39l4 -3c0 -33 11 -46 27 -46c23 0 38 11 48 81l26 197h-63v33h67l3 20c16 123 89 138 135 138c54 0 71 -24 71 -42c0 -20 -12 -32 -38 -40l-6 3c-1 38 -17 49 -34 49
c-26 0 -51 -11 -61 -83l-7 -45h76v-33z" />
    <glyph glyph-name="four" unicode="4" horiz-adv-x="547" 
d="M494 -1c-32 1 -85 2 -122 2c-36 0 -85 -1 -123 -2v18c77 1 84 31 84 88v56h-288v44c92 158 141 251 169 309c25 51 28 75 28 88c0 11 -3 22 -7 26l-1 8c14 18 31 24 47 24c22 0 39 -16 39 -45c0 -23 -13 -58 -48 -121c-32 -60 -83 -144 -160 -269h221v243h83v-243h85v-64
h-85v-56c0 -55 12 -87 78 -88v-18z" />
    <glyph glyph-name="four.denominator" 
d="M331 -1c-21 1 -57 2 -81 2c-23 0 -62 -1 -87 -2v18c50 1 56 18 56 53v26h-184v34c60 93 94 151 112 190c11 24 13 36 13 43c0 11 -3 18 -6 22v4c9 11 22 14 32 14c20 0 28 -13 28 -29c0 -14 -8 -35 -29 -72s-54 -84 -107 -160h141v143h60v-143h54v-46h-54v-26
c0 -34 9 -52 52 -53v-18z" />
    <glyph glyph-name="four.fitted" horiz-adv-x="565" 
d="M514 -1c-32 1 -84 2 -121 2c-36 0 -86 -1 -124 -2v18c77 1 85 31 85 88v56h-299v44c93 158 146 251 174 309c24 51 28 75 28 88c0 11 -4 22 -8 26l-1 8c14 18 31 24 47 24c22 0 39 -16 39 -45c0 -23 -13 -58 -48 -121c-32 -60 -86 -144 -165 -269h233v243h82v-243h89v-64
h-89v-56c0 -55 12 -87 78 -88v-18z" />
    <glyph glyph-name="four.inferior" unicode="&#x2084;" 
d="M331 -161c-21 1 -57 2 -81 2c-23 0 -62 -1 -87 -2v18c50 1 56 18 56 53v26h-184v34c60 93 94 151 112 190c11 24 13 36 13 43c0 11 -3 18 -6 22v4c9 11 22 14 32 14c20 0 28 -13 28 -29c0 -14 -8 -35 -29 -72s-54 -84 -107 -160h141v143h60v-143h54v-46h-54v-26
c0 -34 9 -52 52 -53v-18z" />
    <glyph glyph-name="four.numerator" 
d="M331 245c-21 1 -57 2 -81 2c-23 0 -62 -1 -87 -2v18c50 1 56 18 56 53v26h-184v34c60 93 94 151 112 190c11 24 13 36 13 43c0 11 -3 18 -6 22v4c9 11 22 14 32 14c20 0 28 -13 28 -29c0 -14 -8 -35 -29 -72s-53 -84 -107 -160h141v143h60v-143h54v-46h-54v-26
c0 -34 9 -52 52 -53v-18z" />
    <glyph glyph-name="four.oldstyle" horiz-adv-x="535" 
d="M418 -136h-80v167h-297v42c92 158 143 252 170 309c25 52 28 75 28 88c0 11 -3 22 -7 27l-1 8c14 17 29 23 45 23c21 0 39 -15 39 -45c0 -23 -13 -58 -48 -121c-32 -60 -83 -144 -161 -269h232v237h80v-237h91v-62h-91v-167z" />
    <glyph glyph-name="four.superior" unicode="&#x2074;" 
d="M331 459c-21 1 -57 2 -81 2c-23 0 -62 -1 -87 -2v18c50 1 56 18 56 53v26h-184v34c60 93 94 151 112 190c11 24 13 36 13 43c0 11 -3 18 -6 22v4c9 11 22 14 32 14c20 0 28 -13 28 -29c0 -14 -8 -35 -29 -72s-54 -84 -107 -160h141v143h60v-143h54v-46h-54v-26
c0 -34 9 -52 52 -53v-18z" />
    <glyph glyph-name="four.taboldstyle" horiz-adv-x="528" 
d="M407 -136h-80v167h-287v42c91 158 143 252 170 309c25 52 28 75 28 88c0 11 -4 22 -8 27l-1 8c15 17 29 23 45 23c21 0 40 -15 40 -45c0 -23 -14 -58 -48 -121c-33 -60 -84 -144 -161 -269h222v237h80v-237h86v-62h-86v-167z" />
    <glyph glyph-name="fourfifths" horiz-adv-x="848" 
d="M672 658l-377 -677h-50l377 677h50zM338 245c-21 1 -57 2 -81 2c-23 0 -62 -1 -87 -2v18c50 1 56 18 56 53v26h-184v34c60 93 94 151 112 190c11 24 13 36 13 43c0 11 -3 18 -6 22v4c9 11 22 14 32 14c20 0 28 -13 28 -29c0 -14 -8 -35 -29 -72s-53 -84 -107 -160h141
v143h60v-143h54v-46h-54v-26c0 -34 9 -52 52 -53v-18zM600 242c20 7 50 10 68 10c90 0 140 -49 140 -126c0 -75 -63 -134 -157 -134c-82 0 -121 34 -121 67c0 23 16 39 42 44l5 -1c0 -44 26 -81 77 -81c70 0 91 41 91 100c0 56 -38 88 -96 88c-33 0 -62 -6 -86 -14l19 191
h205v-53h-179z" />
    <glyph glyph-name="fraction" unicode="&#x2044;" horiz-adv-x="109" 
d="M268 658l-377 -677h-50l377 677h50z" />
    <glyph glyph-name="g" unicode="g" horiz-adv-x="493" 
d="M442 512h9c13 -14 19 -28 19 -40c0 -35 -28 -46 -52 -46c-20 0 -36 3 -49 6c34 -25 47 -61 47 -104c0 -70 -47 -142 -157 -154c-16 -2 -36 -2 -53 -2c-32 -10 -56 -35 -56 -52c0 -15 8 -22 18 -26c15 -6 54 -10 115 -12c110 -4 190 -16 190 -129
c0 -100 -104 -169 -236 -169c-148 0 -214 62 -214 123c0 48 43 81 92 91l4 -5c-11 -14 -25 -36 -25 -67c0 -61 52 -102 146 -102c109 0 155 52 155 104c0 56 -27 73 -170 82c-49 3 -90 6 -116 20c-21 11 -34 31 -34 56c0 36 29 69 87 94c-76 29 -110 77 -110 147
c0 93 64 164 185 164c29 0 77 -9 107 -20c46 0 93 11 98 41zM331 330c0 89 -39 122 -96 122c-54 0 -97 -34 -97 -121c0 -89 43 -122 97 -122s96 37 96 121z" />
    <glyph glyph-name="gbreve" unicode="&#x11f;" horiz-adv-x="493" 
d="M442 512h9c13 -14 19 -28 19 -40c0 -35 -28 -46 -52 -46c-20 0 -36 3 -49 6c34 -25 47 -61 47 -104c0 -70 -47 -142 -157 -154c-16 -2 -36 -2 -53 -2c-32 -10 -56 -35 -56 -52c0 -15 8 -22 18 -26c15 -6 54 -10 115 -12c110 -4 190 -16 190 -129
c0 -100 -104 -169 -236 -169c-148 0 -214 62 -214 123c0 48 43 81 92 91l4 -5c-11 -14 -25 -36 -25 -67c0 -61 52 -102 146 -102c109 0 155 52 155 104c0 56 -27 73 -170 82c-49 3 -90 6 -116 20c-21 11 -34 31 -34 56c0 36 29 69 87 94c-76 29 -110 77 -110 147
c0 93 64 164 185 164c29 0 77 -9 107 -20c46 0 93 11 98 41zM331 330c0 89 -39 122 -96 122c-54 0 -97 -34 -97 -121c0 -89 43 -122 97 -122s96 37 96 121zM382 701c-9 -62 -30 -146 -141 -146s-134 86 -135 148l17 3c15 -50 33 -86 117 -86c82 0 105 34 126 85z" />
    <glyph glyph-name="gcircumflex" unicode="&#x11d;" horiz-adv-x="493" 
d="M442 512h9c13 -14 19 -28 19 -40c0 -35 -28 -46 -52 -46c-20 0 -36 3 -49 6c34 -25 47 -61 47 -104c0 -70 -47 -142 -157 -154c-16 -2 -36 -2 -53 -2c-32 -10 -56 -35 -56 -52c0 -15 8 -22 18 -26c15 -6 54 -10 115 -12c110 -4 190 -16 190 -129
c0 -100 -104 -169 -236 -169c-148 0 -214 62 -214 123c0 48 43 81 92 91l4 -5c-11 -14 -25 -36 -25 -67c0 -61 52 -102 146 -102c109 0 155 52 155 104c0 56 -27 73 -170 82c-49 3 -90 6 -116 20c-21 11 -34 31 -34 56c0 36 29 69 87 94c-76 29 -110 77 -110 147
c0 93 64 164 185 164c29 0 77 -9 107 -20c46 0 93 11 98 41zM331 330c0 89 -39 122 -96 122c-54 0 -97 -34 -97 -121c0 -89 43 -122 97 -122s96 37 96 121zM385 557l-12 -12c-42 27 -93 64 -127 87c-41 -30 -89 -62 -126 -87l-11 12c29 32 88 104 132 164h10
c41 -52 91 -114 134 -164z" />
    <glyph glyph-name="gcommaaccent" unicode="&#x123;" horiz-adv-x="493" 
d="M442 512h9c13 -14 19 -28 19 -40c0 -35 -28 -46 -52 -46c-20 0 -36 3 -49 6c34 -25 47 -61 47 -104c0 -65 -38 -138 -157 -154c-16 -1 -36 -2 -53 -2c-32 -10 -56 -35 -56 -52c0 -15 8 -22 18 -26c15 -6 54 -10 115 -12c110 -4 190 -16 190 -129
c0 -100 -104 -169 -236 -169c-148 0 -214 62 -214 123c0 48 43 81 92 91l4 -5c-11 -14 -25 -36 -25 -67c0 -61 52 -102 146 -102c109 0 155 52 155 104c0 56 -27 73 -170 82c-49 3 -90 7 -116 20c-21 12 -34 31 -34 56c0 36 29 69 87 94c-76 29 -110 77 -110 147
c0 93 64 164 185 164c29 0 77 -9 107 -20c46 0 93 11 98 41zM331 330c0 89 -39 122 -96 122c-54 0 -97 -34 -97 -121c0 -89 43 -122 97 -122s96 37 96 121zM189 612c0 58 43 109 111 142l11 -17c-41 -27 -60 -46 -60 -75c0 -10 6 -19 17 -27c15 -11 22 -24 22 -42
c0 -23 -20 -43 -48 -43c-33 0 -53 22 -53 62z" />
    <glyph glyph-name="gdotaccent" unicode="&#x121;" horiz-adv-x="493" 
d="M442 512h9c13 -14 19 -28 19 -40c0 -35 -28 -46 -52 -46c-20 0 -36 3 -49 6c34 -25 47 -61 47 -104c0 -70 -47 -142 -157 -154c-16 -2 -36 -2 -53 -2c-32 -10 -56 -35 -56 -52c0 -15 8 -22 18 -26c15 -6 54 -10 115 -12c110 -4 190 -16 190 -129
c0 -100 -104 -169 -236 -169c-148 0 -214 62 -214 123c0 48 43 81 92 91l4 -5c-11 -14 -25 -36 -25 -67c0 -61 52 -102 146 -102c109 0 155 52 155 104c0 56 -27 73 -170 82c-49 3 -90 6 -116 20c-21 11 -34 31 -34 56c0 36 29 69 87 94c-76 29 -110 77 -110 147
c0 93 64 164 185 164c29 0 77 -9 107 -20c46 0 93 11 98 41zM331 330c0 89 -39 122 -96 122c-54 0 -97 -34 -97 -121c0 -89 43 -122 97 -122s96 37 96 121zM290 621c0 -27 -20 -48 -47 -48s-46 21 -46 48s19 48 46 48s47 -21 47 -48z" />
    <glyph glyph-name="germandbls" unicode="&#xdf;" horiz-adv-x="587" 
d="M189 -1c-19 2 -57 3 -69 3c-16 0 -42 0 -79 -3v19c52 3 65 25 65 89v328h-72v25c59 12 70 51 84 125c25 128 120 165 201 165c127 0 171 -75 171 -140c0 -76 -62 -123 -131 -175c-25 -19 -36 -36 -36 -54c0 -27 25 -43 72 -65l49 -23c82 -38 114 -84 114 -150
c0 -96 -77 -156 -174 -156c-109 0 -147 55 -147 84c0 22 21 41 52 52l7 -3c0 -45 29 -93 91 -93c57 0 99 33 99 96c0 34 -21 65 -77 93l-52 26c-81 40 -107 70 -107 118c0 38 22 63 62 96c50 41 102 89 102 152c0 59 -25 104 -101 104c-39 0 -78 -19 -101 -63
c-13 -24 -23 -88 -23 -150v-500z" />
    <glyph glyph-name="grave" unicode="`" horiz-adv-x="300" 
d="M246 544l-13 -12c-49 33 -141 113 -181 162l72 44c32 -64 79 -137 122 -194z" />
    <glyph glyph-name="grave.cap" horiz-adv-x="300" 
d="M258 725l-9 -14c-55 21 -162 79 -212 117l61 59c44 -57 106 -115 160 -162z" />
    <glyph glyph-name="greater" unicode="&#x3e;" horiz-adv-x="605" 
d="M120 513l389 -190v-64l-389 -193v69l324 156l-324 152v70z" />
    <glyph glyph-name="greaterequal" unicode="&#x2265;" horiz-adv-x="605" 
d="M113 593l390 -181v-65l-390 -185v69l325 148l-325 144v70zM503 45h-390v60h390v-60z" />
    <glyph glyph-name="guillemotleft" unicode="&#xab;" horiz-adv-x="486" 
d="M225 445l21 -16c-29 -57 -77 -131 -111 -188c36 -62 83 -146 111 -199l-24 -14c-58 70 -120 143 -182 209c57 59 127 139 185 208zM412 445l21 -16c-29 -57 -77 -131 -111 -188c36 -61 83 -146 111 -199l-24 -14c-58 70 -122 144 -182 209c57 59 127 139 185 208z" />
    <glyph glyph-name="guillemotleft.cap" horiz-adv-x="486" 
d="M225 515l21 -16c-29 -57 -77 -131 -111 -188c36 -62 83 -146 111 -199l-24 -14c-58 70 -120 143 -182 209c57 59 127 139 185 208zM412 515l21 -16c-29 -57 -77 -131 -111 -188c36 -61 83 -146 111 -199l-24 -14c-58 70 -122 144 -182 209c57 59 127 139 185 208z" />
    <glyph glyph-name="guillemotright" unicode="&#xbb;" horiz-adv-x="486" 
d="M261 29l-21 15c28 57 77 132 110 189c-36 62 -82 146 -110 199l24 14c57 -71 120 -143 182 -209c-58 -60 -127 -139 -185 -208zM74 29l-21 15c28 57 76 132 110 189c-35 61 -83 146 -110 199l23 14c58 -71 123 -144 183 -209c-58 -60 -127 -139 -185 -208z" />
    <glyph glyph-name="guillemotright.cap" horiz-adv-x="486" 
d="M261 99l-21 15c28 57 77 132 110 189c-36 62 -82 146 -110 199l24 14c57 -71 120 -143 182 -209c-58 -60 -127 -139 -185 -208zM74 99l-21 15c28 57 76 132 110 189c-35 61 -83 146 -110 199l23 14c58 -71 123 -144 183 -209c-58 -60 -127 -139 -185 -208z" />
    <glyph glyph-name="guilsinglleft" unicode="&#x2039;" horiz-adv-x="298" 
d="M225 445l21 -16c-29 -57 -77 -131 -111 -188c36 -62 83 -146 111 -199l-24 -14c-58 70 -120 143 -182 209c57 59 127 139 185 208z" />
    <glyph glyph-name="guilsinglleft.cap" horiz-adv-x="298" 
d="M225 515l21 -16c-29 -57 -77 -131 -111 -188c36 -62 83 -146 111 -199l-24 -14c-58 70 -120 143 -182 209c57 59 127 139 185 208z" />
    <glyph glyph-name="guilsinglright" unicode="&#x203a;" horiz-adv-x="298" 
d="M74 29l-21 15c28 57 76 132 110 189c-35 61 -83 146 -110 199l23 14c58 -71 123 -144 183 -209c-58 -60 -127 -139 -185 -208z" />
    <glyph glyph-name="guilsinglright.cap" horiz-adv-x="298" 
d="M74 99l-21 15c28 57 76 132 110 189c-35 61 -83 146 -110 199l23 14c58 -71 123 -144 183 -209c-58 -60 -127 -139 -185 -208z" />
    <glyph glyph-name="h" unicode="h" horiz-adv-x="579" 
d="M259 -1c-38 2 -81 3 -119 3s-69 0 -106 -3v18c52 3 67 29 67 90v486c0 70 -9 96 -73 97v11c30 26 70 48 104 48c38 0 51 -18 51 -102v-242c29 40 90 85 172 85c53 0 92 -20 112 -61c9 -19 15 -52 15 -96v-182c0 -31 2 -59 7 -76c8 -24 32 -42 76 -42v-10
c-19 -17 -52 -32 -76 -32c-56 0 -73 27 -82 53c-6 19 -8 43 -8 103v158c0 36 -3 66 -10 83c-12 28 -42 39 -71 39c-52 0 -98 -16 -135 -51v-273c0 -54 15 -84 76 -86v-18z" />
    <glyph glyph-name="hbar" unicode="&#x127;" horiz-adv-x="579" 
d="M331 551h-148v-146c29 40 90 85 172 85c53 0 92 -20 112 -61c9 -19 15 -52 15 -96v-182c0 -31 2 -59 7 -76c8 -24 32 -42 76 -42v-10c-19 -17 -52 -32 -76 -32c-56 0 -73 27 -82 53c-6 19 -8 43 -8 103v158c0 36 -3 66 -10 83c-12 28 -42 39 -71 39
c-52 0 -98 -16 -135 -51v-273c0 -54 15 -84 76 -86v-18c-38 2 -81 3 -119 3s-69 0 -106 -3v18c52 3 67 29 67 90v444h-80v40h80c0 75 -10 98 -73 99v11c30 26 70 48 104 48c38 0 51 -18 51 -102v-56h148v-40z" />
    <glyph glyph-name="hcircumflex" unicode="&#x125;" horiz-adv-x="579" 
d="M259 -1c-38 2 -81 3 -119 3s-69 0 -106 -3v18c52 3 67 29 67 90v486c0 70 -9 96 -73 97v11c30 26 70 48 104 48c38 0 51 -18 51 -102v-242c29 40 90 85 172 85c53 0 92 -20 112 -61c9 -19 15 -52 15 -96v-182c0 -31 2 -59 7 -76c8 -24 32 -42 76 -42v-10
c-19 -17 -52 -32 -76 -32c-56 0 -73 27 -82 53c-6 19 -8 43 -8 103v158c0 36 -3 66 -10 83c-12 28 -42 39 -71 39c-52 0 -98 -16 -135 -51v-273c0 -54 15 -84 76 -86v-18zM283 769l-11 -13c-44 20 -99 49 -135 68c-41 -21 -96 -50 -134 -67l-10 12c31 29 86 84 139 141h10
c49 -52 91 -94 141 -141z" />
    <glyph glyph-name="hungarumlaut" unicode="&#x2dd;" horiz-adv-x="300" 
d="M9 531l-11 10c33 49 82 139 106 191l64 -39c-41 -53 -111 -124 -159 -162zM148 531l-11 10c33 51 82 139 105 191l64 -39c-41 -53 -111 -124 -158 -162z" />
    <glyph glyph-name="hungarumlaut.cap" horiz-adv-x="300" 
d="M-17 711l-8 13c53 47 106 106 151 162l55 -51c-49 -39 -143 -101 -198 -124zM132 711l-9 13c53 47 106 106 152 162l54 -51c-49 -39 -142 -101 -197 -124z" />
    <glyph glyph-name="hyphen" unicode="-" horiz-adv-x="301" 
d="M253 214h-204v73h204v-73z" />
    <glyph glyph-name="hyphen.cap" horiz-adv-x="301" 
d="M253 284h-204v73h204v-73z" />
    <glyph glyph-name="hyphen.denominator" horiz-adv-x="202" 
d="M166 157h-130v47h130v-47z" />
    <glyph glyph-name="hyphen.inferior" horiz-adv-x="202" 
d="M166 -3h-130v47h130v-47z" />
    <glyph glyph-name="hyphen.numerator" horiz-adv-x="202" 
d="M166 403h-130v47h130v-47z" />
    <glyph glyph-name="hyphen.superior" horiz-adv-x="202" 
d="M166 617h-130v47h130v-47z" />
    <glyph glyph-name="i" unicode="i" horiz-adv-x="288" 
d="M271 -1c-39 2 -83 3 -122 3c-38 0 -67 0 -105 -3v18c53 3 67 29 67 93v195c0 95 -15 127 -78 127v10c31 29 65 46 98 46c25 0 54 -13 60 -56c2 -11 2 -33 2 -49v-280c0 -59 18 -84 78 -86v-18zM194 639c0 -33 -23 -56 -55 -56c-33 0 -58 23 -58 56s25 58 58 58
c32 0 55 -25 55 -58z" />
    <glyph glyph-name="iacute" unicode="&#xed;" horiz-adv-x="288" 
d="M71 532l-12 11c43 58 89 131 121 195l73 -44c-40 -49 -133 -129 -182 -162zM271 -1c-39 2 -83 3 -122 3c-38 0 -67 0 -105 -3v18c53 3 67 29 67 93v195c0 95 -15 127 -78 127v10c31 29 65 46 98 46c26 0 54 -14 60 -57c2 -11 2 -32 2 -48v-280c0 -59 18 -84 78 -86v-18z
" />
    <glyph glyph-name="ibreve" unicode="&#x12d;" horiz-adv-x="288" 
d="M277 701c-9 -62 -30 -146 -141 -146s-134 86 -135 148l17 3c15 -50 33 -86 117 -86c82 0 105 34 126 85zM271 -1c-39 2 -83 3 -122 3c-38 0 -67 0 -105 -3v18c53 3 67 29 67 93v195c0 95 -15 127 -78 127v10c31 29 65 46 98 46c26 0 54 -14 60 -57c2 -11 2 -32 2 -48
v-280c0 -59 18 -84 78 -86v-18z" />
    <glyph glyph-name="icircumflex" unicode="&#xee;" horiz-adv-x="288" 
d="M271 -1c-39 2 -83 3 -122 3c-38 0 -67 0 -105 -3v18c53 3 67 29 67 93v195c0 95 -15 127 -78 127v10c31 29 65 46 98 46c26 0 54 -14 60 -57c2 -11 2 -32 2 -48v-280c0 -59 18 -84 78 -86v-18zM278 557l-12 -12c-42 27 -93 64 -127 87c-41 -30 -89 -62 -126 -87l-11 12
c29 32 88 104 132 164h10c41 -52 91 -114 134 -164z" />
    <glyph glyph-name="idieresis" unicode="&#xef;" horiz-adv-x="288" 
d="M97 621c0 -27 -20 -48 -47 -48s-46 21 -46 48s19 48 46 48s47 -21 47 -48zM270 621c0 -27 -20 -48 -47 -48s-46 21 -46 48s19 48 46 48s47 -21 47 -48zM271 -1c-39 2 -83 3 -122 3c-38 0 -67 0 -105 -3v18c53 3 67 29 67 93v195c0 95 -15 127 -78 127v10
c31 29 65 46 98 46c26 0 54 -14 60 -57c2 -11 2 -32 2 -48v-280c0 -59 18 -84 78 -86v-18z" />
    <glyph glyph-name="idotaccent" horiz-adv-x="288" 
d="M271 -1c-39 2 -83 3 -122 3c-38 0 -67 0 -105 -3v18c53 3 67 29 67 93v195c0 95 -15 127 -78 127v10c31 29 65 46 98 46c25 0 54 -13 60 -56c2 -11 2 -33 2 -49v-280c0 -59 18 -84 78 -86v-18zM194 639c0 -33 -23 -56 -55 -56c-33 0 -58 23 -58 56s25 58 58 58
c32 0 55 -25 55 -58z" />
    <glyph glyph-name="igrave" unicode="&#xec;" horiz-adv-x="288" 
d="M185 544l-13 -12c-49 33 -141 113 -181 162l72 44c32 -64 79 -137 122 -194zM271 -1c-39 2 -83 3 -122 3c-38 0 -67 0 -105 -3v18c53 3 67 29 67 93v195c0 95 -15 127 -78 127v10c31 29 65 46 98 46c26 0 54 -14 60 -57c2 -11 2 -32 2 -48v-280c0 -59 18 -84 78 -86v-18z
" />
    <glyph glyph-name="ij" unicode="&#x133;" horiz-adv-x="546" 
d="M271 -1c-39 2 -83 3 -122 3c-38 0 -67 0 -105 -3v18c53 3 67 29 67 93v195c0 95 -15 127 -78 127v10c31 29 65 46 98 46c25 0 54 -13 60 -56c2 -11 2 -33 2 -49v-280c0 -59 18 -84 78 -86v-18zM194 639c0 -33 -23 -56 -55 -56c-33 0 -58 23 -58 56s25 58 58 58
c32 0 55 -25 55 -58zM285 -200v7c73 31 101 51 101 223v275c0 95 -14 127 -77 127v10c32 29 65 46 98 46c37 0 57 -26 61 -67c2 -16 2 -35 2 -54v-360c0 -38 -3 -100 -17 -129c-32 -64 -95 -82 -143 -82c-9 0 -18 1 -25 4zM470 639c0 -33 -23 -56 -55 -56
c-33 0 -58 23 -58 56s25 58 58 58c32 0 55 -25 55 -58z" />
    <glyph glyph-name="imacron" unicode="&#x12b;" horiz-adv-x="288" 
d="M272 582h-262v60h262v-60zM271 -1c-39 2 -83 3 -122 3c-38 0 -67 0 -105 -3v18c53 3 67 29 67 93v195c0 95 -15 127 -78 127v10c31 29 65 46 98 46c26 0 54 -14 60 -57c2 -11 2 -32 2 -48v-280c0 -59 18 -84 78 -86v-18z" />
    <glyph glyph-name="infinity" unicode="&#x221e;" horiz-adv-x="655" 
d="M328 335c55 68 97 92 149 92c79 0 134 -53 134 -136c0 -76 -55 -141 -138 -141c-52 0 -94 22 -147 92c-49 -60 -88 -91 -148 -91c-88 0 -135 65 -135 135c0 81 57 142 141 142c61 0 96 -31 144 -93zM292 289c-42 59 -70 86 -111 86c-53 0 -79 -39 -79 -84
c0 -47 24 -88 75 -88c45 0 75 30 115 86zM361 290c45 -60 74 -88 114 -88c52 0 78 41 78 87s-24 85 -73 85c-42 0 -76 -26 -119 -84z" />
    <glyph glyph-name="integral" unicode="&#x222b;" horiz-adv-x="308" 
d="M131 -62c0 18 -2 77 -3 102l-16 470c-1 23 -2 54 -2 72c0 72 32 127 116 127c22 0 45 -5 63 -12l-15 -39c-13 11 -26 15 -42 15c-27 0 -47 -19 -47 -67c0 -19 1 -46 2 -66l17 -501c1 -23 2 -51 2 -79c0 -80 -44 -123 -116 -123c-21 0 -45 3 -62 9l13 43
c12 -10 29 -17 42 -17c31 0 48 18 48 66z" />
    <glyph glyph-name="iogonek" unicode="&#x12f;" horiz-adv-x="288" 
d="M196 -218c-77 0 -150 23 -150 89c0 48 31 91 104 131h-6c-38 0 -62 0 -100 -3v18c53 3 67 29 67 93v195c0 95 -15 127 -78 127v10c31 29 65 46 98 46c25 0 54 -13 60 -56c2 -11 2 -33 2 -49v-280c0 -59 18 -84 78 -86v-18c-23 1 -50 2 -76 2c-55 -35 -84 -75 -84 -125
c0 -32 16 -67 87 -72zM194 639c0 -33 -23 -56 -55 -56c-33 0 -58 23 -58 56s25 58 58 58c32 0 55 -25 55 -58z" />
    <glyph glyph-name="itilde" unicode="&#x129;" horiz-adv-x="288" 
d="M294 677c-13 -42 -33 -97 -90 -97c-23 0 -49 9 -70 19c-24 10 -46 19 -62 19c-27 0 -49 -19 -63 -49l-16 5c11 48 41 106 92 106c27 0 45 -10 70 -20c20 -8 40 -20 61 -20c30 0 48 14 64 43zM271 -1c-39 2 -83 3 -122 3c-38 0 -67 0 -105 -3v18c53 3 67 29 67 93v195
c0 95 -15 127 -78 127v10c31 29 65 46 98 46c26 0 54 -14 60 -57c2 -11 2 -32 2 -48v-280c0 -59 18 -84 78 -86v-18z" />
    <glyph glyph-name="j" unicode="j" horiz-adv-x="274" 
d="M4 -200v7c73 31 101 51 101 223v275c0 95 -14 127 -77 127v10c32 29 65 46 98 46c37 0 57 -26 61 -67c2 -16 2 -35 2 -54v-360c0 -38 -3 -100 -17 -129c-32 -64 -95 -82 -143 -82c-9 0 -18 1 -25 4zM189 639c0 -33 -23 -56 -55 -56c-33 0 -58 23 -58 56s25 58 58 58
c32 0 55 -25 55 -58z" />
    <glyph glyph-name="jcircumflex" unicode="&#x135;" horiz-adv-x="274" 
d="M4 -200v7c73 31 101 51 101 223v275c0 95 -14 127 -77 127v10c32 29 65 46 98 46c37 0 58 -26 61 -67c2 -16 2 -35 2 -54v-360c0 -38 -3 -100 -17 -129c-33 -63 -95 -82 -143 -82c-9 0 -18 1 -25 4zM275 561l-15 -16c-42 27 -93 64 -127 87c-41 -29 -89 -63 -127 -87
l-15 16c30 31 91 100 137 160h9c42 -52 95 -111 138 -160z" />
    <glyph glyph-name="k" unicode="k" horiz-adv-x="547" 
d="M255 -1c-39 2 -82 3 -120 3s-69 0 -106 -3v18c52 3 67 28 67 90v485c0 71 -9 97 -73 98v11c30 26 70 48 104 48c38 0 51 -19 51 -102v-546c0 -54 14 -82 77 -84v-18zM543 51c-27 -42 -66 -60 -93 -60c-33 0 -63 11 -109 66c-58 71 -114 163 -146 193v9c11 3 24 9 36 17
c30 20 92 73 117 101c25 27 31 49 31 60c0 12 -5 19 -12 25v8c12 8 38 17 56 17c37 0 47 -16 47 -38c0 -16 -16 -43 -63 -84c-39 -34 -96 -79 -123 -98c32 -45 68 -96 123 -158c39 -43 68 -56 91 -56c11 0 29 2 41 5z" />
    <glyph glyph-name="kcommaaccent" unicode="&#x137;" horiz-adv-x="547" 
d="M255 -1c-39 2 -82 3 -120 3s-69 0 -106 -3v18c52 3 67 28 67 90v485c0 71 -9 97 -73 98v11c30 26 70 48 104 48c38 0 51 -19 51 -102v-546c0 -54 14 -82 77 -84v-18zM543 51c-27 -42 -66 -60 -93 -60c-33 0 -63 11 -109 66c-58 71 -114 163 -146 193v9c11 3 24 9 36 17
c30 20 92 73 117 101c25 27 31 49 31 60c0 12 -5 19 -12 25v8c12 8 38 17 56 17c37 0 47 -16 47 -38c0 -16 -16 -43 -63 -84c-39 -34 -96 -79 -123 -98c32 -45 68 -96 123 -158c39 -43 68 -56 91 -56c11 0 29 2 41 5zM336 -109c0 -58 -43 -109 -112 -142l-10 17
c41 27 60 46 60 75c0 10 -6 19 -17 27c-15 11 -22 24 -22 42c0 23 19 43 47 43c34 0 54 -22 54 -62z" />
    <glyph glyph-name="kgreenlandic" unicode="&#x138;" horiz-adv-x="547" 
d="M270 -1c-39 2 -82 3 -120 3c-39 0 -69 0 -106 -3v18c52 3 66 28 66 90v224c0 71 -8 97 -72 98v11c30 26 70 48 104 48c38 0 51 -19 51 -102v-285c0 -54 14 -82 77 -84v-18zM557 53c-26 -42 -66 -60 -92 -60c-33 0 -64 11 -109 66c-58 71 -114 156 -146 187v10
c11 3 24 10 36 18c30 22 91 76 115 104c26 28 33 48 33 59c0 12 -5 19 -13 25l1 8c12 8 38 17 56 17c37 0 47 -16 47 -38c0 -16 -18 -44 -64 -85c-38 -35 -95 -82 -122 -102c33 -45 68 -89 123 -151c39 -43 68 -56 91 -56c11 0 26 1 39 4z" />
    <glyph glyph-name="l" unicode="l" horiz-adv-x="277" 
d="M262 -1c-39 2 -82 3 -119 3c-39 0 -70 0 -107 -3v18c52 3 67 28 67 90v486c0 71 -11 95 -75 95v11c30 26 73 50 107 50c37 0 50 -18 50 -102v-546c0 -54 15 -82 77 -84v-18z" />
    <glyph glyph-name="lacute" unicode="&#x13a;" horiz-adv-x="277" 
d="M262 -1c-39 2 -82 3 -119 3c-39 0 -70 0 -107 -3v18c52 3 67 28 67 90v486c0 71 -11 95 -75 95v11c30 26 73 50 107 50c37 0 50 -18 50 -102v-546c0 -54 15 -82 77 -84v-18zM70 772l-9 14c54 47 116 107 160 162l62 -59c-50 -38 -158 -96 -213 -117z" />
    <glyph glyph-name="lcaron" unicode="&#x13e;" horiz-adv-x="277" 
d="M262 -1c-39 2 -82 3 -119 3c-39 0 -70 0 -107 -3v18c52 3 67 28 67 90v486c0 71 -11 95 -75 95v11c30 26 73 50 107 50c37 0 50 -18 50 -102v-546c0 -54 15 -82 77 -84v-18zM347 690c0 -59 -44 -110 -113 -144l-11 17c41 27 60 47 60 76c0 11 -5 20 -16 28
c-15 11 -23 24 -23 42c0 23 20 44 48 44c34 0 55 -22 55 -63z" />
    <glyph glyph-name="lcommaaccent" unicode="&#x13c;" horiz-adv-x="277" 
d="M262 -1c-39 2 -82 3 -119 3c-39 0 -70 0 -107 -3v18c52 3 67 28 67 90v486c0 71 -11 95 -75 95v11c30 26 73 50 107 50c37 0 50 -18 50 -102v-546c0 -54 15 -82 77 -84v-18zM196 -109c0 -58 -43 -109 -112 -142l-10 17c41 27 60 46 60 75c0 10 -6 19 -17 27
c-15 11 -22 24 -22 42c0 23 19 43 47 43c34 0 54 -22 54 -62z" />
    <glyph glyph-name="ldot" unicode="&#x140;" horiz-adv-x="342" 
d="M262 -1c-39 2 -82 3 -119 3c-39 0 -70 0 -107 -3v18c52 3 67 28 67 90v486c0 71 -11 95 -75 95v11c30 26 73 50 107 50c37 0 50 -18 50 -102v-546c0 -54 15 -82 77 -84v-18zM372 311c0 -34 -25 -58 -57 -58c-34 0 -58 25 -58 59c0 33 25 59 58 59c32 0 57 -25 57 -60z
" />
    <glyph glyph-name="less" unicode="&#x3c;" horiz-adv-x="605" 
d="M486 66l-390 190v65l390 192v-68l-326 -155l326 -153v-71z" />
    <glyph glyph-name="lessequal" unicode="&#x2264;" horiz-adv-x="605" 
d="M494 162l-389 182v63l389 186v-69l-324 -148l324 -144v-70zM495 45h-389v60h389v-60z" />
    <glyph glyph-name="logicalnot" unicode="&#xac;" horiz-adv-x="605" 
d="M517 41h-62v193h-388v61h450v-254z" />
    <glyph glyph-name="longs" unicode="&#x17f;" horiz-adv-x="291" 
d="M275 -1c-39 2 -88 3 -126 3c-39 0 -71 0 -108 -3v18c50 3 65 26 65 90v328h-72v25c57 11 69 37 78 115c15 134 105 175 175 175c88 0 111 -34 111 -66c0 -22 -19 -45 -65 -51l-6 4c0 63 -26 73 -54 73c-21 0 -51 -10 -69 -49c-10 -23 -15 -67 -15 -111v-442
c0 -71 25 -89 86 -91v-18z" />
    <glyph glyph-name="lozenge" unicode="&#x25ca;" horiz-adv-x="605" 
d="M335 0h-64l-144 289l146 290h64l141 -290zM411 289l-106 227l-110 -226l108 -228z" />
    <glyph glyph-name="lslash" unicode="&#x142;" horiz-adv-x="277" 
d="M262 -1c-39 2 -82 3 -119 3c-39 0 -70 0 -107 -3v18c52 3 67 28 67 90v173l-73 -60v52l73 60v261c0 71 -11 95 -75 95v11c30 26 73 50 107 50c37 0 50 -18 50 -102v-252l71 59v-53l-71 -58v-242c0 -54 15 -82 77 -84v-18z" />
    <glyph glyph-name="m" unicode="m" horiz-adv-x="873" 
d="M265 -1c-40 2 -77 3 -116 3c-38 0 -71 0 -108 -3v18c55 3 69 27 69 90v198c0 96 -15 127 -78 127v10c26 24 62 46 92 46c29 0 63 -10 65 -85c30 42 89 88 172 88c58 0 105 -26 119 -87c29 42 89 87 170 87c53 0 93 -19 112 -61c9 -19 15 -52 15 -96v-183
c0 -31 2 -59 7 -76c7 -24 31 -42 76 -42v-10c-20 -17 -52 -32 -77 -32c-55 0 -73 27 -83 53c-5 19 -6 43 -6 103v159c0 36 -5 66 -12 83c-12 28 -38 39 -68 39c-52 0 -93 -16 -130 -51c1 -12 2 -28 2 -43v-233c0 -53 16 -82 74 -84v-18c-39 2 -79 3 -117 3s-69 0 -106 -3v18
c52 3 66 26 66 90v199c0 36 -3 66 -10 83c-11 28 -40 39 -69 39c-52 0 -94 -16 -132 -50v-277c0 -53 17 -82 73 -84v-18z" />
    <glyph glyph-name="macron" unicode="&#xaf;" horiz-adv-x="440" 
d="M351 582h-262v60h262v-60z" />
    <glyph glyph-name="macron.cap" horiz-adv-x="440" 
d="M359 734h-278v60h278v-60z" />
    <glyph glyph-name="minus" unicode="&#x2212;" horiz-adv-x="605" 
d="M527 265h-449v62h449v-62z" />
    <glyph glyph-name="mu" unicode="&#xb5;" horiz-adv-x="585" 
d="M183 -209h-81v520c0 25 0 52 -2 66c-5 38 -22 54 -71 55v10c20 20 61 46 104 46c36 0 48 -25 50 -51c1 -19 1 -45 1 -70v-190c0 -41 5 -69 14 -86c13 -24 43 -41 80 -41c40 0 89 9 125 46v223c0 25 -1 45 -3 61c-4 36 -26 52 -72 52v9c21 22 67 47 105 47
c33 0 49 -20 52 -53c1 -19 1 -40 1 -95v-208c0 -70 19 -97 82 -98v-10c-18 -19 -49 -32 -78 -32c-44 0 -74 25 -81 74c-27 -48 -75 -79 -140 -79c-34 0 -70 12 -89 36c2 -62 3 -144 3 -232z" />
    <glyph glyph-name="multiply" unicode="&#xd7;" horiz-adv-x="605" 
d="M484 160l-42 -44l-140 138l-138 -138l-42 41l139 139l-140 137l43 44l139 -137l138 138l42 -42l-139 -138z" />
    <glyph glyph-name="n" unicode="n" horiz-adv-x="588" 
d="M267 -1c-40 2 -79 3 -118 3c-38 0 -71 0 -108 -3v18c55 3 69 27 69 90v198c0 96 -15 127 -78 127v10c26 24 62 46 92 46c29 0 63 -10 65 -85c28 42 90 88 177 88c51 0 90 -20 110 -61c9 -19 16 -52 16 -96v-183c0 -31 2 -59 7 -76c7 -24 32 -42 76 -42v-10
c-20 -17 -51 -32 -76 -32c-55 0 -74 27 -82 53c-6 19 -7 43 -7 103v159c0 36 -5 65 -13 82c-12 27 -41 40 -70 40c-52 0 -97 -15 -135 -50v-277c0 -53 16 -82 75 -84v-18z" />
    <glyph glyph-name="nacute" unicode="&#x144;" horiz-adv-x="588" 
d="M267 -1c-40 2 -79 3 -118 3c-38 0 -71 0 -108 -3v18c55 3 69 27 69 90v198c0 96 -15 127 -78 127v10c26 24 62 46 92 46c29 0 63 -10 65 -85c28 42 90 88 177 88c51 0 90 -20 110 -61c9 -19 16 -52 16 -96v-183c0 -31 2 -59 7 -76c7 -24 32 -42 76 -42v-10
c-20 -17 -51 -32 -76 -32c-55 0 -74 27 -82 53c-6 19 -7 43 -7 103v159c0 36 -5 65 -13 82c-12 27 -41 40 -70 40c-52 0 -97 -15 -135 -50v-277c0 -53 16 -82 75 -84v-18zM220 532l-12 11c43 58 89 131 121 195l73 -44c-40 -49 -133 -129 -182 -162z" />
    <glyph glyph-name="napostrophe" unicode="&#x149;" horiz-adv-x="588" 
d="M267 -1c-40 2 -79 3 -118 3c-38 0 -71 0 -108 -3v18c55 3 69 27 69 90v198c0 96 -15 127 -78 127v10c26 24 62 46 92 46c29 0 63 -10 65 -85c28 42 90 88 177 88c51 0 90 -20 110 -61c9 -19 16 -52 16 -96v-183c0 -31 2 -59 7 -76c7 -24 32 -42 76 -42v-10
c-20 -17 -51 -32 -76 -32c-55 0 -74 27 -82 53c-6 19 -7 43 -7 103v159c0 36 -5 65 -13 82c-12 27 -41 40 -70 40c-52 0 -97 -15 -135 -50v-277c0 -53 16 -82 75 -84v-18zM179 668c0 -59 -44 -110 -113 -144l-11 17c41 27 60 47 60 76c0 11 -5 20 -16 28
c-15 11 -23 24 -23 42c0 23 20 44 48 44c34 0 55 -22 55 -63z" />
    <glyph glyph-name="ncaron" unicode="&#x148;" horiz-adv-x="588" 
d="M267 -1c-40 2 -79 3 -118 3c-38 0 -71 0 -108 -3v18c55 3 69 27 69 90v198c0 96 -15 127 -78 127v10c26 24 62 46 92 46c29 0 63 -10 65 -85c28 42 90 88 177 88c51 0 90 -20 110 -61c9 -19 16 -52 16 -96v-183c0 -31 2 -59 7 -76c7 -24 32 -42 76 -42v-10
c-20 -17 -51 -32 -76 -32c-55 0 -74 27 -82 53c-6 19 -7 43 -7 103v159c0 36 -5 65 -13 82c-12 27 -41 40 -70 40c-52 0 -97 -15 -135 -50v-277c0 -53 16 -82 75 -84v-18zM143 710l13 13c42 -27 93 -64 127 -87c41 29 89 63 126 87l12 -13c-29 -34 -88 -103 -133 -163h-10
c-42 52 -95 116 -135 163z" />
    <glyph glyph-name="ncommaaccent" unicode="&#x146;" horiz-adv-x="588" 
d="M267 -1c-40 2 -79 3 -118 3c-38 0 -71 0 -108 -3v18c55 3 69 27 69 90v198c0 96 -15 127 -78 127v10c26 24 62 46 92 46c29 0 63 -10 65 -85c28 42 90 88 177 88c51 0 90 -20 110 -61c9 -19 16 -52 16 -96v-183c0 -31 2 -59 7 -76c7 -24 32 -42 76 -42v-10
c-20 -17 -51 -32 -76 -32c-55 0 -74 27 -82 53c-6 19 -7 43 -7 103v159c0 36 -5 65 -13 82c-12 27 -41 40 -70 40c-52 0 -97 -15 -135 -50v-277c0 -53 16 -82 75 -84v-18zM368 -109c0 -58 -43 -109 -112 -142l-10 17c41 27 60 46 60 75c0 10 -6 19 -17 27
c-15 11 -22 24 -22 42c0 23 19 43 47 43c34 0 54 -22 54 -62z" />
    <glyph glyph-name="nine" unicode="9" horiz-adv-x="547" 
d="M126 148c0 -68 25 -122 103 -122c111 0 159 117 166 299c-25 -36 -87 -73 -154 -73c-118 0 -194 65 -194 184c0 121 82 212 215 212c178 0 225 -134 225 -296c0 -156 -51 -366 -263 -366c-122 0 -171 55 -171 105c0 29 27 53 67 60zM396 358c0 9 1 23 1 33
c0 112 -26 217 -138 217c-69 0 -123 -45 -123 -172c0 -100 66 -133 128 -133c49 0 97 21 132 55z" />
    <glyph glyph-name="nine.denominator" 
d="M92 95c0 -43 16 -73 63 -73c71 0 97 57 103 167c-16 -18 -53 -40 -98 -40c-81 0 -123 46 -123 116c0 74 52 131 138 131c116 0 148 -86 148 -181c0 -89 -27 -223 -170 -223c-72 0 -112 31 -112 68c0 20 14 34 47 39zM258 213c1 9 1 20 1 26c0 65 -20 127 -85 127
c-39 0 -74 -23 -74 -98c0 -64 38 -83 77 -83c28 0 59 10 81 28z" />
    <glyph glyph-name="nine.fitted" horiz-adv-x="558" 
d="M127 148c0 -68 25 -122 103 -122c111 0 159 117 166 299c-25 -36 -87 -73 -155 -73c-118 0 -193 65 -193 184c0 121 81 212 215 212c178 0 225 -134 225 -296c0 -156 -51 -366 -263 -366c-122 0 -172 55 -172 105c0 29 27 53 68 60zM397 358c0 9 1 23 1 33
c0 112 -27 217 -138 217c-70 0 -124 -45 -124 -172c0 -100 66 -133 129 -133c48 0 96 21 132 55z" />
    <glyph glyph-name="nine.inferior" unicode="&#x2089;" 
d="M92 -65c0 -43 16 -73 63 -73c71 0 97 57 103 167c-16 -18 -53 -40 -98 -40c-81 0 -123 46 -123 116c0 74 52 131 138 131c116 0 148 -86 148 -181c0 -89 -27 -223 -170 -223c-72 0 -112 31 -112 68c0 20 14 34 47 39zM258 53c1 9 1 20 1 26c0 65 -20 127 -85 127
c-39 0 -74 -23 -74 -98c0 -64 38 -83 77 -83c28 0 59 10 81 28z" />
    <glyph glyph-name="nine.numerator" 
d="M92 341c0 -43 16 -73 63 -73c71 0 97 57 103 167c-16 -18 -53 -40 -98 -40c-81 0 -123 46 -123 116c0 74 52 131 138 131c116 0 148 -86 148 -181c0 -89 -27 -223 -170 -223c-72 0 -112 31 -112 68c0 20 14 34 47 39zM258 459c1 9 1 20 1 26c0 65 -20 127 -85 127
c-39 0 -74 -23 -74 -98c0 -64 38 -83 77 -83c28 0 59 10 81 28z" />
    <glyph glyph-name="nine.oldstyle" horiz-adv-x="531" 
d="M129 30c0 -68 25 -123 101 -123c107 0 153 118 160 300c-24 -36 -84 -72 -150 -72c-114 0 -187 61 -187 180c0 121 79 208 208 208c172 0 218 -127 218 -289c0 -156 -50 -366 -255 -366c-117 0 -166 55 -166 105c0 29 27 52 66 60zM391 240c0 9 1 23 1 33
c0 112 -26 211 -134 211c-67 0 -119 -42 -119 -169c0 -99 64 -130 124 -130c47 0 93 21 128 55z" />
    <glyph glyph-name="nine.superior" unicode="&#x2079;" 
d="M92 555c0 -43 16 -73 63 -73c71 0 97 57 103 167c-16 -18 -53 -40 -98 -40c-81 0 -123 46 -123 116c0 74 52 131 138 131c116 0 148 -86 148 -181c0 -89 -27 -223 -170 -223c-72 0 -112 31 -112 68c0 20 14 34 47 39zM258 673c1 9 1 20 1 26c0 65 -20 127 -85 127
c-39 0 -74 -23 -74 -98c0 -64 38 -83 77 -83c28 0 59 10 81 28z" />
    <glyph glyph-name="nine.taboldstyle" horiz-adv-x="528" 
d="M129 30c0 -68 25 -123 101 -123c107 0 153 118 160 300c-24 -36 -84 -72 -150 -72c-114 0 -187 61 -187 180c0 121 79 208 208 208c172 0 218 -127 218 -289c0 -156 -50 -366 -255 -366c-117 0 -166 55 -166 105c0 29 27 52 66 60zM391 240c0 9 1 23 1 33
c0 112 -26 211 -134 211c-67 0 -119 -42 -119 -169c0 -99 64 -130 124 -130c47 0 93 21 128 55z" />
    <glyph glyph-name="notequal" unicode="&#x2260;" horiz-adv-x="605" 
d="M449 537l-65 -132h143v-60h-172l-50 -102h222v-62h-252l-67 -136h-54l67 136h-143v62h174l49 102h-223v60h253l65 132h53z" />
    <glyph glyph-name="ntilde" unicode="&#xf1;" horiz-adv-x="588" 
d="M267 -1c-40 2 -79 3 -118 3c-38 0 -71 0 -108 -3v18c55 3 69 27 69 90v198c0 96 -15 127 -78 127v10c26 24 62 46 92 46c29 0 63 -10 65 -85c28 42 90 88 177 88c51 0 90 -20 110 -61c9 -19 16 -52 16 -96v-183c0 -31 2 -59 7 -76c7 -24 32 -42 76 -42v-10
c-20 -17 -51 -32 -76 -32c-55 0 -74 27 -82 53c-6 19 -7 43 -7 103v159c0 36 -5 65 -13 82c-12 27 -41 40 -70 40c-52 0 -97 -15 -135 -50v-277c0 -53 16 -82 75 -84v-18zM440 677c-13 -42 -33 -97 -90 -97c-23 0 -49 9 -70 19c-24 10 -46 19 -62 19c-27 0 -49 -19 -63 -49
l-16 5c11 48 41 106 92 106c27 0 45 -10 70 -20c20 -8 40 -20 61 -20c30 0 48 14 64 43z" />
    <glyph glyph-name="numbersign" unicode="#" horiz-adv-x="574" 
d="M147 -26h-44l47 223h-110v70h125l27 126h-107v70h122l42 199h45l-43 -199h125l42 199h44l-43 -199h115v-70h-130l-27 -126h112v-70h-127l-47 -223h-43l47 223h-125zM236 393l-27 -126h125l27 126h-125z" />
    <glyph glyph-name="numbersign.oldstyle" horiz-adv-x="567" 
d="M152 -26h-44l44 208h-111v69h125l23 108h-111v70h126l39 185h45l-39 -185h124l39 185h44l-39 -185h109v-70h-124l-23 -108h110v-69h-124l-44 -208h-44l44 208h-125zM234 359l-23 -108h124l23 108h-124z" />
    <glyph glyph-name="o" unicode="o" horiz-adv-x="536" 
d="M491 245c0 -153 -80 -258 -225 -258c-147 0 -221 96 -221 255c0 157 89 252 226 252c159 0 220 -102 220 -249zM400 245c0 157 -47 209 -131 209c-89 0 -132 -73 -132 -200c0 -155 37 -228 132 -228c94 0 131 84 131 219z" />
    <glyph glyph-name="oacute" unicode="&#xf3;" horiz-adv-x="536" 
d="M491 245c0 -153 -80 -258 -225 -258c-147 0 -221 96 -221 255c0 157 89 252 226 252c159 0 220 -102 220 -249zM400 245c0 157 -47 209 -131 209c-89 0 -132 -73 -132 -200c0 -155 37 -228 132 -228c94 0 131 84 131 219zM203 532l-12 11c43 58 89 131 121 195l73 -44
c-40 -49 -133 -129 -182 -162z" />
    <glyph glyph-name="obreve" unicode="&#x14f;" horiz-adv-x="536" 
d="M491 245c0 -153 -80 -258 -225 -258c-147 0 -221 96 -221 255c0 157 89 252 226 252c159 0 220 -102 220 -249zM400 245c0 157 -47 209 -131 209c-89 0 -132 -73 -132 -200c0 -155 37 -228 132 -228c94 0 131 84 131 219zM408 701c-9 -62 -30 -146 -141 -146
s-134 86 -135 148l17 3c15 -50 33 -86 117 -86c82 0 105 34 126 85z" />
    <glyph glyph-name="ocircumflex" unicode="&#xf4;" horiz-adv-x="536" 
d="M491 245c0 -153 -80 -258 -225 -258c-147 0 -221 96 -221 255c0 157 89 252 226 252c159 0 220 -102 220 -249zM400 245c0 157 -47 209 -131 209c-89 0 -132 -73 -132 -200c0 -155 37 -228 132 -228c94 0 131 84 131 219zM406 557l-12 -12c-42 27 -93 64 -127 87
c-41 -30 -89 -62 -126 -87l-11 12c29 32 88 104 132 164h10c41 -52 91 -114 134 -164z" />
    <glyph glyph-name="odieresis" unicode="&#xf6;" horiz-adv-x="536" 
d="M491 245c0 -153 -80 -258 -225 -258c-147 0 -221 96 -221 255c0 157 89 252 226 252c159 0 220 -102 220 -249zM400 245c0 157 -47 209 -131 209c-89 0 -132 -73 -132 -200c0 -155 37 -228 132 -228c94 0 131 84 131 219zM229 621c0 -27 -20 -48 -47 -48s-46 21 -46 48
s19 48 46 48s47 -21 47 -48zM402 621c0 -27 -20 -48 -47 -48s-46 21 -46 48s19 48 46 48s47 -21 47 -48z" />
    <glyph glyph-name="oe" unicode="&#x153;" horiz-adv-x="850" 
d="M443 86c-35 -64 -96 -99 -177 -99c-140 0 -221 97 -221 256c0 157 86 251 225 251c92 0 148 -36 178 -94c36 60 98 94 172 94c126 0 192 -69 192 -214c0 -22 -18 -25 -36 -25h-288c2 -152 73 -208 163 -208c59 0 112 22 146 62h6c4 -4 8 -12 8 -20
c0 -31 -70 -102 -185 -102c-88 0 -149 35 -183 99zM400 245c0 156 -49 209 -132 209c-89 0 -131 -72 -131 -198c0 -153 43 -230 135 -230c86 0 128 84 128 219zM489 291c98 1 179 4 213 4c19 1 23 11 23 20c0 105 -42 139 -109 139c-44 0 -119 -25 -127 -163z" />
    <glyph glyph-name="ogonek" unicode="&#x2db;" horiz-adv-x="300" 
d="M220 -218c-77 0 -150 23 -150 89c0 55 41 104 141 149l20 -11c-63 -37 -96 -80 -96 -133c0 -32 16 -67 87 -72z" />
    <glyph glyph-name="ogonek.cap" horiz-adv-x="300" 
d="M221 -231c-79 0 -154 25 -154 94c0 58 42 109 145 157l20 -12c-64 -38 -98 -84 -98 -139c0 -34 16 -72 90 -77z" />
    <glyph glyph-name="ograve" unicode="&#xf2;" horiz-adv-x="536" 
d="M491 245c0 -153 -80 -258 -225 -258c-147 0 -221 96 -221 255c0 157 89 252 226 252c159 0 220 -102 220 -249zM400 245c0 157 -47 209 -131 209c-89 0 -132 -73 -132 -200c0 -155 37 -228 132 -228c94 0 131 84 131 219zM329 544l-13 -12c-49 33 -141 113 -181 162
l72 44c32 -64 79 -137 122 -194z" />
    <glyph glyph-name="ohungarumlaut" unicode="&#x151;" horiz-adv-x="536" 
d="M491 245c0 -153 -80 -258 -225 -258c-147 0 -221 96 -221 255c0 157 89 252 226 252c159 0 220 -102 220 -249zM400 245c0 157 -47 209 -131 209c-89 0 -132 -73 -132 -200c0 -155 37 -228 132 -228c94 0 131 84 131 219zM175 531l-11 10c33 49 82 139 106 191l64 -39
c-41 -53 -111 -124 -159 -162zM314 531l-11 10c33 51 82 139 105 191l64 -39c-41 -53 -111 -124 -158 -162z" />
    <glyph glyph-name="omacron" unicode="&#x14d;" horiz-adv-x="536" 
d="M491 245c0 -153 -80 -258 -225 -258c-147 0 -221 96 -221 255c0 157 89 252 226 252c159 0 220 -102 220 -249zM400 245c0 157 -47 209 -131 209c-89 0 -132 -73 -132 -200c0 -155 37 -228 132 -228c94 0 131 84 131 219zM400 582h-262v60h262v-60z" />
    <glyph glyph-name="one" unicode="1" horiz-adv-x="547" 
d="M422 -1c-32 1 -103 2 -139 2c-37 0 -115 -1 -153 -2v18c89 1 111 34 111 92v454c-41 -18 -91 -36 -131 -48l-9 23c54 28 107 57 163 99h63v-528c0 -57 12 -91 95 -92v-18z" />
    <glyph glyph-name="one.denominator" 
d="M275 -1c-20 1 -67 2 -90 2c-24 0 -63 -1 -88 -2v18c51 1 61 21 61 57v264c-26 -13 -45 -21 -72 -30l-8 19c35 18 59 35 95 62h47v-315c0 -36 12 -56 55 -57v-18z" />
    <glyph glyph-name="one.fitted" horiz-adv-x="409" 
d="M340 -1c-32 1 -86 2 -122 2c-37 0 -97 -1 -135 -2v18c76 1 93 34 93 92v454c-40 -21 -69 -33 -112 -48l-10 23c54 29 90 56 145 99h63v-528c0 -57 13 -91 78 -92v-18z" />
    <glyph glyph-name="one.inferior" unicode="&#x2081;" 
d="M275 -161c-20 1 -67 2 -90 2c-24 0 -63 -1 -88 -2v18c51 1 61 21 61 57v264c-26 -13 -45 -21 -72 -30l-8 19c35 18 59 35 95 62h47v-315c0 -36 12 -56 55 -57v-18z" />
    <glyph glyph-name="one.numerator" 
d="M275 245c-20 1 -67 2 -90 2c-24 0 -63 -1 -88 -2v18c51 1 61 21 61 57v264c-26 -13 -45 -21 -72 -30l-8 19c35 18 59 35 95 62h47v-315c0 -36 12 -56 55 -57v-18z" />
    <glyph glyph-name="one.oldstyle" horiz-adv-x="401" 
d="M347 -1c-32 1 -92 2 -128 2c-37 0 -101 -1 -139 -2v18c76 1 100 32 100 92v324c-38 -16 -76 -30 -118 -44l-10 23c50 28 96 55 151 94h59v-397c0 -59 19 -91 85 -92v-18z" />
    <glyph glyph-name="one.taboldstyle" horiz-adv-x="528" 
d="M402 -1c-32 1 -94 2 -130 2c-37 0 -104 -1 -142 -2v18c79 1 102 32 102 92v324c-37 -16 -78 -31 -120 -44l-11 23c51 28 99 55 154 94h60v-397c0 -59 19 -91 87 -92v-18z" />
    <glyph glyph-name="oneeighth" unicode="&#x215b;" horiz-adv-x="848" 
d="M626 658l-377 -677h-50l377 677h50zM273 245c-20 1 -67 2 -90 2c-24 0 -63 -1 -88 -2v18c51 1 61 21 61 57v264c-26 -13 -45 -21 -72 -30l-8 19c35 18 59 35 95 62h47v-315c0 -36 12 -56 55 -57v-18zM696 214c53 -22 92 -52 92 -108c0 -69 -59 -114 -143 -114
c-94 0 -135 47 -135 103c0 48 31 77 83 102c-38 21 -67 46 -67 94c0 59 51 105 126 105c78 0 118 -40 118 -92c0 -45 -35 -71 -74 -90zM614 186c-36 -26 -55 -52 -55 -88c0 -49 36 -76 87 -76c47 0 83 26 83 68c0 43 -31 65 -115 96zM675 224c29 19 49 44 49 78
c0 40 -29 65 -72 65s-69 -27 -69 -62c0 -34 18 -55 92 -81z" />
    <glyph glyph-name="onefifth" horiz-adv-x="848" 
d="M632 658l-377 -677h-50l377 677h50zM282 245c-20 1 -67 2 -90 2c-24 0 -63 -1 -88 -2v18c51 1 61 21 61 57v264c-26 -13 -45 -21 -72 -30l-8 19c35 18 59 35 95 62h47v-315c0 -36 12 -56 55 -57v-18zM579 242c20 7 50 10 68 10c90 0 140 -49 140 -126
c0 -75 -63 -134 -157 -134c-82 0 -121 34 -121 67c0 23 16 39 42 44l5 -1c0 -44 26 -81 77 -81c70 0 91 41 91 100c0 56 -38 88 -96 88c-33 0 -62 -6 -86 -14l19 191h205v-53h-179z" />
    <glyph glyph-name="onehalf" unicode="&#xbd;" horiz-adv-x="848" 
d="M632 658l-377 -677h-50l377 677h50zM281 245c-20 1 -67 2 -90 2c-24 0 -63 -1 -88 -2v18c51 1 61 21 61 57v264c-26 -13 -45 -21 -72 -30l-8 19c35 18 59 35 95 62h47v-315c0 -36 12 -56 55 -57v-18zM791 -1c-19 1 -96 1 -140 1s-102 0 -134 -1v38
c175 128 208 184 208 249c0 56 -25 80 -74 80c-57 0 -73 -45 -73 -91l-4 -2c-26 6 -44 20 -44 46c0 33 42 77 124 77c91 0 136 -45 136 -109c0 -80 -67 -142 -206 -235c38 0 99 1 207 1v-54z" />
    <glyph glyph-name="onequarter" unicode="&#xbc;" horiz-adv-x="848" 
d="M627 658l-377 -677h-50l377 677h50zM271 245c-20 1 -67 2 -90 2c-24 0 -63 -1 -88 -2v18c51 1 61 21 61 57v264c-26 -13 -45 -21 -72 -30l-8 19c35 18 59 35 95 62h47v-315c0 -36 12 -56 55 -57v-18zM769 -1c-21 1 -57 2 -81 2c-23 0 -62 -1 -87 -2v18c50 1 56 18 56 53
v26h-184v34c60 93 94 151 112 190c11 24 13 36 13 43c0 11 -3 18 -6 22v4c9 11 22 14 32 14c20 0 28 -13 28 -29c0 -14 -8 -35 -29 -72s-54 -84 -107 -160h141v143h60v-143h54v-46h-54v-26c0 -34 9 -52 52 -53v-18z" />
    <glyph glyph-name="onesuperior" unicode="&#xb9;" 
d="M275 459c-20 1 -67 2 -90 2c-24 0 -63 -1 -88 -2v18c51 1 61 21 61 57v264c-26 -13 -45 -21 -72 -30l-8 19c35 18 59 35 95 62h47v-315c0 -36 12 -56 55 -57v-18z" />
    <glyph glyph-name="onethird" unicode="&#x2153;" horiz-adv-x="848" 
d="M624 658l-377 -677h-50l377 677h50zM274 245c-20 1 -67 2 -90 2c-24 0 -63 -1 -88 -2v18c51 1 61 21 61 57v264c-26 -13 -45 -21 -72 -30l-8 19c35 18 59 35 95 62h47v-315c0 -36 12 -56 55 -57v-18zM684 206c65 -10 103 -40 103 -92c0 -77 -62 -122 -158 -122
c-77 0 -124 32 -124 68c0 24 17 40 43 46l5 -2c0 -49 30 -83 80 -83c67 0 92 34 92 92s-40 76 -102 76c-10 0 -21 0 -28 -1v29c6 -1 14 -1 28 -1c55 0 85 23 85 84c0 32 -14 66 -74 66c-47 0 -68 -32 -68 -80l-5 -2c-27 5 -41 17 -41 40c0 32 43 72 120 72
c86 0 129 -38 129 -95c0 -49 -33 -83 -85 -95z" />
    <glyph glyph-name="ordfeminine" unicode="&#xaa;" horiz-adv-x="394" 
d="M264 362c-16 -27 -55 -58 -109 -58c-74 0 -119 42 -119 100c0 77 65 108 180 108c10 0 32 -2 43 -3c0 9 1 18 1 29c0 25 -3 46 -11 61c-13 23 -39 30 -71 30c-46 0 -79 -22 -98 -54l-15 6c6 36 38 98 137 98c74 0 127 -28 127 -113c0 -27 -2 -95 -2 -152
c0 -56 16 -68 63 -70v-10c-14 -12 -36 -25 -61 -25c-36 0 -56 18 -65 53zM259 388c-1 20 -1 55 -1 89c-6 1 -15 1 -23 1c-84 -1 -126 -16 -126 -68c0 -35 24 -57 67 -57c37 0 67 15 83 35z" />
    <glyph glyph-name="ordmasculine" unicode="&#xba;" horiz-adv-x="405" 
d="M376 494c0 -113 -62 -191 -175 -191c-116 0 -172 71 -172 190c0 116 69 186 176 186c123 0 171 -76 171 -185zM300 495c0 114 -35 151 -97 151c-66 0 -99 -53 -99 -144c0 -114 29 -167 99 -167c69 0 97 62 97 160z" />
    <glyph glyph-name="oslash" unicode="&#xf8;" horiz-adv-x="536" 
d="M491 245c0 -153 -80 -258 -225 -258c-47 0 -86 10 -118 28l-41 -65l-38 22l44 69c-46 44 -68 113 -68 201c0 157 89 252 226 252c45 0 82 -8 112 -23l42 67l39 -24l-44 -69c50 -44 71 -114 71 -200zM400 245c0 60 -7 104 -20 136l-201 -317c21 -26 50 -38 90 -38
c94 0 131 84 131 219zM137 254c0 -61 5 -110 18 -146l198 316c-21 21 -50 30 -84 30c-89 0 -132 -73 -132 -200z" />
    <glyph glyph-name="oslashacute" unicode="&#x1ff;" horiz-adv-x="536" 
d="M227 532l-12 11c43 58 89 131 121 195l73 -44c-40 -49 -133 -129 -182 -162zM491 245c0 -153 -80 -258 -225 -258c-47 0 -86 10 -118 28l-41 -65l-38 22l44 69c-46 44 -68 113 -68 201c0 157 89 252 226 252c45 0 82 -8 112 -23l42 67l39 -24l-44 -69
c50 -44 71 -114 71 -200zM400 245c0 60 -7 104 -20 136l-201 -317c21 -26 50 -38 90 -38c94 0 131 84 131 219zM137 254c0 -61 5 -110 18 -146l198 316c-21 21 -50 30 -84 30c-89 0 -132 -73 -132 -200z" />
    <glyph glyph-name="otilde" unicode="&#xf5;" horiz-adv-x="536" 
d="M491 245c0 -153 -80 -258 -225 -258c-147 0 -221 96 -221 255c0 157 89 252 226 252c159 0 220 -102 220 -249zM400 245c0 157 -47 209 -131 209c-89 0 -132 -73 -132 -200c0 -155 37 -228 132 -228c94 0 131 84 131 219zM421 677c-13 -42 -33 -97 -90 -97
c-23 0 -49 9 -70 19c-24 10 -46 19 -62 19c-27 0 -49 -19 -63 -49l-16 5c11 48 41 106 92 106c27 0 45 -10 70 -20c20 -8 40 -20 61 -20c30 0 48 14 64 43z" />
    <glyph glyph-name="p" unicode="p" horiz-adv-x="570" 
d="M269 -209c-40 2 -88 3 -126 3c-39 0 -73 0 -110 -3v18c55 4 70 27 70 91v406c0 82 -9 126 -78 126v10c17 16 54 46 93 46c40 0 57 -26 63 -75c38 48 94 79 153 79c95 0 191 -56 191 -244c0 -159 -85 -253 -217 -253c-50 0 -90 12 -122 37v-135c0 -63 20 -84 83 -88v-18z
M186 75c31 -24 74 -32 111 -32c72 0 136 55 136 193c0 152 -61 196 -124 196c-40 0 -87 -11 -123 -50v-307z" />
    <glyph glyph-name="paragraph" unicode="&#xb6;" horiz-adv-x="661" 
d="M256 -185v8c37 17 60 43 66 93c3 27 3 88 3 119v201c-45 0 -105 2 -148 17c-82 27 -139 80 -139 198c0 116 59 174 148 200c41 12 91 17 137 17h135v-8c-37 -14 -63 -34 -71 -85c-4 -26 -5 -75 -5 -106v-433c0 -55 0 -118 -12 -148c-18 -46 -57 -71 -114 -73zM325 275
v192c0 90 4 129 38 162c-38 0 -74 -2 -96 -13c-50 -27 -73 -69 -73 -161c0 -80 16 -133 48 -159c17 -14 57 -21 83 -21zM416 -155v8c35 17 56 42 62 93c3 27 6 88 6 119v401c0 55 0 118 12 148c18 45 64 71 121 73v-8c-37 -17 -64 -42 -70 -92c-3 -27 -6 -89 -6 -120v-401
c0 -55 0 -118 -12 -148c-18 -44 -59 -71 -113 -73z" />
    <glyph glyph-name="parenleft" unicode="(" horiz-adv-x="301" 
d="M295 -136l-11 -22c-194 79 -244 277 -244 463c0 173 55 337 242 434l12 -21c-145 -91 -174 -256 -174 -411c0 -171 33 -364 175 -443z" />
    <glyph glyph-name="parenleft.cap" horiz-adv-x="301" 
d="M295 -66l-11 -22c-194 79 -244 247 -244 433c0 173 55 307 242 404l12 -21c-145 -91 -174 -226 -174 -381c0 -171 33 -334 175 -413z" />
    <glyph glyph-name="parenleft.denominator" horiz-adv-x="220" 
d="M219 -73l-9 -18c-123 50 -158 166 -158 283c0 107 38 208 157 267l10 -17c-89 -56 -108 -151 -108 -249c0 -105 20 -210 108 -266z" />
    <glyph glyph-name="parenleft.inferior" unicode="&#x208d;" horiz-adv-x="220" 
d="M219 -233l-9 -18c-123 50 -158 166 -158 283c0 107 38 208 157 267l10 -17c-89 -56 -108 -151 -108 -249c0 -105 20 -210 108 -266z" />
    <glyph glyph-name="parenleft.numerator" horiz-adv-x="220" 
d="M219 173l-9 -18c-123 50 -158 166 -158 283c0 107 38 208 157 267l10 -17c-89 -56 -108 -151 -108 -249c0 -105 20 -210 108 -266z" />
    <glyph glyph-name="parenleft.superior" unicode="&#x207d;" horiz-adv-x="220" 
d="M219 387l-9 -18c-123 50 -158 166 -158 283c0 107 38 208 157 267l10 -17c-89 -56 -108 -151 -108 -249c0 -105 20 -210 108 -266z" />
    <glyph glyph-name="parenright" unicode=")" horiz-adv-x="301" 
d="M6 717l12 22c194 -79 243 -277 243 -463c0 -173 -55 -337 -242 -434l-12 21c146 91 174 257 174 411c0 171 -33 364 -175 443z" />
    <glyph glyph-name="parenright.cap" horiz-adv-x="301" 
d="M6 727l12 22c194 -79 243 -247 243 -433c0 -173 -55 -307 -242 -404l-12 21c146 91 174 227 174 381c0 171 -33 334 -175 413z" />
    <glyph glyph-name="parenright.denominator" horiz-adv-x="220" 
d="M1 441l9 18c123 -50 159 -165 159 -283c0 -107 -39 -208 -158 -267l-10 17c90 56 108 151 108 249c0 105 -20 210 -108 266z" />
    <glyph glyph-name="parenright.inferior" unicode="&#x208e;" horiz-adv-x="220" 
d="M1 281l9 18c123 -50 159 -165 159 -283c0 -107 -39 -208 -158 -267l-10 17c90 56 108 151 108 249c0 105 -20 210 -108 266z" />
    <glyph glyph-name="parenright.numerator" horiz-adv-x="220" 
d="M1 687l9 18c123 -50 159 -165 159 -283c0 -107 -39 -208 -158 -267l-10 17c90 56 108 151 108 249c0 105 -20 210 -108 266z" />
    <glyph glyph-name="parenright.superior" unicode="&#x207e;" horiz-adv-x="220" 
d="M1 901l9 18c123 -50 159 -165 159 -283c0 -107 -39 -208 -158 -267l-10 17c90 56 108 151 108 249c0 105 -20 210 -108 266z" />
    <glyph glyph-name="partialdiff" unicode="&#x2202;" horiz-adv-x="502" 
d="M153 616l-9 31c26 11 67 18 93 18c118 0 218 -64 218 -293c0 -222 -69 -385 -234 -385c-113 0 -184 79 -184 196c0 143 88 234 217 234c49 0 96 -18 116 -42c1 11 1 25 1 36c0 127 -62 219 -142 219c-22 0 -50 -4 -76 -14zM367 317c-17 46 -69 65 -104 65
c-83 0 -141 -81 -141 -206c0 -110 46 -152 103 -152c41 0 81 16 110 99c21 60 30 127 32 194z" />
    <glyph glyph-name="percent" unicode="%" horiz-adv-x="848" 
d="M340 437c0 -119 -52 -199 -155 -199c-111 0 -156 86 -156 203c0 125 62 201 156 201c117 0 155 -95 155 -205zM275 436c0 118 -24 176 -91 176c-62 0 -89 -54 -89 -166c0 -114 21 -179 91 -179c55 0 89 48 89 169zM639 658l-377 -677h-50l377 677h50zM819 191
c0 -119 -53 -199 -155 -199c-112 0 -156 86 -156 203c0 125 62 201 156 201c117 0 155 -95 155 -205zM754 190c0 118 -24 176 -91 176c-62 0 -90 -54 -90 -166c0 -115 22 -179 92 -179c54 0 89 47 89 169z" />
    <glyph glyph-name="percent.oldstyle" horiz-adv-x="831" 
d="M631 632l-379 -660h-49l379 660h49zM336 413c0 -114 -52 -189 -153 -189c-110 0 -154 81 -154 192c0 118 62 189 155 189c115 0 152 -89 152 -192zM271 412c0 110 -23 163 -89 163c-61 0 -88 -48 -88 -154c0 -108 21 -167 90 -167c54 0 87 42 87 158zM802 180
c0 -112 -52 -188 -153 -188c-110 0 -154 81 -154 192c0 118 61 189 154 189c116 0 153 -89 153 -193zM737 180c0 111 -23 162 -89 162c-62 0 -88 -47 -88 -153c0 -108 21 -167 90 -167c53 0 87 42 87 158z" />
    <glyph glyph-name="period" unicode="." horiz-adv-x="251" 
d="M186 49c0 -35 -26 -60 -60 -60c-35 0 -61 26 -61 61c0 33 27 60 61 60s60 -26 60 -61z" />
    <glyph glyph-name="period.denominator" horiz-adv-x="166" 
d="M122 32c0 -23 -18 -39 -38 -39c-24 0 -40 16 -40 39c0 22 19 38 40 38c20 0 38 -16 38 -38z" />
    <glyph glyph-name="period.inferior" horiz-adv-x="166" 
d="M122 -128c0 -23 -18 -39 -38 -39c-24 0 -40 16 -40 39c0 22 19 38 40 38c20 0 38 -16 38 -38z" />
    <glyph glyph-name="period.numerator" horiz-adv-x="166" 
d="M122 278c0 -23 -18 -39 -38 -39c-24 0 -40 16 -40 39c0 22 19 38 40 38c20 0 38 -16 38 -38z" />
    <glyph glyph-name="period.superior" horiz-adv-x="166" 
d="M122 492c0 -23 -18 -39 -38 -39c-24 0 -40 16 -40 39c0 22 19 38 40 38c20 0 38 -16 38 -38z" />
    <glyph glyph-name="periodcentered" unicode="&#xb7;" horiz-adv-x="251" 
d="M186 273c0 -35 -26 -59 -60 -59c-35 0 -61 25 -61 60c0 34 27 61 61 61s60 -26 60 -62z" />
    <glyph glyph-name="periodcentered.cap" horiz-adv-x="251" 
d="M186 343c0 -35 -26 -59 -60 -59c-35 0 -61 25 -61 60c0 34 27 61 61 61s60 -26 60 -62z" />
    <glyph glyph-name="perthousand" unicode="&#x2030;" horiz-adv-x="1224" 
d="M340 437c0 -119 -52 -199 -155 -199c-111 0 -156 86 -156 203c0 125 62 201 156 201c117 0 155 -95 155 -205zM275 436c0 118 -24 176 -91 176c-62 0 -89 -54 -89 -166c0 -114 21 -179 91 -179c55 0 89 48 89 169zM639 658l-377 -677h-50l377 677h50zM819 191
c0 -119 -53 -199 -155 -199c-112 0 -156 86 -156 203c0 125 62 201 156 201c117 0 155 -95 155 -205zM754 190c0 118 -24 176 -91 176c-62 0 -90 -54 -90 -166c0 -115 22 -179 92 -179c54 0 89 47 89 169zM1195 191c0 -119 -53 -199 -155 -199c-112 0 -156 86 -156 203
c0 125 62 201 156 201c117 0 155 -95 155 -205zM1130 190c0 118 -24 176 -91 176c-62 0 -90 -54 -90 -166c0 -115 22 -179 92 -179c54 0 89 47 89 169z" />
    <glyph glyph-name="perthousand.oldstyle" horiz-adv-x="1200" 
d="M631 632l-379 -660h-49l379 660h49zM336 413c0 -114 -52 -189 -153 -189c-110 0 -154 81 -154 192c0 118 62 189 155 189c115 0 152 -89 152 -192zM271 412c0 110 -23 163 -89 163c-61 0 -88 -48 -88 -154c0 -108 21 -167 90 -167c54 0 87 42 87 158zM802 180
c0 -112 -52 -188 -153 -188c-110 0 -154 81 -154 192c0 118 61 189 154 189c116 0 153 -89 153 -193zM737 180c0 111 -23 162 -89 162c-62 0 -88 -47 -88 -153c0 -108 21 -167 90 -167c53 0 87 42 87 158zM1171 180c0 -112 -52 -188 -153 -188c-110 0 -154 81 -154 192
c0 118 61 189 154 189c116 0 153 -89 153 -193zM1107 180c0 111 -24 162 -90 162c-61 0 -88 -47 -88 -153c0 -108 21 -167 90 -167c54 0 88 42 88 158z" />
    <glyph glyph-name="pi" unicode="&#x3c0;" horiz-adv-x="605" 
d="M211 429v-326c0 -57 15 -84 73 -86v-18c-40 2 -73 3 -112 3c-38 0 -75 0 -112 -3v18c56 3 70 26 70 92v319c-29 0 -57 -5 -83 -14l-5 5c14 28 38 66 99 66c55 0 157 -3 226 -3c97 0 174 4 203 14l4 -5c-15 -30 -29 -53 -82 -62v-275c0 -31 5 -65 10 -82
c9 -27 39 -39 84 -39v-9c-16 -16 -47 -33 -76 -33c-57 0 -82 29 -90 56c-6 19 -9 42 -9 104v275c-51 0 -120 3 -200 3z" />
    <glyph glyph-name="plus" unicode="+" horiz-adv-x="588" 
d="M325 61h-60v201h-204v61h204v202h60v-202h203v-61h-203v-201z" />
    <glyph glyph-name="plusminus" unicode="&#xb1;" horiz-adv-x="605" 
d="M334 175h-62v189h-194v60h194v189h62v-189h193v-60h-193v-189zM527 45h-449v60h449v-60z" />
    <glyph glyph-name="product" unicode="&#x220f;" horiz-adv-x="714" 
d="M665 -121c-32 1 -87 2 -124 2s-78 -1 -115 -2v18c67 1 76 36 76 92v634h-289v-634c0 -56 8 -91 75 -92v-18c-32 1 -86 2 -123 2s-82 -1 -116 -2v18c66 1 76 36 76 92v589c0 55 -10 71 -76 73v18c129 -3 193 -3 309 -3c100 0 229 1 307 3v-18c-67 -2 -75 -18 -75 -73v-589
c0 -56 8 -91 75 -92v-18z" />
    <glyph glyph-name="q" unicode="q" horiz-adv-x="561" 
d="M385 101v310c-30 21 -63 31 -106 31c-76 0 -142 -48 -142 -211c0 -134 70 -180 135 -180c47 0 90 24 113 50zM538 -209c-39 2 -80 3 -118 3c-40 0 -80 0 -116 -3v18c53 4 81 22 81 89v166c-21 -34 -66 -71 -140 -71c-113 0 -200 77 -200 239c0 166 100 260 224 260
c76 0 106 -24 128 -42c12 21 45 40 72 49l9 -4c-9 -31 -11 -89 -11 -136v-463c0 -55 17 -84 71 -87v-18z" />
    <glyph glyph-name="question" unicode="?" horiz-adv-x="444" 
d="M207 199l-27 -13c-20 29 -36 67 -36 94c0 55 31 85 100 137c49 37 77 74 77 124c0 60 -35 97 -91 97c-69 0 -99 -45 -99 -131l-7 -3c-50 9 -66 36 -66 62c0 56 51 114 176 114c105 0 175 -59 175 -143c0 -71 -24 -114 -132 -191c-39 -28 -82 -53 -82 -99
c0 -15 5 -35 12 -48zM251 49c0 -35 -26 -60 -60 -60c-35 0 -61 26 -61 61c0 33 27 60 61 60s60 -26 60 -61z" />
    <glyph glyph-name="questiondown" unicode="&#xbf;" horiz-adv-x="444" 
d="M236 286l28 13c20 -29 35 -67 35 -94c0 -55 -31 -85 -99 -137c-50 -37 -78 -74 -78 -124c0 -60 35 -97 91 -97c70 0 99 45 99 131l8 3c50 -9 66 -36 66 -62c0 -56 -51 -114 -176 -114c-105 0 -176 59 -176 143c0 71 25 117 134 191c41 28 81 55 81 99c0 15 -6 35 -13 48z
M193 436c0 35 26 60 60 60c35 0 60 -26 60 -61c0 -33 -26 -60 -60 -60s-60 26 -60 61z" />
    <glyph glyph-name="quotedbl" unicode="&#x22;" horiz-adv-x="324" 
d="M95 434h-26c-10 80 -29 204 -29 221c0 24 9 46 44 46c33 0 45 -15 45 -45c0 -19 -23 -142 -34 -222zM249 434h-26c-9 80 -28 204 -28 221c0 24 8 46 44 46c33 0 44 -15 44 -45c0 -19 -22 -142 -34 -222z" />
    <glyph glyph-name="quotedblbase" unicode="&#x201e;" horiz-adv-x="360" 
d="M157 54c0 -71 -49 -137 -126 -182l-13 17c44 33 70 67 70 105c0 16 -8 29 -20 39c-16 12 -28 24 -28 47c0 27 22 50 54 50c38 0 63 -25 63 -76zM318 54c0 -71 -49 -137 -126 -182l-13 17c44 33 70 67 70 105c0 16 -8 29 -20 39c-16 12 -28 24 -28 47c0 27 22 50 54 50
c38 0 63 -25 63 -76z" />
    <glyph glyph-name="quotedblleft" unicode="&#x201c;" horiz-adv-x="360" 
d="M203 521c0 71 49 137 127 182l13 -16c-44 -33 -70 -68 -70 -106c0 -15 7 -29 20 -38c16 -13 27 -25 27 -48c0 -27 -22 -50 -53 -50c-39 0 -64 26 -64 76zM42 521c0 71 49 137 127 182l13 -16c-44 -33 -70 -68 -70 -106c0 -15 8 -29 20 -38c16 -13 27 -25 27 -48
c0 -27 -22 -50 -53 -50c-39 0 -64 26 -64 76z" />
    <glyph glyph-name="quotedblright" unicode="&#x201d;" horiz-adv-x="360" 
d="M157 613c0 -71 -49 -136 -126 -181l-13 16c44 33 70 67 70 106c0 15 -8 29 -20 38c-16 12 -28 25 -28 48c0 27 22 50 54 50c38 0 63 -26 63 -77zM318 613c0 -71 -49 -136 -126 -181l-13 16c44 33 70 67 70 106c0 15 -8 29 -20 38c-16 12 -28 25 -28 48c0 27 22 50 54 50
c38 0 63 -26 63 -77z" />
    <glyph glyph-name="quoteleft" unicode="&#x2018;" horiz-adv-x="200" 
d="M42 521c0 71 49 137 127 182l13 -16c-44 -33 -70 -68 -70 -106c0 -15 8 -29 20 -38c16 -13 27 -25 27 -48c0 -27 -22 -50 -53 -50c-39 0 -64 26 -64 76z" />
    <glyph glyph-name="quoteright" unicode="&#x2019;" horiz-adv-x="200" 
d="M157 613c0 -71 -49 -136 -126 -181l-13 16c44 33 70 67 70 106c0 15 -8 29 -20 38c-16 12 -28 25 -28 48c0 27 22 50 54 50c38 0 63 -26 63 -77z" />
    <glyph glyph-name="quotesinglbase" unicode="&#x201a;" horiz-adv-x="200" 
d="M157 54c0 -71 -49 -137 -126 -182l-13 17c44 33 70 67 70 105c0 16 -8 29 -20 39c-16 12 -28 24 -28 47c0 27 22 50 54 50c38 0 63 -25 63 -76z" />
    <glyph glyph-name="quotesingle" unicode="'" horiz-adv-x="169" 
d="M95 434h-26c-10 80 -29 204 -29 221c0 24 9 46 44 46c33 0 45 -15 45 -45c0 -19 -23 -142 -34 -222z" />
    <glyph glyph-name="r" unicode="r" horiz-adv-x="380" 
d="M271 -1c-39 2 -80 3 -117 3c-40 0 -76 -1 -105 -3v18c51 3 61 33 61 92v196c0 94 -14 127 -77 127v10c28 25 58 46 94 46c32 0 61 -16 63 -91c17 39 66 94 126 94c32 0 55 -19 55 -48c0 -26 -17 -52 -43 -69l-5 2c-7 21 -22 37 -48 37c-25 0 -64 -16 -83 -47v-266
c0 -48 13 -81 79 -83v-18z" />
    <glyph glyph-name="racute" unicode="&#x155;" horiz-adv-x="380" 
d="M271 -1c-39 2 -80 3 -117 3c-40 0 -76 -1 -105 -3v18c51 3 61 33 61 92v196c0 94 -14 127 -77 127v10c28 25 58 46 94 46c32 0 61 -16 63 -91c17 39 66 94 126 94c32 0 55 -19 55 -48c0 -26 -17 -52 -43 -69l-5 2c-7 21 -22 37 -48 37c-25 0 -64 -16 -83 -47v-266
c0 -48 13 -81 79 -83v-18zM170 532l-12 11c43 58 89 131 121 195l73 -44c-40 -49 -133 -129 -182 -162z" />
    <glyph glyph-name="radical" unicode="&#x221a;" horiz-adv-x="652" 
d="M184 227l141 -297l236 749h63l-281 -832h-64l-159 315l-58 -29l-12 28z" />
    <glyph glyph-name="rcaron" unicode="&#x159;" horiz-adv-x="380" 
d="M271 -1c-39 2 -80 3 -117 3c-40 0 -76 -1 -105 -3v18c51 3 61 33 61 92v196c0 94 -14 127 -77 127v10c28 25 58 46 94 46c32 0 61 -16 63 -91c17 39 66 94 126 94c32 0 55 -19 55 -48c0 -26 -17 -52 -43 -69l-5 2c-7 21 -22 37 -48 37c-25 0 -64 -16 -83 -47v-266
c0 -48 13 -81 79 -83v-18zM50 710l13 13c42 -27 93 -64 127 -87c41 29 89 63 126 87l12 -13c-29 -34 -88 -103 -133 -163h-10c-42 52 -95 116 -135 163z" />
    <glyph glyph-name="rcommaaccent" unicode="&#x157;" horiz-adv-x="380" 
d="M271 -1c-39 2 -80 3 -117 3c-40 0 -76 -1 -105 -3v18c51 3 61 33 61 92v196c0 94 -14 127 -77 127v10c28 25 58 46 94 46c32 0 61 -16 63 -91c17 39 66 94 126 94c32 0 55 -19 55 -48c0 -26 -17 -52 -43 -69l-5 2c-7 21 -22 37 -48 37c-25 0 -64 -16 -83 -47v-266
c0 -48 13 -81 79 -83v-18zM211 -109c0 -58 -43 -109 -112 -142l-10 17c41 27 60 46 60 75c0 10 -6 19 -17 27c-15 11 -22 24 -22 42c0 23 19 43 47 43c34 0 54 -22 54 -62z" />
    <glyph glyph-name="registered" unicode="&#xae;" horiz-adv-x="797" 
d="M755 334c0 -210 -155 -346 -356 -346c-202 0 -356 136 -356 346c0 207 160 346 356 346s356 -139 356 -346zM709 333c0 193 -138 310 -310 310c-174 0 -311 -117 -311 -310c0 -191 137 -310 311 -310c172 0 310 119 310 310zM396 132c-21 1 -60 1 -82 1
c-24 0 -65 0 -89 -1v18c43 1 51 23 51 59v273c0 34 -8 48 -50 50v17c22 -1 64 -1 87 -1s62 1 85 1c104 0 154 -38 154 -105c0 -46 -26 -94 -113 -113c25 -3 39 -21 51 -40c15 -24 28 -49 43 -74c16 -27 27 -38 36 -46c9 -7 23 -12 42 -12l2 -7c-14 -16 -36 -24 -53 -24
c-39 0 -61 14 -85 59c-24 44 -51 102 -66 118c-12 12 -23 14 -37 15c-9 0 -19 0 -31 1v-109c0 -39 5 -61 55 -62v-18zM341 355c11 -1 22 -1 32 -1c92 0 106 40 106 86c0 52 -33 75 -94 75h-44v-160z" />
    <glyph glyph-name="ring" unicode="&#x2da;" horiz-adv-x="330" 
d="M261 645c0 -54 -39 -95 -97 -95c-55 0 -95 41 -95 95s40 96 95 96c58 0 97 -42 97 -96zM222 644c0 38 -22 64 -58 64c-33 0 -57 -26 -57 -64c0 -34 24 -61 57 -61c36 0 58 26 58 61z" />
    <glyph glyph-name="ring.cap" horiz-adv-x="330" 
d="M261 788c0 -54 -39 -95 -97 -95c-55 0 -95 41 -95 95s40 97 95 97c58 0 97 -43 97 -97zM222 787c0 39 -22 65 -58 65c-33 0 -57 -26 -57 -65c0 -34 24 -60 57 -60c36 0 58 25 58 60z" />
    <glyph glyph-name="s" unicode="s" horiz-adv-x="437" 
d="M102 141l7 -4c0 -81 57 -111 118 -111c54 0 105 26 105 84c0 44 -36 69 -87 87l-61 21c-79 27 -120 66 -120 135c0 90 81 141 177 141c110 0 144 -46 144 -84c0 -19 -11 -37 -55 -50l-7 3c0 70 -40 92 -92 92c-49 0 -96 -22 -96 -76c0 -38 24 -65 79 -83l60 -20
c100 -34 131 -78 131 -138c0 -92 -74 -151 -197 -151c-118 0 -165 58 -165 99c0 27 18 44 59 55z" />
    <glyph glyph-name="s_p" horiz-adv-x="993" 
d="M691 -209c-39 2 -88 3 -125 3c-39 0 -75 0 -112 -3v18c55 4 72 27 72 91v630c0 52 -4 99 -18 121c-16 26 -50 41 -91 41c-72 0 -122 -29 -122 -106c0 -55 25 -92 45 -113c33 -16 45 -41 45 -63c0 -19 -11 -37 -55 -50l-7 3c0 70 -40 92 -92 92c-49 0 -96 -22 -96 -76
c0 -38 24 -65 79 -83l60 -20c100 -34 131 -78 131 -138c0 -92 -74 -151 -197 -151c-118 0 -165 58 -165 99c0 27 18 44 59 55l7 -4c0 -81 57 -111 118 -111c57 0 105 25 105 84c0 44 -36 69 -87 87l-61 21c-79 27 -120 66 -120 135c0 90 81 141 177 141c23 0 41 -3 58 -7
c-35 27 -57 73 -57 109c0 114 88 154 180 154c34 0 73 -9 98 -25c17 10 43 18 55 18c20 0 30 -6 33 -40c1 -13 1 -39 1 -63c0 -19 -1 -189 -1 -223c38 47 89 75 149 75c94 0 191 -56 191 -244c0 -159 -85 -253 -217 -253c-51 0 -90 12 -123 37v-135c0 -63 21 -84 83 -88v-18
zM608 75c32 -24 74 -32 112 -32c72 0 136 55 136 193c0 152 -61 196 -125 196c-40 0 -86 -11 -123 -50v-307z" />
    <glyph glyph-name="s_t" unicode="&#xfb06;" horiz-adv-x="748" 
d="M749 50c-26 -34 -67 -60 -112 -60c-57 0 -92 20 -106 75c-4 17 -6 41 -6 65v306h-71v25c89 11 126 66 126 115c0 96 -67 115 -132 115c-74 0 -129 -42 -129 -121c0 -48 16 -80 32 -102c25 -16 34 -38 34 -58c0 -19 -11 -37 -55 -50l-7 3c0 70 -40 92 -92 92
c-49 0 -96 -22 -96 -76c0 -38 24 -65 79 -83l60 -20c100 -34 131 -78 131 -138c0 -91 -73 -151 -197 -151c-118 0 -165 58 -165 99c0 27 18 44 59 55l7 -4c0 -81 57 -111 118 -111c52 0 105 24 105 84c0 44 -36 69 -87 87l-61 21c-79 27 -120 66 -120 135
c0 90 81 141 177 141c27 0 50 -4 68 -9c-24 28 -42 60 -42 101c0 121 95 163 185 163s174 -39 174 -168c0 -38 -9 -71 -18 -102h117v-43h-117v-285c0 -24 2 -43 5 -58c9 -38 31 -48 64 -48c20 0 45 5 66 14z" />
    <glyph glyph-name="sacute" unicode="&#x15b;" horiz-adv-x="437" 
d="M102 141l7 -4c0 -81 57 -111 118 -111c54 0 105 26 105 84c0 44 -36 69 -87 87l-61 21c-79 27 -120 66 -120 135c0 90 81 141 177 141c110 0 144 -46 144 -84c0 -19 -11 -37 -55 -50l-7 3c0 70 -40 92 -92 92c-49 0 -96 -22 -96 -76c0 -38 24 -65 79 -83l60 -20
c100 -34 131 -78 131 -138c0 -92 -74 -151 -197 -151c-118 0 -165 58 -165 99c0 27 18 44 59 55zM185 532l-12 11c43 58 89 131 121 195l73 -44c-40 -49 -133 -129 -182 -162z" />
    <glyph glyph-name="scaron" unicode="&#x161;" horiz-adv-x="437" 
d="M102 141l7 -4c0 -81 57 -111 118 -111c54 0 105 26 105 84c0 44 -36 69 -87 87l-61 21c-79 27 -120 66 -120 135c0 90 81 141 177 141c110 0 144 -46 144 -84c0 -19 -11 -37 -55 -50l-7 3c0 70 -40 92 -92 92c-49 0 -96 -22 -96 -76c0 -38 24 -65 79 -83l60 -20
c100 -34 131 -78 131 -138c0 -92 -74 -151 -197 -151c-118 0 -165 58 -165 99c0 27 18 44 59 55zM88 710l13 13c42 -27 93 -64 127 -87c41 29 89 63 126 87l12 -13c-29 -34 -88 -103 -133 -163h-10c-42 52 -95 116 -135 163z" />
    <glyph glyph-name="scedilla" unicode="&#x15f;" horiz-adv-x="437" 
d="M167 -220l-2 19c55 9 79 32 79 57c0 18 -6 31 -33 50c-15 11 -24 23 -24 36s5 26 16 45c-114 2 -160 58 -160 99c0 27 18 44 59 55l7 -4c0 -81 57 -111 118 -111c62 0 105 27 105 84c0 44 -36 69 -87 87l-61 21c-79 27 -120 66 -120 135c0 90 81 141 177 141
c110 0 144 -46 144 -84c0 -19 -11 -37 -55 -50l-7 3c0 70 -40 92 -92 92c-49 0 -96 -22 -96 -76c0 -38 24 -65 79 -83l60 -20c100 -34 131 -78 131 -138c0 -87 -62 -144 -177 -150c-3 -8 -3 -14 -3 -18c0 -10 5 -18 17 -25c10 -6 24 -12 40 -24c19 -14 26 -31 26 -51
c0 -55 -68 -90 -141 -90z" />
    <glyph glyph-name="scircumflex" unicode="&#x15d;" horiz-adv-x="437" 
d="M102 141l7 -4c0 -81 57 -111 118 -111c54 0 105 26 105 84c0 44 -36 69 -87 87l-61 21c-79 27 -120 66 -120 135c0 90 81 141 177 141c110 0 144 -46 144 -84c0 -19 -11 -37 -55 -50l-7 3c0 70 -40 92 -92 92c-49 0 -96 -22 -96 -76c0 -38 24 -65 79 -83l60 -20
c100 -34 131 -78 131 -138c0 -92 -74 -151 -197 -151c-118 0 -165 58 -165 99c0 27 18 44 59 55zM375 557l-12 -12c-42 27 -93 64 -127 87c-41 -30 -89 -62 -126 -87l-11 12c29 32 88 104 132 164h10c41 -52 91 -114 134 -164z" />
    <glyph glyph-name="section" unicode="&#xa7;" horiz-adv-x="484" 
d="M229 -177c-115 0 -170 60 -170 102c0 27 22 50 64 59l8 -4c1 -83 45 -119 105 -119s100 39 100 83c0 37 -17 71 -101 141l-91 76c-86 73 -102 118 -102 159c0 66 42 111 109 139c-47 44 -56 78 -56 115c0 71 65 141 178 141c109 0 151 -54 151 -95c0 -21 -17 -45 -62 -56
l-7 4c-3 69 -32 110 -92 110c-52 0 -92 -30 -92 -81c0 -37 17 -69 75 -112l78 -58c104 -77 132 -122 132 -175c0 -68 -41 -113 -113 -148c59 -54 69 -92 69 -129c0 -78 -68 -152 -183 -152zM318 126c46 27 62 67 62 97c0 28 -12 60 -84 116l-67 53c-19 15 -39 30 -55 45
c-37 -19 -56 -51 -56 -86c0 -33 21 -71 72 -113l55 -47c22 -19 46 -39 73 -65z" />
    <glyph glyph-name="semicolon" unicode=";" horiz-adv-x="271" 
d="M206 419c0 -35 -26 -60 -60 -60c-35 0 -61 26 -61 61c0 34 27 61 61 61s60 -26 60 -62zM207 34c0 -77 -53 -147 -136 -194l-14 17c47 36 75 73 75 114c0 16 -9 31 -22 41c-18 12 -30 26 -30 50c0 28 24 53 58 53c41 0 69 -27 69 -81z" />
    <glyph glyph-name="seven" unicode="7" horiz-adv-x="547" 
d="M269 12c-18 -16 -35 -24 -59 -24c-27 0 -49 20 -49 56c0 46 18 97 51 163c54 112 120 221 195 349h-343v75h410v-54c-82 -145 -139 -252 -206 -409c-18 -43 -22 -78 -22 -101c0 -19 7 -38 22 -48z" />
    <glyph glyph-name="seven.denominator" 
d="M182 9c-10 -9 -22 -16 -38 -16c-22 0 -36 13 -36 38c0 30 9 58 31 98c37 66 73 121 130 204h-220v53h264v-45c-53 -84 -96 -154 -132 -237c-12 -26 -14 -45 -14 -60c0 -11 6 -24 14 -30z" />
    <glyph glyph-name="seven.fitted" horiz-adv-x="482" 
d="M233 12c-17 -16 -35 -24 -58 -24c-27 0 -49 20 -49 56c0 46 18 96 50 163c54 111 117 220 193 349h-339v75h406v-54c-82 -145 -139 -253 -204 -410c-18 -43 -22 -78 -22 -101c0 -19 7 -37 22 -47z" />
    <glyph glyph-name="seven.inferior" unicode="&#x2087;" 
d="M182 -151c-10 -9 -22 -16 -38 -16c-22 0 -36 13 -36 38c0 30 9 58 31 98c37 66 73 121 130 204h-220v53h264v-45c-53 -84 -96 -154 -132 -237c-12 -26 -14 -45 -14 -60c0 -11 6 -24 14 -30z" />
    <glyph glyph-name="seven.numerator" 
d="M182 255c-10 -9 -22 -16 -38 -16c-22 0 -36 13 -36 38c0 30 9 58 31 98c37 66 73 121 130 204h-220v53h264v-45c-53 -84 -96 -154 -132 -237c-12 -26 -14 -45 -14 -60c0 -11 6 -24 14 -30z" />
    <glyph glyph-name="seven.oldstyle" horiz-adv-x="450" 
d="M219 -108c-16 -16 -33 -24 -55 -24c-25 0 -46 20 -46 56c0 46 14 95 46 161c53 112 112 222 185 351h-324v74h387v-54c-78 -145 -131 -253 -194 -410c-17 -44 -21 -77 -21 -100c0 -19 7 -37 21 -47z" />
    <glyph glyph-name="seven.superior" unicode="&#x2077;" 
d="M182 469c-10 -9 -22 -16 -38 -16c-22 0 -36 13 -36 38c0 30 9 58 31 98c37 66 73 121 130 204h-220v53h264v-45c-53 -84 -96 -154 -132 -237c-12 -26 -14 -45 -14 -60c0 -11 6 -24 14 -30z" />
    <glyph glyph-name="seven.taboldstyle" horiz-adv-x="528" 
d="M263 -108c-16 -16 -33 -24 -55 -24c-25 0 -46 20 -46 56c0 46 14 95 46 161c53 112 113 222 185 351h-324v74h387v-54c-78 -145 -131 -253 -194 -410c-17 -44 -21 -77 -21 -100c0 -19 7 -37 21 -47z" />
    <glyph glyph-name="seveneighths" unicode="&#x215e;" horiz-adv-x="848" 
d="M604 658l-377 -677h-50l377 677h50zM211 255c-10 -9 -22 -16 -38 -16c-22 0 -36 13 -36 38c0 30 9 58 31 98c37 66 73 121 130 204h-220v53h264v-45c-53 -84 -96 -154 -132 -237c-12 -26 -14 -45 -14 -60c0 -11 6 -24 14 -30zM689 214c53 -22 92 -52 92 -108
c0 -69 -59 -114 -143 -114c-94 0 -135 47 -135 103c0 48 31 77 83 102c-38 21 -67 46 -67 94c0 59 51 105 126 105c78 0 118 -40 118 -92c0 -45 -35 -71 -74 -90zM607 186c-36 -26 -55 -52 -55 -88c0 -49 36 -76 87 -76c47 0 83 26 83 68c0 43 -31 65 -115 96zM668 224
c29 19 49 44 49 78c0 40 -29 65 -72 65s-69 -27 -69 -62c0 -34 18 -55 92 -81z" />
    <glyph glyph-name="six" unicode="6" horiz-adv-x="547" 
d="M417 490c0 68 -20 119 -98 119c-108 0 -160 -113 -168 -288c27 33 88 68 156 68c118 0 193 -70 193 -189c0 -121 -82 -213 -215 -213c-178 0 -226 134 -226 296c0 152 58 366 266 366c122 0 164 -53 164 -105c0 -27 -25 -51 -65 -58zM150 289c0 -9 -1 -30 -1 -40
c0 -111 27 -222 139 -222c69 0 123 46 123 172c0 101 -65 138 -128 138c-47 0 -96 -17 -133 -48z" />
    <glyph glyph-name="six.denominator" 
d="M275 294c0 41 -13 72 -60 72c-67 0 -99 -57 -105 -165c16 18 54 40 98 40c84 0 126 -44 126 -118s-55 -131 -141 -131c-116 0 -147 86 -147 181c0 89 33 223 171 223c72 0 108 -31 108 -68c0 -18 -13 -32 -46 -37zM110 177c0 -6 -1 -21 -1 -27c0 -65 21 -129 87 -129
c40 0 75 23 75 100c0 66 -41 84 -79 84c-29 0 -59 -10 -82 -28z" />
    <glyph glyph-name="six.fitted" horiz-adv-x="558" 
d="M427 490c0 68 -19 119 -97 119c-109 0 -160 -113 -168 -288c26 33 88 68 155 68c118 0 193 -70 193 -189c0 -121 -82 -213 -215 -213c-177 0 -225 134 -225 296c0 152 58 366 265 366c123 0 164 -53 164 -105c0 -27 -25 -51 -65 -58zM161 289c0 -9 -1 -30 -1 -40
c0 -111 26 -222 138 -222c69 0 124 46 124 172c0 101 -66 138 -128 138c-48 0 -97 -17 -133 -48z" />
    <glyph glyph-name="six.inferior" unicode="&#x2086;" 
d="M275 134c0 41 -13 72 -60 72c-67 0 -99 -57 -105 -165c16 18 54 40 98 40c84 0 126 -44 126 -118s-55 -131 -141 -131c-116 0 -147 86 -147 181c0 89 33 223 171 223c72 0 108 -31 108 -68c0 -18 -13 -32 -46 -37zM110 17c0 -6 -1 -21 -1 -27c0 -65 21 -129 87 -129
c40 0 75 23 75 100c0 66 -41 84 -79 84c-29 0 -59 -10 -82 -28z" />
    <glyph glyph-name="six.numerator" 
d="M275 540c0 41 -13 72 -60 72c-67 0 -99 -57 -105 -165c16 18 54 40 98 40c84 0 126 -44 126 -118s-55 -131 -141 -131c-116 0 -147 86 -147 181c0 89 33 223 171 223c72 0 108 -31 108 -68c0 -18 -13 -32 -46 -37zM110 423c0 -6 -1 -21 -1 -27c0 -65 21 -129 87 -129
c40 0 75 23 75 100c0 66 -41 84 -79 84c-29 0 -59 -10 -82 -28z" />
    <glyph glyph-name="six.oldstyle" horiz-adv-x="531" 
d="M402 490c0 68 -19 120 -94 120c-104 0 -152 -112 -159 -289c25 33 82 67 147 67c114 0 186 -69 186 -188c0 -121 -79 -213 -207 -213c-170 0 -216 134 -216 296c0 152 56 366 254 366c120 0 159 -53 159 -105c0 -27 -25 -51 -64 -58zM148 289c0 -9 -1 -30 -1 -40
c0 -111 24 -223 131 -223c66 0 119 47 119 173c0 101 -63 139 -123 139c-46 0 -91 -18 -126 -49z" />
    <glyph glyph-name="six.superior" unicode="&#x2076;" 
d="M275 754c0 41 -13 72 -60 72c-67 0 -99 -57 -105 -165c16 18 54 40 98 40c84 0 126 -44 126 -118s-55 -131 -141 -131c-116 0 -147 86 -147 181c0 89 33 223 171 223c72 0 108 -31 108 -68c0 -18 -13 -32 -46 -37zM110 637c0 -6 -1 -21 -1 -27c0 -65 21 -129 87 -129
c40 0 75 23 75 100c0 66 -41 84 -79 84c-29 0 -59 -10 -82 -28z" />
    <glyph glyph-name="six.taboldstyle" horiz-adv-x="528" 
d="M401 490c0 68 -19 120 -94 120c-104 0 -152 -112 -160 -289c26 33 83 67 148 67c114 0 186 -69 186 -188c0 -121 -79 -213 -207 -213c-170 0 -216 134 -216 296c0 152 55 366 254 366c119 0 159 -53 159 -105c0 -27 -25 -51 -64 -58zM146 289c0 -9 -1 -30 -1 -40
c0 -111 25 -223 132 -223c66 0 119 47 119 173c0 101 -63 139 -124 139c-45 0 -90 -18 -126 -49z" />
    <glyph glyph-name="slash" unicode="/" horiz-adv-x="357" 
d="M335 738l-268 -853h-61l268 853h61z" />
    <glyph glyph-name="space" unicode=" " horiz-adv-x="223" 
 />
    <glyph glyph-name="sterling" unicode="&#xa3;" horiz-adv-x="572" 
d="M522 -1c-33 1 -161 2 -237 2c-102 0 -201 0 -256 -2v67c19 2 38 4 51 9c47 17 91 78 91 188h-101v47h100c-3 38 -11 122 -11 158c0 121 94 181 209 181c130 0 171 -56 171 -112c0 -31 -24 -51 -70 -60l-7 4c-1 89 -35 130 -98 130c-85 0 -117 -50 -117 -133
c0 -27 8 -122 10 -168h146v-47h-147c-4 -64 -30 -143 -117 -191c46 2 203 3 383 4v-77z" />
    <glyph glyph-name="sterling.denominator" horiz-adv-x="368" 
d="M335 -1c-21 1 -108 2 -156 2c-65 0 -118 0 -153 -2v46c13 1 26 3 34 5c33 9 54 39 54 108h-63v32h62c-2 25 -8 65 -8 93c0 74 57 113 136 113c80 0 102 -36 102 -65c0 -18 -14 -35 -45 -42l-5 3c-1 48 -18 74 -56 74c-46 0 -71 -22 -71 -73c0 -20 5 -75 7 -103h91v-32
h-92c-3 -47 -20 -79 -69 -109c30 1 117 2 232 2v-52z" />
    <glyph glyph-name="sterling.inferior" horiz-adv-x="368" 
d="M335 -161c-21 1 -108 2 -156 2c-65 0 -118 0 -153 -2v46c13 1 26 3 34 5c33 9 54 39 54 108h-63v32h62c-2 25 -8 65 -8 93c0 74 57 113 136 113c80 0 102 -36 102 -65c0 -18 -14 -35 -45 -42l-5 3c-1 48 -18 74 -56 74c-46 0 -71 -22 -71 -73c0 -20 5 -75 7 -103h91v-32
h-92c-3 -47 -20 -79 -69 -109c30 1 117 2 232 2v-52z" />
    <glyph glyph-name="sterling.numerator" horiz-adv-x="368" 
d="M335 245c-21 1 -108 2 -156 2c-65 0 -118 0 -153 -2v46c13 1 26 3 34 5c33 9 54 39 54 108h-63v32h62c-2 25 -8 65 -8 93c0 74 57 113 136 113c80 0 102 -36 102 -65c0 -18 -14 -35 -45 -42l-5 3c-1 48 -18 74 -56 74c-46 0 -71 -22 -71 -73c0 -20 5 -75 7 -103h91v-32
h-92c-3 -47 -20 -79 -69 -109c30 1 117 2 232 2v-52z" />
    <glyph glyph-name="sterling.oldstyle" horiz-adv-x="554" 
d="M510 -1c-31 1 -159 2 -232 2c-99 0 -195 0 -248 -2v64c18 2 37 5 49 9c47 14 89 71 89 173h-98v46h97c-3 36 -11 111 -11 145c0 113 92 169 204 169c126 0 167 -56 167 -108c0 -29 -23 -48 -67 -56l-6 4c-1 83 -37 121 -98 121c-83 0 -115 -48 -115 -125
c0 -25 8 -107 9 -150h147v-46h-147c-4 -60 -29 -131 -113 -176c44 2 200 3 373 4v-74z" />
    <glyph glyph-name="sterling.superior" horiz-adv-x="368" 
d="M335 459c-21 1 -108 2 -156 2c-65 0 -118 0 -153 -2v46c13 1 26 3 34 5c33 9 54 39 54 108h-63v32h62c-2 25 -8 65 -8 93c0 74 57 113 136 113c80 0 102 -36 102 -65c0 -18 -14 -35 -45 -42l-5 3c-1 48 -18 74 -56 74c-46 0 -71 -22 -71 -73c0 -20 5 -75 7 -103h91v-32
h-92c-3 -47 -20 -79 -69 -109c30 1 117 2 232 2v-52z" />
    <glyph glyph-name="summation" unicode="&#x2211;" horiz-adv-x="548" 
d="M511 -121c-47 0 -151 2 -215 2c-55 0 -221 -1 -290 -2v21l265 368l-234 379v22c69 -1 178 -1 234 -1c65 0 132 0 214 1c3 -48 7 -104 11 -151h-21c-22 97 -53 103 -181 103h-141l202 -323l-246 -341h217c128 0 159 2 182 99h23c-7 -48 -16 -128 -20 -177z" />
    <glyph glyph-name="t" unicode="t" horiz-adv-x="323" 
d="M323 50c-26 -34 -67 -60 -112 -60c-56 0 -92 20 -105 75c-4 17 -5 41 -5 65v305h-71v25c60 14 94 30 128 140h26v-121h116v-44h-117v-284c0 -24 2 -43 5 -58c8 -38 31 -48 64 -48c21 0 44 6 65 13z" />
    <glyph glyph-name="tbar" unicode="&#x167;" horiz-adv-x="323" 
d="M295 281h-112v-130c0 -24 2 -43 5 -58c8 -38 31 -48 64 -48c21 0 44 6 65 13l7 -8c-26 -34 -68 -60 -113 -60c-56 0 -92 20 -105 75c-4 17 -5 41 -5 65v151h-67v40h67v115h-71v24c60 14 94 30 128 140h26v-121h116v-43h-117v-115h112v-40z" />
    <glyph glyph-name="tcaron" unicode="&#x165;" horiz-adv-x="323" 
d="M323 50c-26 -34 -67 -60 -112 -60c-56 0 -92 20 -105 75c-4 17 -5 41 -5 65v305h-71v25c60 14 94 30 128 140h26v-121h116v-44h-117v-284c0 -24 2 -43 5 -58c8 -38 31 -48 64 -48c21 0 44 6 65 13zM340 666c0 -59 -44 -110 -113 -144l-11 17c41 27 60 47 60 76
c0 11 -5 20 -16 28c-15 11 -23 24 -23 42c0 23 20 44 48 44c34 0 55 -22 55 -63z" />
    <glyph glyph-name="thorn" unicode="&#xfe;" horiz-adv-x="570" 
d="M258 -209c-40 2 -88 3 -126 3c-39 0 -73 0 -110 -3v18c55 4 70 27 70 91v688c0 73 -9 100 -75 101v10c22 19 68 50 105 50s53 -16 53 -101c0 -50 -1 -193 -1 -230c38 46 90 74 149 74c95 0 191 -56 191 -244c0 -159 -85 -253 -217 -253c-50 0 -90 12 -122 37v-135
c0 -63 20 -84 83 -88v-18zM174 75c32 -24 75 -32 112 -32c72 0 136 55 136 193c0 152 -61 196 -124 196c-40 0 -87 -11 -124 -50v-307z" />
    <glyph glyph-name="three" unicode="3" horiz-adv-x="547" 
d="M317 338c106 -13 162 -68 162 -153c0 -126 -93 -198 -240 -198c-124 0 -196 55 -196 111c0 29 21 57 65 66l7 -4c0 -84 53 -133 129 -133c111 0 144 63 144 158s-63 130 -159 130c-15 0 -32 -1 -43 -2v37c10 -1 22 -2 43 -2c83 0 132 44 132 144c0 61 -23 117 -112 117
c-74 0 -109 -48 -109 -132l-7 -3c-41 9 -61 31 -61 59c0 52 67 116 183 116c131 0 195 -62 195 -154c0 -72 -38 -133 -133 -157z" />
    <glyph glyph-name="three.denominator" 
d="M214 206c65 -10 103 -40 103 -92c0 -77 -62 -122 -158 -122c-77 0 -124 32 -124 68c0 24 17 40 43 46l5 -2c0 -49 30 -83 80 -83c67 0 92 34 92 92s-40 76 -102 76c-10 0 -21 0 -28 -1v29c6 -1 14 -1 28 -1c55 0 85 23 85 84c0 32 -14 66 -74 66c-47 0 -68 -32 -68 -80
l-5 -2c-27 5 -41 17 -41 40c0 32 43 72 120 72c86 0 129 -38 129 -95c0 -49 -33 -83 -85 -95z" />
    <glyph glyph-name="three.fitted" horiz-adv-x="529" 
d="M309 338c106 -13 162 -68 162 -153c0 -126 -93 -198 -240 -198c-124 0 -196 55 -196 111c0 29 21 57 65 66l7 -4c0 -84 53 -133 129 -133c111 0 145 63 145 158s-64 130 -160 130c-15 0 -32 -1 -43 -2v37c10 -1 22 -2 43 -2c84 0 134 44 134 144c0 61 -25 117 -114 117
c-74 0 -109 -48 -109 -132l-7 -3c-41 9 -61 31 -61 59c0 52 67 116 184 116c130 0 194 -62 194 -154c0 -72 -38 -133 -133 -157z" />
    </font>
</defs>
</svg>
